{
	"asset":{
		"generator":"Khronos glTF Blender I/O v5.2.39",
		"version":"2.0"
	},
	"extensionsUsed":[
		"KHR_materials_transmission",
		"KHR_materials_emissive_strength",
		"KHR_materials_volume"
	],
	"scene":0,
	"scenes":[
		{
			"name":"Scene",
			"nodes":[
				0,
				1,
				2,
				3,
				4,
				5,
				6
			]
		}
	],
	"nodes":[
		{
			"camera":0,
			"name":"Camera",
			"rotation":[
				-0.16435036063194275,
				0.37657973170280457,
				0.06807614862918854,
				0.9091437458992004
			],
			"translation":[
				7.151200294494629,
				4.958309173583984,
				7.140042304992676
			]
		},
		{
			"mesh":0,
			"name":"GlassHurricaneCandleHolder-glass",
			"rotation":[
				0.6525523662567139,
				0.27235177159309387,
				-0.27235183119773865,
				0.6525522470474243
			],
			"scale":[
				7.5171966552734375,
				7.5171966552734375,
				7.517196178436279
			],
			"translation":[
				-0.6781019568443298,
				0.009373853914439678,
				0.6854270100593567
			]
		},
		{
			"mesh":1,
			"name":"GlassHurricaneCandleHolder-glass.001",
			"rotation":[
				0.27235183119773865,
				-0.6525522470474243,
				0.6525523662567139,
				0.27235177159309387
			],
			"scale":[
				7.5171966552734375,
				7.5171966552734375,
				7.517196178436279
			],
			"translation":[
				0.6781019568443298,
				0.009373853914439678,
				-0.6854270100593567
			]
		},
		{
			"mesh":2,
			"name":"GlassHurricaneCandleHolder-opaque",
			"rotation":[
				0,
				0.38516369462013245,
				0,
				0.9228482842445374
			],
			"scale":[
				7.5171966552734375,
				7.517196178436279,
				7.5171966552734375
			],
			"translation":[
				-0.6781018376350403,
				0.009373879060149193,
				0.6854271292686462
			]
		},
		{
			"mesh":3,
			"name":"GlassHurricaneCandleHolder-opaque.001",
			"rotation":[
				0,
				-0.9228483438491821,
				0,
				0.3851635456085205
			],
			"scale":[
				7.5171990394592285,
				7.517196178436279,
				7.5171990394592285
			],
			"translation":[
				0.6781018376350403,
				0.009373879060149193,
				-0.6854271292686462
			]
		},
		{
			"mesh":4,
			"name":"Plane",
			"scale":[
				31.932811737060547,
				137.50973510742188,
				31.932811737060547
			]
		},
		{
			"mesh":5,
			"name":"Plane.001",
			"rotation":[
				0.1943822056055069,
				0.35556042194366455,
				-0.07586143165826797,
				0.9110639095306396
			],
			"scale":[
				0.932896077632904,
				0.6737486124038696,
				0.6737486124038696
			],
			"translation":[
				1.2845518589019775,
				4.58100700378418,
				1.6011772155761719
			]
		}
	],
	"cameras":[
		{
			"name":"Camera",
			"perspective":{
				"aspectRatio":1.7777777777777777,
				"yfov":0.39959652046304894,
				"zfar":100,
				"znear":0.10000000149011612
			},
			"type":"perspective"
		}
	],
	"materials":[
		{
			"doubleSided":false,
			"extensions":{
				"KHR_materials_transmission":{
					"transmissionFactor":1
				},
				"KHR_materials_volume":{
					"thicknessFactor":0.10000000149011612,
					"thicknessTexture":{
						"index":0
					}
				}
			},
			"name":"GlassHurricaneCandleHolder-glass",
			"occlusionTexture":{
				"index":1
			},
			"pbrMetallicRoughness":{
				"baseColorTexture":{
					"index":2
				},
				"metallicRoughnessTexture":{
					"index":1
				}
			}
		},
		{
			"name":"GlassHurricaneCandleHolder-opaque",
			"occlusionTexture":{
				"index":3
			},
			"pbrMetallicRoughness":{
				"baseColorTexture":{
					"index":4
				},
				"metallicRoughnessTexture":{
					"index":3
				}
			}
		},
		{
			"doubleSided":true,
			"name":"Material.001",
			"pbrMetallicRoughness":{
				"baseColorTexture":{
					"index":5
				},
				"metallicFactor":0,
				"roughnessFactor":0.5
			}
		},
		{
			"doubleSided":true,
			"emissiveFactor":[
				1,
				1,
				1
			],
			"emissiveTexture":{
				"index":6
			},
			"extensions":{
				"KHR_materials_emissive_strength":{
					"emissiveStrength":51.19999694824219
				}
			},
			"name":"Material.003",
			"pbrMetallicRoughness":{
				"baseColorTexture":{
					"index":7
				},
				"metallicFactor":0,
				"roughnessFactor":0.5
			}
		}
	],
	"meshes":[
		{
			"name":"GlassHurricaneCandleHolder-glass",
			"primitives":[
				{
					"attributes":{
						"POSITION":0,
						"NORMAL":1,
						"TEXCOORD_0":2
					},
					"indices":3,
					"material":0
				}
			]
		},
		{
			"name":"GlassHurricaneCandleHolder-glass.001",
			"primitives":[
				{
					"attributes":{
						"POSITION":4,
						"NORMAL":5,
						"TEXCOORD_0":6
					},
					"indices":3,
					"material":0
				}
			]
		},
		{
			"name":"GlassHurricaneCandleHolder-opaque",
			"primitives":[
				{
					"attributes":{
						"POSITION":7,
						"NORMAL":8,
						"TEXCOORD_0":9
					},
					"indices":10,
					"material":1
				}
			]
		},
		{
			"name":"GlassHurricaneCandleHolder-opaque.001",
			"primitives":[
				{
					"attributes":{
						"POSITION":11,
						"NORMAL":12,
						"TEXCOORD_0":13
					},
					"indices":10,
					"material":1
				}
			]
		},
		{
			"name":"Plane",
			"primitives":[
				{
					"attributes":{
						"POSITION":14,
						"NORMAL":15,
						"TEXCOORD_0":16
					},
					"indices":17,
					"material":2
				}
			]
		},
		{
			"name":"Plane.001",
			"primitives":[
				{
					"attributes":{
						"POSITION":18,
						"NORMAL":19,
						"TEXCOORD_0":20
					},
					"indices":21,
					"material":3
				}
			]
		}
	],
	"textures":[
		{
			"sampler":0,
			"source":0
		},
		{
			"sampler":0,
			"source":1
		},
		{
			"sampler":0,
			"source":2
		},
		{
			"sampler":0,
			"source":1
		},
		{
			"sampler":0,
			"source":2
		},
		{
			"sampler":0,
			"source":3
		},
		{
			"sampler":0,
			"source":4
		},
		{
			"sampler":0,
			"source":4
		}
	],
	"images":[
		{
			"mimeType":"image/png",
			"name":"Image_2",
			"uri":"Image_2.png"
		},
		{
			"mimeType":"image/png",
			"name":"Image_0",
			"uri":"Image_0.png"
		},
		{
			"mimeType":"image/png",
			"name":"Image_1",
			"uri":"Image_1.png"
		},
		{
			"mimeType":"image/png",
			"name":"Image_0",
			"uri":"Image_0-2.png"
		},
		{
			"mimeType":"image/png",
			"name":"Untitled",
			"uri":"Untitled.png"
		}
	],
	"accessors":[
		{
			"bufferView":0,
			"componentType":5126,
			"count":1380,
			"max":[
				0.09516754001379013,
				0.09516747295856476,
				-0.09550225734710693
			],
			"min":[
				-0.09516754001379013,
				-0.09516752511262894,
				-0.30539724230766296
			],
			"type":"VEC3"
		},
		{
			"bufferView":1,
			"componentType":5126,
			"count":1380,
			"type":"VEC3"
		},
		{
			"bufferView":2,
			"componentType":5126,
			"count":1380,
			"type":"VEC2"
		},
		{
			"bufferView":3,
			"componentType":5123,
			"count":7296,
			"type":"SCALAR"
		},
		{
			"bufferView":4,
			"componentType":5126,
			"count":1380,
			"max":[
				0.09516754001379013,
				0.09516747295856476,
				-0.09550225734710693
			],
			"min":[
				-0.09516754001379013,
				-0.09516752511262894,
				-0.30539724230766296
			],
			"type":"VEC3"
		},
		{
			"bufferView":5,
			"componentType":5126,
			"count":1380,
			"type":"VEC3"
		},
		{
			"bufferView":6,
			"componentType":5126,
			"count":1380,
			"type":"VEC2"
		},
		{
			"bufferView":7,
			"componentType":5126,
			"count":1006,
			"max":[
				0.07078870385885239,
				0.29770931601524353,
				0.07078867405653
			],
			"min":[
				-0.07078870385885239,
				0,
				-0.07078872621059418
			],
			"type":"VEC3"
		},
		{
			"bufferView":8,
			"componentType":5126,
			"count":1006,
			"type":"VEC3"
		},
		{
			"bufferView":9,
			"componentType":5126,
			"count":1006,
			"type":"VEC2"
		},
		{
			"bufferView":10,
			"componentType":5123,
			"count":5082,
			"type":"SCALAR"
		},
		{
			"bufferView":11,
			"componentType":5126,
			"count":1006,
			"max":[
				0.07078870385885239,
				0.29770931601524353,
				0.07078867405653
			],
			"min":[
				-0.07078870385885239,
				0,
				-0.07078872621059418
			],
			"type":"VEC3"
		},
		{
			"bufferView":12,
			"componentType":5126,
			"count":1006,
			"type":"VEC3"
		},
		{
			"bufferView":13,
			"componentType":5126,
			"count":1006,
			"type":"VEC2"
		},
		{
			"bufferView":14,
			"componentType":5126,
			"count":4,
			"max":[
				1,
				0,
				1
			],
			"min":[
				-1,
				0,
				-1
			],
			"type":"VEC3"
		},
		{
			"bufferView":15,
			"componentType":5126,
			"count":4,
			"type":"VEC3"
		},
		{
			"bufferView":16,
			"componentType":5126,
			"count":4,
			"type":"VEC2"
		},
		{
			"bufferView":17,
			"componentType":5123,
			"count":6,
			"type":"SCALAR"
		},
		{
			"bufferView":18,
			"componentType":5126,
			"count":40,
			"max":[
				4.364428997039795,
				0,
				1.4933969974517822
			],
			"min":[
				-4.3644280433654785,
				0,
				-1.4933969974517822
			],
			"type":"VEC3"
		},
		{
			"bufferView":19,
			"componentType":5126,
			"count":40,
			"type":"VEC3"
		},
		{
			"bufferView":20,
			"componentType":5126,
			"count":40,
			"type":"VEC2"
		},
		{
			"bufferView":21,
			"componentType":5123,
			"count":60,
			"type":"SCALAR"
		}
	],
	"bufferViews":[
		{
			"buffer":0,
			"byteLength":16560,
			"byteOffset":0,
			"target":34962
		},
		{
			"buffer":0,
			"byteLength":16560,
			"byteOffset":16560,
			"target":34962
		},
		{
			"buffer":0,
			"byteLength":11040,
			"byteOffset":33120,
			"target":34962
		},
		{
			"buffer":0,
			"byteLength":14592,
			"byteOffset":44160,
			"target":34963
		},
		{
			"buffer":0,
			"byteLength":16560,
			"byteOffset":58752,
			"target":34962
		},
		{
			"buffer":0,
			"byteLength":16560,
			"byteOffset":75312,
			"target":34962
		},
		{
			"buffer":0,
			"byteLength":11040,
			"byteOffset":91872,
			"target":34962
		},
		{
			"buffer":0,
			"byteLength":12072,
			"byteOffset":102912,
			"target":34962
		},
		{
			"buffer":0,
			"byteLength":12072,
			"byteOffset":114984,
			"target":34962
		},
		{
			"buffer":0,
			"byteLength":8048,
			"byteOffset":127056,
			"target":34962
		},
		{
			"buffer":0,
			"byteLength":10164,
			"byteOffset":135104,
			"target":34963
		},
		{
			"buffer":0,
			"byteLength":12072,
			"byteOffset":145268,
			"target":34962
		},
		{
			"buffer":0,
			"byteLength":12072,
			"byteOffset":157340,
			"target":34962
		},
		{
			"buffer":0,
			"byteLength":8048,
			"byteOffset":169412,
			"target":34962
		},
		{
			"buffer":0,
			"byteLength":48,
			"byteOffset":177460,
			"target":34962
		},
		{
			"buffer":0,
			"byteLength":48,
			"byteOffset":177508,
			"target":34962
		},
		{
			"buffer":0,
			"byteLength":32,
			"byteOffset":177556,
			"target":34962
		},
		{
			"buffer":0,
			"byteLength":12,
			"byteOffset":177588,
			"target":34963
		},
		{
			"buffer":0,
			"byteLength":480,
			"byteOffset":177600,
			"target":34962
		},
		{
			"buffer":0,
			"byteLength":480,
			"byteOffset":178080,
			"target":34962
		},
		{
			"buffer":0,
			"byteLength":320,
			"byteOffset":178560,
			"target":34962
		},
		{
			"buffer":0,
			"byteLength":120,
			"byteOffset":178880,
			"target":34963
		}
	],
	"samplers":[
		{
			"magFilter":9729,
			"minFilter":9987
		}
	],
	"buffers":[
		{
			"byteLength":179000,
			"uri":"khronos%20glass%20holder.bin"
		}
	]
}
