{
	"asset":{
		"generator":"Khronos glTF Blender I/O v5.2.39",
		"version":"2.0"
	},
	"extensionsUsed":[
		"KHR_materials_transmission",
		"KHR_materials_emissive_strength"
	],
	"scene":0,
	"scenes":[
		{
			"name":"Scene",
			"nodes":[
				0,
				1,
				2,
				3,
				4
			]
		}
	],
	"nodes":[
		{
			"mesh":0,
			"name":"BoomBox",
			"rotation":[
				0,
				1,
				0,
				0
			],
			"scale":[
				177.07041931152344,
				177.07041931152344,
				177.07041931152344
			]
		},
		{
			"camera":0,
			"name":"Camera",
			"rotation":[
				-0.20997299253940582,
				0.3857799470424652,
				0.09062844514846802,
				0.8937962055206299
			],
			"translation":[
				7.358891487121582,
				4.958309173583984,
				6.925790786743164
			]
		},
		{
			"mesh":1,
			"name":"Icosphere",
			"scale":[
				1.0252718925476074,
				1.0252718925476074,
				1.0252718925476074
			],
			"translation":[
				-2.799799680709839,
				-0.2711014747619629,
				0.4604150652885437
			]
		},
		{
			"mesh":2,
			"name":"Plane",
			"scale":[
				7.553788661956787,
				7.553788661956787,
				7.553788661956787
			],
			"translation":[
				0,
				-1.7914562225341797,
				0
			]
		},
		{
			"mesh":3,
			"name":"Plane.001",
			"scale":[
				1.696740746498108,
				1.696740746498108,
				1.696740746498108
			],
			"translation":[
				0,
				5.281508445739746,
				0
			]
		}
	],
	"cameras":[
		{
			"name":"Camera",
			"perspective":{
				"aspectRatio":1.7777777777777777,
				"yfov":0.39959652046304894,
				"zfar":100,
				"znear":0.10000000149011612
			},
			"type":"perspective"
		}
	],
	"materials":[
		{
			"name":"BoomBox_Mat",
			"normalTexture":{
				"index":0
			},
			"occlusionTexture":{
				"index":1
			},
			"pbrMetallicRoughness":{
				"baseColorTexture":{
					"index":2
				},
				"metallicRoughnessTexture":{
					"index":1
				}
			}
		},
		{
			"doubleSided":true,
			"extensions":{
				"KHR_materials_transmission":{
					"transmissionFactor":1
				}
			},
			"name":"Material.002",
			"pbrMetallicRoughness":{
				"baseColorFactor":[
					0.800000011920929,
					0.800000011920929,
					0.800000011920929,
					1
				],
				"metallicFactor":0,
				"roughnessFactor":0.5
			}
		},
		{
			"doubleSided":true,
			"emissiveFactor":[
				1,
				1,
				1
			],
			"extensions":{
				"KHR_materials_emissive_strength":{
					"emissiveStrength":56.19999694824219
				}
			},
			"name":"Material.001",
			"pbrMetallicRoughness":{
				"baseColorFactor":[
					0.800000011920929,
					0.800000011920929,
					0.800000011920929,
					1
				],
				"metallicFactor":0,
				"roughnessFactor":0.5
			}
		}
	],
	"meshes":[
		{
			"name":"BoomBox",
			"primitives":[
				{
					"attributes":{
						"POSITION":0,
						"NORMAL":1,
						"TEXCOORD_0":2
					},
					"indices":3,
					"material":0
				}
			]
		},
		{
			"name":"Icosphere",
			"primitives":[
				{
					"attributes":{
						"POSITION":4,
						"NORMAL":5,
						"TEXCOORD_0":6
					},
					"indices":7,
					"material":1
				}
			]
		},
		{
			"name":"Plane",
			"primitives":[
				{
					"attributes":{
						"POSITION":8,
						"NORMAL":9,
						"TEXCOORD_0":10
					},
					"indices":11
				}
			]
		},
		{
			"name":"Plane.001",
			"primitives":[
				{
					"attributes":{
						"POSITION":12,
						"NORMAL":13,
						"TEXCOORD_0":14
					},
					"indices":11,
					"material":2
				}
			]
		}
	],
	"textures":[
		{
			"sampler":0,
			"source":0
		},
		{
			"sampler":0,
			"source":1
		},
		{
			"sampler":0,
			"source":2
		}
	],
	"images":[
		{
			"mimeType":"image/png",
			"name":"Image_2",
			"uri":"Image_2.png"
		},
		{
			"mimeType":"image/png",
			"name":"Image_1",
			"uri":"Image_1.png"
		},
		{
			"mimeType":"image/png",
			"name":"bobox",
			"uri":"bobox.png"
		}
	],
	"accessors":[
		{
			"bufferView":0,
			"componentType":5126,
			"count":3593,
			"max":[
				0.009921154007315636,
				0.00977163016796112,
				0.010076245293021202
			],
			"min":[
				-0.009921154007315636,
				-0.00977163016796112,
				-0.010076245293021202
			],
			"type":"VEC3"
		},
		{
			"bufferView":1,
			"componentType":5126,
			"count":3593,
			"type":"VEC3"
		},
		{
			"bufferView":2,
			"componentType":5126,
			"count":3593,
			"type":"VEC2"
		},
		{
			"bufferView":3,
			"componentType":5123,
			"count":18108,
			"type":"SCALAR"
		},
		{
			"bufferView":4,
			"componentType":5126,
			"count":10593,
			"max":[
				1,
				1,
				0.9999999403953552
			],
			"min":[
				-0.9999999403953552,
				-1,
				-0.9999999403953552
			],
			"type":"VEC3"
		},
		{
			"bufferView":5,
			"componentType":5126,
			"count":10593,
			"type":"VEC3"
		},
		{
			"bufferView":6,
			"componentType":5126,
			"count":10593,
			"type":"VEC2"
		},
		{
			"bufferView":7,
			"componentType":5123,
			"count":61440,
			"type":"SCALAR"
		},
		{
			"bufferView":8,
			"componentType":5126,
			"count":4,
			"max":[
				1,
				0,
				1
			],
			"min":[
				-1,
				0,
				-1
			],
			"type":"VEC3"
		},
		{
			"bufferView":9,
			"componentType":5126,
			"count":4,
			"type":"VEC3"
		},
		{
			"bufferView":10,
			"componentType":5126,
			"count":4,
			"type":"VEC2"
		},
		{
			"bufferView":11,
			"componentType":5123,
			"count":6,
			"type":"SCALAR"
		},
		{
			"bufferView":12,
			"componentType":5126,
			"count":4,
			"max":[
				1,
				0,
				1
			],
			"min":[
				-1,
				0,
				-1
			],
			"type":"VEC3"
		},
		{
			"bufferView":13,
			"componentType":5126,
			"count":4,
			"type":"VEC3"
		},
		{
			"bufferView":14,
			"componentType":5126,
			"count":4,
			"type":"VEC2"
		}
	],
	"bufferViews":[
		{
			"buffer":0,
			"byteLength":43116,
			"byteOffset":0,
			"target":34962
		},
		{
			"buffer":0,
			"byteLength":43116,
			"byteOffset":43116,
			"target":34962
		},
		{
			"buffer":0,
			"byteLength":28744,
			"byteOffset":86232,
			"target":34962
		},
		{
			"buffer":0,
			"byteLength":36216,
			"byteOffset":114976,
			"target":34963
		},
		{
			"buffer":0,
			"byteLength":127116,
			"byteOffset":151192,
			"target":34962
		},
		{
			"buffer":0,
			"byteLength":127116,
			"byteOffset":278308,
			"target":34962
		},
		{
			"buffer":0,
			"byteLength":84744,
			"byteOffset":405424,
			"target":34962
		},
		{
			"buffer":0,
			"byteLength":122880,
			"byteOffset":490168,
			"target":34963
		},
		{
			"buffer":0,
			"byteLength":48,
			"byteOffset":613048,
			"target":34962
		},
		{
			"buffer":0,
			"byteLength":48,
			"byteOffset":613096,
			"target":34962
		},
		{
			"buffer":0,
			"byteLength":32,
			"byteOffset":613144,
			"target":34962
		},
		{
			"buffer":0,
			"byteLength":12,
			"byteOffset":613176,
			"target":34963
		},
		{
			"buffer":0,
			"byteLength":48,
			"byteOffset":613188,
			"target":34962
		},
		{
			"buffer":0,
			"byteLength":48,
			"byteOffset":613236,
			"target":34962
		},
		{
			"buffer":0,
			"byteLength":32,
			"byteOffset":613284,
			"target":34962
		}
	],
	"samplers":[
		{
			"magFilter":9729,
			"minFilter":9987
		}
	],
	"buffers":[
		{
			"byteLength":613316,
			"uri":"Untitled.bin"
		}
	]
}
