{
	"asset":{
		"generator":"Khronos glTF Blender I/O v5.2.39",
		"version":"2.0"
	},
	"extensionsUsed":[
		"KHR_materials_clearcoat",
		"KHR_materials_transmission",
		"KHR_materials_emissive_strength",
		"KHR_materials_ior"
	],
	"scene":0,
	"scenes":[
		{
			"name":"Scene",
			"nodes":[
				0,
				1,
				2,
				3,
				4,
				5,
				6,
				7,
				8,
				9,
				10,
				11,
				12,
				13,
				14,
				15,
				16,
				17,
				18,
				19,
				20,
				21,
				22,
				23,
				24,
				25,
				26,
				27,
				28
			]
		}
	],
	"nodes":[
		{
			"camera":0,
			"name":"Camera",
			"rotation":[
				-0.27059805393218994,
				-0.6532815098762512,
				-0.27059805393218994,
				0.6532815098762512
			],
			"translation":[
				-15,
				15,
				0
			]
		},
		{
			"mesh":0,
			"name":"Chrome Ball",
			"rotation":[
				0.7071068286895752,
				0,
				0,
				0.7071068286895752
			],
			"translation":[
				0.4000000059604645,
				1.8600000143051147,
				-6.623120307922363
			]
		},
		{
			"mesh":1,
			"name":"Floor",
			"rotation":[
				0.7071068286895752,
				0,
				0,
				0.7071068286895752
			],
			"translation":[
				0,
				0,
				-0.033120155334472656
			]
		},
		{
			"mesh":2,
			"name":"Glass Ball",
			"rotation":[
				0.7071068286895752,
				0,
				0,
				0.7071068286895752
			],
			"translation":[
				-0.5699999928474426,
				1.8700000047683716,
				6.516880035400391
			]
		},
		{
			"mesh":3,
			"name":"Marble 1",
			"rotation":[
				0.7071068286895752,
				0,
				0,
				0.7071068286895752
			],
			"translation":[
				-3.7799999713897705,
				0.8799999952316284,
				-0.873120129108429
			]
		},
		{
			"mesh":4,
			"name":"Marble 2",
			"rotation":[
				0.7071068286895752,
				0,
				0,
				0.7071068286895752
			],
			"translation":[
				-3.746000051498413,
				0.969452977180481,
				0.9411738514900208
			]
		},
		{
			"mesh":5,
			"name":"Orange Ball",
			"rotation":[
				0.7071068286895752,
				0,
				0,
				0.7071068286895752
			],
			"translation":[
				1.6460000276565552,
				1.6861000061035156,
				3.5330798625946045
			]
		},
		{
			"mesh":6,
			"name":"Ping Pong",
			"rotation":[
				0.7071068286895752,
				0,
				0,
				0.7071068286895752
			],
			"translation":[
				-3.140000104904175,
				1.5099999904632568,
				-4.153120040893555
			]
		},
		{
			"mesh":7,
			"name":"Platform",
			"rotation":[
				0.7071068286895752,
				0,
				0,
				0.7071068286895752
			],
			"translation":[
				0,
				0.36000001430511475,
				-0.033120155334472656
			]
		},
		{
			"mesh":8,
			"name":"Quad Light 01",
			"translation":[
				0,
				0,
				-0.033120155334472656
			]
		},
		{
			"mesh":9,
			"name":"Quad Light 02",
			"translation":[
				0,
				0,
				-0.033120155334472656
			]
		},
		{
			"mesh":10,
			"name":"Quad Light 03",
			"translation":[
				0,
				0,
				-0.033120155334472656
			]
		},
		{
			"mesh":11,
			"name":"Quad Light 04",
			"translation":[
				0,
				0,
				-0.033120155334472656
			]
		},
		{
			"mesh":12,
			"name":"Quad Light 05",
			"translation":[
				0,
				0,
				-0.033120155334472656
			]
		},
		{
			"mesh":13,
			"name":"Quad Light 06",
			"translation":[
				0,
				0,
				-0.033120155334472656
			]
		},
		{
			"mesh":14,
			"name":"Quad Light 07",
			"translation":[
				0,
				0,
				-0.033120155334472656
			]
		},
		{
			"mesh":15,
			"name":"Quad Light 08",
			"translation":[
				0,
				0,
				-0.033120155334472656
			]
		},
		{
			"mesh":16,
			"name":"Quad Light 09",
			"translation":[
				0,
				0,
				-0.033120155334472656
			]
		},
		{
			"mesh":17,
			"name":"Quad Light 10",
			"translation":[
				0,
				0,
				-0.033120155334472656
			]
		},
		{
			"mesh":18,
			"name":"Quad Light 11",
			"translation":[
				0,
				0,
				-0.033120155334472656
			]
		},
		{
			"mesh":19,
			"name":"Quad Light 12",
			"translation":[
				0,
				0,
				-0.033120155334472656
			]
		},
		{
			"mesh":20,
			"name":"Quad Light 13",
			"translation":[
				0,
				0,
				-0.033120155334472656
			]
		},
		{
			"mesh":21,
			"name":"Quad Light 14",
			"translation":[
				0,
				0,
				-0.033120155334472656
			]
		},
		{
			"mesh":22,
			"name":"Quad Light 15",
			"translation":[
				0,
				0,
				-0.033120155334472656
			]
		},
		{
			"mesh":23,
			"name":"Quad Light 16",
			"translation":[
				0,
				0,
				-0.033120155334472656
			]
		},
		{
			"mesh":24,
			"name":"Quad Light 17",
			"translation":[
				0,
				0,
				-0.033120155334472656
			]
		},
		{
			"mesh":25,
			"name":"Ring 1",
			"rotation":[
				0.7071068286895752,
				0,
				0,
				0.7071068286895752
			],
			"translation":[
				-0.30873700976371765,
				0.8057630062103271,
				-1.462800145149231
			]
		},
		{
			"mesh":26,
			"name":"Ring 2",
			"rotation":[
				0.7071068286895752,
				0,
				0,
				0.7071068286895752
			],
			"translation":[
				-0.6705999970436096,
				0.8084719777107239,
				0.593677818775177
			]
		},
		{
			"mesh":27,
			"name":"Ring 3",
			"rotation":[
				0.7071068286895752,
				0,
				0,
				0.7071068286895752
			],
			"translation":[
				-1.4454100131988525,
				0.8084719777107239,
				1.692949891090393
			]
		}
	],
	"cameras":[
		{
			"name":"Camera",
			"perspective":{
				"aspectRatio":1.7777777777777777,
				"yfov":0.6280287869355033,
				"zfar":10000,
				"znear":0.009999999776482582
			},
			"type":"perspective"
		}
	],
	"materials":[
		{
			"doubleSided":true,
			"name":"silver",
			"pbrMetallicRoughness":{
				"baseColorFactor":[
					0.8999999761581421,
					0.8999999761581421,
					0.8999999761581421,
					1
				],
				"roughnessFactor":0.0010000000474974513
			}
		},
		{
			"doubleSided":true,
			"name":"red",
			"pbrMetallicRoughness":{
				"baseColorFactor":[
					1,
					0,
					0,
					1
				],
				"metallicFactor":0.20000000298023224,
				"roughnessFactor":0.5
			}
		},
		{
			"doubleSided":true,
			"extensions":{
				"KHR_materials_transmission":{
					"transmissionFactor":1
				},
				"KHR_materials_ior":{
					"ior":1.4500000476837158
				}
			},
			"name":"glass",
			"pbrMetallicRoughness":{
				"metallicFactor":0,
				"roughnessFactor":0
			}
		},
		{
			"doubleSided":true,
			"extensions":{
				"KHR_materials_clearcoat":{
					"clearcoatFactor":1,
					"clearcoatRoughnessFactor":0
				}
			},
			"name":"marb1",
			"pbrMetallicRoughness":{
				"baseColorFactor":[
					0.026000000536441803,
					0.1469999998807907,
					0.07500000298023224,
					1
				],
				"metallicFactor":0,
				"roughnessFactor":0.009999999776482582
			}
		},
		{
			"doubleSided":true,
			"extensions":{
				"KHR_materials_clearcoat":{
					"clearcoatFactor":1,
					"clearcoatRoughnessFactor":0
				}
			},
			"name":"marb2",
			"pbrMetallicRoughness":{
				"baseColorFactor":[
					0.0989999994635582,
					0.23999999463558197,
					0.1340000033378601,
					1
				],
				"metallicFactor":0,
				"roughnessFactor":0.009999999776482582
			}
		},
		{
			"doubleSided":true,
			"extensions":{
				"KHR_materials_clearcoat":{
					"clearcoatFactor":1,
					"clearcoatRoughnessFactor":0
				}
			},
			"name":"orange",
			"pbrMetallicRoughness":{
				"baseColorFactor":[
					1,
					0.1860000044107437,
					0,
					1
				],
				"metallicFactor":0,
				"roughnessFactor":0.0010000000474974513
			}
		},
		{
			"doubleSided":true,
			"name":"ping",
			"pbrMetallicRoughness":{
				"baseColorFactor":[
					0.9300000071525574,
					0.8899999856948853,
					0.8500000238418579,
					1
				],
				"metallicFactor":0
			}
		},
		{
			"doubleSided":true,
			"emissiveFactor":[
				1,
				1,
				1
			],
			"extensions":{
				"KHR_materials_emissive_strength":{
					"emissiveStrength":5
				}
			},
			"name":"Quad Light 01 Material",
			"pbrMetallicRoughness":{
				"baseColorFactor":[
					0,
					0,
					0,
					1
				]
			}
		},
		{
			"doubleSided":true,
			"emissiveFactor":[
				1,
				1,
				1
			],
			"extensions":{
				"KHR_materials_emissive_strength":{
					"emissiveStrength":5
				}
			},
			"name":"Quad Light 02 Material",
			"pbrMetallicRoughness":{
				"baseColorFactor":[
					0,
					0,
					0,
					1
				]
			}
		},
		{
			"doubleSided":true,
			"emissiveFactor":[
				1,
				1,
				1
			],
			"extensions":{
				"KHR_materials_emissive_strength":{
					"emissiveStrength":5
				}
			},
			"name":"Quad Light 03 Material",
			"pbrMetallicRoughness":{
				"baseColorFactor":[
					0,
					0,
					0,
					1
				]
			}
		},
		{
			"doubleSided":true,
			"emissiveFactor":[
				1,
				1,
				1
			],
			"extensions":{
				"KHR_materials_emissive_strength":{
					"emissiveStrength":5
				}
			},
			"name":"Quad Light 04 Material",
			"pbrMetallicRoughness":{
				"baseColorFactor":[
					0,
					0,
					0,
					1
				]
			}
		},
		{
			"doubleSided":true,
			"emissiveFactor":[
				1,
				1,
				1
			],
			"extensions":{
				"KHR_materials_emissive_strength":{
					"emissiveStrength":5
				}
			},
			"name":"Quad Light 05 Material",
			"pbrMetallicRoughness":{
				"baseColorFactor":[
					0,
					0,
					0,
					1
				]
			}
		},
		{
			"doubleSided":true,
			"emissiveFactor":[
				1,
				1,
				1
			],
			"extensions":{
				"KHR_materials_emissive_strength":{
					"emissiveStrength":5
				}
			},
			"name":"Quad Light 06 Material",
			"pbrMetallicRoughness":{
				"baseColorFactor":[
					0,
					0,
					0,
					1
				]
			}
		},
		{
			"doubleSided":true,
			"emissiveFactor":[
				1,
				1,
				1
			],
			"extensions":{
				"KHR_materials_emissive_strength":{
					"emissiveStrength":5
				}
			},
			"name":"Quad Light 07 Material",
			"pbrMetallicRoughness":{
				"baseColorFactor":[
					0,
					0,
					0,
					1
				]
			}
		},
		{
			"doubleSided":true,
			"emissiveFactor":[
				1,
				1,
				1
			],
			"extensions":{
				"KHR_materials_emissive_strength":{
					"emissiveStrength":5
				}
			},
			"name":"Quad Light 08 Material",
			"pbrMetallicRoughness":{
				"baseColorFactor":[
					0,
					0,
					0,
					1
				]
			}
		},
		{
			"doubleSided":true,
			"emissiveFactor":[
				1,
				1,
				1
			],
			"extensions":{
				"KHR_materials_emissive_strength":{
					"emissiveStrength":5
				}
			},
			"name":"Quad Light 09 Material",
			"pbrMetallicRoughness":{
				"baseColorFactor":[
					0,
					0,
					0,
					1
				]
			}
		},
		{
			"doubleSided":true,
			"emissiveFactor":[
				1,
				1,
				1
			],
			"extensions":{
				"KHR_materials_emissive_strength":{
					"emissiveStrength":5
				}
			},
			"name":"Quad Light 10 Material",
			"pbrMetallicRoughness":{
				"baseColorFactor":[
					0,
					0,
					0,
					1
				]
			}
		},
		{
			"doubleSided":true,
			"emissiveFactor":[
				1,
				1,
				1
			],
			"extensions":{
				"KHR_materials_emissive_strength":{
					"emissiveStrength":5
				}
			},
			"name":"Quad Light 11 Material",
			"pbrMetallicRoughness":{
				"baseColorFactor":[
					0,
					0,
					0,
					1
				]
			}
		},
		{
			"doubleSided":true,
			"emissiveFactor":[
				1,
				1,
				1
			],
			"extensions":{
				"KHR_materials_emissive_strength":{
					"emissiveStrength":5
				}
			},
			"name":"Quad Light 12 Material",
			"pbrMetallicRoughness":{
				"baseColorFactor":[
					0,
					0,
					0,
					1
				]
			}
		},
		{
			"doubleSided":true,
			"emissiveFactor":[
				1,
				1,
				1
			],
			"extensions":{
				"KHR_materials_emissive_strength":{
					"emissiveStrength":5
				}
			},
			"name":"Quad Light 13 Material",
			"pbrMetallicRoughness":{
				"baseColorFactor":[
					0,
					0,
					0,
					1
				]
			}
		},
		{
			"doubleSided":true,
			"emissiveFactor":[
				1,
				1,
				1
			],
			"extensions":{
				"KHR_materials_emissive_strength":{
					"emissiveStrength":5
				}
			},
			"name":"Quad Light 14 Material",
			"pbrMetallicRoughness":{
				"baseColorFactor":[
					0,
					0,
					0,
					1
				]
			}
		},
		{
			"doubleSided":true,
			"emissiveFactor":[
				1,
				1,
				1
			],
			"extensions":{
				"KHR_materials_emissive_strength":{
					"emissiveStrength":5
				}
			},
			"name":"Quad Light 15 Material",
			"pbrMetallicRoughness":{
				"baseColorFactor":[
					0,
					0,
					0,
					1
				]
			}
		},
		{
			"doubleSided":true,
			"emissiveFactor":[
				1,
				1,
				1
			],
			"extensions":{
				"KHR_materials_emissive_strength":{
					"emissiveStrength":5
				}
			},
			"name":"Quad Light 16 Material",
			"pbrMetallicRoughness":{
				"baseColorFactor":[
					0,
					0,
					0,
					1
				]
			}
		},
		{
			"doubleSided":true,
			"emissiveFactor":[
				1,
				1,
				1
			],
			"extensions":{
				"KHR_materials_emissive_strength":{
					"emissiveStrength":5
				}
			},
			"name":"Quad Light 17 Material",
			"pbrMetallicRoughness":{
				"baseColorFactor":[
					0,
					0,
					0,
					1
				]
			}
		},
		{
			"doubleSided":true,
			"name":"ring_silver",
			"pbrMetallicRoughness":{
				"roughnessFactor":0.0010000000474974513
			}
		}
	],
	"meshes":[
		{
			"name":"Sphere.002_Sphere.002",
			"primitives":[
				{
					"attributes":{
						"POSITION":0,
						"NORMAL":1
					},
					"indices":2,
					"material":0
				}
			]
		},
		{
			"name":"Plane.002",
			"primitives":[
				{
					"attributes":{
						"POSITION":3,
						"NORMAL":4
					},
					"indices":5,
					"material":1
				}
			]
		},
		{
			"name":"Sphere.004_Sphere.003",
			"primitives":[
				{
					"attributes":{
						"POSITION":6,
						"NORMAL":7
					},
					"indices":2,
					"material":2
				}
			]
		},
		{
			"name":"Sphere.005_Sphere.002",
			"primitives":[
				{
					"attributes":{
						"POSITION":8,
						"NORMAL":9
					},
					"indices":2,
					"material":3
				}
			]
		},
		{
			"name":"Sphere.006_Sphere.002",
			"primitives":[
				{
					"attributes":{
						"POSITION":10,
						"NORMAL":11
					},
					"indices":2,
					"material":4
				}
			]
		},
		{
			"name":"Sphere.003_Sphere.002",
			"primitives":[
				{
					"attributes":{
						"POSITION":12,
						"NORMAL":13
					},
					"indices":2,
					"material":5
				}
			]
		},
		{
			"name":"Sphere.002",
			"primitives":[
				{
					"attributes":{
						"POSITION":14,
						"NORMAL":15
					},
					"indices":2,
					"material":6
				}
			]
		},
		{
			"name":"Cube_Cube.003",
			"primitives":[
				{
					"attributes":{
						"POSITION":16,
						"NORMAL":17
					},
					"indices":18,
					"material":1
				}
			]
		},
		{
			"name":"Quad Light 01 Mesh.001",
			"primitives":[
				{
					"attributes":{
						"POSITION":19,
						"NORMAL":20
					},
					"indices":21,
					"material":7
				}
			]
		},
		{
			"name":"Quad Light 02 Mesh.001",
			"primitives":[
				{
					"attributes":{
						"POSITION":22,
						"NORMAL":23
					},
					"indices":21,
					"material":8
				}
			]
		},
		{
			"name":"Quad Light 03 Mesh.001",
			"primitives":[
				{
					"attributes":{
						"POSITION":24,
						"NORMAL":25
					},
					"indices":21,
					"material":9
				}
			]
		},
		{
			"name":"Quad Light 04 Mesh.001",
			"primitives":[
				{
					"attributes":{
						"POSITION":26,
						"NORMAL":27
					},
					"indices":21,
					"material":10
				}
			]
		},
		{
			"name":"Quad Light 05 Mesh.001",
			"primitives":[
				{
					"attributes":{
						"POSITION":28,
						"NORMAL":29
					},
					"indices":21,
					"material":11
				}
			]
		},
		{
			"name":"Quad Light 06 Mesh.001",
			"primitives":[
				{
					"attributes":{
						"POSITION":30,
						"NORMAL":31
					},
					"indices":21,
					"material":12
				}
			]
		},
		{
			"name":"Quad Light 07 Mesh.001",
			"primitives":[
				{
					"attributes":{
						"POSITION":32,
						"NORMAL":33
					},
					"indices":21,
					"material":13
				}
			]
		},
		{
			"name":"Quad Light 08 Mesh.001",
			"primitives":[
				{
					"attributes":{
						"POSITION":34,
						"NORMAL":35
					},
					"indices":21,
					"material":14
				}
			]
		},
		{
			"name":"Quad Light 09 Mesh.001",
			"primitives":[
				{
					"attributes":{
						"POSITION":36,
						"NORMAL":37
					},
					"indices":21,
					"material":15
				}
			]
		},
		{
			"name":"Quad Light 10 Mesh.001",
			"primitives":[
				{
					"attributes":{
						"POSITION":38,
						"NORMAL":39
					},
					"indices":21,
					"material":16
				}
			]
		},
		{
			"name":"Quad Light 11 Mesh.001",
			"primitives":[
				{
					"attributes":{
						"POSITION":40,
						"NORMAL":41
					},
					"indices":21,
					"material":17
				}
			]
		},
		{
			"name":"Quad Light 12 Mesh.001",
			"primitives":[
				{
					"attributes":{
						"POSITION":42,
						"NORMAL":43
					},
					"indices":21,
					"material":18
				}
			]
		},
		{
			"name":"Quad Light 13 Mesh.001",
			"primitives":[
				{
					"attributes":{
						"POSITION":44,
						"NORMAL":45
					},
					"indices":21,
					"material":19
				}
			]
		},
		{
			"name":"Quad Light 14 Mesh.001",
			"primitives":[
				{
					"attributes":{
						"POSITION":46,
						"NORMAL":47
					},
					"indices":21,
					"material":20
				}
			]
		},
		{
			"name":"Quad Light 15 Mesh.001",
			"primitives":[
				{
					"attributes":{
						"POSITION":48,
						"NORMAL":49
					},
					"indices":21,
					"material":21
				}
			]
		},
		{
			"name":"Quad Light 16 Mesh.001",
			"primitives":[
				{
					"attributes":{
						"POSITION":50,
						"NORMAL":51
					},
					"indices":21,
					"material":22
				}
			]
		},
		{
			"name":"Quad Light 17 Mesh.001",
			"primitives":[
				{
					"attributes":{
						"POSITION":52,
						"NORMAL":53
					},
					"indices":21,
					"material":23
				}
			]
		},
		{
			"name":"Circle.006",
			"primitives":[
				{
					"attributes":{
						"POSITION":54,
						"NORMAL":55
					},
					"indices":56,
					"material":24
				}
			]
		},
		{
			"name":"Circle.007",
			"primitives":[
				{
					"attributes":{
						"POSITION":57,
						"NORMAL":58
					},
					"indices":56,
					"material":24
				}
			]
		},
		{
			"name":"Circle.008",
			"primitives":[
				{
					"attributes":{
						"POSITION":59,
						"NORMAL":60
					},
					"indices":56,
					"material":24
				}
			]
		}
	],
	"accessors":[
		{
			"bufferView":0,
			"componentType":5126,
			"count":7938,
			"max":[
				1.1856319904327393,
				1.185608983039856,
				1.198114037513733
			],
			"min":[
				-1.1856329441070557,
				-1.185655951499939,
				-1.198114037513733
			],
			"type":"VEC3"
		},
		{
			"bufferView":1,
			"componentType":5126,
			"count":7938,
			"type":"VEC3"
		},
		{
			"bufferView":2,
			"componentType":5123,
			"count":47616,
			"type":"SCALAR"
		},
		{
			"bufferView":3,
			"componentType":5126,
			"count":4,
			"max":[
				100,
				100,
				0
			],
			"min":[
				-100,
				-100,
				0
			],
			"type":"VEC3"
		},
		{
			"bufferView":4,
			"componentType":5126,
			"count":4,
			"type":"VEC3"
		},
		{
			"bufferView":5,
			"componentType":5123,
			"count":6,
			"type":"SCALAR"
		},
		{
			"bufferView":6,
			"componentType":5126,
			"count":7938,
			"max":[
				1.1856340169906616,
				1.1981149911880493,
				1.185600996017456
			],
			"min":[
				-1.185629963874817,
				-1.1981120109558105,
				-1.1856640577316284
			],
			"type":"VEC3"
		},
		{
			"bufferView":7,
			"componentType":5126,
			"count":7938,
			"type":"VEC3"
		},
		{
			"bufferView":8,
			"componentType":5126,
			"count":7938,
			"max":[
				0.19761300086975098,
				0.1976030021905899,
				0.19967100024223328
			],
			"min":[
				-0.19759799540042877,
				-0.19760799407958984,
				-0.1996999979019165
			],
			"type":"VEC3"
		},
		{
			"bufferView":9,
			"componentType":5126,
			"count":7938,
			"type":"VEC3"
		},
		{
			"bufferView":10,
			"componentType":5126,
			"count":7938,
			"max":[
				0.29640498757362366,
				0.29640400409698486,
				0.29952698945999146
			],
			"min":[
				-0.29641199111938477,
				-0.29641199111938477,
				-0.2995299994945526
			],
			"type":"VEC3"
		},
		{
			"bufferView":11,
			"componentType":5126,
			"count":7938,
			"type":"VEC3"
		},
		{
			"bufferView":12,
			"componentType":5126,
			"count":7938,
			"max":[
				0.9880319833755493,
				0.9880269765853882,
				0.998432993888855
			],
			"min":[
				-0.9880210161209106,
				-0.9880269765853882,
				-0.9984239935874939
			],
			"type":"VEC3"
		},
		{
			"bufferView":13,
			"componentType":5126,
			"count":7938,
			"type":"VEC3"
		},
		{
			"bufferView":14,
			"componentType":5126,
			"count":7938,
			"max":[
				0.7904340028762817,
				0.7904319763183594,
				0.798740029335022
			],
			"min":[
				-0.7904090285301208,
				-0.7904099822044373,
				-0.7987459897994995
			],
			"type":"VEC3"
		},
		{
			"bufferView":15,
			"componentType":5126,
			"count":7938,
			"type":"VEC3"
		},
		{
			"bufferView":16,
			"componentType":5126,
			"count":24,
			"max":[
				5.090000152587891,
				9.0600004196167,
				0.3100009858608246
			],
			"min":[
				-5.090000152587891,
				-9.0600004196167,
				-0.3100009858608246
			],
			"type":"VEC3"
		},
		{
			"bufferView":17,
			"componentType":5126,
			"count":24,
			"type":"VEC3"
		},
		{
			"bufferView":18,
			"componentType":5123,
			"count":36,
			"type":"SCALAR"
		},
		{
			"bufferView":19,
			"componentType":5126,
			"count":4,
			"max":[
				2.0399999618530273,
				5,
				-7.5
			],
			"min":[
				-2.049730062484741,
				5,
				-8
			],
			"type":"VEC3"
		},
		{
			"bufferView":20,
			"componentType":5126,
			"count":4,
			"type":"VEC3"
		},
		{
			"bufferView":21,
			"componentType":5123,
			"count":6,
			"type":"SCALAR"
		},
		{
			"bufferView":22,
			"componentType":5126,
			"count":4,
			"max":[
				2.0399999618530273,
				5,
				-6.5
			],
			"min":[
				-2.049730062484741,
				5,
				-7
			],
			"type":"VEC3"
		},
		{
			"bufferView":23,
			"componentType":5126,
			"count":4,
			"type":"VEC3"
		},
		{
			"bufferView":24,
			"componentType":5126,
			"count":4,
			"max":[
				2.0399999618530273,
				5,
				-5.5
			],
			"min":[
				-2.049730062484741,
				5,
				-6
			],
			"type":"VEC3"
		},
		{
			"bufferView":25,
			"componentType":5126,
			"count":4,
			"type":"VEC3"
		},
		{
			"bufferView":26,
			"componentType":5126,
			"count":4,
			"max":[
				2.0399999618530273,
				5,
				-4.5
			],
			"min":[
				-2.049730062484741,
				5,
				-5
			],
			"type":"VEC3"
		},
		{
			"bufferView":27,
			"componentType":5126,
			"count":4,
			"type":"VEC3"
		},
		{
			"bufferView":28,
			"componentType":5126,
			"count":4,
			"max":[
				2.0399999618530273,
				5,
				-3.5
			],
			"min":[
				-2.049730062484741,
				5,
				-4
			],
			"type":"VEC3"
		},
		{
			"bufferView":29,
			"componentType":5126,
			"count":4,
			"type":"VEC3"
		},
		{
			"bufferView":30,
			"componentType":5126,
			"count":4,
			"max":[
				2.0399999618530273,
				5,
				-2.5
			],
			"min":[
				-2.049730062484741,
				5,
				-3
			],
			"type":"VEC3"
		},
		{
			"bufferView":31,
			"componentType":5126,
			"count":4,
			"type":"VEC3"
		},
		{
			"bufferView":32,
			"componentType":5126,
			"count":4,
			"max":[
				2.0399999618530273,
				5,
				-1.5
			],
			"min":[
				-2.049730062484741,
				5,
				-2
			],
			"type":"VEC3"
		},
		{
			"bufferView":33,
			"componentType":5126,
			"count":4,
			"type":"VEC3"
		},
		{
			"bufferView":34,
			"componentType":5126,
			"count":4,
			"max":[
				2.0399999618530273,
				5,
				-0.5
			],
			"min":[
				-2.049730062484741,
				5,
				-1
			],
			"type":"VEC3"
		},
		{
			"bufferView":35,
			"componentType":5126,
			"count":4,
			"type":"VEC3"
		},
		{
			"bufferView":36,
			"componentType":5126,
			"count":4,
			"max":[
				2.0399999618530273,
				5,
				0.5
			],
			"min":[
				-2.049730062484741,
				5,
				0
			],
			"type":"VEC3"
		},
		{
			"bufferView":37,
			"componentType":5126,
			"count":4,
			"type":"VEC3"
		},
		{
			"bufferView":38,
			"componentType":5126,
			"count":4,
			"max":[
				2.0399999618530273,
				5,
				1.5
			],
			"min":[
				-2.049730062484741,
				5,
				1
			],
			"type":"VEC3"
		},
		{
			"bufferView":39,
			"componentType":5126,
			"count":4,
			"type":"VEC3"
		},
		{
			"bufferView":40,
			"componentType":5126,
			"count":4,
			"max":[
				2.0399999618530273,
				5,
				2.5
			],
			"min":[
				-2.049730062484741,
				5,
				2
			],
			"type":"VEC3"
		},
		{
			"bufferView":41,
			"componentType":5126,
			"count":4,
			"type":"VEC3"
		},
		{
			"bufferView":42,
			"componentType":5126,
			"count":4,
			"max":[
				2.0399999618530273,
				5,
				3.5
			],
			"min":[
				-2.049730062484741,
				5,
				3
			],
			"type":"VEC3"
		},
		{
			"bufferView":43,
			"componentType":5126,
			"count":4,
			"type":"VEC3"
		},
		{
			"bufferView":44,
			"componentType":5126,
			"count":4,
			"max":[
				2.0399999618530273,
				5,
				4.5
			],
			"min":[
				-2.049730062484741,
				5,
				4
			],
			"type":"VEC3"
		},
		{
			"bufferView":45,
			"componentType":5126,
			"count":4,
			"type":"VEC3"
		},
		{
			"bufferView":46,
			"componentType":5126,
			"count":4,
			"max":[
				2.0399999618530273,
				5,
				5.5
			],
			"min":[
				-2.049730062484741,
				5,
				5
			],
			"type":"VEC3"
		},
		{
			"bufferView":47,
			"componentType":5126,
			"count":4,
			"type":"VEC3"
		},
		{
			"bufferView":48,
			"componentType":5126,
			"count":4,
			"max":[
				2.0399999618530273,
				5,
				6.5
			],
			"min":[
				-2.049730062484741,
				5,
				6
			],
			"type":"VEC3"
		},
		{
			"bufferView":49,
			"componentType":5126,
			"count":4,
			"type":"VEC3"
		},
		{
			"bufferView":50,
			"componentType":5126,
			"count":4,
			"max":[
				2.0399999618530273,
				5,
				7.5
			],
			"min":[
				-2.049730062484741,
				5,
				7
			],
			"type":"VEC3"
		},
		{
			"bufferView":51,
			"componentType":5126,
			"count":4,
			"type":"VEC3"
		},
		{
			"bufferView":52,
			"componentType":5126,
			"count":4,
			"max":[
				2.0399999618530273,
				5,
				8.5
			],
			"min":[
				-2.049730062484741,
				5,
				8
			],
			"type":"VEC3"
		},
		{
			"bufferView":53,
			"componentType":5126,
			"count":4,
			"type":"VEC3"
		},
		{
			"bufferView":54,
			"componentType":5126,
			"count":2048,
			"max":[
				0.4942370057106018,
				0.49423500895500183,
				0.13246099650859833
			],
			"min":[
				-0.4942370057106018,
				-0.4942379891872406,
				-0.13245800137519836
			],
			"type":"VEC3"
		},
		{
			"bufferView":55,
			"componentType":5126,
			"count":2048,
			"type":"VEC3"
		},
		{
			"bufferView":56,
			"componentType":5123,
			"count":12288,
			"type":"SCALAR"
		},
		{
			"bufferView":57,
			"componentType":5126,
			"count":2048,
			"max":[
				0.4942379891872406,
				0.4942359924316406,
				0.13245800137519836
			],
			"min":[
				-0.4942359924316406,
				-0.4942379891872406,
				-0.13246099650859833
			],
			"type":"VEC3"
		},
		{
			"bufferView":58,
			"componentType":5126,
			"count":2048,
			"type":"VEC3"
		},
		{
			"bufferView":59,
			"componentType":5126,
			"count":2048,
			"max":[
				0.4942390024662018,
				0.49423500895500183,
				0.13245800137519836
			],
			"min":[
				-0.49423500895500183,
				-0.4942390024662018,
				-0.13246099650859833
			],
			"type":"VEC3"
		},
		{
			"bufferView":60,
			"componentType":5126,
			"count":2048,
			"type":"VEC3"
		}
	],
	"bufferViews":[
		{
			"buffer":0,
			"byteLength":95256,
			"byteOffset":0,
			"target":34962
		},
		{
			"buffer":0,
			"byteLength":95256,
			"byteOffset":95256,
			"target":34962
		},
		{
			"buffer":0,
			"byteLength":95232,
			"byteOffset":190512,
			"target":34963
		},
		{
			"buffer":0,
			"byteLength":48,
			"byteOffset":285744,
			"target":34962
		},
		{
			"buffer":0,
			"byteLength":48,
			"byteOffset":285792,
			"target":34962
		},
		{
			"buffer":0,
			"byteLength":12,
			"byteOffset":285840,
			"target":34963
		},
		{
			"buffer":0,
			"byteLength":95256,
			"byteOffset":285852,
			"target":34962
		},
		{
			"buffer":0,
			"byteLength":95256,
			"byteOffset":381108,
			"target":34962
		},
		{
			"buffer":0,
			"byteLength":95256,
			"byteOffset":476364,
			"target":34962
		},
		{
			"buffer":0,
			"byteLength":95256,
			"byteOffset":571620,
			"target":34962
		},
		{
			"buffer":0,
			"byteLength":95256,
			"byteOffset":666876,
			"target":34962
		},
		{
			"buffer":0,
			"byteLength":95256,
			"byteOffset":762132,
			"target":34962
		},
		{
			"buffer":0,
			"byteLength":95256,
			"byteOffset":857388,
			"target":34962
		},
		{
			"buffer":0,
			"byteLength":95256,
			"byteOffset":952644,
			"target":34962
		},
		{
			"buffer":0,
			"byteLength":95256,
			"byteOffset":1047900,
			"target":34962
		},
		{
			"buffer":0,
			"byteLength":95256,
			"byteOffset":1143156,
			"target":34962
		},
		{
			"buffer":0,
			"byteLength":288,
			"byteOffset":1238412,
			"target":34962
		},
		{
			"buffer":0,
			"byteLength":288,
			"byteOffset":1238700,
			"target":34962
		},
		{
			"buffer":0,
			"byteLength":72,
			"byteOffset":1238988,
			"target":34963
		},
		{
			"buffer":0,
			"byteLength":48,
			"byteOffset":1239060,
			"target":34962
		},
		{
			"buffer":0,
			"byteLength":48,
			"byteOffset":1239108,
			"target":34962
		},
		{
			"buffer":0,
			"byteLength":12,
			"byteOffset":1239156,
			"target":34963
		},
		{
			"buffer":0,
			"byteLength":48,
			"byteOffset":1239168,
			"target":34962
		},
		{
			"buffer":0,
			"byteLength":48,
			"byteOffset":1239216,
			"target":34962
		},
		{
			"buffer":0,
			"byteLength":48,
			"byteOffset":1239264,
			"target":34962
		},
		{
			"buffer":0,
			"byteLength":48,
			"byteOffset":1239312,
			"target":34962
		},
		{
			"buffer":0,
			"byteLength":48,
			"byteOffset":1239360,
			"target":34962
		},
		{
			"buffer":0,
			"byteLength":48,
			"byteOffset":1239408,
			"target":34962
		},
		{
			"buffer":0,
			"byteLength":48,
			"byteOffset":1239456,
			"target":34962
		},
		{
			"buffer":0,
			"byteLength":48,
			"byteOffset":1239504,
			"target":34962
		},
		{
			"buffer":0,
			"byteLength":48,
			"byteOffset":1239552,
			"target":34962
		},
		{
			"buffer":0,
			"byteLength":48,
			"byteOffset":1239600,
			"target":34962
		},
		{
			"buffer":0,
			"byteLength":48,
			"byteOffset":1239648,
			"target":34962
		},
		{
			"buffer":0,
			"byteLength":48,
			"byteOffset":1239696,
			"target":34962
		},
		{
			"buffer":0,
			"byteLength":48,
			"byteOffset":1239744,
			"target":34962
		},
		{
			"buffer":0,
			"byteLength":48,
			"byteOffset":1239792,
			"target":34962
		},
		{
			"buffer":0,
			"byteLength":48,
			"byteOffset":1239840,
			"target":34962
		},
		{
			"buffer":0,
			"byteLength":48,
			"byteOffset":1239888,
			"target":34962
		},
		{
			"buffer":0,
			"byteLength":48,
			"byteOffset":1239936,
			"target":34962
		},
		{
			"buffer":0,
			"byteLength":48,
			"byteOffset":1239984,
			"target":34962
		},
		{
			"buffer":0,
			"byteLength":48,
			"byteOffset":1240032,
			"target":34962
		},
		{
			"buffer":0,
			"byteLength":48,
			"byteOffset":1240080,
			"target":34962
		},
		{
			"buffer":0,
			"byteLength":48,
			"byteOffset":1240128,
			"target":34962
		},
		{
			"buffer":0,
			"byteLength":48,
			"byteOffset":1240176,
			"target":34962
		},
		{
			"buffer":0,
			"byteLength":48,
			"byteOffset":1240224,
			"target":34962
		},
		{
			"buffer":0,
			"byteLength":48,
			"byteOffset":1240272,
			"target":34962
		},
		{
			"buffer":0,
			"byteLength":48,
			"byteOffset":1240320,
			"target":34962
		},
		{
			"buffer":0,
			"byteLength":48,
			"byteOffset":1240368,
			"target":34962
		},
		{
			"buffer":0,
			"byteLength":48,
			"byteOffset":1240416,
			"target":34962
		},
		{
			"buffer":0,
			"byteLength":48,
			"byteOffset":1240464,
			"target":34962
		},
		{
			"buffer":0,
			"byteLength":48,
			"byteOffset":1240512,
			"target":34962
		},
		{
			"buffer":0,
			"byteLength":48,
			"byteOffset":1240560,
			"target":34962
		},
		{
			"buffer":0,
			"byteLength":48,
			"byteOffset":1240608,
			"target":34962
		},
		{
			"buffer":0,
			"byteLength":48,
			"byteOffset":1240656,
			"target":34962
		},
		{
			"buffer":0,
			"byteLength":24576,
			"byteOffset":1240704,
			"target":34962
		},
		{
			"buffer":0,
			"byteLength":24576,
			"byteOffset":1265280,
			"target":34962
		},
		{
			"buffer":0,
			"byteLength":24576,
			"byteOffset":1289856,
			"target":34963
		},
		{
			"buffer":0,
			"byteLength":24576,
			"byteOffset":1314432,
			"target":34962
		},
		{
			"buffer":0,
			"byteLength":24576,
			"byteOffset":1339008,
			"target":34962
		},
		{
			"buffer":0,
			"byteLength":24576,
			"byteOffset":1363584,
			"target":34962
		},
		{
			"buffer":0,
			"byteLength":24576,
			"byteOffset":1388160,
			"target":34962
		}
	],
	"buffers":[
		{
			"byteLength":1412736,
			"uri":"glsl%20rt%20comparison%20scene.bin"
		}
	]
}
