{
	"asset":{
		"generator":"Khronos glTF Blender I/O v5.2.39",
		"version":"2.0"
	},
	"extensionsUsed":[
		"KHR_materials_emissive_strength"
	],
	"scene":0,
	"scenes":[
		{
			"name":"Scene",
			"nodes":[
				0,
				1,
				2,
				3,
				4,
				5,
				6,
				7
			]
		}
	],
	"nodes":[
		{
			"mesh":0,
			"name":"BasketLeft",
			"rotation":[
				-0.4999999701976776,
				0,
				0,
				0.8660253882408142
			],
			"scale":[
				6.067835330963135,
				6.067835330963135,
				6.067835330963135
			],
			"translation":[
				-0.9660041332244873,
				0.05932682007551193,
				-0.3160304129123688
			]
		},
		{
			"mesh":1,
			"name":"BasketRight",
			"rotation":[
				-0.4999999701976776,
				0,
				0,
				0.8660253882408142
			],
			"scale":[
				6.067835330963135,
				6.067835330963135,
				6.067835330963135
			],
			"translation":[
				0.9757031202316284,
				0.05932682007551193,
				-0.3160304129123688
			]
		},
		{
			"camera":0,
			"name":"Camera",
			"rotation":[
				-0.20997299253940582,
				0.3857799470424652,
				0.09062844514846802,
				0.8937962055206299
			],
			"translation":[
				7.358891487121582,
				4.958309173583984,
				6.925790786743164
			]
		},
		{
			"mesh":2,
			"name":"FruitLeft",
			"rotation":[
				-0.4999999701976776,
				0,
				0,
				0.8660253882408142
			],
			"scale":[
				6.067835330963135,
				6.067835330963135,
				6.067835330963135
			],
			"translation":[
				-0.9660041332244873,
				0.05932682007551193,
				-0.3160303831100464
			]
		},
		{
			"mesh":3,
			"name":"FruitRight",
			"rotation":[
				-0.4999999701976776,
				0,
				0,
				0.8660253882408142
			],
			"scale":[
				6.067835330963135,
				6.067835330963135,
				6.067835330963135
			],
			"translation":[
				0.9757031202316284,
				0.05932682007551193,
				-0.3160303831100464
			]
		},
		{
			"mesh":4,
			"name":"LogoLeft",
			"rotation":[
				0.342020183801651,
				0,
				0,
				0.9396926164627075
			],
			"scale":[
				0.004227169789373875,
				0.004227170255035162,
				0.004227170255035162
			],
			"translation":[
				-0.9834585189819336,
				-0.1801629364490509,
				0.7990756034851074
			]
		},
		{
			"mesh":5,
			"name":"LogoRight",
			"rotation":[
				0.342020183801651,
				0,
				0,
				0.9396926164627075
			],
			"scale":[
				0.004227169789373875,
				0.004227170255035162,
				0.004227170255035162
			],
			"translation":[
				0.9583189487457275,
				-0.1801629364490509,
				0.7990756034851074
			]
		},
		{
			"mesh":6,
			"name":"Plane",
			"scale":[
				2.164717197418213,
				1.3753551244735718,
				1.3753551244735718
			],
			"translation":[
				0,
				3.819941997528076,
				0
			]
		}
	],
	"cameras":[
		{
			"name":"Camera",
			"perspective":{
				"aspectRatio":1.7777777777777777,
				"yfov":0.39959652046304894,
				"zfar":100,
				"znear":0.10000000149011612
			},
			"type":"perspective"
		}
	],
	"materials":[
		{
			"name":"Basket without Occlusion",
			"pbrMetallicRoughness":{
				"metallicFactor":0
			}
		},
		{
			"name":"Basket with Occlusion",
			"occlusionTexture":{
				"index":0
			},
			"pbrMetallicRoughness":{
				"metallicFactor":0
			}
		},
		{
			"name":"Fruit without Occlusion",
			"pbrMetallicRoughness":{
				"baseColorTexture":{
					"index":1
				},
				"metallicRoughnessTexture":{
					"index":2
				}
			}
		},
		{
			"name":"Fruit with Occlusion",
			"occlusionTexture":{
				"index":3
			},
			"pbrMetallicRoughness":{
				"baseColorTexture":{
					"index":4
				},
				"metallicRoughnessTexture":{
					"index":3
				}
			}
		},
		{
			"name":"Logo",
			"pbrMetallicRoughness":{
				"metallicFactor":0
			}
		},
		{
			"doubleSided":true,
			"emissiveFactor":[
				1,
				1,
				1
			],
			"extensions":{
				"KHR_materials_emissive_strength":{
					"emissiveStrength":7.800000190734863
				}
			},
			"name":"Material.001",
			"pbrMetallicRoughness":{
				"baseColorFactor":[
					0.800000011920929,
					0.800000011920929,
					0.800000011920929,
					1
				],
				"metallicFactor":0,
				"roughnessFactor":0.5
			}
		}
	],
	"meshes":[
		{
			"name":"BasketLeft",
			"primitives":[
				{
					"attributes":{
						"POSITION":0,
						"NORMAL":1
					},
					"indices":2,
					"material":0
				}
			]
		},
		{
			"name":"BasketRight",
			"primitives":[
				{
					"attributes":{
						"POSITION":3,
						"NORMAL":4,
						"TEXCOORD_0":5
					},
					"indices":6,
					"material":1
				}
			]
		},
		{
			"name":"FruitLeft",
			"primitives":[
				{
					"attributes":{
						"POSITION":7,
						"NORMAL":8,
						"TEXCOORD_0":9
					},
					"indices":10,
					"material":2
				}
			]
		},
		{
			"name":"FruitRight",
			"primitives":[
				{
					"attributes":{
						"POSITION":11,
						"NORMAL":12,
						"TEXCOORD_0":13
					},
					"indices":10,
					"material":3
				}
			]
		},
		{
			"name":"LogoLeft",
			"primitives":[
				{
					"attributes":{
						"POSITION":14,
						"NORMAL":15
					},
					"indices":16,
					"material":4
				}
			]
		},
		{
			"name":"LogoRight",
			"primitives":[
				{
					"attributes":{
						"POSITION":17,
						"NORMAL":18
					},
					"indices":16,
					"material":4
				}
			]
		},
		{
			"name":"Plane",
			"primitives":[
				{
					"attributes":{
						"POSITION":19,
						"NORMAL":20,
						"TEXCOORD_0":21
					},
					"indices":22,
					"material":5
				}
			]
		}
	],
	"textures":[
		{
			"sampler":0,
			"source":0
		},
		{
			"sampler":0,
			"source":1
		},
		{
			"sampler":0,
			"source":2
		},
		{
			"sampler":0,
			"source":2
		},
		{
			"sampler":0,
			"source":1
		}
	],
	"images":[
		{
			"mimeType":"image/jpeg",
			"name":"Image_2",
			"uri":"Image_2.jpg"
		},
		{
			"mimeType":"image/jpeg",
			"name":"Image_0",
			"uri":"Image_0.jpg"
		},
		{
			"mimeType":"image/jpeg",
			"name":"Image_1",
			"uri":"Image_1.jpg"
		}
	],
	"accessors":[
		{
			"bufferView":0,
			"componentType":5126,
			"count":11252,
			"max":[
				0.14707215130329132,
				0.19134199619293213,
				0.11650625616312027
			],
			"min":[
				-0.14794300496578217,
				-0.19188226759433746,
				-0.000916633231099695
			],
			"type":"VEC3"
		},
		{
			"bufferView":1,
			"componentType":5126,
			"count":11252,
			"type":"VEC3"
		},
		{
			"bufferView":2,
			"componentType":5123,
			"count":66828,
			"type":"SCALAR"
		},
		{
			"bufferView":3,
			"componentType":5126,
			"count":17832,
			"max":[
				0.14707215130329132,
				0.19134199619293213,
				0.11650625616312027
			],
			"min":[
				-0.14794300496578217,
				-0.19188226759433746,
				-0.000916633231099695
			],
			"type":"VEC3"
		},
		{
			"bufferView":4,
			"componentType":5126,
			"count":17832,
			"type":"VEC3"
		},
		{
			"bufferView":5,
			"componentType":5126,
			"count":17832,
			"type":"VEC2"
		},
		{
			"bufferView":6,
			"componentType":5123,
			"count":66828,
			"type":"SCALAR"
		},
		{
			"bufferView":7,
			"componentType":5126,
			"count":28992,
			"max":[
				0.13452692329883575,
				0.17959971725940704,
				0.20172017812728882
			],
			"min":[
				-0.14046065509319305,
				-0.16962416470050812,
				0.006418745964765549
			],
			"type":"VEC3"
		},
		{
			"bufferView":8,
			"componentType":5126,
			"count":28992,
			"type":"VEC3"
		},
		{
			"bufferView":9,
			"componentType":5126,
			"count":28992,
			"type":"VEC2"
		},
		{
			"bufferView":10,
			"componentType":5123,
			"count":117600,
			"type":"SCALAR"
		},
		{
			"bufferView":11,
			"componentType":5126,
			"count":28992,
			"max":[
				0.13452692329883575,
				0.17959971725940704,
				0.20172017812728882
			],
			"min":[
				-0.14046065509319305,
				-0.16962416470050812,
				0.006418745964765549
			],
			"type":"VEC3"
		},
		{
			"bufferView":12,
			"componentType":5126,
			"count":28992,
			"type":"VEC3"
		},
		{
			"bufferView":13,
			"componentType":5126,
			"count":28992,
			"type":"VEC2"
		},
		{
			"bufferView":14,
			"componentType":5126,
			"count":1609,
			"max":[
				104.15754699707031,
				59.53657150268555,
				2
			],
			"min":[
				-104.15754699707031,
				-59.53657531738281,
				1
			],
			"type":"VEC3"
		},
		{
			"bufferView":15,
			"componentType":5126,
			"count":1609,
			"type":"VEC3"
		},
		{
			"bufferView":16,
			"componentType":5123,
			"count":2865,
			"type":"SCALAR"
		},
		{
			"bufferView":17,
			"componentType":5126,
			"count":1609,
			"max":[
				104.15754699707031,
				59.53657150268555,
				2
			],
			"min":[
				-104.15754699707031,
				-59.53657531738281,
				1
			],
			"type":"VEC3"
		},
		{
			"bufferView":18,
			"componentType":5126,
			"count":1609,
			"type":"VEC3"
		},
		{
			"bufferView":19,
			"componentType":5126,
			"count":4,
			"max":[
				1,
				0,
				1
			],
			"min":[
				-1,
				0,
				-1
			],
			"type":"VEC3"
		},
		{
			"bufferView":20,
			"componentType":5126,
			"count":4,
			"type":"VEC3"
		},
		{
			"bufferView":21,
			"componentType":5126,
			"count":4,
			"type":"VEC2"
		},
		{
			"bufferView":22,
			"componentType":5123,
			"count":6,
			"type":"SCALAR"
		}
	],
	"bufferViews":[
		{
			"buffer":0,
			"byteLength":135024,
			"byteOffset":0,
			"target":34962
		},
		{
			"buffer":0,
			"byteLength":135024,
			"byteOffset":135024,
			"target":34962
		},
		{
			"buffer":0,
			"byteLength":133656,
			"byteOffset":270048,
			"target":34963
		},
		{
			"buffer":0,
			"byteLength":213984,
			"byteOffset":403704,
			"target":34962
		},
		{
			"buffer":0,
			"byteLength":213984,
			"byteOffset":617688,
			"target":34962
		},
		{
			"buffer":0,
			"byteLength":142656,
			"byteOffset":831672,
			"target":34962
		},
		{
			"buffer":0,
			"byteLength":133656,
			"byteOffset":974328,
			"target":34963
		},
		{
			"buffer":0,
			"byteLength":347904,
			"byteOffset":1107984,
			"target":34962
		},
		{
			"buffer":0,
			"byteLength":347904,
			"byteOffset":1455888,
			"target":34962
		},
		{
			"buffer":0,
			"byteLength":231936,
			"byteOffset":1803792,
			"target":34962
		},
		{
			"buffer":0,
			"byteLength":235200,
			"byteOffset":2035728,
			"target":34963
		},
		{
			"buffer":0,
			"byteLength":347904,
			"byteOffset":2270928,
			"target":34962
		},
		{
			"buffer":0,
			"byteLength":347904,
			"byteOffset":2618832,
			"target":34962
		},
		{
			"buffer":0,
			"byteLength":231936,
			"byteOffset":2966736,
			"target":34962
		},
		{
			"buffer":0,
			"byteLength":19308,
			"byteOffset":3198672,
			"target":34962
		},
		{
			"buffer":0,
			"byteLength":19308,
			"byteOffset":3217980,
			"target":34962
		},
		{
			"buffer":0,
			"byteLength":5730,
			"byteOffset":3237288,
			"target":34963
		},
		{
			"buffer":0,
			"byteLength":19308,
			"byteOffset":3243020,
			"target":34962
		},
		{
			"buffer":0,
			"byteLength":19308,
			"byteOffset":3262328,
			"target":34962
		},
		{
			"buffer":0,
			"byteLength":48,
			"byteOffset":3281636,
			"target":34962
		},
		{
			"buffer":0,
			"byteLength":48,
			"byteOffset":3281684,
			"target":34962
		},
		{
			"buffer":0,
			"byteLength":32,
			"byteOffset":3281732,
			"target":34962
		},
		{
			"buffer":0,
			"byteLength":12,
			"byteOffset":3281764,
			"target":34963
		}
	],
	"samplers":[
		{
			"magFilter":9729,
			"minFilter":9987,
			"wrapS":33071,
			"wrapT":33071
		}
	],
	"buffers":[
		{
			"byteLength":3281776,
			"uri":"khronos%20fruit%20basket.bin"
		}
	]
}
