{
	"asset":{
		"generator":"Khronos glTF Blender I/O v5.1.18",
		"version":"2.0"
	},
	"extensionsUsed":[
		"KHR_materials_clearcoat",
		"KHR_materials_transmission",
		"KHR_materials_emissive_strength",
		"KHR_materials_specular",
		"KHR_materials_ior",
		"KHR_texture_transform"
	],
	"extensionsRequired":[
		"KHR_texture_transform"
	],
	"scene":0,
	"scenes":[
		{
			"name":"Scene",
			"nodes":[
				0,
				1,
				2,
				3,
				4,
				5,
				6,
				7,
				8,
				9,
				10,
				11,
				12,
				13,
				14,
				15,
				16,
				17,
				18,
				19,
				20,
				21,
				22,
				23,
				24,
				25,
				26,
				27,
				28,
				29,
				30,
				31,
				32,
				33,
				34,
				35,
				36,
				37,
				38,
				39,
				40,
				41,
				42,
				43,
				44,
				45,
				46,
				47,
				48,
				49,
				50,
				51,
				52,
				53,
				54,
				55,
				56,
				57,
				58,
				59,
				60
			]
		}
	],
	"nodes":[
		{
			"mesh":0,
			"name":"Plane.037",
			"rotation":[
				0,
				0.01606878452003002,
				0,
				0.9998708963394165
			],
			"translation":[
				2.3380608558654785,
				0,
				-0.844355583190918
			]
		},
		{
			"mesh":1,
			"name":"Plane.038",
			"rotation":[
				0.7810109257698059,
				0.2993360757827759,
				-0.5463486313819885,
				0.04385533928871155
			],
			"translation":[
				-3.6044793128967285,
				5.712347984313965,
				1.808064579963684
			]
		},
		{
			"camera":0,
			"name":"Camera",
			"rotation":[
				-0.06423284858465195,
				-0.24798732995986938,
				-0.016482004895806313,
				0.9664909839630127
			],
			"translation":[
				-13.454062461853027,
				4.82873010635376,
				25.151870727539062
			]
		},
		{
			"mesh":2,
			"name":"wiper",
			"rotation":[
				0,
				-1,
				0,
				1.9470718370939721e-07
			],
			"translation":[
				-1.0039498805999756,
				1.3690884113311768,
				1.216270089149475
			]
		},
		{
			"mesh":3,
			"name":"Window",
			"rotation":[
				0,
				-1,
				0,
				1.9470718370939721e-07
			],
			"translation":[
				0,
				1.3105961084365845,
				-2.8502819538116455
			]
		},
		{
			"mesh":4,
			"name":"Wheels.001",
			"rotation":[
				0,
				-1,
				0,
				1.9470718370939721e-07
			],
			"translation":[
				-1.4959897994995117,
				0.5862401127815247,
				-1.9852646589279175
			]
		},
		{
			"mesh":5,
			"name":"Wheels",
			"rotation":[
				0,
				-1,
				0,
				1.9470718370939721e-07
			],
			"translation":[
				-1.436478614807129,
				0.5862401127815247,
				1.978305697441101
			]
		},
		{
			"mesh":6,
			"name":"Tire2",
			"rotation":[
				0,
				-1,
				0,
				1.9470718370939721e-07
			],
			"translation":[
				-1.436478614807129,
				0.5862401127815247,
				1.978305697441101
			]
		},
		{
			"mesh":7,
			"name":"Tire",
			"rotation":[
				0,
				-1,
				0,
				1.9470718370939721e-07
			],
			"translation":[
				-1.5116382837295532,
				0.5862401127815247,
				-1.9827446937561035
			]
		},
		{
			"mesh":8,
			"name":"Steer",
			"rotation":[
				0,
				-1,
				0,
				1.9470718370939721e-07
			],
			"translation":[
				0.612362802028656,
				1.3068360090255737,
				0.46025633811950684
			]
		},
		{
			"mesh":9,
			"name":"Spoiler",
			"rotation":[
				0,
				-1,
				0,
				1.9470718370939721e-07
			],
			"translation":[
				0,
				1.3105961084365845,
				-2.8502819538116455
			]
		},
		{
			"mesh":10,
			"name":"Seating.001",
			"rotation":[
				0,
				-1,
				0,
				1.9470718370939721e-07
			],
			"translation":[
				0.5636914968490601,
				1.6260530948638916,
				-0.6255789995193481
			]
		},
		{
			"mesh":11,
			"name":"Seating",
			"rotation":[
				0,
				-1,
				0,
				1.9470718370939721e-07
			]
		},
		{
			"mesh":12,
			"name":"Rubber.001",
			"rotation":[
				0,
				-1,
				0,
				1.9470718370939721e-07
			],
			"translation":[
				0,
				1.3105961084365845,
				-2.8502819538116455
			]
		},
		{
			"mesh":13,
			"name":"Rubber",
			"rotation":[
				0,
				-1,
				0,
				1.9470718370939721e-07
			],
			"translation":[
				0,
				1.3105961084365845,
				-2.8502819538116455
			]
		},
		{
			"mesh":14,
			"name":"Plate front",
			"rotation":[
				0,
				-1,
				0,
				1.9470718370939721e-07
			],
			"translation":[
				0,
				1.2862944602966309,
				-2.8502819538116455
			]
		},
		{
			"mesh":15,
			"name":"pLATE",
			"rotation":[
				0,
				-1,
				0,
				1.9470718370939721e-07
			],
			"translation":[
				0,
				1.2862944602966309,
				2.7417163848876953
			]
		},
		{
			"mesh":16,
			"name":"P1",
			"rotation":[
				0,
				-1,
				0,
				1.9470718370939721e-07
			],
			"translation":[
				2.1592090888589155e-06,
				1.1113979816436768,
				3.3132827281951904
			]
		},
		{
			"mesh":17,
			"name":"P logo",
			"rotation":[
				0,
				-1,
				0,
				1.9470718370939721e-07
			],
			"translation":[
				-2.3239203983393963e-06,
				1.2903215885162354,
				-3.566030502319336
			]
		},
		{
			"mesh":18,
			"name":"Mirror",
			"rotation":[
				0,
				-1,
				0,
				1.9470718370939721e-07
			],
			"translation":[
				0,
				1.3105961084365845,
				-2.8502819538116455
			]
		},
		{
			"mesh":19,
			"name":"lower",
			"rotation":[
				0,
				-1,
				0,
				1.9470718370939721e-07
			],
			"translation":[
				0,
				1.3105961084365845,
				-2.8502819538116455
			]
		},
		{
			"mesh":20,
			"name":"INTERIOR",
			"rotation":[
				0,
				-1,
				0,
				1.9470718370939721e-07
			],
			"translation":[
				0,
				1.3105961084365845,
				-2.8502819538116455
			]
		},
		{
			"mesh":21,
			"name":"iNTER",
			"rotation":[
				0,
				-1,
				0,
				1.9470718370939721e-07
			],
			"translation":[
				0,
				1.3105961084365845,
				-2.8502819538116455
			]
		},
		{
			"mesh":22,
			"name":"Hnadle inside",
			"rotation":[
				0,
				-1,
				0,
				1.9470718370939721e-07
			],
			"translation":[
				1.1031845808029175,
				1.2347179651260376,
				0.4677061438560486
			]
		},
		{
			"mesh":23,
			"name":"Headlight",
			"rotation":[
				0,
				-1,
				0,
				1.9470718370939721e-07
			],
			"translation":[
				0,
				1.3105961084365845,
				-2.8502819538116455
			]
		},
		{
			"mesh":24,
			"name":"Handle",
			"rotation":[
				0,
				-1,
				0,
				1.9470718370939721e-07
			],
			"translation":[
				0,
				1.3330854177474976,
				-0.6235384345054626
			]
		},
		{
			"mesh":25,
			"name":"H3",
			"rotation":[
				0,
				-1,
				0,
				1.9470718370939721e-07
			],
			"translation":[
				0,
				1.3105961084365845,
				-2.8502819538116455
			]
		},
		{
			"mesh":26,
			"name":"H2",
			"rotation":[
				0,
				-1,
				0,
				1.9470718370939721e-07
			],
			"translation":[
				0,
				1.3105961084365845,
				-2.8502819538116455
			]
		},
		{
			"mesh":27,
			"name":"Gril",
			"rotation":[
				0,
				-1,
				0,
				1.9470718370939721e-07
			],
			"translation":[
				0.0005683057243004441,
				0.5847864151000977,
				3.577749252319336
			]
		},
		{
			"mesh":28,
			"name":"gear",
			"rotation":[
				0,
				-1,
				0,
				1.9470718370939721e-07
			],
			"translation":[
				-0.003210880095139146,
				0.8023896217346191,
				0.31876710057258606
			]
		},
		{
			"mesh":29,
			"name":"Front light",
			"rotation":[
				0,
				-1,
				0,
				1.9470718370939721e-07
			],
			"translation":[
				0,
				1.3105961084365845,
				-2.8502819538116455
			]
		},
		{
			"mesh":30,
			"name":"eXHUST",
			"rotation":[
				0,
				-1,
				0,
				1.9470718370939721e-07
			],
			"translation":[
				0,
				1.3105961084365845,
				-2.8502819538116455
			]
		},
		{
			"mesh":31,
			"name":"EMM",
			"rotation":[
				0,
				-1,
				0,
				1.9470718370939721e-07
			],
			"translation":[
				0,
				1.3105961084365845,
				-2.8502819538116455
			]
		},
		{
			"mesh":32,
			"name":"DIFF2",
			"rotation":[
				0,
				-1,
				0,
				1.9470718370939721e-07
			],
			"translation":[
				0,
				1.3105961084365845,
				-2.8502819538116455
			]
		},
		{
			"mesh":33,
			"name":"DIFF",
			"rotation":[
				0,
				-1,
				0,
				1.9470718370939721e-07
			],
			"translation":[
				0,
				1.3105961084365845,
				-2.8502819538116455
			]
		},
		{
			"mesh":34,
			"name":"D8",
			"rotation":[
				0,
				-1,
				0,
				1.9470718370939721e-07
			],
			"translation":[
				0,
				1.3105961084365845,
				-2.8502819538116455
			]
		},
		{
			"mesh":35,
			"name":"D7",
			"rotation":[
				0,
				-1,
				0,
				1.9470718370939721e-07
			],
			"translation":[
				0,
				1.3105961084365845,
				-2.8502819538116455
			]
		},
		{
			"mesh":36,
			"name":"D6",
			"rotation":[
				0,
				-1,
				0,
				1.9470718370939721e-07
			],
			"translation":[
				0,
				1.3105961084365845,
				-2.8502819538116455
			]
		},
		{
			"mesh":37,
			"name":"d5",
			"rotation":[
				0,
				-1,
				0,
				1.9470718370939721e-07
			],
			"translation":[
				0,
				1.3105961084365845,
				-2.8502819538116455
			]
		},
		{
			"mesh":38,
			"name":"d3",
			"rotation":[
				0,
				-1,
				0,
				1.9470718370939721e-07
			],
			"translation":[
				0.5943078398704529,
				1.4603755474090576,
				0.7022998929023743
			]
		},
		{
			"mesh":39,
			"name":"d2",
			"rotation":[
				0,
				-1,
				0,
				1.9470718370939721e-07
			],
			"translation":[
				0,
				1.3105961084365845,
				-2.8502819538116455
			]
		},
		{
			"mesh":40,
			"name":"d1",
			"rotation":[
				0,
				-1,
				0,
				1.9470718370939721e-07
			],
			"translation":[
				0,
				1.3105961084365845,
				-2.8502819538116455
			]
		},
		{
			"mesh":41,
			"name":"Covers",
			"rotation":[
				0,
				-1,
				0,
				1.9470718370939721e-07
			],
			"translation":[
				0,
				1.3105961084365845,
				-2.8502819538116455
			]
		},
		{
			"mesh":42,
			"name":"COL",
			"rotation":[
				0,
				-1,
				0,
				1.9470718370939721e-07
			],
			"translation":[
				0,
				1.3105961084365845,
				-2.8502819538116455
			]
		},
		{
			"mesh":43,
			"name":"Brake disc",
			"rotation":[
				0,
				-1,
				0,
				1.9470718370939721e-07
			],
			"translation":[
				0,
				0.5809047222137451,
				0
			]
		},
		{
			"mesh":44,
			"name":"Brake",
			"rotation":[
				0,
				-1,
				0,
				1.9470718370939721e-07
			],
			"translation":[
				0,
				0.772568941116333,
				0
			]
		},
		{
			"mesh":45,
			"name":"bODY",
			"rotation":[
				0,
				-1,
				0,
				1.9470718370939721e-07
			],
			"translation":[
				0,
				1.3105961084365845,
				-2.8502819538116455
			]
		},
		{
			"mesh":46,
			"name":"bACK LIGHT 2",
			"rotation":[
				0,
				-1,
				0,
				1.9470718370939721e-07
			],
			"translation":[
				0,
				1.3105961084365845,
				-2.8502819538116455
			]
		},
		{
			"mesh":47,
			"name":"BACK LIGHT",
			"rotation":[
				0,
				-1,
				0,
				1.9470718370939721e-07
			],
			"translation":[
				0,
				1.3105961084365845,
				-2.8502819538116455
			]
		},
		{
			"mesh":48,
			"name":"BACK LIGHT.001",
			"rotation":[
				0,
				-1,
				0,
				1.9470718370939721e-07
			],
			"translation":[
				0,
				1.3105961084365845,
				-2.8502819538116455
			]
		},
		{
			"mesh":49,
			"name":"Window.001",
			"rotation":[
				0,
				-1,
				0,
				1.9470718370939721e-07
			],
			"translation":[
				0,
				1.3105961084365845,
				-2.8502819538116455
			]
		},
		{
			"mesh":50,
			"name":"Steer.001",
			"rotation":[
				0,
				-1,
				0,
				1.9470718370939721e-07
			],
			"translation":[
				0.612362802028656,
				1.3068360090255737,
				0.46025633811950684
			]
		},
		{
			"mesh":51,
			"name":"Plate front.001",
			"rotation":[
				0,
				-1,
				0,
				1.9470718370939721e-07
			],
			"translation":[
				0,
				1.2862944602966309,
				-2.8502819538116455
			]
		},
		{
			"mesh":52,
			"name":"pLATE.001",
			"rotation":[
				0,
				-1,
				0,
				1.9470718370939721e-07
			],
			"translation":[
				0,
				1.2862944602966309,
				2.7417163848876953
			]
		},
		{
			"mesh":53,
			"name":"Mirror.001",
			"rotation":[
				0,
				-1,
				0,
				1.9470718370939721e-07
			],
			"translation":[
				0,
				1.3105961084365845,
				-2.8502819538116455
			]
		},
		{
			"mesh":54,
			"name":"Mirror.002",
			"rotation":[
				0,
				-1,
				0,
				1.9470718370939721e-07
			],
			"translation":[
				0,
				1.3105961084365845,
				-2.8502819538116455
			]
		},
		{
			"mesh":55,
			"name":"INTERIOR.001",
			"rotation":[
				0,
				-1,
				0,
				1.9470718370939721e-07
			],
			"translation":[
				0,
				1.3105961084365845,
				-2.8502819538116455
			]
		},
		{
			"mesh":56,
			"name":"Hnadle inside.001",
			"rotation":[
				0,
				-1,
				0,
				1.9470718370939721e-07
			],
			"translation":[
				1.1031845808029175,
				1.2347179651260376,
				0.4677061438560486
			]
		},
		{
			"mesh":57,
			"name":"H3.001",
			"rotation":[
				0,
				-1,
				0,
				1.9470718370939721e-07
			],
			"translation":[
				0,
				1.3105961084365845,
				-2.8502819538116455
			]
		},
		{
			"mesh":58,
			"name":"gear.001",
			"rotation":[
				0,
				-1,
				0,
				1.9470718370939721e-07
			],
			"translation":[
				-0.003210880095139146,
				0.8023896217346191,
				0.31876710057258606
			]
		},
		{
			"mesh":59,
			"name":"DIFF2.001",
			"rotation":[
				0,
				-1,
				0,
				1.9470718370939721e-07
			],
			"translation":[
				0,
				1.3105961084365845,
				-2.8502819538116455
			]
		}
	],
	"cameras":[
		{
			"name":"Camera",
			"perspective":{
				"aspectRatio":1.7777777777777777,
				"yfov":0.16835126306094317,
				"zfar":100,
				"znear":0.10000000149011612
			},
			"type":"perspective"
		}
	],
	"materials":[
		{
			"doubleSided":true,
			"name":"Material.004",
			"pbrMetallicRoughness":{
				"baseColorFactor":[
					0.0333879329264164,
					0.0333879329264164,
					0.0333879329264164,
					1
				],
				"metallicFactor":0,
				"roughnessFactor":0.32658958435058594
			}
		},
		{
			"doubleSided":true,
			"emissiveFactor":[
				1,
				1,
				1
			],
			"extensions":{
				"KHR_materials_emissive_strength":{
					"emissiveStrength":23.39999771118164
				}
			},
			"name":"Material.021",
			"pbrMetallicRoughness":{
				"baseColorFactor":[
					0.800000011920929,
					0.800000011920929,
					0.800000011920929,
					1
				],
				"metallicFactor":0,
				"roughnessFactor":0.5
			}
		},
		{
			"doubleSided":true,
			"extensions":{
				"KHR_materials_specular":{
					"specularColorFactor":[
						1.1617646217346191,
						1.1617646217346191,
						1.1617646217346191
					]
				},
				"KHR_materials_ior":{
					"ior":1.4500000476837158
				}
			},
			"name":"rubber.001",
			"pbrMetallicRoughness":{
				"baseColorFactor":[
					0.017387712374329567,
					0.017387712374329567,
					0.017387712374329567,
					1
				],
				"metallicFactor":0,
				"roughnessFactor":0.3689628839492798
			}
		},
		{
			"extensions":{
				"KHR_materials_transmission":{
					"transmissionFactor":1
				}
			},
			"name":"windows.002",
			"pbrMetallicRoughness":{
				"baseColorFactor":[
					0.800000011920929,
					0.800000011920929,
					0.800000011920929,
					1
				],
				"metallicFactor":0,
				"roughnessFactor":0.5
			}
		},
		{
			"doubleSided":true,
			"name":"Wheels.001",
			"pbrMetallicRoughness":{
				"baseColorFactor":[
					0.5485275387763977,
					0.5485275387763977,
					0.5485275387763977,
					1
				],
				"metallicFactor":0,
				"roughnessFactor":0.12277983874082565
			}
		},
		{
			"doubleSided":true,
			"extensions":{
				"KHR_materials_specular":{
					"specularFactor":0.3529411554336548
				},
				"KHR_materials_ior":{
					"ior":1.4500000476837158
				}
			},
			"name":"Material.019",
			"normalTexture":{
				"index":0
			},
			"pbrMetallicRoughness":{
				"baseColorFactor":[
					0.0610058531165123,
					0.0610058531165123,
					0.0610058531165123,
					1
				],
				"metallicFactor":0,
				"roughnessFactor":0.6965317726135254
			}
		},
		{
			"doubleSided":true,
			"name":"trim.001",
			"pbrMetallicRoughness":{
				"baseColorFactor":[
					0.11813784390687943,
					0,
					0.00492476113140583,
					1
				],
				"metallicFactor":0,
				"roughnessFactor":0.5
			}
		},
		{
			"doubleSided":true,
			"extensions":{
				"KHR_materials_clearcoat":{
					"clearcoatFactor":1,
					"clearcoatRoughnessFactor":0.0010000000474974513
				},
				"KHR_materials_specular":{
					"specularColorFactor":[
						2.0,
						2.0,
						2.0
					]
				},
				"KHR_materials_ior":{
					"ior":1.4500000476837158
				}
			},
			"name":"Body.001",
			"pbrMetallicRoughness":{
				"metallicFactor":0.09766457974910736,
				"roughnessFactor":0.19158755242824554
			}
		},
		{
			"doubleSided":true,
			"extensions":{
				"KHR_materials_specular":{
					"specularFactor":0.44545453786849976
				},
				"KHR_materials_ior":{
					"ior":1.4500000476837158
				}
			},
			"name":"leather.001",
			"normalTexture":{
				"extensions":{
					"KHR_texture_transform":{
						"offset":[
							0,
							-2
						],
						"scale":[
							3,
							3
						]
					}
				},
				"index":1
			},
			"pbrMetallicRoughness":{
				"baseColorFactor":[
					0.010673982091248035,
					0.010673982091248035,
					0.010673982091248035,
					1
				],
				"metallicFactor":0,
				"metallicRoughnessTexture":{
					"extensions":{
						"KHR_texture_transform":{
							"offset":[
								0,
								-2
							],
							"scale":[
								3,
								3
							]
						}
					},
					"index":2
				}
			}
		},
		{
			"doubleSided":true,
			"extensions":{
				"KHR_materials_specular":{
					"specularFactor":0.5
				},
				"KHR_materials_ior":{
					"ior":1.4500000476837158
				}
			},
			"name":"Rubber.001",
			"pbrMetallicRoughness":{
				"baseColorFactor":[
					0.009018231183290482,
					0.009018231183290482,
					0.009018231183290482,
					1
				],
				"metallicFactor":0,
				"roughnessFactor":0.4318181872367859
			}
		},
		{
			"alphaMode":"BLEND",
			"doubleSided":true,
			"name":"P logo.001",
			"normalTexture":{
				"index":3
			},
			"pbrMetallicRoughness":{
				"baseColorTexture":{
					"index":4
				},
				"metallicFactor":0,
				"roughnessFactor":0
			}
		},
		{
			"doubleSided":true,
			"name":"mirror",
			"pbrMetallicRoughness":{
				"baseColorFactor":[
					0.800000011920929,
					0.800000011920929,
					0.800000011920929,
					1
				],
				"roughnessFactor":0
			}
		},
		{
			"doubleSided":true,
			"name":"chrome.001",
			"pbrMetallicRoughness":{
				"baseColorFactor":[
					0.800000011920929,
					0.800000011920929,
					0.800000011920929,
					1
				],
				"roughnessFactor":0.18382352590560913
			}
		},
		{
			"doubleSided":true,
			"emissiveFactor":[
				1,
				1,
				1
			],
			"extensions":{
				"KHR_materials_emissive_strength":{
					"emissiveStrength":10
				}
			},
			"name":"emii.001",
			"pbrMetallicRoughness":{
				"baseColorFactor":[
					0.800000011920929,
					0.800000011920929,
					0.800000011920929,
					1
				],
				"metallicFactor":0,
				"roughnessFactor":0.5
			}
		},
		{
			"doubleSided":true,
			"name":"Brake.001",
			"pbrMetallicRoughness":{
				"baseColorFactor":[
					0.800000011920929,
					0.800000011920929,
					0.800000011920929,
					1
				],
				"metallicFactor":0,
				"roughnessFactor":0.09816677868366241
			}
		},
		{
			"doubleSided":true,
			"name":"brake.001",
			"pbrMetallicRoughness":{
				"baseColorFactor":[
					0.8000000715255737,
					0.11042940616607666,
					0.06300181895494461,
					1
				],
				"metallicFactor":0,
				"roughnessFactor":0.5
			}
		},
		{
			"doubleSided":true,
			"extensions":{
				"KHR_materials_transmission":{
					"transmissionFactor":0.9950000047683716
				},
				"KHR_materials_specular":{
					"specularColorFactor":[
						2.0,
						2.0,
						2.0
					]
				},
				"KHR_materials_ior":{
					"ior":1.4500000476837158
				}
			},
			"name":"backlight glass.001",
			"pbrMetallicRoughness":{
				"baseColorFactor":[
					0.8000000715255737,
					0,
					0.0066597904078662395,
					1
				],
				"metallicFactor":0,
				"roughnessFactor":0.04090908169746399
			}
		},
		{
			"doubleSided":true,
			"extensions":{
				"KHR_materials_transmission":{
					"transmissionFactor":0.9950000047683716
				},
				"KHR_materials_specular":{
					"specularColorFactor":[
						2.0,
						2.0,
						2.0
					]
				},
				"KHR_materials_ior":{
					"ior":1.4500000476837158
				}
			},
			"name":"backlight glass white.001",
			"pbrMetallicRoughness":{
				"baseColorFactor":[
					0.8000000715255737,
					0.6446106433868408,
					0.5818811058998108,
					1
				],
				"metallicFactor":0,
				"roughnessFactor":0.04090908169746399
			}
		},
		{
			"extensions":{
				"KHR_materials_transmission":{
					"transmissionFactor":0.9900000095367432
				},
				"KHR_materials_ior":{
					"ior":1.0099999904632568
				}
			},
			"name":"windows.001",
			"pbrMetallicRoughness":{
				"metallicFactor":0,
				"roughnessFactor":0
			}
		},
		{
			"doubleSided":true,
			"name":"Plate.001",
			"normalTexture":{
				"index":5
			},
			"pbrMetallicRoughness":{
				"baseColorTexture":{
					"index":6
				},
				"metallicFactor":0,
				"roughnessFactor":0.09090909361839294
			}
		}
	],
	"meshes":[
		{
			"name":"Plane",
			"primitives":[
				{
					"attributes":{
						"POSITION":0,
						"NORMAL":1,
						"TEXCOORD_0":2
					},
					"indices":3,
					"material":0
				}
			]
		},
		{
			"name":"Plane.002",
			"primitives":[
				{
					"attributes":{
						"POSITION":4,
						"NORMAL":5,
						"TEXCOORD_0":6
					},
					"indices":7,
					"material":1
				}
			]
		},
		{
			"name":"Mesh",
			"primitives":[
				{
					"attributes":{
						"POSITION":8,
						"NORMAL":9,
						"TEXCOORD_0":10
					},
					"indices":11,
					"material":2
				}
			]
		},
		{
			"name":"Mesh",
			"primitives":[
				{
					"attributes":{
						"POSITION":12,
						"NORMAL":13
					},
					"indices":14,
					"material":3
				}
			]
		},
		{
			"name":"Mesh",
			"primitives":[
				{
					"attributes":{
						"POSITION":15,
						"NORMAL":16,
						"TEXCOORD_0":17
					},
					"indices":18,
					"material":4
				}
			]
		},
		{
			"name":"Mesh",
			"primitives":[
				{
					"attributes":{
						"POSITION":19,
						"NORMAL":20,
						"TEXCOORD_0":21
					},
					"indices":22,
					"material":4
				}
			]
		},
		{
			"name":"Mesh",
			"primitives":[
				{
					"attributes":{
						"POSITION":23,
						"NORMAL":24,
						"TEXCOORD_0":25
					},
					"indices":26,
					"material":5
				}
			]
		},
		{
			"name":"Mesh",
			"primitives":[
				{
					"attributes":{
						"POSITION":27,
						"NORMAL":28,
						"TEXCOORD_0":29
					},
					"indices":26,
					"material":5
				}
			]
		},
		{
			"name":"Circle.021",
			"primitives":[
				{
					"attributes":{
						"POSITION":30,
						"NORMAL":31,
						"TEXCOORD_0":32
					},
					"indices":33,
					"material":6
				}
			]
		},
		{
			"name":"Mesh",
			"primitives":[
				{
					"attributes":{
						"POSITION":34,
						"NORMAL":35
					},
					"indices":36,
					"material":7
				}
			]
		},
		{
			"name":"Seating.003",
			"primitives":[
				{
					"attributes":{
						"POSITION":37,
						"NORMAL":38,
						"TEXCOORD_0":39
					},
					"indices":40,
					"material":6
				}
			]
		},
		{
			"name":"Circle.018",
			"primitives":[
				{
					"attributes":{
						"POSITION":41,
						"NORMAL":42,
						"TEXCOORD_0":43
					},
					"indices":44,
					"material":8
				}
			]
		},
		{
			"name":"Mesh",
			"primitives":[
				{
					"attributes":{
						"POSITION":45,
						"NORMAL":46
					},
					"indices":47,
					"material":9
				}
			]
		},
		{
			"name":"Mesh",
			"primitives":[
				{
					"attributes":{
						"POSITION":48,
						"NORMAL":49
					},
					"indices":50,
					"material":9
				}
			]
		},
		{
			"name":"Vert.080",
			"primitives":[
				{
					"attributes":{
						"POSITION":51,
						"NORMAL":52,
						"TEXCOORD_0":53
					},
					"indices":54,
					"material":9
				}
			]
		},
		{
			"name":"Vert.061",
			"primitives":[
				{
					"attributes":{
						"POSITION":55,
						"NORMAL":56,
						"TEXCOORD_0":57
					},
					"indices":54,
					"material":9
				}
			]
		},
		{
			"name":"Plane.012",
			"primitives":[
				{
					"attributes":{
						"POSITION":58,
						"NORMAL":59,
						"TEXCOORD_0":60
					},
					"indices":61,
					"material":10
				}
			]
		},
		{
			"name":"Plane.013",
			"primitives":[
				{
					"attributes":{
						"POSITION":62,
						"NORMAL":63,
						"TEXCOORD_0":64
					},
					"indices":65,
					"material":10
				}
			]
		},
		{
			"name":"Mesh",
			"primitives":[
				{
					"attributes":{
						"POSITION":66,
						"NORMAL":67
					},
					"indices":68,
					"material":11
				}
			]
		},
		{
			"name":"Mesh",
			"primitives":[
				{
					"attributes":{
						"POSITION":69,
						"NORMAL":70
					},
					"indices":71,
					"material":9
				}
			]
		},
		{
			"name":"Vert.087",
			"primitives":[
				{
					"attributes":{
						"POSITION":72,
						"NORMAL":73,
						"TEXCOORD_0":74
					},
					"indices":75,
					"material":6
				}
			]
		},
		{
			"name":"Mesh",
			"primitives":[
				{
					"attributes":{
						"POSITION":76,
						"NORMAL":77,
						"TEXCOORD_0":78
					},
					"indices":79,
					"material":8
				}
			]
		},
		{
			"name":"Plane.011",
			"primitives":[
				{
					"attributes":{
						"POSITION":80,
						"NORMAL":81,
						"TEXCOORD_0":82
					},
					"indices":83,
					"material":6
				}
			]
		},
		{
			"name":"Mesh",
			"primitives":[
				{
					"attributes":{
						"POSITION":84,
						"NORMAL":85
					},
					"indices":86,
					"material":12
				}
			]
		},
		{
			"name":"Mesh",
			"primitives":[
				{
					"attributes":{
						"POSITION":87,
						"NORMAL":88,
						"TEXCOORD_0":89
					},
					"indices":90,
					"material":7
				}
			]
		},
		{
			"name":"Mesh",
			"primitives":[
				{
					"attributes":{
						"POSITION":91,
						"NORMAL":92
					},
					"indices":93,
					"material":13
				}
			]
		},
		{
			"name":"Mesh",
			"primitives":[
				{
					"attributes":{
						"POSITION":94,
						"NORMAL":95
					},
					"indices":96,
					"material":12
				}
			]
		},
		{
			"name":"Circle.020",
			"primitives":[
				{
					"attributes":{
						"POSITION":97,
						"NORMAL":98,
						"TEXCOORD_0":99
					},
					"indices":100,
					"material":9
				}
			]
		},
		{
			"name":"Cylinder.005",
			"primitives":[
				{
					"attributes":{
						"POSITION":101,
						"NORMAL":102,
						"TEXCOORD_0":103
					},
					"indices":104,
					"material":8
				}
			]
		},
		{
			"name":"Mesh",
			"primitives":[
				{
					"attributes":{
						"POSITION":105,
						"NORMAL":106
					},
					"indices":107,
					"material":12
				}
			]
		},
		{
			"name":"Cylinder.003",
			"primitives":[
				{
					"attributes":{
						"POSITION":108,
						"NORMAL":109,
						"TEXCOORD_0":110
					},
					"indices":111,
					"material":4
				}
			]
		},
		{
			"name":"Mesh",
			"primitives":[
				{
					"attributes":{
						"POSITION":112,
						"NORMAL":113,
						"TEXCOORD_0":114
					},
					"indices":115,
					"material":13
				}
			]
		},
		{
			"name":"Mesh",
			"primitives":[
				{
					"attributes":{
						"POSITION":116,
						"NORMAL":117,
						"TEXCOORD_0":118
					},
					"indices":119,
					"material":9
				}
			]
		},
		{
			"name":"Mesh",
			"primitives":[
				{
					"attributes":{
						"POSITION":120,
						"NORMAL":121
					},
					"indices":122,
					"material":9
				}
			]
		},
		{
			"name":"Vert.075",
			"primitives":[
				{
					"attributes":{
						"POSITION":123,
						"NORMAL":124,
						"TEXCOORD_0":125
					},
					"indices":126,
					"material":8
				}
			]
		},
		{
			"name":"Mesh",
			"primitives":[
				{
					"attributes":{
						"POSITION":127,
						"NORMAL":128,
						"TEXCOORD_0":129
					},
					"indices":130,
					"material":8
				}
			]
		},
		{
			"name":"Mesh",
			"primitives":[
				{
					"attributes":{
						"POSITION":131,
						"NORMAL":132,
						"TEXCOORD_0":133
					},
					"indices":134,
					"material":8
				}
			]
		},
		{
			"name":"Mesh",
			"primitives":[
				{
					"attributes":{
						"POSITION":135,
						"NORMAL":136
					},
					"indices":137,
					"material":6
				}
			]
		},
		{
			"name":"Plane.010",
			"primitives":[
				{
					"attributes":{
						"POSITION":138,
						"NORMAL":139,
						"TEXCOORD_0":140
					},
					"indices":141,
					"material":8
				}
			]
		},
		{
			"name":"Mesh",
			"primitives":[
				{
					"attributes":{
						"POSITION":142,
						"NORMAL":143
					},
					"indices":144,
					"material":9
				}
			]
		},
		{
			"name":"Mesh",
			"primitives":[
				{
					"attributes":{
						"POSITION":145,
						"NORMAL":146,
						"TEXCOORD_0":147
					},
					"indices":148,
					"material":8
				}
			]
		},
		{
			"name":"Mesh",
			"primitives":[
				{
					"attributes":{
						"POSITION":149,
						"NORMAL":150
					},
					"indices":151,
					"material":9
				}
			]
		},
		{
			"name":"Mesh",
			"primitives":[
				{
					"attributes":{
						"POSITION":152,
						"NORMAL":153
					},
					"indices":154,
					"material":9
				}
			]
		},
		{
			"name":"Mesh",
			"primitives":[
				{
					"attributes":{
						"POSITION":155,
						"NORMAL":156,
						"TEXCOORD_0":157
					},
					"indices":158,
					"material":14
				}
			]
		},
		{
			"name":"Mesh",
			"primitives":[
				{
					"attributes":{
						"POSITION":159,
						"NORMAL":160,
						"TEXCOORD_0":161
					},
					"indices":162,
					"material":15
				}
			]
		},
		{
			"name":"Vert.089",
			"primitives":[
				{
					"attributes":{
						"POSITION":163,
						"NORMAL":164
					},
					"indices":165,
					"material":7
				}
			]
		},
		{
			"name":"Mesh",
			"primitives":[
				{
					"attributes":{
						"POSITION":166,
						"NORMAL":167
					},
					"indices":168,
					"material":12
				}
			]
		},
		{
			"name":"Vert.067",
			"primitives":[
				{
					"attributes":{
						"POSITION":169,
						"NORMAL":170,
						"TEXCOORD_0":171
					},
					"indices":172,
					"material":16
				}
			]
		},
		{
			"name":"Vert.001",
			"primitives":[
				{
					"attributes":{
						"POSITION":173,
						"NORMAL":174,
						"TEXCOORD_0":175
					},
					"indices":176,
					"material":17
				}
			]
		},
		{
			"name":"Mesh",
			"primitives":[
				{
					"attributes":{
						"POSITION":177,
						"NORMAL":178
					},
					"indices":179,
					"material":18
				}
			]
		},
		{
			"name":"Circle.001",
			"primitives":[
				{
					"attributes":{
						"POSITION":180,
						"NORMAL":181,
						"TEXCOORD_0":182
					},
					"indices":183,
					"material":8
				}
			]
		},
		{
			"name":"Vert.003",
			"primitives":[
				{
					"attributes":{
						"POSITION":184,
						"NORMAL":185,
						"TEXCOORD_0":186
					},
					"indices":187,
					"material":19
				}
			]
		},
		{
			"name":"Vert.004",
			"primitives":[
				{
					"attributes":{
						"POSITION":188,
						"NORMAL":189,
						"TEXCOORD_0":190
					},
					"indices":187,
					"material":19
				}
			]
		},
		{
			"name":"Mesh",
			"primitives":[
				{
					"attributes":{
						"POSITION":191,
						"NORMAL":192
					},
					"indices":193,
					"material":9
				}
			]
		},
		{
			"name":"Mesh",
			"primitives":[
				{
					"attributes":{
						"POSITION":194,
						"NORMAL":195
					},
					"indices":196,
					"material":7
				}
			]
		},
		{
			"name":"Vert.007",
			"primitives":[
				{
					"attributes":{
						"POSITION":197,
						"NORMAL":198,
						"TEXCOORD_0":199
					},
					"indices":200,
					"material":8
				}
			]
		},
		{
			"name":"Plane.001",
			"primitives":[
				{
					"attributes":{
						"POSITION":201,
						"NORMAL":202,
						"TEXCOORD_0":203
					},
					"indices":204,
					"material":8
				}
			]
		},
		{
			"name":"Mesh",
			"primitives":[
				{
					"attributes":{
						"POSITION":205,
						"NORMAL":206
					},
					"indices":207,
					"material":12
				}
			]
		},
		{
			"name":"Cylinder.001",
			"primitives":[
				{
					"attributes":{
						"POSITION":208,
						"NORMAL":209,
						"TEXCOORD_0":210
					},
					"indices":211,
					"material":12
				}
			]
		},
		{
			"name":"Mesh",
			"primitives":[
				{
					"attributes":{
						"POSITION":212,
						"NORMAL":213,
						"TEXCOORD_0":214
					},
					"indices":215,
					"material":7
				}
			]
		}
	],
	"textures":[
		{
			"sampler":0,
			"source":0
		},
		{
			"sampler":0,
			"source":1
		},
		{
			"sampler":0,
			"source":2
		},
		{
			"sampler":0,
			"source":3
		},
		{
			"sampler":0,
			"source":3
		},
		{
			"sampler":0,
			"source":4
		},
		{
			"sampler":0,
			"source":5
		}
	],
	"images":[
		{
			"mimeType":"image/png",
			"name":"TexturesCom_Various_TireCar_1K_normal.tif",
			"uri":"TexturesCom_Various_TireCar_1K_normal.tif.png"
		},
		{
			"mimeType":"image/jpeg",
			"name":"Leather0021_Big",
			"uri":"Leather0021_Big.jpg"
		},
		{
			"mimeType":"image/png",
			"name":"Leather0021_Big",
			"uri":"Leather0021_Big.png"
		},
		{
			"mimeType":"image/png",
			"name":"Porsche-Symbol",
			"uri":"Porsche-Symbol.png"
		},
		{
			"mimeType":"image/jpeg",
			"name":"untitled2",
			"uri":"untitled2.jpg"
		},
		{
			"mimeType":"image/jpeg",
			"name":"untitled",
			"uri":"untitled.jpg"
		}
	],
	"accessors":[
		{
			"bufferView":0,
			"componentType":5126,
			"count":26,
			"max":[
				11.454920768737793,
				5.456045150756836,
				8.425742149353027
			],
			"min":[
				-9.192524909973145,
				0,
				-9.192524909973145
			],
			"type":"VEC3"
		},
		{
			"bufferView":1,
			"componentType":5126,
			"count":26,
			"type":"VEC3"
		},
		{
			"bufferView":2,
			"componentType":5126,
			"count":26,
			"type":"VEC2"
		},
		{
			"bufferView":3,
			"componentType":5123,
			"count":72,
			"type":"SCALAR"
		},
		{
			"bufferView":4,
			"componentType":5126,
			"count":4,
			"max":[
				1.7087061405181885,
				0,
				4.727101802825928
			],
			"min":[
				-1.7087061405181885,
				0,
				-4.727101802825928
			],
			"type":"VEC3"
		},
		{
			"bufferView":5,
			"componentType":5126,
			"count":4,
			"type":"VEC3"
		},
		{
			"bufferView":6,
			"componentType":5126,
			"count":4,
			"type":"VEC2"
		},
		{
			"bufferView":7,
			"componentType":5123,
			"count":6,
			"type":"SCALAR"
		},
		{
			"bufferView":8,
			"componentType":5126,
			"count":68888,
			"max":[
				-0.008647528477013111,
				0.213505357503891,
				0.01585320755839348
			],
			"min":[
				-1.9971575736999512,
				0.057895224541425705,
				-0.34816646575927734
			],
			"type":"VEC3"
		},
		{
			"bufferView":9,
			"componentType":5126,
			"count":68888,
			"type":"VEC3"
		},
		{
			"bufferView":10,
			"componentType":5126,
			"count":68888,
			"type":"VEC2"
		},
		{
			"bufferView":11,
			"componentType":5125,
			"count":412416,
			"type":"SCALAR"
		},
		{
			"bufferView":12,
			"componentType":5126,
			"count":759,
			"max":[
				1.1619151830673218,
				0.7999849319458008,
				-0.2369328886270523
			],
			"min":[
				-1.1619151830673218,
				0.211693674325943,
				-1.8275182247161865
			],
			"type":"VEC3"
		},
		{
			"bufferView":13,
			"componentType":5126,
			"count":759,
			"type":"VEC3"
		},
		{
			"bufferView":14,
			"componentType":5123,
			"count":3936,
			"type":"SCALAR"
		},
		{
			"bufferView":15,
			"componentType":5126,
			"count":23772,
			"max":[
				0.005241152830421925,
				0.4287313222885132,
				0.4260674715042114
			],
			"min":[
				-2.997220277786255,
				-0.4203369915485382,
				-0.42300179600715637
			],
			"type":"VEC3"
		},
		{
			"bufferView":16,
			"componentType":5126,
			"count":23772,
			"type":"VEC3"
		},
		{
			"bufferView":17,
			"componentType":5126,
			"count":23772,
			"type":"VEC2"
		},
		{
			"bufferView":18,
			"componentType":5123,
			"count":140880,
			"type":"SCALAR"
		},
		{
			"bufferView":19,
			"componentType":5126,
			"count":29489,
			"max":[
				0.005241152830421925,
				0.4287313222885132,
				0.4260674715042114
			],
			"min":[
				-2.8782005310058594,
				-0.4203369915485382,
				-0.42300179600715637
			],
			"type":"VEC3"
		},
		{
			"bufferView":20,
			"componentType":5126,
			"count":29489,
			"type":"VEC3"
		},
		{
			"bufferView":21,
			"componentType":5126,
			"count":29489,
			"type":"VEC2"
		},
		{
			"bufferView":22,
			"componentType":5123,
			"count":140880,
			"type":"SCALAR"
		},
		{
			"bufferView":23,
			"componentType":5126,
			"count":8008,
			"max":[
				0.010804150253534317,
				0.5867831110954285,
				0.5841183662414551
			],
			"min":[
				-2.883763074874878,
				-0.5783886909484863,
				-0.5810543894767761
			],
			"type":"VEC3"
		},
		{
			"bufferView":24,
			"componentType":5126,
			"count":8008,
			"type":"VEC3"
		},
		{
			"bufferView":25,
			"componentType":5126,
			"count":8008,
			"type":"VEC2"
		},
		{
			"bufferView":26,
			"componentType":5123,
			"count":38400,
			"type":"SCALAR"
		},
		{
			"bufferView":27,
			"componentType":5126,
			"count":8008,
			"max":[
				0.010804150253534317,
				0.5867831110954285,
				0.5841183662414551
			],
			"min":[
				-3.0340800285339355,
				-0.5783886909484863,
				-0.5810543894767761
			],
			"type":"VEC3"
		},
		{
			"bufferView":28,
			"componentType":5126,
			"count":8008,
			"type":"VEC3"
		},
		{
			"bufferView":29,
			"componentType":5126,
			"count":8008,
			"type":"VEC2"
		},
		{
			"bufferView":30,
			"componentType":5126,
			"count":397,
			"max":[
				0.29801228642463684,
				0.29777705669403076,
				0.051165565848350525
			],
			"min":[
				-0.29801231622695923,
				-0.29566699266433716,
				-0.02838333696126938
			],
			"type":"VEC3"
		},
		{
			"bufferView":31,
			"componentType":5126,
			"count":397,
			"type":"VEC3"
		},
		{
			"bufferView":32,
			"componentType":5126,
			"count":397,
			"type":"VEC2"
		},
		{
			"bufferView":33,
			"componentType":5123,
			"count":1560,
			"type":"SCALAR"
		},
		{
			"bufferView":34,
			"componentType":5126,
			"count":2304,
			"max":[
				0.7957859039306641,
				0.39116010069847107,
				0.7695359587669373
			],
			"min":[
				-0.7957858443260193,
				0.10001224279403687,
				0.2019357830286026
			],
			"type":"VEC3"
		},
		{
			"bufferView":35,
			"componentType":5126,
			"count":2304,
			"type":"VEC3"
		},
		{
			"bufferView":36,
			"componentType":5123,
			"count":13824,
			"type":"SCALAR"
		},
		{
			"bufferView":37,
			"componentType":5126,
			"count":94270,
			"max":[
				1.5334115028381348,
				0.1548139750957489,
				0.1820746511220932
			],
			"min":[
				-0.4060277044773102,
				-0.936313807964325,
				-0.8127018809318542
			],
			"type":"VEC3"
		},
		{
			"bufferView":38,
			"componentType":5126,
			"count":94270,
			"type":"VEC3"
		},
		{
			"bufferView":39,
			"componentType":5126,
			"count":94270,
			"type":"VEC2"
		},
		{
			"bufferView":40,
			"componentType":5125,
			"count":142848,
			"type":"SCALAR"
		},
		{
			"bufferView":41,
			"componentType":5126,
			"count":70284,
			"max":[
				1.0556972026824951,
				1.7801764011383057,
				0.8471328020095825
			],
			"min":[
				-1.0556972026824951,
				0.6498184204101562,
				-0.19924557209014893
			],
			"type":"VEC3"
		},
		{
			"bufferView":42,
			"componentType":5126,
			"count":70284,
			"type":"VEC3"
		},
		{
			"bufferView":43,
			"componentType":5126,
			"count":70284,
			"type":"VEC2"
		},
		{
			"bufferView":44,
			"componentType":5125,
			"count":389376,
			"type":"SCALAR"
		},
		{
			"bufferView":45,
			"componentType":5126,
			"count":89248,
			"max":[
				1.242927074432373,
				0.8029102087020874,
				-0.7680608630180359
			],
			"min":[
				-1.242927074432373,
				0.15406706929206848,
				-4.326393127441406
			],
			"type":"VEC3"
		},
		{
			"bufferView":46,
			"componentType":5126,
			"count":89248,
			"type":"VEC3"
		},
		{
			"bufferView":47,
			"componentType":5125,
			"count":528384,
			"type":"SCALAR"
		},
		{
			"bufferView":48,
			"componentType":5126,
			"count":42400,
			"max":[
				0.8471307754516602,
				0.8058770298957825,
				-0.2369328886270523
			],
			"min":[
				-0.8471307754516602,
				0.35722193121910095,
				-1.3546960353851318
			],
			"type":"VEC3"
		},
		{
			"bufferView":49,
			"componentType":5126,
			"count":42400,
			"type":"VEC3"
		},
		{
			"bufferView":50,
			"componentType":5123,
			"count":251904,
			"type":"SCALAR"
		},
		{
			"bufferView":51,
			"componentType":5126,
			"count":336,
			"max":[
				0.42950719594955444,
				-0.49413809180259705,
				-6.509244918823242
			],
			"min":[
				-0.42951229214668274,
				-0.7002912163734436,
				-6.575541019439697
			],
			"type":"VEC3"
		},
		{
			"bufferView":52,
			"componentType":5126,
			"count":336,
			"type":"VEC3"
		},
		{
			"bufferView":53,
			"componentType":5126,
			"count":336,
			"type":"VEC2"
		},
		{
			"bufferView":54,
			"componentType":5123,
			"count":1680,
			"type":"SCALAR"
		},
		{
			"bufferView":55,
			"componentType":5126,
			"count":336,
			"max":[
				0.42951393127441406,
				-0.4067021608352661,
				6.390515327453613
			],
			"min":[
				-0.4295055568218231,
				-0.6128553152084351,
				6.324219703674316
			],
			"type":"VEC3"
		},
		{
			"bufferView":56,
			"componentType":5126,
			"count":336,
			"type":"VEC3"
		},
		{
			"bufferView":57,
			"componentType":5126,
			"count":336,
			"type":"VEC2"
		},
		{
			"bufferView":58,
			"componentType":5126,
			"count":72,
			"max":[
				0.034942902624607086,
				0.01381334662437439,
				0.0322871208190918
			],
			"min":[
				-0.03494291007518768,
				-0.016787320375442505,
				-0.030876636505126953
			],
			"type":"VEC3"
		},
		{
			"bufferView":59,
			"componentType":5126,
			"count":72,
			"type":"VEC3"
		},
		{
			"bufferView":60,
			"componentType":5126,
			"count":72,
			"type":"VEC2"
		},
		{
			"bufferView":61,
			"componentType":5123,
			"count":96,
			"type":"SCALAR"
		},
		{
			"bufferView":62,
			"componentType":5126,
			"count":72,
			"max":[
				0.03493467718362808,
				0.02321753464639187,
				0.01804584264755249
			],
			"min":[
				-0.03493471443653107,
				-0.029684729874134064,
				-0.026046574115753174
			],
			"type":"VEC3"
		},
		{
			"bufferView":63,
			"componentType":5126,
			"count":72,
			"type":"VEC3"
		},
		{
			"bufferView":64,
			"componentType":5126,
			"count":72,
			"type":"VEC2"
		},
		{
			"bufferView":65,
			"componentType":5123,
			"count":96,
			"type":"SCALAR"
		},
		{
			"bufferView":66,
			"componentType":5126,
			"count":1190,
			"max":[
				1.5312585830688477,
				0.34992316365242004,
				-3.251734495162964
			],
			"min":[
				-1.5312585830688477,
				0.19928494095802307,
				-3.385577917098999
			],
			"type":"VEC3"
		},
		{
			"bufferView":67,
			"componentType":5126,
			"count":1190,
			"type":"VEC3"
		},
		{
			"bufferView":68,
			"componentType":5123,
			"count":6720,
			"type":"SCALAR"
		},
		{
			"bufferView":69,
			"componentType":5126,
			"count":515,
			"max":[
				1.3959074020385742,
				-0.1248183622956276,
				0.6698678135871887
			],
			"min":[
				-1.3959074020385742,
				-1.0326807498931885,
				-6.399819374084473
			],
			"type":"VEC3"
		},
		{
			"bufferView":70,
			"componentType":5126,
			"count":515,
			"type":"VEC3"
		},
		{
			"bufferView":71,
			"componentType":5123,
			"count":2628,
			"type":"SCALAR"
		},
		{
			"bufferView":72,
			"componentType":5126,
			"count":2295,
			"max":[
				0.2677573561668396,
				0.11503522843122482,
				-3.5269157886505127
			],
			"min":[
				-0.26776012778282166,
				-0.25203314423561096,
				-3.704103946685791
			],
			"type":"VEC3"
		},
		{
			"bufferView":73,
			"componentType":5126,
			"count":2295,
			"type":"VEC3"
		},
		{
			"bufferView":74,
			"componentType":5126,
			"count":2295,
			"type":"VEC2"
		},
		{
			"bufferView":75,
			"componentType":5123,
			"count":11088,
			"type":"SCALAR"
		},
		{
			"bufferView":76,
			"componentType":5126,
			"count":17992,
			"max":[
				1.2113494873046875,
				0.19115608930587769,
				-1.8414219617843628
			],
			"min":[
				-1.2113494873046875,
				-0.8031118512153625,
				-3.717615842819214
			],
			"type":"VEC3"
		},
		{
			"bufferView":77,
			"componentType":5126,
			"count":17992,
			"type":"VEC3"
		},
		{
			"bufferView":78,
			"componentType":5126,
			"count":17992,
			"type":"VEC2"
		},
		{
			"bufferView":79,
			"componentType":5123,
			"count":97536,
			"type":"SCALAR"
		},
		{
			"bufferView":80,
			"componentType":5126,
			"count":828,
			"max":[
				0.14403581619262695,
				0.1783662736415863,
				1.1478344202041626
			],
			"min":[
				-0.14403581619262695,
				-0.1725439578294754,
				-0.08702754229307175
			],
			"type":"VEC3"
		},
		{
			"bufferView":81,
			"componentType":5126,
			"count":828,
			"type":"VEC3"
		},
		{
			"bufferView":82,
			"componentType":5126,
			"count":828,
			"type":"VEC2"
		},
		{
			"bufferView":83,
			"componentType":5123,
			"count":3456,
			"type":"SCALAR"
		},
		{
			"bufferView":84,
			"componentType":5126,
			"count":136080,
			"max":[
				1.1983507871627808,
				-0.01662399433553219,
				-5.562240123748779
			],
			"min":[
				-1.1983507871627808,
				-0.35749194025993347,
				-6.291891098022461
			],
			"type":"VEC3"
		},
		{
			"bufferView":85,
			"componentType":5126,
			"count":136080,
			"type":"VEC3"
		},
		{
			"bufferView":86,
			"componentType":5125,
			"count":814848,
			"type":"SCALAR"
		},
		{
			"bufferView":87,
			"componentType":5126,
			"count":282,
			"max":[
				1.4315736293792725,
				0.06224150210618973,
				0.17855727672576904
			],
			"min":[
				-1.431573510169983,
				-0.05143333971500397,
				-0.17463326454162598
			],
			"type":"VEC3"
		},
		{
			"bufferView":88,
			"componentType":5126,
			"count":282,
			"type":"VEC3"
		},
		{
			"bufferView":89,
			"componentType":5126,
			"count":282,
			"type":"VEC2"
		},
		{
			"bufferView":90,
			"componentType":5123,
			"count":1248,
			"type":"SCALAR"
		},
		{
			"bufferView":91,
			"componentType":5126,
			"count":3234,
			"max":[
				1.0951077938079834,
				-0.21540617942810059,
				-5.678298473358154
			],
			"min":[
				-1.0951077938079834,
				-0.2698952853679657,
				-5.738399028778076
			],
			"type":"VEC3"
		},
		{
			"bufferView":92,
			"componentType":5126,
			"count":3234,
			"type":"VEC3"
		},
		{
			"bufferView":93,
			"componentType":5123,
			"count":18432,
			"type":"SCALAR"
		},
		{
			"bufferView":94,
			"componentType":5126,
			"count":35154,
			"max":[
				1.1508170366287231,
				-0.06495969742536545,
				-5.567257881164551
			],
			"min":[
				-1.1508170366287231,
				-0.3134549856185913,
				-5.847047805786133
			],
			"type":"VEC3"
		},
		{
			"bufferView":95,
			"componentType":5126,
			"count":35154,
			"type":"VEC3"
		},
		{
			"bufferView":96,
			"componentType":5123,
			"count":209664,
			"type":"SCALAR"
		},
		{
			"bufferView":97,
			"componentType":5126,
			"count":44220,
			"max":[
				0.7808553576469421,
				0.10083691030740738,
				0.1025942787528038
			],
			"min":[
				-0.7780400514602661,
				-0.10713429003953934,
				-0.09948578476905823
			],
			"type":"VEC3"
		},
		{
			"bufferView":98,
			"componentType":5126,
			"count":44220,
			"type":"VEC3"
		},
		{
			"bufferView":99,
			"componentType":5126,
			"count":44220,
			"type":"VEC2"
		},
		{
			"bufferView":100,
			"componentType":5123,
			"count":66372,
			"type":"SCALAR"
		},
		{
			"bufferView":101,
			"componentType":5126,
			"count":559,
			"max":[
				0.03079814277589321,
				0.12799465656280518,
				0.030798207968473434
			],
			"min":[
				-0.03079838864505291,
				0.06639807671308517,
				-0.030798327177762985
			],
			"type":"VEC3"
		},
		{
			"bufferView":102,
			"componentType":5126,
			"count":559,
			"type":"VEC3"
		},
		{
			"bufferView":103,
			"componentType":5126,
			"count":559,
			"type":"VEC2"
		},
		{
			"bufferView":104,
			"componentType":5123,
			"count":2880,
			"type":"SCALAR"
		},
		{
			"bufferView":105,
			"componentType":5126,
			"count":63810,
			"max":[
				1.2173787355422974,
				0.01623356342315674,
				-5.251117706298828
			],
			"min":[
				-1.2173787355422974,
				-0.3635534346103668,
				-6.304985523223877
			],
			"type":"VEC3"
		},
		{
			"bufferView":106,
			"componentType":5126,
			"count":63810,
			"type":"VEC3"
		},
		{
			"bufferView":107,
			"componentType":5123,
			"count":380928,
			"type":"SCALAR"
		},
		{
			"bufferView":108,
			"componentType":5126,
			"count":2872,
			"max":[
				1.0342986583709717,
				-0.717980682849884,
				0.7056431770324707
			],
			"min":[
				-1.0342986583709717,
				-0.8470486402511597,
				0.23936714231967926
			],
			"type":"VEC3"
		},
		{
			"bufferView":109,
			"componentType":5126,
			"count":2872,
			"type":"VEC3"
		},
		{
			"bufferView":110,
			"componentType":5126,
			"count":2872,
			"type":"VEC2"
		},
		{
			"bufferView":111,
			"componentType":5123,
			"count":9168,
			"type":"SCALAR"
		},
		{
			"bufferView":112,
			"componentType":5126,
			"count":1920,
			"max":[
				1.199172854423523,
				-0.6743100881576538,
				-5.90005350112915
			],
			"min":[
				-1.1991726160049438,
				-0.7828941941261292,
				-6.194578170776367
			],
			"type":"VEC3"
		},
		{
			"bufferView":113,
			"componentType":5126,
			"count":1920,
			"type":"VEC3"
		},
		{
			"bufferView":114,
			"componentType":5126,
			"count":1920,
			"type":"VEC2"
		},
		{
			"bufferView":115,
			"componentType":5123,
			"count":2880,
			"type":"SCALAR"
		},
		{
			"bufferView":116,
			"componentType":5126,
			"count":2403,
			"max":[
				1.2140862941741943,
				-0.6537261009216309,
				-5.879514217376709
			],
			"min":[
				-1.2140862941741943,
				-0.7915958762168884,
				-6.199887275695801
			],
			"type":"VEC3"
		},
		{
			"bufferView":117,
			"componentType":5126,
			"count":2403,
			"type":"VEC3"
		},
		{
			"bufferView":118,
			"componentType":5126,
			"count":2403,
			"type":"VEC2"
		},
		{
			"bufferView":119,
			"componentType":5123,
			"count":13056,
			"type":"SCALAR"
		},
		{
			"bufferView":120,
			"componentType":5126,
			"count":2193,
			"max":[
				0.7334024906158447,
				-0.6228182315826416,
				-6.261617660522461
			],
			"min":[
				-0.7334024906158447,
				-0.8264490365982056,
				-6.448843955993652
			],
			"type":"VEC3"
		},
		{
			"bufferView":121,
			"componentType":5126,
			"count":2193,
			"type":"VEC3"
		},
		{
			"bufferView":122,
			"componentType":5123,
			"count":12288,
			"type":"SCALAR"
		},
		{
			"bufferView":123,
			"componentType":5126,
			"count":9534,
			"max":[
				0.1945747584104538,
				-0.2372984141111374,
				-3.2344207763671875
			],
			"min":[
				-0.1945747584104538,
				-0.7563544511795044,
				-3.8043458461761475
			],
			"type":"VEC3"
		},
		{
			"bufferView":124,
			"componentType":5126,
			"count":9534,
			"type":"VEC3"
		},
		{
			"bufferView":125,
			"componentType":5126,
			"count":9534,
			"type":"VEC2"
		},
		{
			"bufferView":126,
			"componentType":5123,
			"count":51144,
			"type":"SCALAR"
		},
		{
			"bufferView":127,
			"componentType":5126,
			"count":12467,
			"max":[
				0.18366079032421112,
				-0.5134561061859131,
				-2.230304479598999
			],
			"min":[
				-0.1836608201265335,
				-0.7565128803253174,
				-3.3019416332244873
			],
			"type":"VEC3"
		},
		{
			"bufferView":128,
			"componentType":5126,
			"count":12467,
			"type":"VEC3"
		},
		{
			"bufferView":129,
			"componentType":5126,
			"count":12467,
			"type":"VEC2"
		},
		{
			"bufferView":130,
			"componentType":5123,
			"count":57600,
			"type":"SCALAR"
		},
		{
			"bufferView":131,
			"componentType":5126,
			"count":14563,
			"max":[
				0.2110535055398941,
				-0.22739124298095703,
				-2.297095537185669
			],
			"min":[
				-0.2110535055398941,
				-0.7601951956748962,
				-3.7153966426849365
			],
			"type":"VEC3"
		},
		{
			"bufferView":132,
			"componentType":5126,
			"count":14563,
			"type":"VEC3"
		},
		{
			"bufferView":133,
			"componentType":5126,
			"count":14563,
			"type":"VEC2"
		},
		{
			"bufferView":134,
			"componentType":5123,
			"count":76800,
			"type":"SCALAR"
		},
		{
			"bufferView":135,
			"componentType":5126,
			"count":5124,
			"max":[
				1.0598907470703125,
				-0.13762545585632324,
				-3.4976537227630615
			],
			"min":[
				-1.0598907470703125,
				-0.14845828711986542,
				-3.551983118057251
			],
			"type":"VEC3"
		},
		{
			"bufferView":136,
			"componentType":5126,
			"count":5124,
			"type":"VEC3"
		},
		{
			"bufferView":137,
			"componentType":5123,
			"count":30720,
			"type":"SCALAR"
		},
		{
			"bufferView":138,
			"componentType":5126,
			"count":5223,
			"max":[
				0.35311731696128845,
				0.12436936795711517,
				0.02527417428791523
			],
			"min":[
				-0.38547322154045105,
				-0.10616940259933472,
				-0.29896071553230286
			],
			"type":"VEC3"
		},
		{
			"bufferView":139,
			"componentType":5126,
			"count":5223,
			"type":"VEC3"
		},
		{
			"bufferView":140,
			"componentType":5126,
			"count":5223,
			"type":"VEC2"
		},
		{
			"bufferView":141,
			"componentType":5123,
			"count":28800,
			"type":"SCALAR"
		},
		{
			"bufferView":142,
			"componentType":5126,
			"count":6146,
			"max":[
				-0.333451509475708,
				0.11041151732206345,
				-3.538731575012207
			],
			"min":[
				-0.8478707671165466,
				-0.13735225796699524,
				-3.6220462322235107
			],
			"type":"VEC3"
		},
		{
			"bufferView":143,
			"componentType":5126,
			"count":6146,
			"type":"VEC3"
		},
		{
			"bufferView":144,
			"componentType":5123,
			"count":36864,
			"type":"SCALAR"
		},
		{
			"bufferView":145,
			"componentType":5126,
			"count":5150,
			"max":[
				0.8980495929718018,
				0.12753628194332123,
				-3.53983473777771
			],
			"min":[
				0.32541370391845703,
				-0.11384822428226471,
				-3.6451292037963867
			],
			"type":"VEC3"
		},
		{
			"bufferView":146,
			"componentType":5126,
			"count":5150,
			"type":"VEC3"
		},
		{
			"bufferView":147,
			"componentType":5126,
			"count":5150,
			"type":"VEC2"
		},
		{
			"bufferView":148,
			"componentType":5123,
			"count":24768,
			"type":"SCALAR"
		},
		{
			"bufferView":149,
			"componentType":5126,
			"count":129536,
			"max":[
				1.2940932512283325,
				-0.605491578578949,
				-5.751457691192627
			],
			"min":[
				-1.294093132019043,
				-0.8470336198806763,
				-6.547164440155029
			],
			"type":"VEC3"
		},
		{
			"bufferView":150,
			"componentType":5126,
			"count":129536,
			"type":"VEC3"
		},
		{
			"bufferView":151,
			"componentType":5125,
			"count":777216,
			"type":"SCALAR"
		},
		{
			"bufferView":152,
			"componentType":5126,
			"count":27652,
			"max":[
				1.1723523139953613,
				0.7078555226325989,
				-1.7023903131484985
			],
			"min":[
				-1.1723524332046509,
				0.20721422135829926,
				-1.9814748764038086
			],
			"type":"VEC3"
		},
		{
			"bufferView":153,
			"componentType":5126,
			"count":27652,
			"type":"VEC3"
		},
		{
			"bufferView":154,
			"componentType":5123,
			"count":165888,
			"type":"SCALAR"
		},
		{
			"bufferView":155,
			"componentType":5126,
			"count":95400,
			"max":[
				1.3453630208969116,
				0.28017276525497437,
				2.2584333419799805
			],
			"min":[
				-1.345359444618225,
				-0.2801726460456848,
				-2.258432626724243
			],
			"type":"VEC3"
		},
		{
			"bufferView":156,
			"componentType":5126,
			"count":95400,
			"type":"VEC3"
		},
		{
			"bufferView":157,
			"componentType":5126,
			"count":95400,
			"type":"VEC2"
		},
		{
			"bufferView":158,
			"componentType":5125,
			"count":479232,
			"type":"SCALAR"
		},
		{
			"bufferView":159,
			"componentType":5126,
			"count":11656,
			"max":[
				1.3841787576675415,
				0.10797607153654099,
				1.897179126739502
			],
			"min":[
				-1.3841787576675415,
				-0.09859751164913177,
				-1.897178292274475
			],
			"type":"VEC3"
		},
		{
			"bufferView":160,
			"componentType":5126,
			"count":11656,
			"type":"VEC3"
		},
		{
			"bufferView":161,
			"componentType":5126,
			"count":11656,
			"type":"VEC2"
		},
		{
			"bufferView":162,
			"componentType":5123,
			"count":69888,
			"type":"SCALAR"
		},
		{
			"bufferView":163,
			"componentType":5126,
			"count":29354,
			"max":[
				1.5244812965393066,
				0.9483886361122131,
				0.8824707865715027
			],
			"min":[
				-1.5244828462600708,
				-1.0488171577453613,
				-6.5585036277771
			],
			"type":"VEC3"
		},
		{
			"bufferView":164,
			"componentType":5126,
			"count":29354,
			"type":"VEC3"
		},
		{
			"bufferView":165,
			"componentType":5123,
			"count":152160,
			"type":"SCALAR"
		},
		{
			"bufferView":166,
			"componentType":5126,
			"count":47394,
			"max":[
				1.3046480417251587,
				0.09026572108268738,
				0.7183764576911926
			],
			"min":[
				-1.3046480417251587,
				-0.17904843389987946,
				0.007292374037206173
			],
			"type":"VEC3"
		},
		{
			"bufferView":167,
			"componentType":5126,
			"count":47394,
			"type":"VEC3"
		},
		{
			"bufferView":168,
			"componentType":5123,
			"count":282624,
			"type":"SCALAR"
		},
		{
			"bufferView":169,
			"componentType":5126,
			"count":420,
			"max":[
				1.292512059211731,
				-0.022376487031579018,
				0.6595695614814758
			],
			"min":[
				-1.292512059211731,
				-0.1719217151403427,
				0.0075725591741502285
			],
			"type":"VEC3"
		},
		{
			"bufferView":170,
			"componentType":5126,
			"count":420,
			"type":"VEC3"
		},
		{
			"bufferView":171,
			"componentType":5126,
			"count":420,
			"type":"VEC2"
		},
		{
			"bufferView":172,
			"componentType":5123,
			"count":2496,
			"type":"SCALAR"
		},
		{
			"bufferView":173,
			"componentType":5126,
			"count":420,
			"max":[
				1.2636208534240723,
				0.0842486098408699,
				0.5852914452552795
			],
			"min":[
				-1.2636208534240723,
				-0.054282017052173615,
				0.0005641666939482093
			],
			"type":"VEC3"
		},
		{
			"bufferView":174,
			"componentType":5126,
			"count":420,
			"type":"VEC3"
		},
		{
			"bufferView":175,
			"componentType":5126,
			"count":420,
			"type":"VEC2"
		},
		{
			"bufferView":176,
			"componentType":5123,
			"count":2496,
			"type":"SCALAR"
		},
		{
			"bufferView":177,
			"componentType":5126,
			"count":1499,
			"max":[
				1.232090711593628,
				0.7905992269515991,
				-1.8257246017456055
			],
			"min":[
				-1.232090711593628,
				0.15685060620307922,
				-4.320598602294922
			],
			"type":"VEC3"
		},
		{
			"bufferView":178,
			"componentType":5126,
			"count":1499,
			"type":"VEC3"
		},
		{
			"bufferView":179,
			"componentType":5123,
			"count":8160,
			"type":"SCALAR"
		},
		{
			"bufferView":180,
			"componentType":5126,
			"count":7604,
			"max":[
				0.31346604228019714,
				0.3110347390174866,
				0.05128219723701477
			],
			"min":[
				-0.31346604228019714,
				-0.31378602981567383,
				-0.31194883584976196
			],
			"type":"VEC3"
		},
		{
			"bufferView":181,
			"componentType":5126,
			"count":7604,
			"type":"VEC3"
		},
		{
			"bufferView":182,
			"componentType":5126,
			"count":7604,
			"type":"VEC2"
		},
		{
			"bufferView":183,
			"componentType":5123,
			"count":37032,
			"type":"SCALAR"
		},
		{
			"bufferView":184,
			"componentType":5126,
			"count":333,
			"max":[
				0.42071980237960815,
				-0.4994376599788666,
				-6.522250175476074
			],
			"min":[
				-0.42072486877441406,
				-0.6953570246696472,
				-6.570755958557129
			],
			"type":"VEC3"
		},
		{
			"bufferView":185,
			"componentType":5126,
			"count":333,
			"type":"VEC3"
		},
		{
			"bufferView":186,
			"componentType":5126,
			"count":333,
			"type":"VEC2"
		},
		{
			"bufferView":187,
			"componentType":5123,
			"count":1824,
			"type":"SCALAR"
		},
		{
			"bufferView":188,
			"componentType":5126,
			"count":333,
			"max":[
				0.4207265377044678,
				-0.41200175881385803,
				6.385730743408203
			],
			"min":[
				-0.42071816325187683,
				-0.6079211235046387,
				6.337224006652832
			],
			"type":"VEC3"
		},
		{
			"bufferView":189,
			"componentType":5126,
			"count":333,
			"type":"VEC3"
		},
		{
			"bufferView":190,
			"componentType":5126,
			"count":333,
			"type":"VEC2"
		},
		{
			"bufferView":191,
			"componentType":5126,
			"count":10556,
			"max":[
				1.5508368015289307,
				0.44449013471603394,
				-3.2427754402160645
			],
			"min":[
				-1.5508368015289307,
				0.1794295459985733,
				-3.667259931564331
			],
			"type":"VEC3"
		},
		{
			"bufferView":192,
			"componentType":5126,
			"count":10556,
			"type":"VEC3"
		},
		{
			"bufferView":193,
			"componentType":5123,
			"count":62400,
			"type":"SCALAR"
		},
		{
			"bufferView":194,
			"componentType":5126,
			"count":1626,
			"max":[
				1.5507147312164307,
				0.3572786748409271,
				-3.242473602294922
			],
			"min":[
				-1.5507147312164307,
				0.26770246028900146,
				-3.4534409046173096
			],
			"type":"VEC3"
		},
		{
			"bufferView":195,
			"componentType":5126,
			"count":1626,
			"type":"VEC3"
		},
		{
			"bufferView":196,
			"componentType":5123,
			"count":9216,
			"type":"SCALAR"
		},
		{
			"bufferView":197,
			"componentType":5126,
			"count":13689,
			"max":[
				1.2375657558441162,
				0.8976476788520813,
				-0.16909414529800415
			],
			"min":[
				-1.2375683784484863,
				-0.8006558418273926,
				-4.403472423553467
			],
			"type":"VEC3"
		},
		{
			"bufferView":198,
			"componentType":5126,
			"count":13689,
			"type":"VEC3"
		},
		{
			"bufferView":199,
			"componentType":5126,
			"count":13689,
			"type":"VEC2"
		},
		{
			"bufferView":200,
			"componentType":5123,
			"count":71424,
			"type":"SCALAR"
		},
		{
			"bufferView":201,
			"componentType":5126,
			"count":962,
			"max":[
				0.14403581619262695,
				0.03140924498438835,
				1.1478344202041626
			],
			"min":[
				-0.14403581619262695,
				-0.2621667981147766,
				-0.08851791173219681
			],
			"type":"VEC3"
		},
		{
			"bufferView":202,
			"componentType":5126,
			"count":962,
			"type":"VEC3"
		},
		{
			"bufferView":203,
			"componentType":5126,
			"count":962,
			"type":"VEC2"
		},
		{
			"bufferView":204,
			"componentType":5123,
			"count":4608,
			"type":"SCALAR"
		},
		{
			"bufferView":205,
			"componentType":5126,
			"count":20800,
			"max":[
				1.123767375946045,
				-0.2061348855495453,
				-5.614019393920898
			],
			"min":[
				-1.1237672567367554,
				-0.28278234601020813,
				-5.749039649963379
			],
			"type":"VEC3"
		},
		{
			"bufferView":206,
			"componentType":5126,
			"count":20800,
			"type":"VEC3"
		},
		{
			"bufferView":207,
			"componentType":5123,
			"count":122880,
			"type":"SCALAR"
		},
		{
			"bufferView":208,
			"componentType":5126,
			"count":295,
			"max":[
				0.020862184464931488,
				0.0835605040192604,
				0.020862184464931488
			],
			"min":[
				-0.020862184464931488,
				-0.03000296652317047,
				-0.020862184464931488
			],
			"type":"VEC3"
		},
		{
			"bufferView":209,
			"componentType":5126,
			"count":295,
			"type":"VEC3"
		},
		{
			"bufferView":210,
			"componentType":5126,
			"count":295,
			"type":"VEC2"
		},
		{
			"bufferView":211,
			"componentType":5123,
			"count":1332,
			"type":"SCALAR"
		},
		{
			"bufferView":212,
			"componentType":5126,
			"count":5456,
			"max":[
				1.2512180805206299,
				-0.626194417476654,
				-5.773936748504639
			],
			"min":[
				-1.2512180805206299,
				-0.8190715909004211,
				-6.2350993156433105
			],
			"type":"VEC3"
		},
		{
			"bufferView":213,
			"componentType":5126,
			"count":5456,
			"type":"VEC3"
		},
		{
			"bufferView":214,
			"componentType":5126,
			"count":5456,
			"type":"VEC2"
		},
		{
			"bufferView":215,
			"componentType":5123,
			"count":31488,
			"type":"SCALAR"
		}
	],
	"bufferViews":[
		{
			"buffer":0,
			"byteLength":312,
			"byteOffset":0,
			"target":34962
		},
		{
			"buffer":0,
			"byteLength":312,
			"byteOffset":312,
			"target":34962
		},
		{
			"buffer":0,
			"byteLength":208,
			"byteOffset":624,
			"target":34962
		},
		{
			"buffer":0,
			"byteLength":144,
			"byteOffset":832,
			"target":34963
		},
		{
			"buffer":0,
			"byteLength":48,
			"byteOffset":976,
			"target":34962
		},
		{
			"buffer":0,
			"byteLength":48,
			"byteOffset":1024,
			"target":34962
		},
		{
			"buffer":0,
			"byteLength":32,
			"byteOffset":1072,
			"target":34962
		},
		{
			"buffer":0,
			"byteLength":12,
			"byteOffset":1104,
			"target":34963
		},
		{
			"buffer":0,
			"byteLength":826656,
			"byteOffset":1116,
			"target":34962
		},
		{
			"buffer":0,
			"byteLength":826656,
			"byteOffset":827772,
			"target":34962
		},
		{
			"buffer":0,
			"byteLength":551104,
			"byteOffset":1654428,
			"target":34962
		},
		{
			"buffer":0,
			"byteLength":1649664,
			"byteOffset":2205532,
			"target":34963
		},
		{
			"buffer":0,
			"byteLength":9108,
			"byteOffset":3855196,
			"target":34962
		},
		{
			"buffer":0,
			"byteLength":9108,
			"byteOffset":3864304,
			"target":34962
		},
		{
			"buffer":0,
			"byteLength":7872,
			"byteOffset":3873412,
			"target":34963
		},
		{
			"buffer":0,
			"byteLength":285264,
			"byteOffset":3881284,
			"target":34962
		},
		{
			"buffer":0,
			"byteLength":285264,
			"byteOffset":4166548,
			"target":34962
		},
		{
			"buffer":0,
			"byteLength":190176,
			"byteOffset":4451812,
			"target":34962
		},
		{
			"buffer":0,
			"byteLength":281760,
			"byteOffset":4641988,
			"target":34963
		},
		{
			"buffer":0,
			"byteLength":353868,
			"byteOffset":4923748,
			"target":34962
		},
		{
			"buffer":0,
			"byteLength":353868,
			"byteOffset":5277616,
			"target":34962
		},
		{
			"buffer":0,
			"byteLength":235912,
			"byteOffset":5631484,
			"target":34962
		},
		{
			"buffer":0,
			"byteLength":281760,
			"byteOffset":5867396,
			"target":34963
		},
		{
			"buffer":0,
			"byteLength":96096,
			"byteOffset":6149156,
			"target":34962
		},
		{
			"buffer":0,
			"byteLength":96096,
			"byteOffset":6245252,
			"target":34962
		},
		{
			"buffer":0,
			"byteLength":64064,
			"byteOffset":6341348,
			"target":34962
		},
		{
			"buffer":0,
			"byteLength":76800,
			"byteOffset":6405412,
			"target":34963
		},
		{
			"buffer":0,
			"byteLength":96096,
			"byteOffset":6482212,
			"target":34962
		},
		{
			"buffer":0,
			"byteLength":96096,
			"byteOffset":6578308,
			"target":34962
		},
		{
			"buffer":0,
			"byteLength":64064,
			"byteOffset":6674404,
			"target":34962
		},
		{
			"buffer":0,
			"byteLength":4764,
			"byteOffset":6738468,
			"target":34962
		},
		{
			"buffer":0,
			"byteLength":4764,
			"byteOffset":6743232,
			"target":34962
		},
		{
			"buffer":0,
			"byteLength":3176,
			"byteOffset":6747996,
			"target":34962
		},
		{
			"buffer":0,
			"byteLength":3120,
			"byteOffset":6751172,
			"target":34963
		},
		{
			"buffer":0,
			"byteLength":27648,
			"byteOffset":6754292,
			"target":34962
		},
		{
			"buffer":0,
			"byteLength":27648,
			"byteOffset":6781940,
			"target":34962
		},
		{
			"buffer":0,
			"byteLength":27648,
			"byteOffset":6809588,
			"target":34963
		},
		{
			"buffer":0,
			"byteLength":1131240,
			"byteOffset":6837236,
			"target":34962
		},
		{
			"buffer":0,
			"byteLength":1131240,
			"byteOffset":7968476,
			"target":34962
		},
		{
			"buffer":0,
			"byteLength":754160,
			"byteOffset":9099716,
			"target":34962
		},
		{
			"buffer":0,
			"byteLength":571392,
			"byteOffset":9853876,
			"target":34963
		},
		{
			"buffer":0,
			"byteLength":843408,
			"byteOffset":10425268,
			"target":34962
		},
		{
			"buffer":0,
			"byteLength":843408,
			"byteOffset":11268676,
			"target":34962
		},
		{
			"buffer":0,
			"byteLength":562272,
			"byteOffset":12112084,
			"target":34962
		},
		{
			"buffer":0,
			"byteLength":1557504,
			"byteOffset":12674356,
			"target":34963
		},
		{
			"buffer":0,
			"byteLength":1070976,
			"byteOffset":14231860,
			"target":34962
		},
		{
			"buffer":0,
			"byteLength":1070976,
			"byteOffset":15302836,
			"target":34962
		},
		{
			"buffer":0,
			"byteLength":2113536,
			"byteOffset":16373812,
			"target":34963
		},
		{
			"buffer":0,
			"byteLength":508800,
			"byteOffset":18487348,
			"target":34962
		},
		{
			"buffer":0,
			"byteLength":508800,
			"byteOffset":18996148,
			"target":34962
		},
		{
			"buffer":0,
			"byteLength":503808,
			"byteOffset":19504948,
			"target":34963
		},
		{
			"buffer":0,
			"byteLength":4032,
			"byteOffset":20008756,
			"target":34962
		},
		{
			"buffer":0,
			"byteLength":4032,
			"byteOffset":20012788,
			"target":34962
		},
		{
			"buffer":0,
			"byteLength":2688,
			"byteOffset":20016820,
			"target":34962
		},
		{
			"buffer":0,
			"byteLength":3360,
			"byteOffset":20019508,
			"target":34963
		},
		{
			"buffer":0,
			"byteLength":4032,
			"byteOffset":20022868,
			"target":34962
		},
		{
			"buffer":0,
			"byteLength":4032,
			"byteOffset":20026900,
			"target":34962
		},
		{
			"buffer":0,
			"byteLength":2688,
			"byteOffset":20030932,
			"target":34962
		},
		{
			"buffer":0,
			"byteLength":864,
			"byteOffset":20033620,
			"target":34962
		},
		{
			"buffer":0,
			"byteLength":864,
			"byteOffset":20034484,
			"target":34962
		},
		{
			"buffer":0,
			"byteLength":576,
			"byteOffset":20035348,
			"target":34962
		},
		{
			"buffer":0,
			"byteLength":192,
			"byteOffset":20035924,
			"target":34963
		},
		{
			"buffer":0,
			"byteLength":864,
			"byteOffset":20036116,
			"target":34962
		},
		{
			"buffer":0,
			"byteLength":864,
			"byteOffset":20036980,
			"target":34962
		},
		{
			"buffer":0,
			"byteLength":576,
			"byteOffset":20037844,
			"target":34962
		},
		{
			"buffer":0,
			"byteLength":192,
			"byteOffset":20038420,
			"target":34963
		},
		{
			"buffer":0,
			"byteLength":14280,
			"byteOffset":20038612,
			"target":34962
		},
		{
			"buffer":0,
			"byteLength":14280,
			"byteOffset":20052892,
			"target":34962
		},
		{
			"buffer":0,
			"byteLength":13440,
			"byteOffset":20067172,
			"target":34963
		},
		{
			"buffer":0,
			"byteLength":6180,
			"byteOffset":20080612,
			"target":34962
		},
		{
			"buffer":0,
			"byteLength":6180,
			"byteOffset":20086792,
			"target":34962
		},
		{
			"buffer":0,
			"byteLength":5256,
			"byteOffset":20092972,
			"target":34963
		},
		{
			"buffer":0,
			"byteLength":27540,
			"byteOffset":20098228,
			"target":34962
		},
		{
			"buffer":0,
			"byteLength":27540,
			"byteOffset":20125768,
			"target":34962
		},
		{
			"buffer":0,
			"byteLength":18360,
			"byteOffset":20153308,
			"target":34962
		},
		{
			"buffer":0,
			"byteLength":22176,
			"byteOffset":20171668,
			"target":34963
		},
		{
			"buffer":0,
			"byteLength":215904,
			"byteOffset":20193844,
			"target":34962
		},
		{
			"buffer":0,
			"byteLength":215904,
			"byteOffset":20409748,
			"target":34962
		},
		{
			"buffer":0,
			"byteLength":143936,
			"byteOffset":20625652,
			"target":34962
		},
		{
			"buffer":0,
			"byteLength":195072,
			"byteOffset":20769588,
			"target":34963
		},
		{
			"buffer":0,
			"byteLength":9936,
			"byteOffset":20964660,
			"target":34962
		},
		{
			"buffer":0,
			"byteLength":9936,
			"byteOffset":20974596,
			"target":34962
		},
		{
			"buffer":0,
			"byteLength":6624,
			"byteOffset":20984532,
			"target":34962
		},
		{
			"buffer":0,
			"byteLength":6912,
			"byteOffset":20991156,
			"target":34963
		},
		{
			"buffer":0,
			"byteLength":1632960,
			"byteOffset":20998068,
			"target":34962
		},
		{
			"buffer":0,
			"byteLength":1632960,
			"byteOffset":22631028,
			"target":34962
		},
		{
			"buffer":0,
			"byteLength":3259392,
			"byteOffset":24263988,
			"target":34963
		},
		{
			"buffer":0,
			"byteLength":3384,
			"byteOffset":27523380,
			"target":34962
		},
		{
			"buffer":0,
			"byteLength":3384,
			"byteOffset":27526764,
			"target":34962
		},
		{
			"buffer":0,
			"byteLength":2256,
			"byteOffset":27530148,
			"target":34962
		},
		{
			"buffer":0,
			"byteLength":2496,
			"byteOffset":27532404,
			"target":34963
		},
		{
			"buffer":0,
			"byteLength":38808,
			"byteOffset":27534900,
			"target":34962
		},
		{
			"buffer":0,
			"byteLength":38808,
			"byteOffset":27573708,
			"target":34962
		},
		{
			"buffer":0,
			"byteLength":36864,
			"byteOffset":27612516,
			"target":34963
		},
		{
			"buffer":0,
			"byteLength":421848,
			"byteOffset":27649380,
			"target":34962
		},
		{
			"buffer":0,
			"byteLength":421848,
			"byteOffset":28071228,
			"target":34962
		},
		{
			"buffer":0,
			"byteLength":419328,
			"byteOffset":28493076,
			"target":34963
		},
		{
			"buffer":0,
			"byteLength":530640,
			"byteOffset":28912404,
			"target":34962
		},
		{
			"buffer":0,
			"byteLength":530640,
			"byteOffset":29443044,
			"target":34962
		},
		{
			"buffer":0,
			"byteLength":353760,
			"byteOffset":29973684,
			"target":34962
		},
		{
			"buffer":0,
			"byteLength":132744,
			"byteOffset":30327444,
			"target":34963
		},
		{
			"buffer":0,
			"byteLength":6708,
			"byteOffset":30460188,
			"target":34962
		},
		{
			"buffer":0,
			"byteLength":6708,
			"byteOffset":30466896,
			"target":34962
		},
		{
			"buffer":0,
			"byteLength":4472,
			"byteOffset":30473604,
			"target":34962
		},
		{
			"buffer":0,
			"byteLength":5760,
			"byteOffset":30478076,
			"target":34963
		},
		{
			"buffer":0,
			"byteLength":765720,
			"byteOffset":30483836,
			"target":34962
		},
		{
			"buffer":0,
			"byteLength":765720,
			"byteOffset":31249556,
			"target":34962
		},
		{
			"buffer":0,
			"byteLength":761856,
			"byteOffset":32015276,
			"target":34963
		},
		{
			"buffer":0,
			"byteLength":34464,
			"byteOffset":32777132,
			"target":34962
		},
		{
			"buffer":0,
			"byteLength":34464,
			"byteOffset":32811596,
			"target":34962
		},
		{
			"buffer":0,
			"byteLength":22976,
			"byteOffset":32846060,
			"target":34962
		},
		{
			"buffer":0,
			"byteLength":18336,
			"byteOffset":32869036,
			"target":34963
		},
		{
			"buffer":0,
			"byteLength":23040,
			"byteOffset":32887372,
			"target":34962
		},
		{
			"buffer":0,
			"byteLength":23040,
			"byteOffset":32910412,
			"target":34962
		},
		{
			"buffer":0,
			"byteLength":15360,
			"byteOffset":32933452,
			"target":34962
		},
		{
			"buffer":0,
			"byteLength":5760,
			"byteOffset":32948812,
			"target":34963
		},
		{
			"buffer":0,
			"byteLength":28836,
			"byteOffset":32954572,
			"target":34962
		},
		{
			"buffer":0,
			"byteLength":28836,
			"byteOffset":32983408,
			"target":34962
		},
		{
			"buffer":0,
			"byteLength":19224,
			"byteOffset":33012244,
			"target":34962
		},
		{
			"buffer":0,
			"byteLength":26112,
			"byteOffset":33031468,
			"target":34963
		},
		{
			"buffer":0,
			"byteLength":26316,
			"byteOffset":33057580,
			"target":34962
		},
		{
			"buffer":0,
			"byteLength":26316,
			"byteOffset":33083896,
			"target":34962
		},
		{
			"buffer":0,
			"byteLength":24576,
			"byteOffset":33110212,
			"target":34963
		},
		{
			"buffer":0,
			"byteLength":114408,
			"byteOffset":33134788,
			"target":34962
		},
		{
			"buffer":0,
			"byteLength":114408,
			"byteOffset":33249196,
			"target":34962
		},
		{
			"buffer":0,
			"byteLength":76272,
			"byteOffset":33363604,
			"target":34962
		},
		{
			"buffer":0,
			"byteLength":102288,
			"byteOffset":33439876,
			"target":34963
		},
		{
			"buffer":0,
			"byteLength":149604,
			"byteOffset":33542164,
			"target":34962
		},
		{
			"buffer":0,
			"byteLength":149604,
			"byteOffset":33691768,
			"target":34962
		},
		{
			"buffer":0,
			"byteLength":99736,
			"byteOffset":33841372,
			"target":34962
		},
		{
			"buffer":0,
			"byteLength":115200,
			"byteOffset":33941108,
			"target":34963
		},
		{
			"buffer":0,
			"byteLength":174756,
			"byteOffset":34056308,
			"target":34962
		},
		{
			"buffer":0,
			"byteLength":174756,
			"byteOffset":34231064,
			"target":34962
		},
		{
			"buffer":0,
			"byteLength":116504,
			"byteOffset":34405820,
			"target":34962
		},
		{
			"buffer":0,
			"byteLength":153600,
			"byteOffset":34522324,
			"target":34963
		},
		{
			"buffer":0,
			"byteLength":61488,
			"byteOffset":34675924,
			"target":34962
		},
		{
			"buffer":0,
			"byteLength":61488,
			"byteOffset":34737412,
			"target":34962
		},
		{
			"buffer":0,
			"byteLength":61440,
			"byteOffset":34798900,
			"target":34963
		},
		{
			"buffer":0,
			"byteLength":62676,
			"byteOffset":34860340,
			"target":34962
		},
		{
			"buffer":0,
			"byteLength":62676,
			"byteOffset":34923016,
			"target":34962
		},
		{
			"buffer":0,
			"byteLength":41784,
			"byteOffset":34985692,
			"target":34962
		},
		{
			"buffer":0,
			"byteLength":57600,
			"byteOffset":35027476,
			"target":34963
		},
		{
			"buffer":0,
			"byteLength":73752,
			"byteOffset":35085076,
			"target":34962
		},
		{
			"buffer":0,
			"byteLength":73752,
			"byteOffset":35158828,
			"target":34962
		},
		{
			"buffer":0,
			"byteLength":73728,
			"byteOffset":35232580,
			"target":34963
		},
		{
			"buffer":0,
			"byteLength":61800,
			"byteOffset":35306308,
			"target":34962
		},
		{
			"buffer":0,
			"byteLength":61800,
			"byteOffset":35368108,
			"target":34962
		},
		{
			"buffer":0,
			"byteLength":41200,
			"byteOffset":35429908,
			"target":34962
		},
		{
			"buffer":0,
			"byteLength":49536,
			"byteOffset":35471108,
			"target":34963
		},
		{
			"buffer":0,
			"byteLength":1554432,
			"byteOffset":35520644,
			"target":34962
		},
		{
			"buffer":0,
			"byteLength":1554432,
			"byteOffset":37075076,
			"target":34962
		},
		{
			"buffer":0,
			"byteLength":3108864,
			"byteOffset":38629508,
			"target":34963
		},
		{
			"buffer":0,
			"byteLength":331824,
			"byteOffset":41738372,
			"target":34962
		},
		{
			"buffer":0,
			"byteLength":331824,
			"byteOffset":42070196,
			"target":34962
		},
		{
			"buffer":0,
			"byteLength":331776,
			"byteOffset":42402020,
			"target":34963
		},
		{
			"buffer":0,
			"byteLength":1144800,
			"byteOffset":42733796,
			"target":34962
		},
		{
			"buffer":0,
			"byteLength":1144800,
			"byteOffset":43878596,
			"target":34962
		},
		{
			"buffer":0,
			"byteLength":763200,
			"byteOffset":45023396,
			"target":34962
		},
		{
			"buffer":0,
			"byteLength":1916928,
			"byteOffset":45786596,
			"target":34963
		},
		{
			"buffer":0,
			"byteLength":139872,
			"byteOffset":47703524,
			"target":34962
		},
		{
			"buffer":0,
			"byteLength":139872,
			"byteOffset":47843396,
			"target":34962
		},
		{
			"buffer":0,
			"byteLength":93248,
			"byteOffset":47983268,
			"target":34962
		},
		{
			"buffer":0,
			"byteLength":139776,
			"byteOffset":48076516,
			"target":34963
		},
		{
			"buffer":0,
			"byteLength":352248,
			"byteOffset":48216292,
			"target":34962
		},
		{
			"buffer":0,
			"byteLength":352248,
			"byteOffset":48568540,
			"target":34962
		},
		{
			"buffer":0,
			"byteLength":304320,
			"byteOffset":48920788,
			"target":34963
		},
		{
			"buffer":0,
			"byteLength":568728,
			"byteOffset":49225108,
			"target":34962
		},
		{
			"buffer":0,
			"byteLength":568728,
			"byteOffset":49793836,
			"target":34962
		},
		{
			"buffer":0,
			"byteLength":565248,
			"byteOffset":50362564,
			"target":34963
		},
		{
			"buffer":0,
			"byteLength":5040,
			"byteOffset":50927812,
			"target":34962
		},
		{
			"buffer":0,
			"byteLength":5040,
			"byteOffset":50932852,
			"target":34962
		},
		{
			"buffer":0,
			"byteLength":3360,
			"byteOffset":50937892,
			"target":34962
		},
		{
			"buffer":0,
			"byteLength":4992,
			"byteOffset":50941252,
			"target":34963
		},
		{
			"buffer":0,
			"byteLength":5040,
			"byteOffset":50946244,
			"target":34962
		},
		{
			"buffer":0,
			"byteLength":5040,
			"byteOffset":50951284,
			"target":34962
		},
		{
			"buffer":0,
			"byteLength":3360,
			"byteOffset":50956324,
			"target":34962
		},
		{
			"buffer":0,
			"byteLength":4992,
			"byteOffset":50959684,
			"target":34963
		},
		{
			"buffer":0,
			"byteLength":17988,
			"byteOffset":50964676,
			"target":34962
		},
		{
			"buffer":0,
			"byteLength":17988,
			"byteOffset":50982664,
			"target":34962
		},
		{
			"buffer":0,
			"byteLength":16320,
			"byteOffset":51000652,
			"target":34963
		},
		{
			"buffer":0,
			"byteLength":91248,
			"byteOffset":51016972,
			"target":34962
		},
		{
			"buffer":0,
			"byteLength":91248,
			"byteOffset":51108220,
			"target":34962
		},
		{
			"buffer":0,
			"byteLength":60832,
			"byteOffset":51199468,
			"target":34962
		},
		{
			"buffer":0,
			"byteLength":74064,
			"byteOffset":51260300,
			"target":34963
		},
		{
			"buffer":0,
			"byteLength":3996,
			"byteOffset":51334364,
			"target":34962
		},
		{
			"buffer":0,
			"byteLength":3996,
			"byteOffset":51338360,
			"target":34962
		},
		{
			"buffer":0,
			"byteLength":2664,
			"byteOffset":51342356,
			"target":34962
		},
		{
			"buffer":0,
			"byteLength":3648,
			"byteOffset":51345020,
			"target":34963
		},
		{
			"buffer":0,
			"byteLength":3996,
			"byteOffset":51348668,
			"target":34962
		},
		{
			"buffer":0,
			"byteLength":3996,
			"byteOffset":51352664,
			"target":34962
		},
		{
			"buffer":0,
			"byteLength":2664,
			"byteOffset":51356660,
			"target":34962
		},
		{
			"buffer":0,
			"byteLength":126672,
			"byteOffset":51359324,
			"target":34962
		},
		{
			"buffer":0,
			"byteLength":126672,
			"byteOffset":51485996,
			"target":34962
		},
		{
			"buffer":0,
			"byteLength":124800,
			"byteOffset":51612668,
			"target":34963
		},
		{
			"buffer":0,
			"byteLength":19512,
			"byteOffset":51737468,
			"target":34962
		},
		{
			"buffer":0,
			"byteLength":19512,
			"byteOffset":51756980,
			"target":34962
		},
		{
			"buffer":0,
			"byteLength":18432,
			"byteOffset":51776492,
			"target":34963
		},
		{
			"buffer":0,
			"byteLength":164268,
			"byteOffset":51794924,
			"target":34962
		},
		{
			"buffer":0,
			"byteLength":164268,
			"byteOffset":51959192,
			"target":34962
		},
		{
			"buffer":0,
			"byteLength":109512,
			"byteOffset":52123460,
			"target":34962
		},
		{
			"buffer":0,
			"byteLength":142848,
			"byteOffset":52232972,
			"target":34963
		},
		{
			"buffer":0,
			"byteLength":11544,
			"byteOffset":52375820,
			"target":34962
		},
		{
			"buffer":0,
			"byteLength":11544,
			"byteOffset":52387364,
			"target":34962
		},
		{
			"buffer":0,
			"byteLength":7696,
			"byteOffset":52398908,
			"target":34962
		},
		{
			"buffer":0,
			"byteLength":9216,
			"byteOffset":52406604,
			"target":34963
		},
		{
			"buffer":0,
			"byteLength":249600,
			"byteOffset":52415820,
			"target":34962
		},
		{
			"buffer":0,
			"byteLength":249600,
			"byteOffset":52665420,
			"target":34962
		},
		{
			"buffer":0,
			"byteLength":245760,
			"byteOffset":52915020,
			"target":34963
		},
		{
			"buffer":0,
			"byteLength":3540,
			"byteOffset":53160780,
			"target":34962
		},
		{
			"buffer":0,
			"byteLength":3540,
			"byteOffset":53164320,
			"target":34962
		},
		{
			"buffer":0,
			"byteLength":2360,
			"byteOffset":53167860,
			"target":34962
		},
		{
			"buffer":0,
			"byteLength":2664,
			"byteOffset":53170220,
			"target":34963
		},
		{
			"buffer":0,
			"byteLength":65472,
			"byteOffset":53172884,
			"target":34962
		},
		{
			"buffer":0,
			"byteLength":65472,
			"byteOffset":53238356,
			"target":34962
		},
		{
			"buffer":0,
			"byteLength":43648,
			"byteOffset":53303828,
			"target":34962
		},
		{
			"buffer":0,
			"byteLength":62976,
			"byteOffset":53347476,
			"target":34963
		}
	],
	"samplers":[
		{
			"magFilter":9729,
			"minFilter":9987
		}
	],
	"buffers":[
		{
			"byteLength":53410452,
			"uri":"audi.bin"
		}
	]
}
