{
	"asset":{
		"generator":"Khronos glTF Blender I/O v5.2.39",
		"version":"2.0"
	},
	"extensionsUsed":[
		"KHR_materials_emissive_strength"
	],
	"scene":0,
	"scenes":[
		{
			"name":"Scene",
			"nodes":[
				0,
				1,
				2,
				3,
				4,
				5
			]
		}
	],
	"nodes":[
		{
			"camera":0,
			"name":"Camera",
			"translation":[
				0,
				0,
				12.930325508117676
			]
		},
		{
			"mesh":0,
			"name":"Icosphere",
			"translation":[
				-2.4000000953674316,
				0,
				0
			]
		},
		{
			"mesh":1,
			"name":"Icosphere.001"
		},
		{
			"mesh":2,
			"name":"Icosphere.002",
			"translation":[
				2.4000015258789062,
				0,
				0
			]
		},
		{
			"mesh":3,
			"name":"Icosphere.003",
			"translation":[
				0,
				0,
				-2.880506992340088
			]
		},
		{
			"mesh":4,
			"name":"Plane",
			"translation":[
				0,
				6.569701671600342,
				0
			]
		}
	],
	"cameras":[
		{
			"name":"Camera",
			"perspective":{
				"aspectRatio":1.7777777777777777,
				"yfov":0.39959652046304894,
				"zfar":100,
				"znear":0.10000000149011612
			},
			"type":"perspective"
		}
	],
	"materials":[
		{
			"doubleSided":true,
			"name":"Material.001",
			"pbrMetallicRoughness":{
				"baseColorTexture":{
					"index":0
				},
				"metallicFactor":0,
				"roughnessFactor":0.5
			}
		},
		{
			"doubleSided":true,
			"name":"Material.003",
			"pbrMetallicRoughness":{
				"baseColorTexture":{
					"index":1
				},
				"metallicFactor":0.5,
				"roughnessFactor":0.5
			}
		},
		{
			"doubleSided":true,
			"name":"Material.004",
			"pbrMetallicRoughness":{
				"baseColorTexture":{
					"index":2
				},
				"roughnessFactor":0.2832370102405548
			}
		},
		{
			"doubleSided":true,
			"name":"Material.005",
			"pbrMetallicRoughness":{
				"baseColorFactor":[
					0.800000011920929,
					0.800000011920929,
					0.800000011920929,
					1
				],
				"roughnessFactor":0
			}
		},
		{
			"doubleSided":true,
			"emissiveFactor":[
				1,
				1,
				1
			],
			"extensions":{
				"KHR_materials_emissive_strength":{
					"emissiveStrength":29.599998474121094
				}
			},
			"name":"Material.002",
			"pbrMetallicRoughness":{
				"baseColorFactor":[
					0.800000011920929,
					0.800000011920929,
					0.800000011920929,
					1
				],
				"metallicFactor":0,
				"roughnessFactor":0.5
			}
		}
	],
	"meshes":[
		{
			"name":"Icosphere",
			"primitives":[
				{
					"attributes":{
						"POSITION":0,
						"NORMAL":1,
						"TEXCOORD_0":2
					},
					"indices":3,
					"material":0
				}
			]
		},
		{
			"name":"Icosphere.001",
			"primitives":[
				{
					"attributes":{
						"POSITION":4,
						"NORMAL":5,
						"TEXCOORD_0":6
					},
					"indices":7,
					"material":1
				}
			]
		},
		{
			"name":"Icosphere.002",
			"primitives":[
				{
					"attributes":{
						"POSITION":8,
						"NORMAL":9,
						"TEXCOORD_0":10
					},
					"indices":7,
					"material":2
				}
			]
		},
		{
			"name":"Icosphere.003",
			"primitives":[
				{
					"attributes":{
						"POSITION":11,
						"NORMAL":12,
						"TEXCOORD_0":13
					},
					"indices":7,
					"material":3
				}
			]
		},
		{
			"name":"Plane",
			"primitives":[
				{
					"attributes":{
						"POSITION":14,
						"NORMAL":15,
						"TEXCOORD_0":16
					},
					"indices":17,
					"material":4
				}
			]
		}
	],
	"textures":[
		{
			"sampler":0,
			"source":0
		},
		{
			"sampler":0,
			"source":1
		},
		{
			"sampler":0,
			"source":2
		}
	],
	"images":[
		{
			"mimeType":"image/png",
			"name":"bateria 1",
			"uri":"bateria%201.png"
		},
		{
			"mimeType":"image/png",
			"name":"bateria 2",
			"uri":"bateria%202.png"
		},
		{
			"mimeType":"image/png",
			"name":"bateria 3",
			"uri":"bateria%203.png"
		}
	],
	"accessors":[
		{
			"bufferView":0,
			"componentType":5126,
			"count":729,
			"max":[
				0.9999999403953552,
				0.9999999403953552,
				0.9999998807907104
			],
			"min":[
				-1,
				-1.0000001192092896,
				-1
			],
			"type":"VEC3"
		},
		{
			"bufferView":1,
			"componentType":5126,
			"count":729,
			"type":"VEC3"
		},
		{
			"bufferView":2,
			"componentType":5126,
			"count":729,
			"type":"VEC2"
		},
		{
			"bufferView":3,
			"componentType":5123,
			"count":3840,
			"type":"SCALAR"
		},
		{
			"bufferView":4,
			"componentType":5126,
			"count":729,
			"max":[
				0.9999985694885254,
				0.9999998807907104,
				0.9999999403953552
			],
			"min":[
				-1.0000014305114746,
				-1.0000001192092896,
				-0.9999999403953552
			],
			"type":"VEC3"
		},
		{
			"bufferView":5,
			"componentType":5126,
			"count":729,
			"type":"VEC3"
		},
		{
			"bufferView":6,
			"componentType":5126,
			"count":729,
			"type":"VEC2"
		},
		{
			"bufferView":7,
			"componentType":5123,
			"count":3840,
			"type":"SCALAR"
		},
		{
			"bufferView":8,
			"componentType":5126,
			"count":729,
			"max":[
				0.9999985694885254,
				0.9999998807907104,
				0.9999999403953552
			],
			"min":[
				-1.0000014305114746,
				-1.0000001192092896,
				-0.9999999403953552
			],
			"type":"VEC3"
		},
		{
			"bufferView":9,
			"componentType":5126,
			"count":729,
			"type":"VEC3"
		},
		{
			"bufferView":10,
			"componentType":5126,
			"count":729,
			"type":"VEC2"
		},
		{
			"bufferView":11,
			"componentType":5126,
			"count":729,
			"max":[
				0.9999985694885254,
				0.9999998807907104,
				0.9999999403953552
			],
			"min":[
				-1.0000014305114746,
				-1.0000001192092896,
				-0.9999999403953552
			],
			"type":"VEC3"
		},
		{
			"bufferView":12,
			"componentType":5126,
			"count":729,
			"type":"VEC3"
		},
		{
			"bufferView":13,
			"componentType":5126,
			"count":729,
			"type":"VEC2"
		},
		{
			"bufferView":14,
			"componentType":5126,
			"count":4,
			"max":[
				1,
				0,
				1
			],
			"min":[
				-1,
				0,
				-1
			],
			"type":"VEC3"
		},
		{
			"bufferView":15,
			"componentType":5126,
			"count":4,
			"type":"VEC3"
		},
		{
			"bufferView":16,
			"componentType":5126,
			"count":4,
			"type":"VEC2"
		},
		{
			"bufferView":17,
			"componentType":5123,
			"count":6,
			"type":"SCALAR"
		}
	],
	"bufferViews":[
		{
			"buffer":0,
			"byteLength":8748,
			"byteOffset":0,
			"target":34962
		},
		{
			"buffer":0,
			"byteLength":8748,
			"byteOffset":8748,
			"target":34962
		},
		{
			"buffer":0,
			"byteLength":5832,
			"byteOffset":17496,
			"target":34962
		},
		{
			"buffer":0,
			"byteLength":7680,
			"byteOffset":23328,
			"target":34963
		},
		{
			"buffer":0,
			"byteLength":8748,
			"byteOffset":31008,
			"target":34962
		},
		{
			"buffer":0,
			"byteLength":8748,
			"byteOffset":39756,
			"target":34962
		},
		{
			"buffer":0,
			"byteLength":5832,
			"byteOffset":48504,
			"target":34962
		},
		{
			"buffer":0,
			"byteLength":7680,
			"byteOffset":54336,
			"target":34963
		},
		{
			"buffer":0,
			"byteLength":8748,
			"byteOffset":62016,
			"target":34962
		},
		{
			"buffer":0,
			"byteLength":8748,
			"byteOffset":70764,
			"target":34962
		},
		{
			"buffer":0,
			"byteLength":5832,
			"byteOffset":79512,
			"target":34962
		},
		{
			"buffer":0,
			"byteLength":8748,
			"byteOffset":85344,
			"target":34962
		},
		{
			"buffer":0,
			"byteLength":8748,
			"byteOffset":94092,
			"target":34962
		},
		{
			"buffer":0,
			"byteLength":5832,
			"byteOffset":102840,
			"target":34962
		},
		{
			"buffer":0,
			"byteLength":48,
			"byteOffset":108672,
			"target":34962
		},
		{
			"buffer":0,
			"byteLength":48,
			"byteOffset":108720,
			"target":34962
		},
		{
			"buffer":0,
			"byteLength":32,
			"byteOffset":108768,
			"target":34962
		},
		{
			"buffer":0,
			"byteLength":12,
			"byteOffset":108800,
			"target":34963
		}
	],
	"samplers":[
		{
			"magFilter":9729,
			"minFilter":9987
		}
	],
	"buffers":[
		{
			"byteLength":108812,
			"uri":"balltest.bin"
		}
	]
}
