{
	"asset":{
		"generator":"Khronos glTF Blender I/O v5.2.39",
		"version":"2.0"
	},
	"extensionsUsed":[
		"KHR_materials_emissive_strength"
	],
	"scene":0,
	"scenes":[
		{
			"name":"Scene",
			"nodes":[
				0,
				1,
				2,
				3,
				4,
				5,
				6,
				7,
				8,
				9,
				10,
				11,
				12
			]
		}
	],
	"nodes":[
		{
			"camera":0,
			"name":"Camera",
			"rotation":[
				-0.1968543827533722,
				0.4955107271671295,
				0.11640670895576477,
				0.837954044342041
			],
			"translation":[
				8.858794212341309,
				4.958309173583984,
				4.862266540527344
			]
		},
		{
			"mesh":0,
			"name":"Plane"
		},
		{
			"mesh":1,
			"name":"Plane.001"
		},
		{
			"mesh":2,
			"name":"Plane.002"
		},
		{
			"mesh":3,
			"name":"Plane.003"
		},
		{
			"mesh":4,
			"name":"Plane.004"
		},
		{
			"mesh":5,
			"name":"Plane.005"
		},
		{
			"mesh":6,
			"name":"Plane.006"
		},
		{
			"mesh":7,
			"name":"Plane.007"
		},
		{
			"mesh":8,
			"name":"Plane.008"
		},
		{
			"mesh":9,
			"name":"Plane.009",
			"rotation":[
				-0.44511500000953674,
				0,
				0,
				0.8954734206199646
			],
			"translation":[
				0,
				0,
				0.07880169153213501
			]
		},
		{
			"mesh":10,
			"name":"Plane.010",
			"rotation":[
				-0.44511500000953674,
				0,
				0,
				0.8954734206199646
			],
			"translation":[
				0,
				0,
				0.07880169153213501
			]
		},
		{
			"mesh":11,
			"name":"Plane.011",
			"rotation":[
				-0.44511500000953674,
				0,
				0,
				0.8954734206199646
			],
			"translation":[
				0,
				0,
				0.07880169153213501
			]
		}
	],
	"cameras":[
		{
			"name":"Camera",
			"perspective":{
				"aspectRatio":1.7777777777777777,
				"yfov":0.9792316200835302,
				"zfar":100,
				"znear":0.10000000149011612
			},
			"type":"perspective"
		}
	],
	"materials":[
		{
			"doubleSided":true,
			"name":"Material.003",
			"pbrMetallicRoughness":{
				"baseColorFactor":[
					0.0481702983379364,
					0.0481702983379364,
					0.0481702983379364,
					1
				],
				"metallicFactor":0
			}
		},
		{
			"doubleSided":true,
			"name":"Material.002",
			"pbrMetallicRoughness":{
				"roughnessFactor":0
			}
		},
		{
			"doubleSided":true,
			"emissiveFactor":[
				0,
				1,
				0
			],
			"extensions":{
				"KHR_materials_emissive_strength":{
					"emissiveStrength":92.29999542236328
				}
			},
			"name":"Material.006",
			"pbrMetallicRoughness":{
				"baseColorFactor":[
					0,
					1,
					0,
					1
				],
				"metallicFactor":0,
				"roughnessFactor":0.5
			}
		},
		{
			"doubleSided":true,
			"emissiveFactor":[
				1,
				0,
				0
			],
			"extensions":{
				"KHR_materials_emissive_strength":{
					"emissiveStrength":92.29999542236328
				}
			},
			"name":"Material.005",
			"pbrMetallicRoughness":{
				"baseColorFactor":[
					1,
					0,
					0,
					1
				],
				"metallicFactor":0,
				"roughnessFactor":0.5
			}
		},
		{
			"doubleSided":true,
			"emissiveFactor":[
				0,
				0,
				1
			],
			"extensions":{
				"KHR_materials_emissive_strength":{
					"emissiveStrength":92.29999542236328
				}
			},
			"name":"Material.007",
			"pbrMetallicRoughness":{
				"baseColorFactor":[
					0,
					0,
					1,
					1
				],
				"metallicFactor":0,
				"roughnessFactor":0.5
			}
		},
		{
			"doubleSided":true,
			"name":"Material.004",
			"pbrMetallicRoughness":{
				"baseColorFactor":[
					0,
					0,
					0,
					1
				],
				"metallicFactor":0,
				"roughnessFactor":0.5
			}
		}
	],
	"meshes":[
		{
			"name":"Plane",
			"primitives":[
				{
					"attributes":{
						"POSITION":0,
						"NORMAL":1,
						"TEXCOORD_0":2
					},
					"indices":3,
					"material":0
				}
			]
		},
		{
			"name":"Plane.001",
			"primitives":[
				{
					"attributes":{
						"POSITION":4,
						"NORMAL":5,
						"TEXCOORD_0":6
					},
					"indices":3
				}
			]
		},
		{
			"name":"Plane.004",
			"primitives":[
				{
					"attributes":{
						"POSITION":7,
						"NORMAL":8,
						"TEXCOORD_0":9
					},
					"indices":10,
					"material":1
				}
			]
		},
		{
			"name":"Plane.003",
			"primitives":[
				{
					"attributes":{
						"POSITION":11,
						"NORMAL":12,
						"TEXCOORD_0":13
					},
					"indices":14,
					"material":1
				}
			]
		},
		{
			"name":"Plane.005",
			"primitives":[
				{
					"attributes":{
						"POSITION":15,
						"NORMAL":16,
						"TEXCOORD_0":17
					},
					"indices":10,
					"material":1
				}
			]
		},
		{
			"name":"Plane.006",
			"primitives":[
				{
					"attributes":{
						"POSITION":18,
						"NORMAL":19,
						"TEXCOORD_0":20
					},
					"indices":3,
					"material":2
				}
			]
		},
		{
			"name":"Plane.007",
			"primitives":[
				{
					"attributes":{
						"POSITION":21,
						"NORMAL":22,
						"TEXCOORD_0":23
					},
					"indices":3,
					"material":3
				}
			]
		},
		{
			"name":"Plane.008",
			"primitives":[
				{
					"attributes":{
						"POSITION":24,
						"NORMAL":25,
						"TEXCOORD_0":26
					},
					"indices":3,
					"material":4
				}
			]
		},
		{
			"name":"Plane.009",
			"primitives":[
				{
					"attributes":{
						"POSITION":27,
						"NORMAL":28,
						"TEXCOORD_0":29
					},
					"indices":30,
					"material":5
				}
			]
		},
		{
			"name":"Plane.010",
			"primitives":[
				{
					"attributes":{
						"POSITION":31,
						"NORMAL":32,
						"TEXCOORD_0":33
					},
					"indices":3,
					"material":2
				}
			]
		},
		{
			"name":"Plane.011",
			"primitives":[
				{
					"attributes":{
						"POSITION":34,
						"NORMAL":35,
						"TEXCOORD_0":36
					},
					"indices":3,
					"material":3
				}
			]
		},
		{
			"name":"Plane.012",
			"primitives":[
				{
					"attributes":{
						"POSITION":37,
						"NORMAL":38,
						"TEXCOORD_0":39
					},
					"indices":3,
					"material":4
				}
			]
		}
	],
	"accessors":[
		{
			"bufferView":0,
			"componentType":5126,
			"count":4,
			"max":[
				7.217294216156006,
				0,
				7.217294216156006
			],
			"min":[
				-7.217294216156006,
				0,
				-7.217294216156006
			],
			"type":"VEC3"
		},
		{
			"bufferView":1,
			"componentType":5126,
			"count":4,
			"type":"VEC3"
		},
		{
			"bufferView":2,
			"componentType":5126,
			"count":4,
			"type":"VEC2"
		},
		{
			"bufferView":3,
			"componentType":5123,
			"count":6,
			"type":"SCALAR"
		},
		{
			"bufferView":4,
			"componentType":5126,
			"count":4,
			"max":[
				7.217294216156006,
				7.217294216156006,
				6.9923996925354
			],
			"min":[
				-7.217294216156006,
				-7.217294216156006,
				6.992398738861084
			],
			"type":"VEC3"
		},
		{
			"bufferView":5,
			"componentType":5126,
			"count":4,
			"type":"VEC3"
		},
		{
			"bufferView":6,
			"componentType":5126,
			"count":4,
			"type":"VEC2"
		},
		{
			"bufferView":7,
			"componentType":5126,
			"count":4225,
			"max":[
				3.6690664291381836,
				2.2159745693206787,
				0.1847715526819229
			],
			"min":[
				1.6690664291381836,
				0.2159745693206787,
				-0.0772828459739685
			],
			"type":"VEC3"
		},
		{
			"bufferView":8,
			"componentType":5126,
			"count":4225,
			"type":"VEC3"
		},
		{
			"bufferView":9,
			"componentType":5126,
			"count":4225,
			"type":"VEC2"
		},
		{
			"bufferView":10,
			"componentType":5123,
			"count":24576,
			"type":"SCALAR"
		},
		{
			"bufferView":11,
			"componentType":5126,
			"count":4225,
			"max":[
				-1.851006031036377,
				2.2159745693206787,
				0.0772828459739685
			],
			"min":[
				-3.851006031036377,
				0.2159745693206787,
				-0.1847715526819229
			],
			"type":"VEC3"
		},
		{
			"bufferView":12,
			"componentType":5126,
			"count":4225,
			"type":"VEC3"
		},
		{
			"bufferView":13,
			"componentType":5126,
			"count":4225,
			"type":"VEC2"
		},
		{
			"bufferView":14,
			"componentType":5123,
			"count":24576,
			"type":"SCALAR"
		},
		{
			"bufferView":15,
			"componentType":5126,
			"count":4225,
			"max":[
				0.9186859130859375,
				2.2159745693206787,
				-2.77186518360395e-06
			],
			"min":[
				-1.0813140869140625,
				0.2159745693206787,
				-2.830971425282769e-06
			],
			"type":"VEC3"
		},
		{
			"bufferView":16,
			"componentType":5126,
			"count":4225,
			"type":"VEC3"
		},
		{
			"bufferView":17,
			"componentType":5126,
			"count":4225,
			"type":"VEC2"
		},
		{
			"bufferView":18,
			"componentType":5126,
			"count":4,
			"max":[
				0.484830379486084,
				4.674275875091553,
				6.498692512512207
			],
			"min":[
				-0.679978609085083,
				3.612666130065918,
				5.820648670196533
			],
			"type":"VEC3"
		},
		{
			"bufferView":19,
			"componentType":5126,
			"count":4,
			"type":"VEC3"
		},
		{
			"bufferView":20,
			"componentType":5126,
			"count":4,
			"type":"VEC2"
		},
		{
			"bufferView":21,
			"componentType":5126,
			"count":4,
			"max":[
				3.32595157623291,
				4.674275875091553,
				6.498692512512207
			],
			"min":[
				2.161142349243164,
				3.612666130065918,
				5.820648670196533
			],
			"type":"VEC3"
		},
		{
			"bufferView":22,
			"componentType":5126,
			"count":4,
			"type":"VEC3"
		},
		{
			"bufferView":23,
			"componentType":5126,
			"count":4,
			"type":"VEC2"
		},
		{
			"bufferView":24,
			"componentType":5126,
			"count":4,
			"max":[
				-2.2409682273864746,
				4.674275875091553,
				6.498692512512207
			],
			"min":[
				-3.4057774543762207,
				3.612666130065918,
				5.820648670196533
			],
			"type":"VEC3"
		},
		{
			"bufferView":25,
			"componentType":5126,
			"count":4,
			"type":"VEC3"
		},
		{
			"bufferView":26,
			"componentType":5126,
			"count":4,
			"type":"VEC2"
		},
		{
			"bufferView":27,
			"componentType":5126,
			"count":20,
			"max":[
				4.68886661529541,
				5.230898857116699,
				6.948191165924072
			],
			"min":[
				-4.884015083312988,
				2.107470750808716,
				4.165017127990723
			],
			"type":"VEC3"
		},
		{
			"bufferView":28,
			"componentType":5126,
			"count":20,
			"type":"VEC3"
		},
		{
			"bufferView":29,
			"componentType":5126,
			"count":20,
			"type":"VEC2"
		},
		{
			"bufferView":30,
			"componentType":5123,
			"count":30,
			"type":"SCALAR"
		},
		{
			"bufferView":31,
			"componentType":5126,
			"count":4,
			"max":[
				0.484830379486084,
				4.674275875091553,
				6.498692512512207
			],
			"min":[
				-0.679978609085083,
				3.612666130065918,
				5.820648670196533
			],
			"type":"VEC3"
		},
		{
			"bufferView":32,
			"componentType":5126,
			"count":4,
			"type":"VEC3"
		},
		{
			"bufferView":33,
			"componentType":5126,
			"count":4,
			"type":"VEC2"
		},
		{
			"bufferView":34,
			"componentType":5126,
			"count":4,
			"max":[
				3.32595157623291,
				4.674275875091553,
				6.498692512512207
			],
			"min":[
				2.161142349243164,
				3.612666130065918,
				5.820648670196533
			],
			"type":"VEC3"
		},
		{
			"bufferView":35,
			"componentType":5126,
			"count":4,
			"type":"VEC3"
		},
		{
			"bufferView":36,
			"componentType":5126,
			"count":4,
			"type":"VEC2"
		},
		{
			"bufferView":37,
			"componentType":5126,
			"count":4,
			"max":[
				-2.2409682273864746,
				4.674275875091553,
				6.498692512512207
			],
			"min":[
				-3.4057774543762207,
				3.612666130065918,
				5.820648670196533
			],
			"type":"VEC3"
		},
		{
			"bufferView":38,
			"componentType":5126,
			"count":4,
			"type":"VEC3"
		},
		{
			"bufferView":39,
			"componentType":5126,
			"count":4,
			"type":"VEC2"
		}
	],
	"bufferViews":[
		{
			"buffer":0,
			"byteLength":48,
			"byteOffset":0,
			"target":34962
		},
		{
			"buffer":0,
			"byteLength":48,
			"byteOffset":48,
			"target":34962
		},
		{
			"buffer":0,
			"byteLength":32,
			"byteOffset":96,
			"target":34962
		},
		{
			"buffer":0,
			"byteLength":12,
			"byteOffset":128,
			"target":34963
		},
		{
			"buffer":0,
			"byteLength":48,
			"byteOffset":140,
			"target":34962
		},
		{
			"buffer":0,
			"byteLength":48,
			"byteOffset":188,
			"target":34962
		},
		{
			"buffer":0,
			"byteLength":32,
			"byteOffset":236,
			"target":34962
		},
		{
			"buffer":0,
			"byteLength":50700,
			"byteOffset":268,
			"target":34962
		},
		{
			"buffer":0,
			"byteLength":50700,
			"byteOffset":50968,
			"target":34962
		},
		{
			"buffer":0,
			"byteLength":33800,
			"byteOffset":101668,
			"target":34962
		},
		{
			"buffer":0,
			"byteLength":49152,
			"byteOffset":135468,
			"target":34963
		},
		{
			"buffer":0,
			"byteLength":50700,
			"byteOffset":184620,
			"target":34962
		},
		{
			"buffer":0,
			"byteLength":50700,
			"byteOffset":235320,
			"target":34962
		},
		{
			"buffer":0,
			"byteLength":33800,
			"byteOffset":286020,
			"target":34962
		},
		{
			"buffer":0,
			"byteLength":49152,
			"byteOffset":319820,
			"target":34963
		},
		{
			"buffer":0,
			"byteLength":50700,
			"byteOffset":368972,
			"target":34962
		},
		{
			"buffer":0,
			"byteLength":50700,
			"byteOffset":419672,
			"target":34962
		},
		{
			"buffer":0,
			"byteLength":33800,
			"byteOffset":470372,
			"target":34962
		},
		{
			"buffer":0,
			"byteLength":48,
			"byteOffset":504172,
			"target":34962
		},
		{
			"buffer":0,
			"byteLength":48,
			"byteOffset":504220,
			"target":34962
		},
		{
			"buffer":0,
			"byteLength":32,
			"byteOffset":504268,
			"target":34962
		},
		{
			"buffer":0,
			"byteLength":48,
			"byteOffset":504300,
			"target":34962
		},
		{
			"buffer":0,
			"byteLength":48,
			"byteOffset":504348,
			"target":34962
		},
		{
			"buffer":0,
			"byteLength":32,
			"byteOffset":504396,
			"target":34962
		},
		{
			"buffer":0,
			"byteLength":48,
			"byteOffset":504428,
			"target":34962
		},
		{
			"buffer":0,
			"byteLength":48,
			"byteOffset":504476,
			"target":34962
		},
		{
			"buffer":0,
			"byteLength":32,
			"byteOffset":504524,
			"target":34962
		},
		{
			"buffer":0,
			"byteLength":240,
			"byteOffset":504556,
			"target":34962
		},
		{
			"buffer":0,
			"byteLength":240,
			"byteOffset":504796,
			"target":34962
		},
		{
			"buffer":0,
			"byteLength":160,
			"byteOffset":505036,
			"target":34962
		},
		{
			"buffer":0,
			"byteLength":60,
			"byteOffset":505196,
			"target":34963
		},
		{
			"buffer":0,
			"byteLength":48,
			"byteOffset":505256,
			"target":34962
		},
		{
			"buffer":0,
			"byteLength":48,
			"byteOffset":505304,
			"target":34962
		},
		{
			"buffer":0,
			"byteLength":32,
			"byteOffset":505352,
			"target":34962
		},
		{
			"buffer":0,
			"byteLength":48,
			"byteOffset":505384,
			"target":34962
		},
		{
			"buffer":0,
			"byteLength":48,
			"byteOffset":505432,
			"target":34962
		},
		{
			"buffer":0,
			"byteLength":32,
			"byteOffset":505480,
			"target":34962
		},
		{
			"buffer":0,
			"byteLength":48,
			"byteOffset":505512,
			"target":34962
		},
		{
			"buffer":0,
			"byteLength":48,
			"byteOffset":505560,
			"target":34962
		},
		{
			"buffer":0,
			"byteLength":32,
			"byteOffset":505608,
			"target":34962
		}
	],
	"buffers":[
		{
			"byteLength":505640,
			"uri":"mirror%20thing.bin"
		}
	]
}
