{
	"asset":{
		"generator":"Khronos glTF Blender I/O v5.2.39",
		"version":"2.0"
	},
	"extensionsUsed":[
		"KHR_materials_transmission",
		"KHR_materials_emissive_strength",
		"KHR_materials_specular",
		"KHR_materials_ior",
		"KHR_texture_transform"
	],
	"extensionsRequired":[
		"KHR_texture_transform"
	],
	"scene":0,
	"scenes":[
		{
			"name":"Scene",
			"nodes":[
				0,
				1,
				2,
				3,
				4,
				5,
				6,
				7,
				8,
				9,
				10,
				11
			]
		}
	],
	"nodes":[
		{
			"camera":0,
			"name":"Camera",
			"rotation":[
				0,
				-0.7071068286895752,
				0,
				0.7071068286895752
			],
			"translation":[
				-13.431107521057129,
				1.8162200450897217,
				0
			]
		},
		{
			"name":"Ceiling lamp",
			"rotation":[
				0,
				0,
				1,
				7.549790126404332e-08
			],
			"scale":[
				3.6202948093414307,
				3.6202948093414307,
				3.6202948093414307
			],
			"translation":[
				-7.594329833984375,
				4.1527838706970215,
				0
			]
		},
		{
			"mesh":0,
			"name":"Plane",
			"scale":[
				244.8516845703125,
				244.8516845703125,
				244.8516845703125
			],
			"translation":[
				59.20085144042969,
				-0.1168561577796936,
				0.051293764263391495
			]
		},
		{
			"mesh":1,
			"name":"Plane.001",
			"rotation":[
				0.7071068286895752,
				0,
				0,
				0.7071068286895752
			],
			"translation":[
				59.20085144042969,
				-0.1168561577796936,
				0
			]
		},
		{
			"mesh":2,
			"name":"Plane.002",
			"scale":[
				244.8516845703125,
				244.8516845703125,
				244.8516845703125
			],
			"translation":[
				59.20085144042969,
				4.152778625488281,
				0.051293764263391495
			]
		},
		{
			"mesh":3,
			"name":"Plane.004",
			"rotation":[
				0.7071068286895752,
				0,
				0,
				0.7071068286895752
			],
			"translation":[
				59.20085144042969,
				-0.1168561577796936,
				0
			]
		},
		{
			"mesh":4,
			"name":"Plane.005",
			"rotation":[
				0.7071068286895752,
				0,
				0,
				0.7071068286895752
			],
			"translation":[
				59.20085144042969,
				-0.1168561577796936,
				0
			]
		},
		{
			"mesh":5,
			"name":"Box1.002",
			"scale":[
				3.6202948093414307,
				3.6202948093414307,
				3.6202948093414307
			],
			"translation":[
				-7.551906585693359,
				4.0590410232543945,
				-0.005995601415634155
			]
		},
		{
			"mesh":6,
			"name":"Box1.003",
			"scale":[
				3.6202948093414307,
				3.6202948093414307,
				3.6202948093414307
			],
			"translation":[
				-7.553173065185547,
				4.060420989990234,
				-0.005995586514472961
			]
		},
		{
			"mesh":7,
			"name":"Box1.004",
			"scale":[
				3.6202948093414307,
				3.6202948093414307,
				3.6202948093414307
			],
			"translation":[
				-7.550287246704102,
				4.098567008972168,
				-0.005995586514472961
			]
		},
		{
			"mesh":8,
			"name":"Cylinder.001",
			"scale":[
				3.6202948093414307,
				3.6202948093414307,
				3.6202948093414307
			],
			"translation":[
				-7.550287246704102,
				4.098567008972168,
				0.043185025453567505
			]
		},
		{
			"mesh":9,
			"name":"Cylinder.002",
			"scale":[
				3.6202948093414307,
				3.6202948093414307,
				3.6202948093414307
			],
			"translation":[
				-7.550287246704102,
				4.098567008972168,
				-0.05422349274158478
			]
		}
	],
	"cameras":[
		{
			"name":"Camera",
			"perspective":{
				"aspectRatio":1.3333333333333333,
				"yfov":0.5274237051253257,
				"zfar":446.3999938964844,
				"znear":1.5999999046325684
			},
			"type":"perspective"
		}
	],
	"materials":[
		{
			"doubleSided":true,
			"name":"Advanced Ceramic Tiles",
			"pbrMetallicRoughness":{
				"baseColorFactor":[
					0.800000011920929,
					0.800000011920929,
					0.800000011920929,
					1
				],
				"metallicFactor":0.19075144827365875,
				"roughnessFactor":0.45375722646713257
			}
		},
		{
			"doubleSided":true,
			"name":"Polished Concrete",
			"pbrMetallicRoughness":{
				"baseColorFactor":[
					0.1006319671869278,
					0.1006319671869278,
					0.1006319671869278,
					1
				],
				"metallicFactor":0,
				"roughnessFactor":0.7658959627151489
			}
		},
		{
			"doubleSided":true,
			"name":"Office white ceiling tiles",
			"normalTexture":{
				"index":0,
				"texCoord":1
			},
			"pbrMetallicRoughness":{
				"baseColorFactor":[
					0.800000011920929,
					0.800000011920929,
					0.800000011920929,
					1
				],
				"metallicFactor":0,
				"roughnessFactor":0.5
			}
		},
		{
			"doubleSided":true,
			"name":"Plastered Wall",
			"pbrMetallicRoughness":{
				"baseColorFactor":[
					0.5473201870918274,
					0.5473201870918274,
					0.5473201870918274,
					1
				],
				"metallicFactor":0,
				"roughnessFactor":0.4982396364212036
			}
		},
		{
			"doubleSided":true,
			"name":"Iron",
			"normalTexture":{
				"extensions":{
					"KHR_texture_transform":{
						"offset":[
							0,
							-8.99999985098839
						],
						"scale":[
							9.99999985098839,
							9.99999985098839
						]
					}
				},
				"index":1,
				"texCoord":1
			},
			"pbrMetallicRoughness":{
				"baseColorFactor":[
					0.800000011920929,
					0.800000011920929,
					0.800000011920929,
					1
				],
				"metallicFactor":0,
				"roughnessFactor":0.17630058526992798
			}
		},
		{
			"doubleSided":true,
			"extensions":{
				"KHR_materials_transmission":{
					"transmissionFactor":0.6954545378684998
				},
				"KHR_materials_specular":{
					"specularColorFactor":[
						1.399999976158142,
						1.399999976158142,
						1.399999976158142
					]
				},
				"KHR_materials_ior":{
					"ior":1.4500000476837158
				}
			},
			"name":"yellow plastic",
			"pbrMetallicRoughness":{
				"baseColorFactor":[
					0.45705848932266235,
					0.45705848932266235,
					0.45705848932266235,
					1
				],
				"metallicFactor":0,
				"roughnessFactor":0.20000000298023224
			}
		},
		{
			"doubleSided":true,
			"name":"Iron",
			"normalTexture":{
				"extensions":{
					"KHR_texture_transform":{
						"offset":[
							0,
							-8.99999985098839
						],
						"scale":[
							9.99999985098839,
							9.99999985098839
						]
					}
				},
				"index":1
			},
			"pbrMetallicRoughness":{
				"baseColorFactor":[
					0.800000011920929,
					0.800000011920929,
					0.800000011920929,
					1
				],
				"metallicFactor":0,
				"roughnessFactor":0.17630058526992798
			}
		},
		{
			"doubleSided":true,
			"emissiveFactor":[
				0.9133015700485716,
				0.9480964074972081,
				1
			],
			"extensions":{
				"KHR_materials_transmission":{
					"transmissionFactor":1
				},
				"KHR_materials_emissive_strength":{
					"emissiveStrength":2.5509123563041243
				},
				"KHR_materials_ior":{
					"ior":1.4500000476837158
				}
			},
			"name":"Material.007",
			"pbrMetallicRoughness":{
				"baseColorFactor":[
					1,
					0.9454771876335144,
					0.6525963544845581,
					1
				],
				"metallicFactor":0,
				"roughnessFactor":0
			}
		}
	],
	"meshes":[
		{
			"name":"Plane",
			"primitives":[
				{
					"attributes":{
						"POSITION":0,
						"NORMAL":1,
						"TEXCOORD_0":2,
						"TEXCOORD_1":3
					},
					"indices":4,
					"material":0
				}
			]
		},
		{
			"name":"Plane.001",
			"primitives":[
				{
					"attributes":{
						"POSITION":5,
						"NORMAL":6,
						"TEXCOORD_0":7,
						"TEXCOORD_1":8
					},
					"indices":9,
					"material":1
				}
			]
		},
		{
			"name":"Plane.002",
			"primitives":[
				{
					"attributes":{
						"POSITION":10,
						"NORMAL":11,
						"TEXCOORD_0":12,
						"TEXCOORD_1":13
					},
					"indices":4,
					"material":2
				}
			]
		},
		{
			"name":"Plane.004",
			"primitives":[
				{
					"attributes":{
						"POSITION":14,
						"NORMAL":15,
						"TEXCOORD_0":16,
						"TEXCOORD_1":17
					},
					"indices":18,
					"material":3
				}
			]
		},
		{
			"name":"Plane.005",
			"primitives":[
				{
					"attributes":{
						"POSITION":19,
						"NORMAL":20,
						"TEXCOORD_0":21,
						"TEXCOORD_1":22
					},
					"indices":9,
					"material":4
				}
			]
		},
		{
			"name":"Box1.002",
			"primitives":[
				{
					"attributes":{
						"POSITION":23,
						"NORMAL":24,
						"TEXCOORD_0":25
					},
					"indices":26,
					"material":5
				}
			]
		},
		{
			"name":"Box1.005",
			"primitives":[
				{
					"attributes":{
						"POSITION":27,
						"NORMAL":28,
						"TEXCOORD_0":29
					},
					"indices":30,
					"material":5
				}
			]
		},
		{
			"name":"Cylinder.023",
			"primitives":[
				{
					"attributes":{
						"POSITION":31,
						"NORMAL":32,
						"TEXCOORD_0":33
					},
					"indices":34,
					"material":6
				}
			]
		},
		{
			"name":"Cylinder.025",
			"primitives":[
				{
					"attributes":{
						"POSITION":35,
						"NORMAL":36,
						"TEXCOORD_0":37
					},
					"indices":38,
					"material":7
				}
			]
		},
		{
			"name":"Cylinder.024",
			"primitives":[
				{
					"attributes":{
						"POSITION":39,
						"NORMAL":40,
						"TEXCOORD_0":41
					},
					"indices":38,
					"material":7
				}
			]
		}
	],
	"textures":[
		{
			"sampler":0,
			"source":0
		},
		{
			"sampler":0,
			"source":1
		}
	],
	"images":[
		{
			"mimeType":"image/jpeg",
			"name":"Office_white_ceiling_tiles_Normal",
			"uri":"Office_white_ceiling_tiles_Normal.jpg"
		},
		{
			"mimeType":"image/jpeg",
			"name":"GWC Iron Hammered Finish_Normal",
			"uri":"GWC%20Iron%20Hammered%20Finish_Normal.jpg"
		}
	],
	"accessors":[
		{
			"bufferView":0,
			"componentType":5126,
			"count":4,
			"max":[
				26.23520851135254,
				0,
				1
			],
			"min":[
				-1,
				0,
				-1
			],
			"type":"VEC3"
		},
		{
			"bufferView":1,
			"componentType":5126,
			"count":4,
			"type":"VEC3"
		},
		{
			"bufferView":2,
			"componentType":5126,
			"count":4,
			"type":"VEC2"
		},
		{
			"bufferView":3,
			"componentType":5126,
			"count":4,
			"type":"VEC2"
		},
		{
			"bufferView":4,
			"componentType":5123,
			"count":6,
			"type":"SCALAR"
		},
		{
			"bufferView":5,
			"componentType":5126,
			"count":48,
			"max":[
				330.672607421875,
				2.031337022781372,
				0.16875013709068298
			],
			"min":[
				-481.8961181640625,
				-2.031337022781372,
				-1.1164265871047974
			],
			"type":"VEC3"
		},
		{
			"bufferView":6,
			"componentType":5126,
			"count":48,
			"type":"VEC3"
		},
		{
			"bufferView":7,
			"componentType":5126,
			"count":48,
			"type":"VEC2"
		},
		{
			"bufferView":8,
			"componentType":5126,
			"count":48,
			"type":"VEC2"
		},
		{
			"bufferView":9,
			"componentType":5123,
			"count":72,
			"type":"SCALAR"
		},
		{
			"bufferView":10,
			"componentType":5126,
			"count":4,
			"max":[
				26.23520851135254,
				0,
				1
			],
			"min":[
				-1,
				0,
				-1
			],
			"type":"VEC3"
		},
		{
			"bufferView":11,
			"componentType":5126,
			"count":4,
			"type":"VEC3"
		},
		{
			"bufferView":12,
			"componentType":5126,
			"count":4,
			"type":"VEC2"
		},
		{
			"bufferView":13,
			"componentType":5126,
			"count":4,
			"type":"VEC2"
		},
		{
			"bufferView":14,
			"componentType":5126,
			"count":8,
			"max":[
				24788.494140625,
				1.3235893249511719,
				2439.746337890625
			],
			"min":[
				-2383.67138671875,
				-1.3235893249511719,
				-2439.74658203125
			],
			"type":"VEC3"
		},
		{
			"bufferView":15,
			"componentType":5126,
			"count":8,
			"type":"VEC3"
		},
		{
			"bufferView":16,
			"componentType":5126,
			"count":8,
			"type":"VEC2"
		},
		{
			"bufferView":17,
			"componentType":5126,
			"count":8,
			"type":"VEC2"
		},
		{
			"bufferView":18,
			"componentType":5123,
			"count":12,
			"type":"SCALAR"
		},
		{
			"bufferView":19,
			"componentType":5126,
			"count":48,
			"max":[
				330.672607421875,
				2.019108295440674,
				-1.0121077299118042
			],
			"min":[
				-481.8961181640625,
				-2.019108295440674,
				-1.1541038751602173
			],
			"type":"VEC3"
		},
		{
			"bufferView":20,
			"componentType":5126,
			"count":48,
			"type":"VEC3"
		},
		{
			"bufferView":21,
			"componentType":5126,
			"count":48,
			"type":"VEC2"
		},
		{
			"bufferView":22,
			"componentType":5126,
			"count":48,
			"type":"VEC2"
		},
		{
			"bufferView":23,
			"componentType":5126,
			"count":86480,
			"max":[
				32.32406234741211,
				0.003031335771083832,
				0.31291189789772034
			],
			"min":[
				-0.013179078698158264,
				-0.0018547384534031153,
				-0.2881067395210266
			],
			"type":"VEC3"
		},
		{
			"bufferView":24,
			"componentType":5126,
			"count":86480,
			"type":"VEC3"
		},
		{
			"bufferView":25,
			"componentType":5126,
			"count":86480,
			"type":"VEC2"
		},
		{
			"bufferView":26,
			"componentType":5125,
			"count":505908,
			"type":"SCALAR"
		},
		{
			"bufferView":27,
			"componentType":5126,
			"count":36225,
			"max":[
				32.325286865234375,
				0.003460013773292303,
				0.316523939371109
			],
			"min":[
				-0.013711968436837196,
				-0.0025391369126737118,
				-0.2913390100002289
			],
			"type":"VEC3"
		},
		{
			"bufferView":28,
			"componentType":5126,
			"count":36225,
			"type":"VEC3"
		},
		{
			"bufferView":29,
			"componentType":5126,
			"count":36225,
			"type":"VEC2"
		},
		{
			"bufferView":30,
			"componentType":5123,
			"count":185472,
			"type":"SCALAR"
		},
		{
			"bufferView":31,
			"componentType":5126,
			"count":11546,
			"max":[
				32.32386016845703,
				0.006815824657678604,
				0.35637736320495605
			],
			"min":[
				-0.013844521716237068,
				-0.012965494766831398,
				-0.3319060504436493
			],
			"type":"VEC3"
		},
		{
			"bufferView":32,
			"componentType":5126,
			"count":11546,
			"type":"VEC3"
		},
		{
			"bufferView":33,
			"componentType":5126,
			"count":11546,
			"type":"VEC2"
		},
		{
			"bufferView":34,
			"componentType":5123,
			"count":43608,
			"type":"SCALAR"
		},
		{
			"bufferView":35,
			"componentType":5126,
			"count":2990,
			"max":[
				32.31864547729492,
				0.002406364306807518,
				0.32433411478996277
			],
			"min":[
				0.009424830786883831,
				-0.008556030690670013,
				-0.32654884457588196
			],
			"type":"VEC3"
		},
		{
			"bufferView":36,
			"componentType":5126,
			"count":2990,
			"type":"VEC3"
		},
		{
			"bufferView":37,
			"componentType":5126,
			"count":2990,
			"type":"VEC2"
		},
		{
			"bufferView":38,
			"componentType":5123,
			"count":8556,
			"type":"SCALAR"
		},
		{
			"bufferView":39,
			"componentType":5126,
			"count":2990,
			"max":[
				32.30074691772461,
				0.002406364306807518,
				0.3471723198890686
			],
			"min":[
				-0.008453789167106152,
				-0.008556030690670013,
				-0.2964661121368408
			],
			"type":"VEC3"
		},
		{
			"bufferView":40,
			"componentType":5126,
			"count":2990,
			"type":"VEC3"
		},
		{
			"bufferView":41,
			"componentType":5126,
			"count":2990,
			"type":"VEC2"
		}
	],
	"bufferViews":[
		{
			"buffer":0,
			"byteLength":48,
			"byteOffset":0,
			"target":34962
		},
		{
			"buffer":0,
			"byteLength":48,
			"byteOffset":48,
			"target":34962
		},
		{
			"buffer":0,
			"byteLength":32,
			"byteOffset":96,
			"target":34962
		},
		{
			"buffer":0,
			"byteLength":32,
			"byteOffset":128,
			"target":34962
		},
		{
			"buffer":0,
			"byteLength":12,
			"byteOffset":160,
			"target":34963
		},
		{
			"buffer":0,
			"byteLength":576,
			"byteOffset":172,
			"target":34962
		},
		{
			"buffer":0,
			"byteLength":576,
			"byteOffset":748,
			"target":34962
		},
		{
			"buffer":0,
			"byteLength":384,
			"byteOffset":1324,
			"target":34962
		},
		{
			"buffer":0,
			"byteLength":384,
			"byteOffset":1708,
			"target":34962
		},
		{
			"buffer":0,
			"byteLength":144,
			"byteOffset":2092,
			"target":34963
		},
		{
			"buffer":0,
			"byteLength":48,
			"byteOffset":2236,
			"target":34962
		},
		{
			"buffer":0,
			"byteLength":48,
			"byteOffset":2284,
			"target":34962
		},
		{
			"buffer":0,
			"byteLength":32,
			"byteOffset":2332,
			"target":34962
		},
		{
			"buffer":0,
			"byteLength":32,
			"byteOffset":2364,
			"target":34962
		},
		{
			"buffer":0,
			"byteLength":96,
			"byteOffset":2396,
			"target":34962
		},
		{
			"buffer":0,
			"byteLength":96,
			"byteOffset":2492,
			"target":34962
		},
		{
			"buffer":0,
			"byteLength":64,
			"byteOffset":2588,
			"target":34962
		},
		{
			"buffer":0,
			"byteLength":64,
			"byteOffset":2652,
			"target":34962
		},
		{
			"buffer":0,
			"byteLength":24,
			"byteOffset":2716,
			"target":34963
		},
		{
			"buffer":0,
			"byteLength":576,
			"byteOffset":2740,
			"target":34962
		},
		{
			"buffer":0,
			"byteLength":576,
			"byteOffset":3316,
			"target":34962
		},
		{
			"buffer":0,
			"byteLength":384,
			"byteOffset":3892,
			"target":34962
		},
		{
			"buffer":0,
			"byteLength":384,
			"byteOffset":4276,
			"target":34962
		},
		{
			"buffer":0,
			"byteLength":1037760,
			"byteOffset":4660,
			"target":34962
		},
		{
			"buffer":0,
			"byteLength":1037760,
			"byteOffset":1042420,
			"target":34962
		},
		{
			"buffer":0,
			"byteLength":691840,
			"byteOffset":2080180,
			"target":34962
		},
		{
			"buffer":0,
			"byteLength":2023632,
			"byteOffset":2772020,
			"target":34963
		},
		{
			"buffer":0,
			"byteLength":434700,
			"byteOffset":4795652,
			"target":34962
		},
		{
			"buffer":0,
			"byteLength":434700,
			"byteOffset":5230352,
			"target":34962
		},
		{
			"buffer":0,
			"byteLength":289800,
			"byteOffset":5665052,
			"target":34962
		},
		{
			"buffer":0,
			"byteLength":370944,
			"byteOffset":5954852,
			"target":34963
		},
		{
			"buffer":0,
			"byteLength":138552,
			"byteOffset":6325796,
			"target":34962
		},
		{
			"buffer":0,
			"byteLength":138552,
			"byteOffset":6464348,
			"target":34962
		},
		{
			"buffer":0,
			"byteLength":92368,
			"byteOffset":6602900,
			"target":34962
		},
		{
			"buffer":0,
			"byteLength":87216,
			"byteOffset":6695268,
			"target":34963
		},
		{
			"buffer":0,
			"byteLength":35880,
			"byteOffset":6782484,
			"target":34962
		},
		{
			"buffer":0,
			"byteLength":35880,
			"byteOffset":6818364,
			"target":34962
		},
		{
			"buffer":0,
			"byteLength":23920,
			"byteOffset":6854244,
			"target":34962
		},
		{
			"buffer":0,
			"byteLength":17112,
			"byteOffset":6878164,
			"target":34963
		},
		{
			"buffer":0,
			"byteLength":35880,
			"byteOffset":6895276,
			"target":34962
		},
		{
			"buffer":0,
			"byteLength":35880,
			"byteOffset":6931156,
			"target":34962
		},
		{
			"buffer":0,
			"byteLength":23920,
			"byteOffset":6967036,
			"target":34962
		}
	],
	"samplers":[
		{
			"magFilter":9729,
			"minFilter":9987
		}
	],
	"buffers":[
		{
			"byteLength":6990956,
			"uri":"liminar.bin"
		}
	]
}
