{
	"asset":{
		"generator":"Khronos glTF Blender I/O v5.1.18",
		"version":"2.0"
	},
	"extensionsUsed":[
		"KHR_materials_emissive_strength"
	],
	"scene":0,
	"scenes":[
		{
			"name":"Scene",
			"nodes":[
				0,
				1,
				2,
				3,
				4,
				5,
				18
			]
		}
	],
	"nodes":[
		{
			"mesh":0,
			"name":"Plane",
			"translation":[
				0.8907802104949951,
				3.7796459197998047,
				4.137707233428955
			]
		},
		{
			"mesh":1,
			"name":"Plane.001"
		},
		{
			"mesh":2,
			"name":"Plane.002"
		},
		{
			"mesh":3,
			"name":"dingus",
			"rotation":[
				-0.12922826409339905,
				-0.6576640009880066,
				0.0010785340564325452,
				0.742143452167511
			],
			"scale":[
				0.027093859389424324,
				0.027093857526779175,
				0.027093859389424324
			],
			"translation":[
				0.05200781673192978,
				1.2146669626235962,
				0.4486284554004669
			]
		},
		{
			"mesh":4,
			"name":"dingus.001",
			"rotation":[
				-0.058353472501039505,
				-0.6546050906181335,
				0.06336583942174911,
				0.7510471343994141
			],
			"scale":[
				0.027093859389424324,
				0.027093853801488876,
				0.027093859389424324
			],
			"translation":[
				0.05200781673192978,
				1.2109187841415405,
				0.4486284554004669
			]
		},
		{
			"camera":0,
			"name":"Camera",
			"rotation":[
				-0.015379009768366814,
				-0.20336796343326569,
				-0.0031948047690093517,
				0.9789764881134033
			],
			"translation":[
				-7.376256465911865,
				1.6701499223709106,
				16.987825393676758
			]
		},
		{
			"mesh":5,
			"name":"hm_eames.001",
			"rotation":[
				0,
				0.17689913511276245,
				0,
				0.9842290282249451
			]
		},
		{
			"mesh":6,
			"name":"hm_eames.002",
			"rotation":[
				0,
				0.17689913511276245,
				0,
				0.9842290282249451
			]
		},
		{
			"mesh":7,
			"name":"hm_eames.003",
			"rotation":[
				0,
				0.17689913511276245,
				0,
				0.9842290282249451
			]
		},
		{
			"mesh":8,
			"name":"hm_eames.004",
			"rotation":[
				0,
				0.17689913511276245,
				0,
				0.9842290282249451
			]
		},
		{
			"mesh":9,
			"name":"hm_eames.005",
			"rotation":[
				0,
				0.17689913511276245,
				0,
				0.9842290282249451
			]
		},
		{
			"mesh":10,
			"name":"hm_eames.006",
			"rotation":[
				0,
				0.17689913511276245,
				0,
				0.9842290282249451
			]
		},
		{
			"mesh":11,
			"name":"hm_eames.007",
			"rotation":[
				0,
				0.17689913511276245,
				0,
				0.9842290282249451
			]
		},
		{
			"mesh":12,
			"name":"hm_eames.008",
			"rotation":[
				0,
				0.17689913511276245,
				0,
				0.9842290282249451
			]
		},
		{
			"mesh":13,
			"name":"hm_eames.009",
			"rotation":[
				0,
				0.17689913511276245,
				0,
				0.9842290282249451
			]
		},
		{
			"mesh":14,
			"name":"hm_eames.015",
			"rotation":[
				0,
				0.17689913511276245,
				0,
				0.9842290282249451
			]
		},
		{
			"mesh":15,
			"name":"hm_eames.022",
			"rotation":[
				0,
				0.17689913511276245,
				0,
				0.9842290282249451
			]
		},
		{
			"mesh":16,
			"name":"hm_eames.023",
			"rotation":[
				0,
				0.17689913511276245,
				0,
				0.9842290282249451
			]
		},
		{
			"children":[
				6,
				7,
				8,
				9,
				10,
				11,
				12,
				13,
				14,
				15,
				16,
				17
			],
			"name":"Ribbed Leather Manager Chair White"
		}
	],
	"cameras":[
		{
			"name":"Camera.002",
			"perspective":{
				"aspectRatio":1.7777777777777777,
				"yfov":0.19597233359198393,
				"zfar":1000,
				"znear":0.10000000149011612
			},
			"type":"perspective"
		}
	],
	"materials":[
		{
			"doubleSided":true,
			"emissiveFactor":[
				1,
				1,
				1
			],
			"extensions":{
				"KHR_materials_emissive_strength":{
					"emissiveStrength":47.19999694824219
				}
			},
			"name":"Material.002",
			"pbrMetallicRoughness":{
				"metallicFactor":0,
				"roughnessFactor":0.5
			}
		},
		{
			"doubleSided":true,
			"name":"Material.004",
			"pbrMetallicRoughness":{
				"baseColorFactor":[
					0.05251816660165787,
					0.05936768651008606,
					0.20361703634262085,
					1
				],
				"metallicFactor":0,
				"roughnessFactor":0.5
			}
		},
		{
			"alphaMode":"BLEND",
			"doubleSided":true,
			"name":"whiskers",
			"pbrMetallicRoughness":{
				"baseColorTexture":{
					"index":0
				},
				"metallicFactor":0,
				"roughnessFactor":0.5
			}
		},
		{
			"doubleSided":true,
			"name":"dingus",
			"pbrMetallicRoughness":{
				"baseColorTexture":{
					"index":1
				},
				"metallicFactor":0,
				"roughnessFactor":0.5
			}
		},
		{
			"doubleSided":true,
			"name":"Material.003",
			"pbrMetallicRoughness":{
				"baseColorFactor":[
					0.014023463241755962,
					0.014023463241755962,
					0.014023463241755962,
					1
				],
				"metallicFactor":0,
				"roughnessFactor":0.5
			}
		},
		{
			"doubleSided":true,
			"name":"metal",
			"pbrMetallicRoughness":{
				"baseColorFactor":[
					0.0960489958524704,
					0.0960489958524704,
					0.0960489958524704,
					1
				],
				"roughnessFactor":0
			}
		},
		{
			"doubleSided":true,
			"name":"hm_eames_mat.001",
			"normalTexture":{
				"index":2
			},
			"pbrMetallicRoughness":{
				"baseColorFactor":[
					0.2611280679702759,
					0.2611280679702759,
					0.2611280679702759,
					1
				],
				"metallicFactor":0,
				"roughnessFactor":0.5231213569641113
			}
		}
	],
	"meshes":[
		{
			"name":"Plane.002",
			"primitives":[
				{
					"attributes":{
						"POSITION":0,
						"NORMAL":1,
						"TEXCOORD_0":2
					},
					"indices":3,
					"material":0
				}
			]
		},
		{
			"name":"Plane.003",
			"primitives":[
				{
					"attributes":{
						"POSITION":4,
						"NORMAL":5,
						"TEXCOORD_0":6
					},
					"indices":7,
					"material":1
				}
			]
		},
		{
			"name":"Plane.004",
			"primitives":[
				{
					"attributes":{
						"POSITION":8,
						"NORMAL":9,
						"TEXCOORD_0":10
					},
					"indices":3,
					"material":0
				}
			]
		},
		{
			"name":"dingus",
			"primitives":[
				{
					"attributes":{
						"POSITION":11,
						"NORMAL":12,
						"TEXCOORD_0":13
					},
					"indices":14,
					"material":2
				}
			]
		},
		{
			"name":"dingus.001",
			"primitives":[
				{
					"attributes":{
						"POSITION":15,
						"NORMAL":16,
						"TEXCOORD_0":17
					},
					"indices":18,
					"material":3
				}
			]
		},
		{
			"name":"Mesh",
			"primitives":[
				{
					"attributes":{
						"POSITION":19,
						"NORMAL":20,
						"TEXCOORD_0":21,
						"TEXCOORD_1":22
					},
					"indices":23,
					"material":4
				}
			]
		},
		{
			"name":"Mesh",
			"primitives":[
				{
					"attributes":{
						"POSITION":24,
						"NORMAL":25,
						"TEXCOORD_0":26,
						"TEXCOORD_1":27
					},
					"indices":28,
					"material":5
				}
			]
		},
		{
			"name":"Mesh",
			"primitives":[
				{
					"attributes":{
						"POSITION":29,
						"NORMAL":30,
						"TEXCOORD_0":31,
						"TEXCOORD_1":32
					},
					"indices":33,
					"material":6
				}
			]
		},
		{
			"name":"Mesh",
			"primitives":[
				{
					"attributes":{
						"POSITION":34,
						"NORMAL":35,
						"TEXCOORD_0":36,
						"TEXCOORD_1":37
					},
					"indices":38,
					"material":6
				}
			]
		},
		{
			"name":"Mesh",
			"primitives":[
				{
					"attributes":{
						"POSITION":39,
						"NORMAL":40,
						"TEXCOORD_0":41,
						"TEXCOORD_1":42
					},
					"indices":43,
					"material":6
				}
			]
		},
		{
			"name":"Mesh",
			"primitives":[
				{
					"attributes":{
						"POSITION":44,
						"NORMAL":45,
						"TEXCOORD_0":46,
						"TEXCOORD_1":47
					},
					"indices":48,
					"material":6
				}
			]
		},
		{
			"name":"Mesh",
			"primitives":[
				{
					"attributes":{
						"POSITION":49,
						"NORMAL":50,
						"TEXCOORD_0":51,
						"TEXCOORD_1":52
					},
					"indices":53,
					"material":6
				}
			]
		},
		{
			"name":"Mesh",
			"primitives":[
				{
					"attributes":{
						"POSITION":54,
						"NORMAL":55,
						"TEXCOORD_0":56,
						"TEXCOORD_1":57
					},
					"indices":58,
					"material":6
				}
			]
		},
		{
			"name":"Mesh",
			"primitives":[
				{
					"attributes":{
						"POSITION":59,
						"NORMAL":60,
						"TEXCOORD_0":61,
						"TEXCOORD_1":62
					},
					"indices":63,
					"material":5
				}
			]
		},
		{
			"name":"Mesh",
			"primitives":[
				{
					"attributes":{
						"POSITION":64,
						"NORMAL":65,
						"TEXCOORD_0":66,
						"TEXCOORD_1":67
					},
					"indices":68,
					"material":5
				}
			]
		},
		{
			"name":"Mesh",
			"primitives":[
				{
					"attributes":{
						"POSITION":69,
						"NORMAL":70,
						"TEXCOORD_0":71,
						"TEXCOORD_1":72
					},
					"indices":73,
					"material":6
				}
			]
		},
		{
			"name":"Mesh",
			"primitives":[
				{
					"attributes":{
						"POSITION":74,
						"NORMAL":75,
						"TEXCOORD_0":76,
						"TEXCOORD_1":77
					},
					"indices":78,
					"material":6
				}
			]
		}
	],
	"textures":[
		{
			"sampler":0,
			"source":0
		},
		{
			"sampler":0,
			"source":1
		},
		{
			"sampler":0,
			"source":2
		}
	],
	"images":[
		{
			"mimeType":"image/png",
			"name":"dingus_whiskers.tga",
			"uri":"dingus_whiskers.tga.png"
		},
		{
			"mimeType":"image/jpeg",
			"name":"dingus_nowhiskers",
			"uri":"dingus_nowhiskers.jpg"
		},
		{
			"mimeType":"image/jpeg",
			"name":"hm_eames_mat_Normal",
			"uri":"hm_eames_mat_Normal.jpg"
		}
	],
	"accessors":[
		{
			"bufferView":0,
			"componentType":5126,
			"count":4,
			"max":[
				1.2177700996398926,
				0.9837226867675781,
				0.7513580322265625
			],
			"min":[
				-1.2177700996398926,
				-0.9837226867675781,
				-0.7513580322265625
			],
			"type":"VEC3"
		},
		{
			"bufferView":1,
			"componentType":5126,
			"count":4,
			"type":"VEC3"
		},
		{
			"bufferView":2,
			"componentType":5126,
			"count":4,
			"type":"VEC2"
		},
		{
			"bufferView":3,
			"componentType":5123,
			"count":6,
			"type":"SCALAR"
		},
		{
			"bufferView":4,
			"componentType":5126,
			"count":130,
			"max":[
				16.045969009399414,
				12.276597023010254,
				9.944351196289062
			],
			"min":[
				-16.045969009399414,
				0,
				-7.896951198577881
			],
			"type":"VEC3"
		},
		{
			"bufferView":5,
			"componentType":5126,
			"count":130,
			"type":"VEC3"
		},
		{
			"bufferView":6,
			"componentType":5126,
			"count":130,
			"type":"VEC2"
		},
		{
			"bufferView":7,
			"componentType":5123,
			"count":648,
			"type":"SCALAR"
		},
		{
			"bufferView":8,
			"componentType":5126,
			"count":4,
			"max":[
				-2.335512638092041,
				5.3612213134765625,
				1.9041869640350342
			],
			"min":[
				-4.099020004272461,
				3.862110137939453,
				-0.3789689540863037
			],
			"type":"VEC3"
		},
		{
			"bufferView":9,
			"componentType":5126,
			"count":4,
			"type":"VEC3"
		},
		{
			"bufferView":10,
			"componentType":5126,
			"count":4,
			"type":"VEC2"
		},
		{
			"bufferView":11,
			"componentType":5126,
			"count":18,
			"max":[
				15.933141708374023,
				12.787069320678711,
				9.942054748535156
			],
			"min":[
				2.8553152084350586,
				6.7361040115356445,
				-0.4937455952167511
			],
			"type":"VEC3"
		},
		{
			"bufferView":12,
			"componentType":5126,
			"count":18,
			"type":"VEC3"
		},
		{
			"bufferView":13,
			"componentType":5126,
			"count":18,
			"type":"VEC2"
		},
		{
			"bufferView":14,
			"componentType":5123,
			"count":48,
			"type":"SCALAR"
		},
		{
			"bufferView":15,
			"componentType":5126,
			"count":347,
			"max":[
				12.520514488220215,
				18.447092056274414,
				7.690371513366699
			],
			"min":[
				-17.29825782775879,
				-0.7670459747314453,
				-8.803175926208496
			],
			"type":"VEC3"
		},
		{
			"bufferView":16,
			"componentType":5126,
			"count":347,
			"type":"VEC3"
		},
		{
			"bufferView":17,
			"componentType":5126,
			"count":347,
			"type":"VEC2"
		},
		{
			"bufferView":18,
			"componentType":5123,
			"count":1776,
			"type":"SCALAR"
		},
		{
			"bufferView":19,
			"componentType":5126,
			"count":41398,
			"max":[
				0.8768451809883118,
				0.14538145065307617,
				0.9391305446624756
			],
			"min":[
				-0.8740118145942688,
				-0.0006105592474341393,
				-0.7756983637809753
			],
			"type":"VEC3"
		},
		{
			"bufferView":20,
			"componentType":5126,
			"count":41398,
			"type":"VEC3"
		},
		{
			"bufferView":21,
			"componentType":5126,
			"count":41398,
			"type":"VEC2"
		},
		{
			"bufferView":22,
			"componentType":5126,
			"count":41398,
			"type":"VEC2"
		},
		{
			"bufferView":23,
			"componentType":5123,
			"count":155040,
			"type":"SCALAR"
		},
		{
			"bufferView":24,
			"componentType":5126,
			"count":16037,
			"max":[
				0.7864512205123901,
				1.7811788320541382,
				0.4272974729537964
			],
			"min":[
				-0.7864512205123901,
				1.023866057395935,
				-0.5039313435554504
			],
			"type":"VEC3"
		},
		{
			"bufferView":25,
			"componentType":5126,
			"count":16037,
			"type":"VEC3"
		},
		{
			"bufferView":26,
			"componentType":5126,
			"count":16037,
			"type":"VEC2"
		},
		{
			"bufferView":27,
			"componentType":5126,
			"count":16037,
			"type":"VEC2"
		},
		{
			"bufferView":28,
			"componentType":5123,
			"count":57408,
			"type":"SCALAR"
		},
		{
			"bufferView":29,
			"componentType":5126,
			"count":21811,
			"max":[
				0.7243407964706421,
				2.275672674179077,
				0.9336560368537903
			],
			"min":[
				-0.7243407964706421,
				1.0910300016403198,
				-0.6801760196685791
			],
			"type":"VEC3"
		},
		{
			"bufferView":30,
			"componentType":5126,
			"count":21811,
			"type":"VEC3"
		},
		{
			"bufferView":31,
			"componentType":5126,
			"count":21811,
			"type":"VEC2"
		},
		{
			"bufferView":32,
			"componentType":5126,
			"count":21811,
			"type":"VEC2"
		},
		{
			"bufferView":33,
			"componentType":5123,
			"count":79392,
			"type":"SCALAR"
		},
		{
			"bufferView":34,
			"componentType":5126,
			"count":6013,
			"max":[
				0.5929743647575378,
				2.095885753631592,
				-0.4837963879108429
			],
			"min":[
				-0.5929743647575378,
				1.9008586406707764,
				-0.6658397912979126
			],
			"type":"VEC3"
		},
		{
			"bufferView":35,
			"componentType":5126,
			"count":6013,
			"type":"VEC3"
		},
		{
			"bufferView":36,
			"componentType":5126,
			"count":6013,
			"type":"VEC2"
		},
		{
			"bufferView":37,
			"componentType":5126,
			"count":6013,
			"type":"VEC2"
		},
		{
			"bufferView":38,
			"componentType":5123,
			"count":22080,
			"type":"SCALAR"
		},
		{
			"bufferView":39,
			"componentType":5126,
			"count":1445,
			"max":[
				0.7132904529571533,
				1.2063610553741455,
				0.898594081401825
			],
			"min":[
				0.6915168762207031,
				1.1248868703842163,
				0.8170253038406372
			],
			"type":"VEC3"
		},
		{
			"bufferView":40,
			"componentType":5126,
			"count":1445,
			"type":"VEC3"
		},
		{
			"bufferView":41,
			"componentType":5126,
			"count":1445,
			"type":"VEC2"
		},
		{
			"bufferView":42,
			"componentType":5126,
			"count":1445,
			"type":"VEC2"
		},
		{
			"bufferView":43,
			"componentType":5123,
			"count":5472,
			"type":"SCALAR"
		},
		{
			"bufferView":44,
			"componentType":5126,
			"count":1467,
			"max":[
				0.6532000303268433,
				2.244147777557373,
				-0.5619173049926758
			],
			"min":[
				0.6314264535903931,
				2.1626737117767334,
				-0.643485963344574
			],
			"type":"VEC3"
		},
		{
			"bufferView":45,
			"componentType":5126,
			"count":1467,
			"type":"VEC3"
		},
		{
			"bufferView":46,
			"componentType":5126,
			"count":1467,
			"type":"VEC2"
		},
		{
			"bufferView":47,
			"componentType":5126,
			"count":1467,
			"type":"VEC2"
		},
		{
			"bufferView":48,
			"componentType":5123,
			"count":5472,
			"type":"SCALAR"
		},
		{
			"bufferView":49,
			"componentType":5126,
			"count":1466,
			"max":[
				-0.6915168762207031,
				1.2063610553741455,
				0.898594081401825
			],
			"min":[
				-0.7132904529571533,
				1.1248868703842163,
				0.8170253038406372
			],
			"type":"VEC3"
		},
		{
			"bufferView":50,
			"componentType":5126,
			"count":1466,
			"type":"VEC3"
		},
		{
			"bufferView":51,
			"componentType":5126,
			"count":1466,
			"type":"VEC2"
		},
		{
			"bufferView":52,
			"componentType":5126,
			"count":1466,
			"type":"VEC2"
		},
		{
			"bufferView":53,
			"componentType":5123,
			"count":5472,
			"type":"SCALAR"
		},
		{
			"bufferView":54,
			"componentType":5126,
			"count":1493,
			"max":[
				-0.6314264535903931,
				2.244147777557373,
				-0.5619173049926758
			],
			"min":[
				-0.6532000303268433,
				2.1626737117767334,
				-0.643485963344574
			],
			"type":"VEC3"
		},
		{
			"bufferView":55,
			"componentType":5126,
			"count":1493,
			"type":"VEC3"
		},
		{
			"bufferView":56,
			"componentType":5126,
			"count":1493,
			"type":"VEC2"
		},
		{
			"bufferView":57,
			"componentType":5126,
			"count":1493,
			"type":"VEC2"
		},
		{
			"bufferView":58,
			"componentType":5123,
			"count":5472,
			"type":"SCALAR"
		},
		{
			"bufferView":59,
			"componentType":5126,
			"count":13835,
			"max":[
				0.8603163957595825,
				0.7792778611183167,
				0.958380401134491
			],
			"min":[
				-0.8574437499046326,
				0.1002301424741745,
				-0.6805278062820435
			],
			"type":"VEC3"
		},
		{
			"bufferView":60,
			"componentType":5126,
			"count":13835,
			"type":"VEC3"
		},
		{
			"bufferView":61,
			"componentType":5126,
			"count":13835,
			"type":"VEC2"
		},
		{
			"bufferView":62,
			"componentType":5126,
			"count":13835,
			"type":"VEC2"
		},
		{
			"bufferView":63,
			"componentType":5123,
			"count":49260,
			"type":"SCALAR"
		},
		{
			"bufferView":64,
			"componentType":5126,
			"count":33515,
			"max":[
				0.7814784049987793,
				1.1223374605178833,
				0.46801209449768066
			],
			"min":[
				-0.6849841475486755,
				0.7315058708190918,
				-0.17445775866508484
			],
			"type":"VEC3"
		},
		{
			"bufferView":65,
			"componentType":5126,
			"count":33515,
			"type":"VEC3"
		},
		{
			"bufferView":66,
			"componentType":5126,
			"count":33515,
			"type":"VEC2"
		},
		{
			"bufferView":67,
			"componentType":5126,
			"count":33515,
			"type":"VEC2"
		},
		{
			"bufferView":68,
			"componentType":5123,
			"count":121692,
			"type":"SCALAR"
		},
		{
			"bufferView":69,
			"componentType":5126,
			"count":13090,
			"max":[
				0.7089630365371704,
				2.2049217224121094,
				0.8598119020462036
			],
			"min":[
				0.5474401712417603,
				1.0100332498550415,
				-0.6042217016220093
			],
			"type":"VEC3"
		},
		{
			"bufferView":70,
			"componentType":5126,
			"count":13090,
			"type":"VEC3"
		},
		{
			"bufferView":71,
			"componentType":5126,
			"count":13090,
			"type":"VEC2"
		},
		{
			"bufferView":72,
			"componentType":5126,
			"count":13090,
			"type":"VEC2"
		},
		{
			"bufferView":73,
			"componentType":5123,
			"count":64932,
			"type":"SCALAR"
		},
		{
			"bufferView":74,
			"componentType":5126,
			"count":13546,
			"max":[
				-0.5474401116371155,
				2.2049214839935303,
				0.8598120212554932
			],
			"min":[
				-0.7089629769325256,
				1.010033130645752,
				-0.6042218208312988
			],
			"type":"VEC3"
		},
		{
			"bufferView":75,
			"componentType":5126,
			"count":13546,
			"type":"VEC3"
		},
		{
			"bufferView":76,
			"componentType":5126,
			"count":13546,
			"type":"VEC2"
		},
		{
			"bufferView":77,
			"componentType":5126,
			"count":13546,
			"type":"VEC2"
		},
		{
			"bufferView":78,
			"componentType":5123,
			"count":64932,
			"type":"SCALAR"
		}
	],
	"bufferViews":[
		{
			"buffer":0,
			"byteLength":48,
			"byteOffset":0,
			"target":34962
		},
		{
			"buffer":0,
			"byteLength":48,
			"byteOffset":48,
			"target":34962
		},
		{
			"buffer":0,
			"byteLength":32,
			"byteOffset":96,
			"target":34962
		},
		{
			"buffer":0,
			"byteLength":12,
			"byteOffset":128,
			"target":34963
		},
		{
			"buffer":0,
			"byteLength":1560,
			"byteOffset":140,
			"target":34962
		},
		{
			"buffer":0,
			"byteLength":1560,
			"byteOffset":1700,
			"target":34962
		},
		{
			"buffer":0,
			"byteLength":1040,
			"byteOffset":3260,
			"target":34962
		},
		{
			"buffer":0,
			"byteLength":1296,
			"byteOffset":4300,
			"target":34963
		},
		{
			"buffer":0,
			"byteLength":48,
			"byteOffset":5596,
			"target":34962
		},
		{
			"buffer":0,
			"byteLength":48,
			"byteOffset":5644,
			"target":34962
		},
		{
			"buffer":0,
			"byteLength":32,
			"byteOffset":5692,
			"target":34962
		},
		{
			"buffer":0,
			"byteLength":216,
			"byteOffset":5724,
			"target":34962
		},
		{
			"buffer":0,
			"byteLength":216,
			"byteOffset":5940,
			"target":34962
		},
		{
			"buffer":0,
			"byteLength":144,
			"byteOffset":6156,
			"target":34962
		},
		{
			"buffer":0,
			"byteLength":96,
			"byteOffset":6300,
			"target":34963
		},
		{
			"buffer":0,
			"byteLength":4164,
			"byteOffset":6396,
			"target":34962
		},
		{
			"buffer":0,
			"byteLength":4164,
			"byteOffset":10560,
			"target":34962
		},
		{
			"buffer":0,
			"byteLength":2776,
			"byteOffset":14724,
			"target":34962
		},
		{
			"buffer":0,
			"byteLength":3552,
			"byteOffset":17500,
			"target":34963
		},
		{
			"buffer":0,
			"byteLength":496776,
			"byteOffset":21052,
			"target":34962
		},
		{
			"buffer":0,
			"byteLength":496776,
			"byteOffset":517828,
			"target":34962
		},
		{
			"buffer":0,
			"byteLength":331184,
			"byteOffset":1014604,
			"target":34962
		},
		{
			"buffer":0,
			"byteLength":331184,
			"byteOffset":1345788,
			"target":34962
		},
		{
			"buffer":0,
			"byteLength":310080,
			"byteOffset":1676972,
			"target":34963
		},
		{
			"buffer":0,
			"byteLength":192444,
			"byteOffset":1987052,
			"target":34962
		},
		{
			"buffer":0,
			"byteLength":192444,
			"byteOffset":2179496,
			"target":34962
		},
		{
			"buffer":0,
			"byteLength":128296,
			"byteOffset":2371940,
			"target":34962
		},
		{
			"buffer":0,
			"byteLength":128296,
			"byteOffset":2500236,
			"target":34962
		},
		{
			"buffer":0,
			"byteLength":114816,
			"byteOffset":2628532,
			"target":34963
		},
		{
			"buffer":0,
			"byteLength":261732,
			"byteOffset":2743348,
			"target":34962
		},
		{
			"buffer":0,
			"byteLength":261732,
			"byteOffset":3005080,
			"target":34962
		},
		{
			"buffer":0,
			"byteLength":174488,
			"byteOffset":3266812,
			"target":34962
		},
		{
			"buffer":0,
			"byteLength":174488,
			"byteOffset":3441300,
			"target":34962
		},
		{
			"buffer":0,
			"byteLength":158784,
			"byteOffset":3615788,
			"target":34963
		},
		{
			"buffer":0,
			"byteLength":72156,
			"byteOffset":3774572,
			"target":34962
		},
		{
			"buffer":0,
			"byteLength":72156,
			"byteOffset":3846728,
			"target":34962
		},
		{
			"buffer":0,
			"byteLength":48104,
			"byteOffset":3918884,
			"target":34962
		},
		{
			"buffer":0,
			"byteLength":48104,
			"byteOffset":3966988,
			"target":34962
		},
		{
			"buffer":0,
			"byteLength":44160,
			"byteOffset":4015092,
			"target":34963
		},
		{
			"buffer":0,
			"byteLength":17340,
			"byteOffset":4059252,
			"target":34962
		},
		{
			"buffer":0,
			"byteLength":17340,
			"byteOffset":4076592,
			"target":34962
		},
		{
			"buffer":0,
			"byteLength":11560,
			"byteOffset":4093932,
			"target":34962
		},
		{
			"buffer":0,
			"byteLength":11560,
			"byteOffset":4105492,
			"target":34962
		},
		{
			"buffer":0,
			"byteLength":10944,
			"byteOffset":4117052,
			"target":34963
		},
		{
			"buffer":0,
			"byteLength":17604,
			"byteOffset":4127996,
			"target":34962
		},
		{
			"buffer":0,
			"byteLength":17604,
			"byteOffset":4145600,
			"target":34962
		},
		{
			"buffer":0,
			"byteLength":11736,
			"byteOffset":4163204,
			"target":34962
		},
		{
			"buffer":0,
			"byteLength":11736,
			"byteOffset":4174940,
			"target":34962
		},
		{
			"buffer":0,
			"byteLength":10944,
			"byteOffset":4186676,
			"target":34963
		},
		{
			"buffer":0,
			"byteLength":17592,
			"byteOffset":4197620,
			"target":34962
		},
		{
			"buffer":0,
			"byteLength":17592,
			"byteOffset":4215212,
			"target":34962
		},
		{
			"buffer":0,
			"byteLength":11728,
			"byteOffset":4232804,
			"target":34962
		},
		{
			"buffer":0,
			"byteLength":11728,
			"byteOffset":4244532,
			"target":34962
		},
		{
			"buffer":0,
			"byteLength":10944,
			"byteOffset":4256260,
			"target":34963
		},
		{
			"buffer":0,
			"byteLength":17916,
			"byteOffset":4267204,
			"target":34962
		},
		{
			"buffer":0,
			"byteLength":17916,
			"byteOffset":4285120,
			"target":34962
		},
		{
			"buffer":0,
			"byteLength":11944,
			"byteOffset":4303036,
			"target":34962
		},
		{
			"buffer":0,
			"byteLength":11944,
			"byteOffset":4314980,
			"target":34962
		},
		{
			"buffer":0,
			"byteLength":10944,
			"byteOffset":4326924,
			"target":34963
		},
		{
			"buffer":0,
			"byteLength":166020,
			"byteOffset":4337868,
			"target":34962
		},
		{
			"buffer":0,
			"byteLength":166020,
			"byteOffset":4503888,
			"target":34962
		},
		{
			"buffer":0,
			"byteLength":110680,
			"byteOffset":4669908,
			"target":34962
		},
		{
			"buffer":0,
			"byteLength":110680,
			"byteOffset":4780588,
			"target":34962
		},
		{
			"buffer":0,
			"byteLength":98520,
			"byteOffset":4891268,
			"target":34963
		},
		{
			"buffer":0,
			"byteLength":402180,
			"byteOffset":4989788,
			"target":34962
		},
		{
			"buffer":0,
			"byteLength":402180,
			"byteOffset":5391968,
			"target":34962
		},
		{
			"buffer":0,
			"byteLength":268120,
			"byteOffset":5794148,
			"target":34962
		},
		{
			"buffer":0,
			"byteLength":268120,
			"byteOffset":6062268,
			"target":34962
		},
		{
			"buffer":0,
			"byteLength":243384,
			"byteOffset":6330388,
			"target":34963
		},
		{
			"buffer":0,
			"byteLength":157080,
			"byteOffset":6573772,
			"target":34962
		},
		{
			"buffer":0,
			"byteLength":157080,
			"byteOffset":6730852,
			"target":34962
		},
		{
			"buffer":0,
			"byteLength":104720,
			"byteOffset":6887932,
			"target":34962
		},
		{
			"buffer":0,
			"byteLength":104720,
			"byteOffset":6992652,
			"target":34962
		},
		{
			"buffer":0,
			"byteLength":129864,
			"byteOffset":7097372,
			"target":34963
		},
		{
			"buffer":0,
			"byteLength":162552,
			"byteOffset":7227236,
			"target":34962
		},
		{
			"buffer":0,
			"byteLength":162552,
			"byteOffset":7389788,
			"target":34962
		},
		{
			"buffer":0,
			"byteLength":108368,
			"byteOffset":7552340,
			"target":34962
		},
		{
			"buffer":0,
			"byteLength":108368,
			"byteOffset":7660708,
			"target":34962
		},
		{
			"buffer":0,
			"byteLength":129864,
			"byteOffset":7769076,
			"target":34963
		}
	],
	"samplers":[
		{
			"magFilter":9729,
			"minFilter":9987
		}
	],
	"buffers":[
		{
			"byteLength":7898940,
			"uri":"chess.bin"
		}
	]
}
