{
	"asset":{
		"generator":"Khronos glTF Blender I/O v5.1.18",
		"version":"2.0"
	},
	"extensionsUsed":[
		"KHR_materials_clearcoat",
		"KHR_materials_transmission",
		"KHR_materials_emissive_strength",
		"KHR_materials_specular",
		"KHR_materials_ior",
		"KHR_texture_transform"
	],
	"extensionsRequired":[
		"KHR_texture_transform"
	],
	"scene":0,
	"scenes":[
		{
			"name":"Scene",
			"nodes":[
				0,
				1,
				2,
				3,
				4,
				65
			]
		}
	],
	"nodes":[
		{
			"camera":0,
			"name":"Camera",
			"rotation":[
				0.035780441015958786,
				0.9608208537101746,
				0.09310158342123032,
				0.2586023211479187
			],
			"translation":[
				13.606416702270508,
				4.942622661590576,
				-21.884267807006836
			]
		},
		{
			"mesh":0,
			"name":"Plane",
			"translation":[
				-5.539935111999512,
				-23.982391357421875,
				8.202818870544434
			]
		},
		{
			"mesh":1,
			"name":"Icosphere",
			"translation":[
				10.717500686645508,
				5.28147029876709,
				1.8143987655639648
			]
		},
		{
			"mesh":2,
			"name":"Icosphere.001",
			"translation":[
				-12.198822021484375,
				6.826247215270996,
				-1.7281339168548584
			]
		},
		{
			"mesh":3,
			"name":"Plane.001",
			"scale":[
				28.86821937561035,
				28.86821937561035,
				28.86821937561035
			]
		},
		{
			"mesh":4,
			"name":"0.0.0",
			"rotation":[
				0,
				0.8663508296012878,
				0,
				0.4994359314441681
			]
		},
		{
			"mesh":5,
			"name":"00",
			"rotation":[
				0,
				0.8663508296012878,
				0,
				0.4994359314441681
			]
		},
		{
			"mesh":6,
			"name":"Bottom Body",
			"rotation":[
				0,
				0.8663508296012878,
				0,
				0.4994359314441681
			]
		},
		{
			"mesh":7,
			"name":"Box Door Logo",
			"rotation":[
				0,
				0.8663508296012878,
				0,
				0.4994359314441681
			]
		},
		{
			"mesh":8,
			"name":"Brake & Disk",
			"rotation":[
				0,
				0.8663508296012878,
				0,
				0.4994359314441681
			]
		},
		{
			"mesh":9,
			"name":"Brake & Disk.001",
			"rotation":[
				0,
				0.8663508296012878,
				0,
				0.4994359314441681
			]
		},
		{
			"mesh":10,
			"name":"Brake & Disk.002",
			"rotation":[
				0,
				0.8663508296012878,
				0,
				0.4994359314441681
			]
		},
		{
			"mesh":11,
			"name":"Brake & Disk.003",
			"rotation":[
				0,
				0.8663508296012878,
				0,
				0.4994359314441681
			]
		},
		{
			"mesh":12,
			"name":"Chair",
			"rotation":[
				0,
				0.8663508296012878,
				0,
				0.4994359314441681
			]
		},
		{
			"mesh":13,
			"name":"Circle.001",
			"rotation":[
				0,
				0.8663508296012878,
				0,
				0.4994359314441681
			]
		},
		{
			"mesh":14,
			"name":"Circle.002",
			"rotation":[
				0,
				0.8663508296012878,
				0,
				0.4994359314441681
			]
		},
		{
			"mesh":15,
			"name":"Circle.003",
			"rotation":[
				0,
				0.8663508296012878,
				0,
				0.4994359314441681
			]
		},
		{
			"mesh":16,
			"name":"Circle.014",
			"rotation":[
				0,
				0.8663508296012878,
				0,
				0.4994359314441681
			]
		},
		{
			"mesh":17,
			"name":"Front Glass",
			"rotation":[
				0,
				0.8663508296012878,
				0,
				0.4994359314441681
			]
		},
		{
			"mesh":18,
			"name":"front light ",
			"rotation":[
				0,
				0.8663508296012878,
				0,
				0.4994359314441681
			]
		},
		{
			"mesh":19,
			"name":"front light .001",
			"rotation":[
				0,
				0.8663508296012878,
				0,
				0.4994359314441681
			]
		},
		{
			"mesh":20,
			"name":"front light .002",
			"rotation":[
				0,
				0.8663508296012878,
				0,
				0.4994359314441681
			]
		},
		{
			"mesh":21,
			"name":"front light .003",
			"rotation":[
				0,
				0.8663508296012878,
				0,
				0.4994359314441681
			]
		},
		{
			"mesh":22,
			"name":"front light .004",
			"rotation":[
				0,
				0.8663508296012878,
				0,
				0.4994359314441681
			]
		},
		{
			"mesh":23,
			"name":"front light .005",
			"rotation":[
				0,
				0.8663508296012878,
				0,
				0.4994359314441681
			]
		},
		{
			"mesh":24,
			"name":"Front Logo",
			"rotation":[
				0,
				0.8663508296012878,
				0,
				0.4994359314441681
			]
		},
		{
			"mesh":25,
			"name":"Front Logo.001",
			"rotation":[
				0,
				0.8663508296012878,
				0,
				0.4994359314441681
			]
		},
		{
			"mesh":26,
			"name":"Front Wheel",
			"rotation":[
				0,
				0.8663508296012878,
				0,
				0.4994359314441681
			]
		},
		{
			"mesh":27,
			"name":"Front Wheel.001",
			"rotation":[
				0,
				0.8663508296012878,
				0,
				0.4994359314441681
			]
		},
		{
			"mesh":28,
			"name":"Front Wheel.002",
			"rotation":[
				0,
				0.8663508296012878,
				0,
				0.4994359314441681
			]
		},
		{
			"mesh":29,
			"name":"Front Wheel.003",
			"rotation":[
				0,
				0.8663508296012878,
				0,
				0.4994359314441681
			]
		},
		{
			"mesh":30,
			"name":"Front Wheel.004",
			"rotation":[
				0,
				0.8663508296012878,
				0,
				0.4994359314441681
			]
		},
		{
			"mesh":31,
			"name":"Front Wheel.005",
			"rotation":[
				0,
				0.8663508296012878,
				0,
				0.4994359314441681
			]
		},
		{
			"mesh":32,
			"name":"Full Body",
			"rotation":[
				0,
				0.8663508296012878,
				0,
				0.4994359314441681
			]
		},
		{
			"mesh":33,
			"name":"Full Body.001",
			"rotation":[
				0,
				0.8663508296012878,
				0,
				0.4994359314441681
			]
		},
		{
			"mesh":34,
			"name":"Full Body.002",
			"rotation":[
				0,
				0.8663508296012878,
				0,
				0.4994359314441681
			]
		},
		{
			"mesh":35,
			"name":"Full Body.003",
			"rotation":[
				0,
				0.8663508296012878,
				0,
				0.4994359314441681
			]
		},
		{
			"mesh":36,
			"name":"Full Body.004",
			"rotation":[
				0,
				0.8663508296012878,
				0,
				0.4994359314441681
			]
		},
		{
			"mesh":37,
			"name":"Full Body.005",
			"rotation":[
				0,
				0.8663508296012878,
				0,
				0.4994359314441681
			]
		},
		{
			"mesh":38,
			"name":"Full Body.006",
			"rotation":[
				0,
				0.8663508296012878,
				0,
				0.4994359314441681
			]
		},
		{
			"mesh":39,
			"name":"Full Body.007",
			"rotation":[
				0,
				0.8663508296012878,
				0,
				0.4994359314441681
			]
		},
		{
			"mesh":40,
			"name":"Full Body.008",
			"rotation":[
				0,
				0.8663508296012878,
				0,
				0.4994359314441681
			]
		},
		{
			"mesh":41,
			"name":"Full Body.009",
			"rotation":[
				0,
				0.8663508296012878,
				0,
				0.4994359314441681
			]
		},
		{
			"mesh":42,
			"name":"Full Body.010",
			"rotation":[
				0,
				0.8663508296012878,
				0,
				0.4994359314441681
			]
		},
		{
			"mesh":43,
			"name":"Full Body.011",
			"rotation":[
				0,
				0.8663508296012878,
				0,
				0.4994359314441681
			]
		},
		{
			"mesh":44,
			"name":"grill",
			"rotation":[
				0,
				0.8663508296012878,
				0,
				0.4994359314441681
			]
		},
		{
			"mesh":45,
			"name":"Hood And Side Intake Air",
			"rotation":[
				0,
				0.8663508296012878,
				0,
				0.4994359314441681
			]
		},
		{
			"mesh":46,
			"name":"Interior Dashboard",
			"rotation":[
				0,
				0.8663508296012878,
				0,
				0.4994359314441681
			]
		},
		{
			"mesh":47,
			"name":"Interior Dashboard.001",
			"rotation":[
				0,
				0.8663508296012878,
				0,
				0.4994359314441681
			]
		},
		{
			"mesh":48,
			"name":"Interior Dashboard.002",
			"rotation":[
				0,
				0.8663508296012878,
				0,
				0.4994359314441681
			]
		},
		{
			"mesh":49,
			"name":"Interior Dashboard.003",
			"rotation":[
				0,
				0.8663508296012878,
				0,
				0.4994359314441681
			]
		},
		{
			"mesh":50,
			"name":"Interior Door",
			"rotation":[
				0,
				0.8663508296012878,
				0,
				0.4994359314441681
			]
		},
		{
			"mesh":51,
			"name":"Interior Door.001",
			"rotation":[
				0,
				0.8663508296012878,
				0,
				0.4994359314441681
			]
		},
		{
			"mesh":52,
			"name":"Interior Door.002",
			"rotation":[
				0,
				0.8663508296012878,
				0,
				0.4994359314441681
			]
		},
		{
			"mesh":53,
			"name":"Mirror Interior",
			"rotation":[
				0,
				0.8663508296012878,
				0,
				0.4994359314441681
			]
		},
		{
			"mesh":54,
			"name":"Mirror Interior.001",
			"rotation":[
				0,
				0.8663508296012878,
				0,
				0.4994359314441681
			]
		},
		{
			"mesh":55,
			"name":"Rear Glass",
			"rotation":[
				0,
				0.8663508296012878,
				0,
				0.4994359314441681
			]
		},
		{
			"mesh":56,
			"name":"Rear Light",
			"rotation":[
				0,
				0.8663508296012878,
				0,
				0.4994359314441681
			]
		},
		{
			"mesh":57,
			"name":"Rear Light.001",
			"rotation":[
				0,
				0.8663508296012878,
				0,
				0.4994359314441681
			]
		},
		{
			"mesh":58,
			"name":"Rear Light.002",
			"rotation":[
				0,
				0.8663508296012878,
				0,
				0.4994359314441681
			]
		},
		{
			"mesh":59,
			"name":"Rear Light.003",
			"rotation":[
				0,
				0.8663508296012878,
				0,
				0.4994359314441681
			]
		},
		{
			"mesh":60,
			"name":"Rear Light.004",
			"rotation":[
				0,
				0.8663508296012878,
				0,
				0.4994359314441681
			]
		},
		{
			"mesh":61,
			"name":"Roof interior",
			"rotation":[
				0,
				0.8663508296012878,
				0,
				0.4994359314441681
			]
		},
		{
			"mesh":62,
			"name":"Roof interior.001",
			"rotation":[
				0,
				0.8663508296012878,
				0,
				0.4994359314441681
			]
		},
		{
			"mesh":63,
			"name":"Side Window",
			"rotation":[
				0,
				0.8663508296012878,
				0,
				0.4994359314441681
			]
		},
		{
			"children":[
				5,
				6,
				7,
				8,
				9,
				10,
				11,
				12,
				13,
				14,
				15,
				16,
				17,
				18,
				19,
				20,
				21,
				22,
				23,
				24,
				25,
				26,
				27,
				28,
				29,
				30,
				31,
				32,
				33,
				34,
				35,
				36,
				37,
				38,
				39,
				40,
				41,
				42,
				43,
				44,
				45,
				46,
				47,
				48,
				49,
				50,
				51,
				52,
				53,
				54,
				55,
				56,
				57,
				58,
				59,
				60,
				61,
				62,
				63,
				64
			],
			"name":"Mercedes Benz SLS 2011 car"
		}
	],
	"cameras":[
		{
			"name":"Camera",
			"perspective":{
				"aspectRatio":1.7777777777777777,
				"yfov":0.2614868092355743,
				"zfar":100,
				"znear":0.10000000149011612
			},
			"type":"perspective"
		}
	],
	"materials":[
		{
			"doubleSided":true,
			"emissiveFactor":[
				1,
				1,
				1
			],
			"extensions":{
				"KHR_materials_emissive_strength":{
					"emissiveStrength":94.99998474121094
				}
			},
			"name":"Material.001",
			"pbrMetallicRoughness":{
				"baseColorFactor":[
					0.800000011920929,
					0.800000011920929,
					0.800000011920929,
					1
				],
				"metallicFactor":0,
				"roughnessFactor":0.5
			}
		},
		{
			"doubleSided":true,
			"name":"Material",
			"pbrMetallicRoughness":{
				"baseColorFactor":[
					0.800000011920929,
					0.800000011920929,
					0.800000011920929,
					1
				],
				"metallicFactor":0.20809248089790344,
				"roughnessFactor":0.5722543597221375
			}
		},
		{
			"doubleSided":true,
			"name":"Glossy-ruber",
			"pbrMetallicRoughness":{
				"baseColorFactor":[
					0.013648861087858677,
					0.013648861087858677,
					0.013648861087858677,
					1
				],
				"metallicFactor":0,
				"roughnessFactor":0.28912246227264404
			}
		},
		{
			"doubleSided":true,
			"name":"b-rubber",
			"pbrMetallicRoughness":{
				"baseColorFactor":[
					0.007189735770225525,
					0.007189735770225525,
					0.007189735770225525,
					1
				],
				"metallicFactor":0,
				"roughnessFactor":0.5
			}
		},
		{
			"doubleSided":true,
			"extensions":{
				"KHR_materials_specular":{
					"specularFactor":0.5363636016845703
				},
				"KHR_materials_ior":{
					"ior":1.4500000476837158
				}
			},
			"name":"Interior-Leather",
			"normalTexture":{
				"extensions":{
					"KHR_texture_transform":{
						"offset":[
							0,
							-4
						],
						"scale":[
							5,
							5
						]
					}
				},
				"index":0
			},
			"pbrMetallicRoughness":{
				"baseColorFactor":[
					0.01667742244899273,
					0.0159110426902771,
					0.016564080491662025,
					1
				],
				"metallicFactor":0,
				"metallicRoughnessTexture":{
					"extensions":{
						"KHR_texture_transform":{
							"offset":[
								0,
								-4
							],
							"scale":[
								5,
								5
							]
						}
					},
					"index":1
				}
			}
		},
		{
			"doubleSided":true,
			"name":"Chrome",
			"pbrMetallicRoughness":{
				"baseColorFactor":[
					0.800000011920929,
					0.800000011920929,
					0.800000011920929,
					1
				],
				"roughnessFactor":0
			}
		},
		{
			"doubleSided":true,
			"extensions":{
				"KHR_materials_transmission":{
					"transmissionFactor":1
				},
				"KHR_materials_ior":{
					"ior":1.100000023841858
				}
			},
			"name":"Headlight-Glass",
			"pbrMetallicRoughness":{
				"baseColorFactor":[
					0.007477167062461376,
					0.007477167062461376,
					0.007477167062461376,
					1
				],
				"roughnessFactor":0.059090934693813324
			}
		},
		{
			"doubleSided":true,
			"name":"Chrome.002",
			"pbrMetallicRoughness":{
				"baseColorFactor":[
					0.800000011920929,
					0.800000011920929,
					0.800000011920929,
					1
				],
				"roughnessFactor":0.3590909242630005
			}
		},
		{
			"doubleSided":true,
			"extensions":{
				"KHR_materials_transmission":{
					"transmissionFactor":1
				},
				"KHR_materials_ior":{
					"ior":2.799999952316284
				}
			},
			"name":"LENS",
			"pbrMetallicRoughness":{
				"baseColorFactor":[
					0.800000011920929,
					0.800000011920929,
					0.800000011920929,
					1
				],
				"metallicFactor":0,
				"roughnessFactor":0
			}
		},
		{
			"doubleSided":true,
			"emissiveFactor":[
				1,
				1,
				1
			],
			"extensions":{
				"KHR_materials_emissive_strength":{
					"emissiveStrength":2
				}
			},
			"name":"Material.004",
			"pbrMetallicRoughness":{
				"baseColorFactor":[
					0.800000011920929,
					0.800000011920929,
					0.800000011920929,
					1
				],
				"metallicFactor":0,
				"roughnessFactor":0.5
			}
		},
		{
			"doubleSided":true,
			"name":"Tire05_low",
			"normalTexture":{
				"index":2
			},
			"pbrMetallicRoughness":{
				"baseColorFactor":[
					0.02544366754591465,
					0.02544366754591465,
					0.02544366754591465,
					1
				],
				"metallicFactor":0,
				"roughnessFactor":0.7023121118545532
			}
		},
		{
			"doubleSided":true,
			"name":"Alloy",
			"pbrMetallicRoughness":{
				"baseColorFactor":[
					0.800000011920929,
					0.800000011920929,
					0.800000011920929,
					1
				],
				"metallicFactor":0.3757225573062897,
				"roughnessFactor":0.22834646701812744
			}
		},
		{
			"doubleSided":true,
			"name":"Glass-wind-darker",
			"pbrMetallicRoughness":{
				"baseColorFactor":[
					0.015809517353773117,
					0.015809517353773117,
					0.015809517353773117,
					1
				],
				"roughnessFactor":0
			}
		},
		{
			"doubleSided":true,
			"name":"Plate.001",
			"pbrMetallicRoughness":{
				"baseColorTexture":{
					"index":3
				},
				"metallicFactor":0,
				"roughnessFactor":0.5
			}
		},
		{
			"doubleSided":true,
			"extensions":{
				"KHR_materials_clearcoat":{
					"clearcoatFactor":1,
					"clearcoatRoughnessFactor":0
				},
				"KHR_materials_specular":{
					"specularFactor":0.9818181991577148
				},
				"KHR_materials_ior":{
					"ior":1.4500000476837158
				}
			},
			"name":"CarPiant-amj",
			"pbrMetallicRoughness":{
				"baseColorFactor":[
					0.5048644542694092,
					0.055176056921482086,
					0.05698389187455177,
					1
				],
				"metallicFactor":0.27167630195617676,
				"roughnessFactor":0.3410404324531555
			}
		},
		{
			"doubleSided":true,
			"name":"white-Color-dots.001",
			"pbrMetallicRoughness":{
				"baseColorFactor":[
					0.800070583820343,
					0.800070583820343,
					0.800070583820343,
					1
				],
				"roughnessFactor":0
			}
		},
		{
			"doubleSided":true,
			"name":"Red-Color-dots",
			"pbrMetallicRoughness":{
				"baseColorFactor":[
					0.800070583820343,
					0.004493902437388897,
					0,
					1
				],
				"metallicFactor":0.2954545319080353,
				"roughnessFactor":0
			}
		},
		{
			"doubleSided":true,
			"emissiveFactor":[
				1,
				0.005616882470457143,
				0
			],
			"extensions":{
				"KHR_materials_emissive_strength":{
					"emissiveStrength":1.600141167640686
				}
			},
			"name":"lampRed-Color-dots.001",
			"pbrMetallicRoughness":{
				"baseColorFactor":[
					0.800070583820343,
					0.004493902437388897,
					0,
					1
				],
				"metallicFactor":0.2954545319080353,
				"roughnessFactor":0
			}
		}
	],
	"meshes":[
		{
			"name":"Plane.009",
			"primitives":[
				{
					"attributes":{
						"POSITION":0,
						"NORMAL":1,
						"TEXCOORD_0":2
					},
					"indices":3
				}
			]
		},
		{
			"name":"Icosphere",
			"primitives":[
				{
					"attributes":{
						"POSITION":4,
						"NORMAL":5,
						"TEXCOORD_0":6
					},
					"indices":7,
					"material":0
				}
			]
		},
		{
			"name":"Icosphere.001",
			"primitives":[
				{
					"attributes":{
						"POSITION":8,
						"NORMAL":9,
						"TEXCOORD_0":10
					},
					"indices":7,
					"material":0
				}
			]
		},
		{
			"name":"Plane.010",
			"primitives":[
				{
					"attributes":{
						"POSITION":11,
						"NORMAL":12,
						"TEXCOORD_0":13
					},
					"indices":14,
					"material":1
				}
			]
		},
		{
			"name":"Mesh",
			"primitives":[
				{
					"attributes":{
						"POSITION":15,
						"NORMAL":16,
						"TEXCOORD_0":17
					},
					"indices":18,
					"material":2
				}
			]
		},
		{
			"name":"Mesh",
			"primitives":[
				{
					"attributes":{
						"POSITION":19,
						"NORMAL":20,
						"TEXCOORD_0":21
					},
					"indices":22,
					"material":3
				}
			]
		},
		{
			"name":"Mesh",
			"primitives":[
				{
					"attributes":{
						"POSITION":23,
						"NORMAL":24,
						"TEXCOORD_0":25
					},
					"indices":26,
					"material":4
				}
			]
		},
		{
			"name":"Mesh",
			"primitives":[
				{
					"attributes":{
						"POSITION":27,
						"NORMAL":28,
						"TEXCOORD_0":29
					},
					"indices":30,
					"material":5
				}
			]
		},
		{
			"name":"Circle.046",
			"primitives":[
				{
					"attributes":{
						"POSITION":31,
						"NORMAL":32,
						"TEXCOORD_0":33
					},
					"indices":34,
					"material":3
				}
			]
		},
		{
			"name":"Circle.005",
			"primitives":[
				{
					"attributes":{
						"POSITION":35,
						"NORMAL":36,
						"TEXCOORD_0":37
					},
					"indices":34,
					"material":3
				}
			]
		},
		{
			"name":"Circle.042",
			"primitives":[
				{
					"attributes":{
						"POSITION":38,
						"NORMAL":39,
						"TEXCOORD_0":40
					},
					"indices":41,
					"material":5
				}
			]
		},
		{
			"name":"Circle.043",
			"primitives":[
				{
					"attributes":{
						"POSITION":42,
						"NORMAL":43,
						"TEXCOORD_0":44
					},
					"indices":41,
					"material":5
				}
			]
		},
		{
			"name":"Mesh",
			"primitives":[
				{
					"attributes":{
						"POSITION":45,
						"NORMAL":46,
						"TEXCOORD_0":47
					},
					"indices":48,
					"material":4
				}
			]
		},
		{
			"name":"Mesh",
			"primitives":[
				{
					"attributes":{
						"POSITION":49,
						"NORMAL":50,
						"TEXCOORD_0":51
					},
					"indices":52,
					"material":2
				}
			]
		},
		{
			"name":"Mesh",
			"primitives":[
				{
					"attributes":{
						"POSITION":53,
						"NORMAL":54,
						"TEXCOORD_0":55
					},
					"indices":56,
					"material":4
				}
			]
		},
		{
			"name":"Mesh",
			"primitives":[
				{
					"attributes":{
						"POSITION":57,
						"NORMAL":58,
						"TEXCOORD_0":59
					},
					"indices":60,
					"material":3
				}
			]
		},
		{
			"name":"Mesh",
			"primitives":[
				{
					"attributes":{
						"POSITION":61,
						"NORMAL":62,
						"TEXCOORD_0":63
					},
					"indices":30,
					"material":5
				}
			]
		},
		{
			"name":"Mesh",
			"primitives":[
				{
					"attributes":{
						"POSITION":64,
						"NORMAL":65
					},
					"indices":66,
					"material":6
				}
			]
		},
		{
			"name":"Mesh",
			"primitives":[
				{
					"attributes":{
						"POSITION":67,
						"NORMAL":68,
						"TEXCOORD_0":69
					},
					"indices":70,
					"material":7
				}
			]
		},
		{
			"name":"Mesh",
			"primitives":[
				{
					"attributes":{
						"POSITION":71,
						"NORMAL":72,
						"TEXCOORD_0":73
					},
					"indices":74,
					"material":3
				}
			]
		},
		{
			"name":"Mesh",
			"primitives":[
				{
					"attributes":{
						"POSITION":75,
						"NORMAL":76,
						"TEXCOORD_0":77
					},
					"indices":78,
					"material":2
				}
			]
		},
		{
			"name":"Mesh",
			"primitives":[
				{
					"attributes":{
						"POSITION":79,
						"NORMAL":80,
						"TEXCOORD_0":81
					},
					"indices":82,
					"material":8
				}
			]
		},
		{
			"name":"Mesh",
			"primitives":[
				{
					"attributes":{
						"POSITION":83,
						"NORMAL":84,
						"TEXCOORD_0":85
					},
					"indices":86,
					"material":9
				}
			]
		},
		{
			"name":"Mesh",
			"primitives":[
				{
					"attributes":{
						"POSITION":87,
						"NORMAL":88,
						"TEXCOORD_0":89
					},
					"indices":90,
					"material":5
				}
			]
		},
		{
			"name":"Mesh",
			"primitives":[
				{
					"attributes":{
						"POSITION":91,
						"NORMAL":92,
						"TEXCOORD_0":93
					},
					"indices":94,
					"material":3
				}
			]
		},
		{
			"name":"Mesh",
			"primitives":[
				{
					"attributes":{
						"POSITION":95,
						"NORMAL":96,
						"TEXCOORD_0":97
					},
					"indices":98,
					"material":5
				}
			]
		},
		{
			"name":"Circle.020",
			"primitives":[
				{
					"attributes":{
						"POSITION":99,
						"NORMAL":100,
						"TEXCOORD_0":101
					},
					"indices":102,
					"material":10
				}
			]
		},
		{
			"name":"Circle.004",
			"primitives":[
				{
					"attributes":{
						"POSITION":103,
						"NORMAL":104,
						"TEXCOORD_0":105
					},
					"indices":102,
					"material":10
				}
			]
		},
		{
			"name":"Circle.025",
			"primitives":[
				{
					"attributes":{
						"POSITION":106,
						"NORMAL":107,
						"TEXCOORD_0":108
					},
					"indices":109,
					"material":11
				}
			]
		},
		{
			"name":"Circle.026",
			"primitives":[
				{
					"attributes":{
						"POSITION":110,
						"NORMAL":111,
						"TEXCOORD_0":112
					},
					"indices":113,
					"material":5
				}
			]
		},
		{
			"name":"Circle.028",
			"primitives":[
				{
					"attributes":{
						"POSITION":114,
						"NORMAL":115,
						"TEXCOORD_0":116
					},
					"indices":117,
					"material":11
				}
			]
		},
		{
			"name":"Circle.029",
			"primitives":[
				{
					"attributes":{
						"POSITION":118,
						"NORMAL":119,
						"TEXCOORD_0":120
					},
					"indices":113,
					"material":5
				}
			]
		},
		{
			"name":"Mesh",
			"primitives":[
				{
					"attributes":{
						"POSITION":121,
						"NORMAL":122,
						"TEXCOORD_0":123
					},
					"indices":124,
					"material":3
				}
			]
		},
		{
			"name":"Mesh",
			"primitives":[
				{
					"attributes":{
						"POSITION":125,
						"NORMAL":126,
						"TEXCOORD_0":127
					},
					"indices":128,
					"material":12
				}
			]
		},
		{
			"name":"Mesh",
			"primitives":[
				{
					"attributes":{
						"POSITION":129,
						"NORMAL":130,
						"TEXCOORD_0":131
					},
					"indices":132,
					"material":3
				}
			]
		},
		{
			"name":"Mesh",
			"primitives":[
				{
					"attributes":{
						"POSITION":133,
						"NORMAL":134,
						"TEXCOORD_0":135
					},
					"indices":136,
					"material":3
				}
			]
		},
		{
			"name":"Mesh",
			"primitives":[
				{
					"attributes":{
						"POSITION":137,
						"NORMAL":138,
						"TEXCOORD_0":139
					},
					"indices":140,
					"material":12
				}
			]
		},
		{
			"name":"Mesh",
			"primitives":[
				{
					"attributes":{
						"POSITION":141,
						"NORMAL":142,
						"TEXCOORD_0":143
					},
					"indices":144,
					"material":13
				}
			]
		},
		{
			"name":"Mesh",
			"primitives":[
				{
					"attributes":{
						"POSITION":145,
						"NORMAL":146,
						"TEXCOORD_0":147
					},
					"indices":148,
					"material":3
				}
			]
		},
		{
			"name":"Mesh",
			"primitives":[
				{
					"attributes":{
						"POSITION":149,
						"NORMAL":150,
						"TEXCOORD_0":151
					},
					"indices":152,
					"material":3
				}
			]
		},
		{
			"name":"Mesh",
			"primitives":[
				{
					"attributes":{
						"POSITION":153,
						"NORMAL":154,
						"TEXCOORD_0":155
					},
					"indices":156,
					"material":14
				}
			]
		},
		{
			"name":"Mesh",
			"primitives":[
				{
					"attributes":{
						"POSITION":157,
						"NORMAL":158,
						"TEXCOORD_0":159
					},
					"indices":160,
					"material":5
				}
			]
		},
		{
			"name":"Mesh",
			"primitives":[
				{
					"attributes":{
						"POSITION":161,
						"NORMAL":162,
						"TEXCOORD_0":163
					},
					"indices":164,
					"material":13
				}
			]
		},
		{
			"name":"Mesh",
			"primitives":[
				{
					"attributes":{
						"POSITION":165,
						"NORMAL":166,
						"TEXCOORD_0":167
					},
					"indices":168,
					"material":3
				}
			]
		},
		{
			"name":"Plane.007",
			"primitives":[
				{
					"attributes":{
						"POSITION":169,
						"NORMAL":170,
						"TEXCOORD_0":171
					},
					"indices":172,
					"material":2
				}
			]
		},
		{
			"name":"Plane.032",
			"primitives":[
				{
					"attributes":{
						"POSITION":173,
						"NORMAL":174,
						"TEXCOORD_0":175
					},
					"indices":176,
					"material":3
				}
			]
		},
		{
			"name":"Mesh",
			"primitives":[
				{
					"attributes":{
						"POSITION":177,
						"NORMAL":178,
						"TEXCOORD_0":179
					},
					"indices":180,
					"material":3
				}
			]
		},
		{
			"name":"Mesh",
			"primitives":[
				{
					"attributes":{
						"POSITION":181,
						"NORMAL":182,
						"TEXCOORD_0":183
					},
					"indices":184,
					"material":4
				}
			]
		},
		{
			"name":"Mesh",
			"primitives":[
				{
					"attributes":{
						"POSITION":185,
						"NORMAL":186,
						"TEXCOORD_0":187
					},
					"indices":188,
					"material":7
				}
			]
		},
		{
			"name":"Mesh",
			"primitives":[
				{
					"attributes":{
						"POSITION":189,
						"NORMAL":190,
						"TEXCOORD_0":191
					},
					"indices":192,
					"material":2
				}
			]
		},
		{
			"name":"Plane.006",
			"primitives":[
				{
					"attributes":{
						"POSITION":193,
						"NORMAL":194,
						"TEXCOORD_0":195
					},
					"indices":196,
					"material":4
				}
			]
		},
		{
			"name":"Plane.002",
			"primitives":[
				{
					"attributes":{
						"POSITION":197,
						"NORMAL":198,
						"TEXCOORD_0":199
					},
					"indices":200,
					"material":7
				}
			]
		},
		{
			"name":"Plane.003",
			"primitives":[
				{
					"attributes":{
						"POSITION":201,
						"NORMAL":202,
						"TEXCOORD_0":203
					},
					"indices":204,
					"material":2
				}
			]
		},
		{
			"name":"Mesh",
			"primitives":[
				{
					"attributes":{
						"POSITION":205,
						"NORMAL":206,
						"TEXCOORD_0":207
					},
					"indices":208,
					"material":3
				}
			]
		},
		{
			"name":"Mesh",
			"primitives":[
				{
					"attributes":{
						"POSITION":209,
						"NORMAL":210,
						"TEXCOORD_0":211
					},
					"indices":212,
					"material":5
				}
			]
		},
		{
			"name":"Mesh",
			"primitives":[
				{
					"attributes":{
						"POSITION":213,
						"NORMAL":214
					},
					"indices":215,
					"material":6
				}
			]
		},
		{
			"name":"Mesh",
			"primitives":[
				{
					"attributes":{
						"POSITION":216,
						"NORMAL":217,
						"TEXCOORD_0":218
					},
					"indices":219,
					"material":15
				}
			]
		},
		{
			"name":"Mesh",
			"primitives":[
				{
					"attributes":{
						"POSITION":220,
						"NORMAL":221,
						"TEXCOORD_0":222
					},
					"indices":223,
					"material":3
				}
			]
		},
		{
			"name":"Mesh",
			"primitives":[
				{
					"attributes":{
						"POSITION":224,
						"NORMAL":225,
						"TEXCOORD_0":226
					},
					"indices":227,
					"material":16
				}
			]
		},
		{
			"name":"Mesh",
			"primitives":[
				{
					"attributes":{
						"POSITION":228,
						"NORMAL":229,
						"TEXCOORD_0":230
					},
					"indices":215,
					"material":2
				}
			]
		},
		{
			"name":"Mesh",
			"primitives":[
				{
					"attributes":{
						"POSITION":231,
						"NORMAL":232,
						"TEXCOORD_0":233
					},
					"indices":234,
					"material":17
				}
			]
		},
		{
			"name":"Mesh",
			"primitives":[
				{
					"attributes":{
						"POSITION":235,
						"NORMAL":236,
						"TEXCOORD_0":237
					},
					"indices":238,
					"material":4
				}
			]
		},
		{
			"name":"Mesh",
			"primitives":[
				{
					"attributes":{
						"POSITION":239,
						"NORMAL":240,
						"TEXCOORD_0":241
					},
					"indices":242,
					"material":4
				}
			]
		},
		{
			"name":"Plane.061",
			"primitives":[
				{
					"attributes":{
						"POSITION":243,
						"NORMAL":244,
						"TEXCOORD_0":245
					},
					"indices":246,
					"material":12
				}
			]
		}
	],
	"textures":[
		{
			"sampler":0,
			"source":0
		},
		{
			"sampler":0,
			"source":1
		},
		{
			"sampler":0,
			"source":2
		},
		{
			"sampler":0,
			"source":3
		}
	],
	"images":[
		{
			"mimeType":"image/jpeg",
			"name":"AI21_02_chaire_seat_Bump",
			"uri":"AI21_02_chaire_seat_Bump.jpg"
		},
		{
			"mimeType":"image/png",
			"name":"AI21_02_chaire_seat_Bump",
			"uri":"AI21_02_chaire_seat_Bump.png"
		},
		{
			"mimeType":"image/jpeg",
			"name":"Wheel05_Tire05_low_Normal",
			"uri":"Wheel05_Tire05_low_Normal.jpg"
		},
		{
			"mimeType":"image/png",
			"name":"Plate",
			"uri":"Plate.png"
		}
	],
	"accessors":[
		{
			"bufferView":0,
			"componentType":5126,
			"count":30,
			"max":[
				15.62317943572998,
				10.515848159790039,
				2.367802381515503
			],
			"min":[
				-15.59278392791748,
				-1.994523286819458,
				-21.020606994628906
			],
			"type":"VEC3"
		},
		{
			"bufferView":1,
			"componentType":5126,
			"count":30,
			"type":"VEC3"
		},
		{
			"bufferView":2,
			"componentType":5126,
			"count":30,
			"type":"VEC2"
		},
		{
			"bufferView":3,
			"componentType":5123,
			"count":84,
			"type":"SCALAR"
		},
		{
			"bufferView":4,
			"componentType":5126,
			"count":60,
			"max":[
				0.8944249749183655,
				1,
				0.8506399989128113
			],
			"min":[
				-0.8944249749183655,
				-1,
				-0.8506399989128113
			],
			"type":"VEC3"
		},
		{
			"bufferView":5,
			"componentType":5126,
			"count":60,
			"type":"VEC3"
		},
		{
			"bufferView":6,
			"componentType":5126,
			"count":60,
			"type":"VEC2"
		},
		{
			"bufferView":7,
			"componentType":5123,
			"count":60,
			"type":"SCALAR"
		},
		{
			"bufferView":8,
			"componentType":5126,
			"count":60,
			"max":[
				0.8944249749183655,
				1,
				0.8506399989128113
			],
			"min":[
				-0.8944249749183655,
				-1,
				-0.8506399989128113
			],
			"type":"VEC3"
		},
		{
			"bufferView":9,
			"componentType":5126,
			"count":60,
			"type":"VEC3"
		},
		{
			"bufferView":10,
			"componentType":5126,
			"count":60,
			"type":"VEC2"
		},
		{
			"bufferView":11,
			"componentType":5126,
			"count":157,
			"max":[
				1,
				1.2991676330566406,
				1
			],
			"min":[
				-1,
				0,
				-1
			],
			"type":"VEC3"
		},
		{
			"bufferView":12,
			"componentType":5126,
			"count":157,
			"type":"VEC3"
		},
		{
			"bufferView":13,
			"componentType":5126,
			"count":157,
			"type":"VEC2"
		},
		{
			"bufferView":14,
			"componentType":5123,
			"count":828,
			"type":"SCALAR"
		},
		{
			"bufferView":15,
			"componentType":5126,
			"count":2136,
			"max":[
				1.5299403667449951,
				1.0696940422058105,
				-0.07373479008674622
			],
			"min":[
				-1.5301342010498047,
				1.047160267829895,
				-0.14461150765419006
			],
			"type":"VEC3"
		},
		{
			"bufferView":16,
			"componentType":5126,
			"count":2136,
			"type":"VEC3"
		},
		{
			"bufferView":17,
			"componentType":5126,
			"count":2136,
			"type":"VEC2"
		},
		{
			"bufferView":18,
			"componentType":5123,
			"count":10032,
			"type":"SCALAR"
		},
		{
			"bufferView":19,
			"componentType":5126,
			"count":661,
			"max":[
				1.652736783027649,
				1.8715941905975342,
				-1.468790054321289
			],
			"min":[
				-1.652736783027649,
				1.7883188724517822,
				-1.5044269561767578
			],
			"type":"VEC3"
		},
		{
			"bufferView":20,
			"componentType":5126,
			"count":661,
			"type":"VEC3"
		},
		{
			"bufferView":21,
			"componentType":5126,
			"count":661,
			"type":"VEC2"
		},
		{
			"bufferView":22,
			"componentType":5123,
			"count":3120,
			"type":"SCALAR"
		},
		{
			"bufferView":23,
			"componentType":5126,
			"count":1238,
			"max":[
				1.7871071100234985,
				1.2524715662002563,
				0.6609298586845398
			],
			"min":[
				-1.7871071100234985,
				0.3451734185218811,
				-1.6881742477416992
			],
			"type":"VEC3"
		},
		{
			"bufferView":24,
			"componentType":5126,
			"count":1238,
			"type":"VEC3"
		},
		{
			"bufferView":25,
			"componentType":5126,
			"count":1238,
			"type":"VEC2"
		},
		{
			"bufferView":26,
			"componentType":5123,
			"count":5100,
			"type":"SCALAR"
		},
		{
			"bufferView":27,
			"componentType":5126,
			"count":1389,
			"max":[
				0.10816290229558945,
				1.6511372327804565,
				-4.521446228027344
			],
			"min":[
				-0.10843101143836975,
				1.4532841444015503,
				-4.618340969085693
			],
			"type":"VEC3"
		},
		{
			"bufferView":28,
			"componentType":5126,
			"count":1389,
			"type":"VEC3"
		},
		{
			"bufferView":29,
			"componentType":5126,
			"count":1389,
			"type":"VEC2"
		},
		{
			"bufferView":30,
			"componentType":5123,
			"count":7584,
			"type":"SCALAR"
		},
		{
			"bufferView":31,
			"componentType":5126,
			"count":19032,
			"max":[
				1.9341822862625122,
				1.054121971130371,
				2.7816390991210938
			],
			"min":[
				-1.9341822862625122,
				0.3828445076942444,
				2.551626443862915
			],
			"type":"VEC3"
		},
		{
			"bufferView":32,
			"componentType":5126,
			"count":19032,
			"type":"VEC3"
		},
		{
			"bufferView":33,
			"componentType":5126,
			"count":19032,
			"type":"VEC2"
		},
		{
			"bufferView":34,
			"componentType":5123,
			"count":100224,
			"type":"SCALAR"
		},
		{
			"bufferView":35,
			"componentType":5126,
			"count":19032,
			"max":[
				1.9341822862625122,
				1.054121971130371,
				-2.87778377532959
			],
			"min":[
				-1.9341822862625122,
				0.3828445076942444,
				-3.1077961921691895
			],
			"type":"VEC3"
		},
		{
			"bufferView":36,
			"componentType":5126,
			"count":19032,
			"type":"VEC3"
		},
		{
			"bufferView":37,
			"componentType":5126,
			"count":19032,
			"type":"VEC2"
		},
		{
			"bufferView":38,
			"componentType":5126,
			"count":10054,
			"max":[
				1.90851891040802,
				1.1651222705841064,
				-2.2183074951171875
			],
			"min":[
				-1.90851891040802,
				0.276845782995224,
				-3.106584310531616
			],
			"type":"VEC3"
		},
		{
			"bufferView":39,
			"componentType":5126,
			"count":10054,
			"type":"VEC3"
		},
		{
			"bufferView":40,
			"componentType":5126,
			"count":10054,
			"type":"VEC2"
		},
		{
			"bufferView":41,
			"componentType":5123,
			"count":54240,
			"type":"SCALAR"
		},
		{
			"bufferView":42,
			"componentType":5126,
			"count":10054,
			"max":[
				1.90851891040802,
				1.1651222705841064,
				3.441115379333496
			],
			"min":[
				-1.90851891040802,
				0.276845782995224,
				2.5528390407562256
			],
			"type":"VEC3"
		},
		{
			"bufferView":43,
			"componentType":5126,
			"count":10054,
			"type":"VEC3"
		},
		{
			"bufferView":44,
			"componentType":5126,
			"count":10054,
			"type":"VEC2"
		},
		{
			"bufferView":45,
			"componentType":5126,
			"count":11160,
			"max":[
				1.7903598546981812,
				2.2877981662750244,
				-0.07628320157527924
			],
			"min":[
				-1.7903598546981812,
				0.35241368412971497,
				-3.2706732749938965
			],
			"type":"VEC3"
		},
		{
			"bufferView":46,
			"componentType":5126,
			"count":11160,
			"type":"VEC3"
		},
		{
			"bufferView":47,
			"componentType":5126,
			"count":11160,
			"type":"VEC2"
		},
		{
			"bufferView":48,
			"componentType":5123,
			"count":45660,
			"type":"SCALAR"
		},
		{
			"bufferView":49,
			"componentType":5126,
			"count":3344,
			"max":[
				1.1304259300231934,
				1.6287693977355957,
				-0.12038139998912811
			],
			"min":[
				0.6679818630218506,
				1.5673019886016846,
				-0.15653249621391296
			],
			"type":"VEC3"
		},
		{
			"bufferView":50,
			"componentType":5126,
			"count":3344,
			"type":"VEC3"
		},
		{
			"bufferView":51,
			"componentType":5126,
			"count":3344,
			"type":"VEC2"
		},
		{
			"bufferView":52,
			"componentType":5123,
			"count":19584,
			"type":"SCALAR"
		},
		{
			"bufferView":53,
			"componentType":5126,
			"count":3121,
			"max":[
				1.2387371063232422,
				1.8879917860031128,
				0.02862055040895939
			],
			"min":[
				0.5532854795455933,
				1.254972219467163,
				-0.23946663737297058
			],
			"type":"VEC3"
		},
		{
			"bufferView":54,
			"componentType":5126,
			"count":3121,
			"type":"VEC3"
		},
		{
			"bufferView":55,
			"componentType":5126,
			"count":3121,
			"type":"VEC2"
		},
		{
			"bufferView":56,
			"componentType":5123,
			"count":13224,
			"type":"SCALAR"
		},
		{
			"bufferView":57,
			"componentType":5126,
			"count":1664,
			"max":[
				1.171890377998352,
				1.6701205968856812,
				0.031206510961055756
			],
			"min":[
				0.6308485269546509,
				1.3039363622665405,
				-0.23497965931892395
			],
			"type":"VEC3"
		},
		{
			"bufferView":58,
			"componentType":5126,
			"count":1664,
			"type":"VEC3"
		},
		{
			"bufferView":59,
			"componentType":5126,
			"count":1664,
			"type":"VEC2"
		},
		{
			"bufferView":60,
			"componentType":5123,
			"count":7536,
			"type":"SCALAR"
		},
		{
			"bufferView":61,
			"componentType":5126,
			"count":1389,
			"max":[
				0.9431628584861755,
				1.625167965888977,
				-0.15499597787857056
			],
			"min":[
				0.8571598529815674,
				1.5428894758224487,
				-0.18400119245052338
			],
			"type":"VEC3"
		},
		{
			"bufferView":62,
			"componentType":5126,
			"count":1389,
			"type":"VEC3"
		},
		{
			"bufferView":63,
			"componentType":5126,
			"count":1389,
			"type":"VEC2"
		},
		{
			"bufferView":64,
			"componentType":5126,
			"count":548,
			"max":[
				1.8275562524795532,
				1.5327262878417969,
				4.489171504974365
			],
			"min":[
				-1.8275562524795532,
				1.0604196786880493,
				3.500960350036621
			],
			"type":"VEC3"
		},
		{
			"bufferView":65,
			"componentType":5126,
			"count":548,
			"type":"VEC3"
		},
		{
			"bufferView":66,
			"componentType":5123,
			"count":2928,
			"type":"SCALAR"
		},
		{
			"bufferView":67,
			"componentType":5126,
			"count":3024,
			"max":[
				1.7733131647109985,
				1.3800292015075684,
				4.0742692947387695
			],
			"min":[
				-1.7733131647109985,
				1.171449899673462,
				3.7521073818206787
			],
			"type":"VEC3"
		},
		{
			"bufferView":68,
			"componentType":5126,
			"count":3024,
			"type":"VEC3"
		},
		{
			"bufferView":69,
			"componentType":5126,
			"count":3024,
			"type":"VEC2"
		},
		{
			"bufferView":70,
			"componentType":5123,
			"count":16128,
			"type":"SCALAR"
		},
		{
			"bufferView":71,
			"componentType":5126,
			"count":1758,
			"max":[
				1.8178335428237915,
				1.5327262878417969,
				4.503787994384766
			],
			"min":[
				-1.817833662033081,
				1.0594122409820557,
				3.274285316467285
			],
			"type":"VEC3"
		},
		{
			"bufferView":72,
			"componentType":5126,
			"count":1758,
			"type":"VEC3"
		},
		{
			"bufferView":73,
			"componentType":5126,
			"count":1758,
			"type":"VEC2"
		},
		{
			"bufferView":74,
			"componentType":5123,
			"count":9096,
			"type":"SCALAR"
		},
		{
			"bufferView":75,
			"componentType":5126,
			"count":7662,
			"max":[
				1.8152172565460205,
				1.5232874155044556,
				4.408788204193115
			],
			"min":[
				-1.8152172565460205,
				1.0652843713760376,
				3.179792881011963
			],
			"type":"VEC3"
		},
		{
			"bufferView":76,
			"componentType":5126,
			"count":7662,
			"type":"VEC3"
		},
		{
			"bufferView":77,
			"componentType":5126,
			"count":7662,
			"type":"VEC2"
		},
		{
			"bufferView":78,
			"componentType":5123,
			"count":37008,
			"type":"SCALAR"
		},
		{
			"bufferView":79,
			"componentType":5126,
			"count":1946,
			"max":[
				1.7380449771881104,
				1.3178240060806274,
				4.316498279571533
			],
			"min":[
				-1.7380450963974,
				1.0953340530395508,
				4.035089492797852
			],
			"type":"VEC3"
		},
		{
			"bufferView":80,
			"componentType":5126,
			"count":1946,
			"type":"VEC3"
		},
		{
			"bufferView":81,
			"componentType":5126,
			"count":1946,
			"type":"VEC2"
		},
		{
			"bufferView":82,
			"componentType":5123,
			"count":8808,
			"type":"SCALAR"
		},
		{
			"bufferView":83,
			"componentType":5126,
			"count":381,
			"max":[
				1.7218027114868164,
				1.1506208181381226,
				4.317921161651611
			],
			"min":[
				-1.7218027114868164,
				1.1115835905075073,
				4.1392598152160645
			],
			"type":"VEC3"
		},
		{
			"bufferView":84,
			"componentType":5126,
			"count":381,
			"type":"VEC3"
		},
		{
			"bufferView":85,
			"componentType":5126,
			"count":381,
			"type":"VEC2"
		},
		{
			"bufferView":86,
			"componentType":5123,
			"count":1440,
			"type":"SCALAR"
		},
		{
			"bufferView":87,
			"componentType":5126,
			"count":8290,
			"max":[
				1.756371021270752,
				1.5133706331253052,
				4.3470940589904785
			],
			"min":[
				-1.756371021270752,
				1.1124581098556519,
				3.57150936126709
			],
			"type":"VEC3"
		},
		{
			"bufferView":88,
			"componentType":5126,
			"count":8290,
			"type":"VEC3"
		},
		{
			"bufferView":89,
			"componentType":5126,
			"count":8290,
			"type":"VEC2"
		},
		{
			"bufferView":90,
			"componentType":5123,
			"count":37800,
			"type":"SCALAR"
		},
		{
			"bufferView":91,
			"componentType":5126,
			"count":240,
			"max":[
				0.258040189743042,
				1.1963832378387451,
				4.9678239822387695
			],
			"min":[
				-0.2598903775215149,
				0.678778350353241,
				4.789783954620361
			],
			"type":"VEC3"
		},
		{
			"bufferView":92,
			"componentType":5126,
			"count":240,
			"type":"VEC3"
		},
		{
			"bufferView":93,
			"componentType":5126,
			"count":240,
			"type":"VEC2"
		},
		{
			"bufferView":94,
			"componentType":5123,
			"count":960,
			"type":"SCALAR"
		},
		{
			"bufferView":95,
			"componentType":5126,
			"count":1483,
			"max":[
				0.21162791550159454,
				1.1480052471160889,
				4.9819746017456055
			],
			"min":[
				-0.21347810328006744,
				0.7231666445732117,
				4.7926859855651855
			],
			"type":"VEC3"
		},
		{
			"bufferView":96,
			"componentType":5126,
			"count":1483,
			"type":"VEC3"
		},
		{
			"bufferView":97,
			"componentType":5126,
			"count":1483,
			"type":"VEC2"
		},
		{
			"bufferView":98,
			"componentType":5123,
			"count":7920,
			"type":"SCALAR"
		},
		{
			"bufferView":99,
			"componentType":5126,
			"count":16416,
			"max":[
				2.029175281524658,
				1.4432653188705444,
				3.71793532371521
			],
			"min":[
				-2.029175281524658,
				-0.004177672788500786,
				2.2704925537109375
			],
			"type":"VEC3"
		},
		{
			"bufferView":100,
			"componentType":5126,
			"count":16416,
			"type":"VEC3"
		},
		{
			"bufferView":101,
			"componentType":5126,
			"count":16416,
			"type":"VEC2"
		},
		{
			"bufferView":102,
			"componentType":5123,
			"count":73728,
			"type":"SCALAR"
		},
		{
			"bufferView":103,
			"componentType":5126,
			"count":16416,
			"max":[
				2.029175281524658,
				1.4432653188705444,
				-1.9414870738983154
			],
			"min":[
				-2.029175281524658,
				-0.004177672788500786,
				-3.388929843902588
			],
			"type":"VEC3"
		},
		{
			"bufferView":104,
			"componentType":5126,
			"count":16416,
			"type":"VEC3"
		},
		{
			"bufferView":105,
			"componentType":5126,
			"count":16416,
			"type":"VEC2"
		},
		{
			"bufferView":106,
			"componentType":5126,
			"count":19328,
			"max":[
				2.054680347442627,
				1.312937617301941,
				-2.0736639499664307
			],
			"min":[
				-2.054680347442627,
				0.1283063441514969,
				-3.2585418224334717
			],
			"type":"VEC3"
		},
		{
			"bufferView":107,
			"componentType":5126,
			"count":19328,
			"type":"VEC3"
		},
		{
			"bufferView":108,
			"componentType":5126,
			"count":19328,
			"type":"VEC2"
		},
		{
			"bufferView":109,
			"componentType":5123,
			"count":111744,
			"type":"SCALAR"
		},
		{
			"bufferView":110,
			"componentType":5126,
			"count":3968,
			"max":[
				2.0377652645111084,
				0.832770824432373,
				-2.5440735816955566
			],
			"min":[
				-2.0377652645111084,
				0.6020250916481018,
				-2.7730419635772705
			],
			"type":"VEC3"
		},
		{
			"bufferView":111,
			"componentType":5126,
			"count":3968,
			"type":"VEC3"
		},
		{
			"bufferView":112,
			"componentType":5126,
			"count":3968,
			"type":"VEC2"
		},
		{
			"bufferView":113,
			"componentType":5123,
			"count":21552,
			"type":"SCALAR"
		},
		{
			"bufferView":114,
			"componentType":5126,
			"count":19328,
			"max":[
				2.054680347442627,
				1.312937617301941,
				3.5857579708099365
			],
			"min":[
				-2.054680347442627,
				0.1283063441514969,
				2.4008798599243164
			],
			"type":"VEC3"
		},
		{
			"bufferView":115,
			"componentType":5126,
			"count":19328,
			"type":"VEC3"
		},
		{
			"bufferView":116,
			"componentType":5126,
			"count":19328,
			"type":"VEC2"
		},
		{
			"bufferView":117,
			"componentType":5123,
			"count":111744,
			"type":"SCALAR"
		},
		{
			"bufferView":118,
			"componentType":5126,
			"count":3968,
			"max":[
				2.0377652645111084,
				0.832770824432373,
				3.1153483390808105
			],
			"min":[
				-2.0377652645111084,
				0.6020250916481018,
				2.886380672454834
			],
			"type":"VEC3"
		},
		{
			"bufferView":119,
			"componentType":5126,
			"count":3968,
			"type":"VEC3"
		},
		{
			"bufferView":120,
			"componentType":5126,
			"count":3968,
			"type":"VEC2"
		},
		{
			"bufferView":121,
			"componentType":5126,
			"count":1720,
			"max":[
				1.9945752620697021,
				1.8048125505447388,
				4.913515090942383
			],
			"min":[
				-1.9945752620697021,
				0.24210380017757416,
				-4.388672351837158
			],
			"type":"VEC3"
		},
		{
			"bufferView":122,
			"componentType":5126,
			"count":1720,
			"type":"VEC3"
		},
		{
			"bufferView":123,
			"componentType":5126,
			"count":1720,
			"type":"VEC2"
		},
		{
			"bufferView":124,
			"componentType":5123,
			"count":7488,
			"type":"SCALAR"
		},
		{
			"bufferView":125,
			"componentType":5126,
			"count":470,
			"max":[
				1.6149873733520508,
				2.4712541103363037,
				1.1553761959075928
			],
			"min":[
				-1.6149874925613403,
				1.8029062747955322,
				-0.3092890679836273
			],
			"type":"VEC3"
		},
		{
			"bufferView":126,
			"componentType":5126,
			"count":470,
			"type":"VEC3"
		},
		{
			"bufferView":127,
			"componentType":5126,
			"count":470,
			"type":"VEC2"
		},
		{
			"bufferView":128,
			"componentType":5123,
			"count":2208,
			"type":"SCALAR"
		},
		{
			"bufferView":129,
			"componentType":5126,
			"count":432,
			"max":[
				2.0278148651123047,
				1.475350260734558,
				-1.8415160179138184
			],
			"min":[
				-2.0278148651123047,
				0.2693793475627899,
				-3.471853733062744
			],
			"type":"VEC3"
		},
		{
			"bufferView":130,
			"componentType":5126,
			"count":432,
			"type":"VEC3"
		},
		{
			"bufferView":131,
			"componentType":5126,
			"count":432,
			"type":"VEC2"
		},
		{
			"bufferView":132,
			"componentType":5123,
			"count":1632,
			"type":"SCALAR"
		},
		{
			"bufferView":133,
			"componentType":5126,
			"count":384,
			"max":[
				2.018549680709839,
				1.4396892786026,
				3.7952141761779785
			],
			"min":[
				-2.018549680709839,
				0.24210380017757416,
				2.1820709705352783
			],
			"type":"VEC3"
		},
		{
			"bufferView":134,
			"componentType":5126,
			"count":384,
			"type":"VEC3"
		},
		{
			"bufferView":135,
			"componentType":5126,
			"count":384,
			"type":"VEC2"
		},
		{
			"bufferView":136,
			"componentType":5123,
			"count":1440,
			"type":"SCALAR"
		},
		{
			"bufferView":137,
			"componentType":5126,
			"count":481,
			"max":[
				1.4905153512954712,
				2.5352373123168945,
				-2.1538915634155273
			],
			"min":[
				-1.4905152320861816,
				1.9163570404052734,
				-3.328153610229492
			],
			"type":"VEC3"
		},
		{
			"bufferView":138,
			"componentType":5126,
			"count":481,
			"type":"VEC3"
		},
		{
			"bufferView":139,
			"componentType":5126,
			"count":481,
			"type":"VEC2"
		},
		{
			"bufferView":140,
			"componentType":5123,
			"count":2688,
			"type":"SCALAR"
		},
		{
			"bufferView":141,
			"componentType":5126,
			"count":222,
			"max":[
				0.4815818667411804,
				1.0097486972808838,
				-4.599277496337891
			],
			"min":[
				-0.4815818667411804,
				0.8064172863960266,
				-4.619253635406494
			],
			"type":"VEC3"
		},
		{
			"bufferView":142,
			"componentType":5126,
			"count":222,
			"type":"VEC3"
		},
		{
			"bufferView":143,
			"componentType":5126,
			"count":222,
			"type":"VEC2"
		},
		{
			"bufferView":144,
			"componentType":5123,
			"count":960,
			"type":"SCALAR"
		},
		{
			"bufferView":145,
			"componentType":5126,
			"count":308,
			"max":[
				0.494975209236145,
				0.6454108357429504,
				4.981533527374268
			],
			"min":[
				-0.4949752986431122,
				0.3952394425868988,
				4.926362991333008
			],
			"type":"VEC3"
		},
		{
			"bufferView":146,
			"componentType":5126,
			"count":308,
			"type":"VEC3"
		},
		{
			"bufferView":147,
			"componentType":5126,
			"count":308,
			"type":"VEC2"
		},
		{
			"bufferView":148,
			"componentType":5123,
			"count":1584,
			"type":"SCALAR"
		},
		{
			"bufferView":149,
			"componentType":5126,
			"count":2113,
			"max":[
				1.3961981534957886,
				0.7626573443412781,
				-4.14116907119751
			],
			"min":[
				-1.3961982727050781,
				0.5176388621330261,
				-4.6913557052612305
			],
			"type":"VEC3"
		},
		{
			"bufferView":150,
			"componentType":5126,
			"count":2113,
			"type":"VEC3"
		},
		{
			"bufferView":151,
			"componentType":5126,
			"count":2113,
			"type":"VEC2"
		},
		{
			"bufferView":152,
			"componentType":5123,
			"count":11664,
			"type":"SCALAR"
		},
		{
			"bufferView":153,
			"componentType":5126,
			"count":23144,
			"max":[
				2.1790719032287598,
				2.6092376708984375,
				4.963252067565918
			],
			"min":[
				-2.1790719032287598,
				0.24210380017757416,
				-4.773394584655762
			],
			"type":"VEC3"
		},
		{
			"bufferView":154,
			"componentType":5126,
			"count":23144,
			"type":"VEC3"
		},
		{
			"bufferView":155,
			"componentType":5126,
			"count":23144,
			"type":"VEC2"
		},
		{
			"bufferView":156,
			"componentType":5123,
			"count":124224,
			"type":"SCALAR"
		},
		{
			"bufferView":157,
			"componentType":5126,
			"count":2380,
			"max":[
				2.1712284088134766,
				2.1274983882904053,
				1.9826098680496216
			],
			"min":[
				-2.1712284088134766,
				0.9598746299743652,
				-0.2263418436050415
			],
			"type":"VEC3"
		},
		{
			"bufferView":158,
			"componentType":5126,
			"count":2380,
			"type":"VEC3"
		},
		{
			"bufferView":159,
			"componentType":5126,
			"count":2380,
			"type":"VEC2"
		},
		{
			"bufferView":160,
			"componentType":5123,
			"count":10464,
			"type":"SCALAR"
		},
		{
			"bufferView":161,
			"componentType":5126,
			"count":132,
			"max":[
				0.4815818667411804,
				0.6238294243812561,
				4.973349571228027
			],
			"min":[
				-0.4815818667411804,
				0.4204460382461548,
				4.945250511169434
			],
			"type":"VEC3"
		},
		{
			"bufferView":162,
			"componentType":5126,
			"count":132,
			"type":"VEC3"
		},
		{
			"bufferView":163,
			"componentType":5126,
			"count":132,
			"type":"VEC2"
		},
		{
			"bufferView":164,
			"componentType":5123,
			"count":480,
			"type":"SCALAR"
		},
		{
			"bufferView":165,
			"componentType":5126,
			"count":448,
			"max":[
				0.4949752986431122,
				1.031794786453247,
				-4.5795769691467285
			],
			"min":[
				-0.4949752986431122,
				0.7819555997848511,
				-4.627925395965576
			],
			"type":"VEC3"
		},
		{
			"bufferView":166,
			"componentType":5126,
			"count":448,
			"type":"VEC3"
		},
		{
			"bufferView":167,
			"componentType":5126,
			"count":448,
			"type":"VEC2"
		},
		{
			"bufferView":168,
			"componentType":5123,
			"count":2304,
			"type":"SCALAR"
		},
		{
			"bufferView":169,
			"componentType":5126,
			"count":20848,
			"max":[
				1.7103530168533325,
				1.3042668104171753,
				4.857775688171387
			],
			"min":[
				-1.695626139640808,
				0.2899090647697449,
				-4.61463737487793
			],
			"type":"VEC3"
		},
		{
			"bufferView":170,
			"componentType":5126,
			"count":20848,
			"type":"VEC3"
		},
		{
			"bufferView":171,
			"componentType":5126,
			"count":20848,
			"type":"VEC2"
		},
		{
			"bufferView":172,
			"componentType":5123,
			"count":160776,
			"type":"SCALAR"
		},
		{
			"bufferView":173,
			"componentType":5126,
			"count":7024,
			"max":[
				1.9305254220962524,
				1.772670030593872,
				2.0228259563446045
			],
			"min":[
				-1.9305254220962524,
				0.5985286831855774,
				1.136759638786316
			],
			"type":"VEC3"
		},
		{
			"bufferView":174,
			"componentType":5126,
			"count":7024,
			"type":"VEC3"
		},
		{
			"bufferView":175,
			"componentType":5126,
			"count":7024,
			"type":"VEC2"
		},
		{
			"bufferView":176,
			"componentType":5123,
			"count":53952,
			"type":"SCALAR"
		},
		{
			"bufferView":177,
			"componentType":5126,
			"count":2888,
			"max":[
				1.5269924402236938,
				1.5641604661941528,
				0.7012233138084412
			],
			"min":[
				-1.530260682106018,
				0.624250590801239,
				-1.5545580387115479
			],
			"type":"VEC3"
		},
		{
			"bufferView":178,
			"componentType":5126,
			"count":2888,
			"type":"VEC3"
		},
		{
			"bufferView":179,
			"componentType":5126,
			"count":2888,
			"type":"VEC2"
		},
		{
			"bufferView":180,
			"componentType":5123,
			"count":12186,
			"type":"SCALAR"
		},
		{
			"bufferView":181,
			"componentType":5126,
			"count":39858,
			"max":[
				1.6244577169418335,
				1.934552550315857,
				1.1820216178894043
			],
			"min":[
				-1.6291004419326782,
				0.5968985557556152,
				-1.3088957071304321
			],
			"type":"VEC3"
		},
		{
			"bufferView":182,
			"componentType":5126,
			"count":39858,
			"type":"VEC3"
		},
		{
			"bufferView":183,
			"componentType":5126,
			"count":39858,
			"type":"VEC2"
		},
		{
			"bufferView":184,
			"componentType":5123,
			"count":162612,
			"type":"SCALAR"
		},
		{
			"bufferView":185,
			"componentType":5126,
			"count":9097,
			"max":[
				1.4833654165267944,
				1.6886019706726074,
				0.3068775236606598
			],
			"min":[
				-1.504481554031372,
				1.1286548376083374,
				-0.24082398414611816
			],
			"type":"VEC3"
		},
		{
			"bufferView":186,
			"componentType":5126,
			"count":9097,
			"type":"VEC3"
		},
		{
			"bufferView":187,
			"componentType":5126,
			"count":9097,
			"type":"VEC2"
		},
		{
			"bufferView":188,
			"componentType":5123,
			"count":37200,
			"type":"SCALAR"
		},
		{
			"bufferView":189,
			"componentType":5126,
			"count":29222,
			"max":[
				1.2309693098068237,
				1.857674241065979,
				0.49620702862739563
			],
			"min":[
				-0.1900262087583542,
				1.044381856918335,
				-0.5257433652877808
			],
			"type":"VEC3"
		},
		{
			"bufferView":190,
			"componentType":5126,
			"count":29222,
			"type":"VEC3"
		},
		{
			"bufferView":191,
			"componentType":5126,
			"count":29222,
			"type":"VEC2"
		},
		{
			"bufferView":192,
			"componentType":5123,
			"count":120060,
			"type":"SCALAR"
		},
		{
			"bufferView":193,
			"componentType":5126,
			"count":10320,
			"max":[
				1.710706114768982,
				1.8861746788024902,
				0.49183520674705505
			],
			"min":[
				-1.710706114768982,
				0.7658661007881165,
				-1.5849103927612305
			],
			"type":"VEC3"
		},
		{
			"bufferView":194,
			"componentType":5126,
			"count":10320,
			"type":"VEC3"
		},
		{
			"bufferView":195,
			"componentType":5126,
			"count":10320,
			"type":"VEC2"
		},
		{
			"bufferView":196,
			"componentType":5123,
			"count":43668,
			"type":"SCALAR"
		},
		{
			"bufferView":197,
			"componentType":5126,
			"count":716,
			"max":[
				1.59201979637146,
				1.513134479522705,
				-0.18729685246944427
			],
			"min":[
				-1.59201979637146,
				1.3742674589157104,
				-0.44228461384773254
			],
			"type":"VEC3"
		},
		{
			"bufferView":198,
			"componentType":5126,
			"count":716,
			"type":"VEC3"
		},
		{
			"bufferView":199,
			"componentType":5126,
			"count":716,
			"type":"VEC2"
		},
		{
			"bufferView":200,
			"componentType":5123,
			"count":3072,
			"type":"SCALAR"
		},
		{
			"bufferView":201,
			"componentType":5126,
			"count":792,
			"max":[
				1.594415307044983,
				1.5406527519226074,
				0.20661458373069763
			],
			"min":[
				-1.594415307044983,
				1.295753836631775,
				-0.4905250668525696
			],
			"type":"VEC3"
		},
		{
			"bufferView":202,
			"componentType":5126,
			"count":792,
			"type":"VEC3"
		},
		{
			"bufferView":203,
			"componentType":5126,
			"count":792,
			"type":"VEC2"
		},
		{
			"bufferView":204,
			"componentType":5123,
			"count":3648,
			"type":"SCALAR"
		},
		{
			"bufferView":205,
			"componentType":5126,
			"count":940,
			"max":[
				0.24907392263412476,
				2.3186075687408447,
				0.2871565818786621
			],
			"min":[
				-0.2233034074306488,
				2.150634765625,
				-0.012984084896743298
			],
			"type":"VEC3"
		},
		{
			"bufferView":206,
			"componentType":5126,
			"count":940,
			"type":"VEC3"
		},
		{
			"bufferView":207,
			"componentType":5126,
			"count":940,
			"type":"VEC2"
		},
		{
			"bufferView":208,
			"componentType":5123,
			"count":4656,
			"type":"SCALAR"
		},
		{
			"bufferView":209,
			"componentType":5126,
			"count":187,
			"max":[
				0.23545807600021362,
				2.2886407375335693,
				0.07117000222206116
			],
			"min":[
				-0.20427393913269043,
				2.1641664505004883,
				-0.006221243180334568
			],
			"type":"VEC3"
		},
		{
			"bufferView":210,
			"componentType":5126,
			"count":187,
			"type":"VEC3"
		},
		{
			"bufferView":211,
			"componentType":5126,
			"count":187,
			"type":"VEC2"
		},
		{
			"bufferView":212,
			"componentType":5123,
			"count":768,
			"type":"SCALAR"
		},
		{
			"bufferView":213,
			"componentType":5126,
			"count":842,
			"max":[
				1.8263047933578491,
				1.62510347366333,
				-3.5057713985443115
			],
			"min":[
				-1.8263047933578491,
				1.3433018922805786,
				-4.458900451660156
			],
			"type":"VEC3"
		},
		{
			"bufferView":214,
			"componentType":5126,
			"count":842,
			"type":"VEC3"
		},
		{
			"bufferView":215,
			"componentType":5123,
			"count":4752,
			"type":"SCALAR"
		},
		{
			"bufferView":216,
			"componentType":5126,
			"count":90,
			"max":[
				1.76066255569458,
				1.5598886013031006,
				-3.6928482055664062
			],
			"min":[
				-1.76066255569458,
				1.531279444694519,
				-4.197892189025879
			],
			"type":"VEC3"
		},
		{
			"bufferView":217,
			"componentType":5126,
			"count":90,
			"type":"VEC3"
		},
		{
			"bufferView":218,
			"componentType":5126,
			"count":90,
			"type":"VEC2"
		},
		{
			"bufferView":219,
			"componentType":5123,
			"count":336,
			"type":"SCALAR"
		},
		{
			"bufferView":220,
			"componentType":5126,
			"count":2712,
			"max":[
				1.8263047933578491,
				1.62510347366333,
				-3.513788938522339
			],
			"min":[
				-1.8263046741485596,
				1.3433018922805786,
				-4.455732822418213
			],
			"type":"VEC3"
		},
		{
			"bufferView":221,
			"componentType":5126,
			"count":2712,
			"type":"VEC3"
		},
		{
			"bufferView":222,
			"componentType":5126,
			"count":2712,
			"type":"VEC2"
		},
		{
			"bufferView":223,
			"componentType":5123,
			"count":13728,
			"type":"SCALAR"
		},
		{
			"bufferView":224,
			"componentType":5126,
			"count":480,
			"max":[
				1.811767578125,
				1.619017481803894,
				-3.5516245365142822
			],
			"min":[
				-1.811767339706421,
				1.353827714920044,
				-4.4377665519714355
			],
			"type":"VEC3"
		},
		{
			"bufferView":225,
			"componentType":5126,
			"count":480,
			"type":"VEC3"
		},
		{
			"bufferView":226,
			"componentType":5126,
			"count":480,
			"type":"VEC2"
		},
		{
			"bufferView":227,
			"componentType":5123,
			"count":1920,
			"type":"SCALAR"
		},
		{
			"bufferView":228,
			"componentType":5126,
			"count":842,
			"max":[
				1.8263047933578491,
				1.6251035928726196,
				-3.444052219390869
			],
			"min":[
				-1.8263047933578491,
				1.3433020114898682,
				-4.433929443359375
			],
			"type":"VEC3"
		},
		{
			"bufferView":229,
			"componentType":5126,
			"count":842,
			"type":"VEC3"
		},
		{
			"bufferView":230,
			"componentType":5126,
			"count":842,
			"type":"VEC2"
		},
		{
			"bufferView":231,
			"componentType":5126,
			"count":90,
			"max":[
				1.7333754301071167,
				1.4327354431152344,
				-3.810199022293091
			],
			"min":[
				-1.7333754301071167,
				1.395059585571289,
				-4.344218730926514
			],
			"type":"VEC3"
		},
		{
			"bufferView":232,
			"componentType":5126,
			"count":90,
			"type":"VEC3"
		},
		{
			"bufferView":233,
			"componentType":5126,
			"count":90,
			"type":"VEC2"
		},
		{
			"bufferView":234,
			"componentType":5123,
			"count":336,
			"type":"SCALAR"
		},
		{
			"bufferView":235,
			"componentType":5126,
			"count":5892,
			"max":[
				1.638425350189209,
				2.5913150310516357,
				0.44497013092041016
			],
			"min":[
				-1.638425350189209,
				1.777475118637085,
				-2.854020595550537
			],
			"type":"VEC3"
		},
		{
			"bufferView":236,
			"componentType":5126,
			"count":5892,
			"type":"VEC3"
		},
		{
			"bufferView":237,
			"componentType":5126,
			"count":5892,
			"type":"VEC2"
		},
		{
			"bufferView":238,
			"componentType":5123,
			"count":23784,
			"type":"SCALAR"
		},
		{
			"bufferView":239,
			"componentType":5126,
			"count":341,
			"max":[
				0.41400307416915894,
				2.452442169189453,
				0.3748047947883606
			],
			"min":[
				-0.41400304436683655,
				2.2389748096466064,
				-0.04281223937869072
			],
			"type":"VEC3"
		},
		{
			"bufferView":240,
			"componentType":5126,
			"count":341,
			"type":"VEC3"
		},
		{
			"bufferView":241,
			"componentType":5126,
			"count":341,
			"type":"VEC2"
		},
		{
			"bufferView":242,
			"componentType":5123,
			"count":1536,
			"type":"SCALAR"
		},
		{
			"bufferView":243,
			"componentType":5126,
			"count":180,
			"max":[
				1.7125709056854248,
				2.4187233448028564,
				0.20306512713432312
			],
			"min":[
				-1.7125709056854248,
				1.8169705867767334,
				-1.6803300380706787
			],
			"type":"VEC3"
		},
		{
			"bufferView":244,
			"componentType":5126,
			"count":180,
			"type":"VEC3"
		},
		{
			"bufferView":245,
			"componentType":5126,
			"count":180,
			"type":"VEC2"
		},
		{
			"bufferView":246,
			"componentType":5123,
			"count":720,
			"type":"SCALAR"
		}
	],
	"bufferViews":[
		{
			"buffer":0,
			"byteLength":360,
			"byteOffset":0,
			"target":34962
		},
		{
			"buffer":0,
			"byteLength":360,
			"byteOffset":360,
			"target":34962
		},
		{
			"buffer":0,
			"byteLength":240,
			"byteOffset":720,
			"target":34962
		},
		{
			"buffer":0,
			"byteLength":168,
			"byteOffset":960,
			"target":34963
		},
		{
			"buffer":0,
			"byteLength":720,
			"byteOffset":1128,
			"target":34962
		},
		{
			"buffer":0,
			"byteLength":720,
			"byteOffset":1848,
			"target":34962
		},
		{
			"buffer":0,
			"byteLength":480,
			"byteOffset":2568,
			"target":34962
		},
		{
			"buffer":0,
			"byteLength":120,
			"byteOffset":3048,
			"target":34963
		},
		{
			"buffer":0,
			"byteLength":720,
			"byteOffset":3168,
			"target":34962
		},
		{
			"buffer":0,
			"byteLength":720,
			"byteOffset":3888,
			"target":34962
		},
		{
			"buffer":0,
			"byteLength":480,
			"byteOffset":4608,
			"target":34962
		},
		{
			"buffer":0,
			"byteLength":1884,
			"byteOffset":5088,
			"target":34962
		},
		{
			"buffer":0,
			"byteLength":1884,
			"byteOffset":6972,
			"target":34962
		},
		{
			"buffer":0,
			"byteLength":1256,
			"byteOffset":8856,
			"target":34962
		},
		{
			"buffer":0,
			"byteLength":1656,
			"byteOffset":10112,
			"target":34963
		},
		{
			"buffer":0,
			"byteLength":25632,
			"byteOffset":11768,
			"target":34962
		},
		{
			"buffer":0,
			"byteLength":25632,
			"byteOffset":37400,
			"target":34962
		},
		{
			"buffer":0,
			"byteLength":17088,
			"byteOffset":63032,
			"target":34962
		},
		{
			"buffer":0,
			"byteLength":20064,
			"byteOffset":80120,
			"target":34963
		},
		{
			"buffer":0,
			"byteLength":7932,
			"byteOffset":100184,
			"target":34962
		},
		{
			"buffer":0,
			"byteLength":7932,
			"byteOffset":108116,
			"target":34962
		},
		{
			"buffer":0,
			"byteLength":5288,
			"byteOffset":116048,
			"target":34962
		},
		{
			"buffer":0,
			"byteLength":6240,
			"byteOffset":121336,
			"target":34963
		},
		{
			"buffer":0,
			"byteLength":14856,
			"byteOffset":127576,
			"target":34962
		},
		{
			"buffer":0,
			"byteLength":14856,
			"byteOffset":142432,
			"target":34962
		},
		{
			"buffer":0,
			"byteLength":9904,
			"byteOffset":157288,
			"target":34962
		},
		{
			"buffer":0,
			"byteLength":10200,
			"byteOffset":167192,
			"target":34963
		},
		{
			"buffer":0,
			"byteLength":16668,
			"byteOffset":177392,
			"target":34962
		},
		{
			"buffer":0,
			"byteLength":16668,
			"byteOffset":194060,
			"target":34962
		},
		{
			"buffer":0,
			"byteLength":11112,
			"byteOffset":210728,
			"target":34962
		},
		{
			"buffer":0,
			"byteLength":15168,
			"byteOffset":221840,
			"target":34963
		},
		{
			"buffer":0,
			"byteLength":228384,
			"byteOffset":237008,
			"target":34962
		},
		{
			"buffer":0,
			"byteLength":228384,
			"byteOffset":465392,
			"target":34962
		},
		{
			"buffer":0,
			"byteLength":152256,
			"byteOffset":693776,
			"target":34962
		},
		{
			"buffer":0,
			"byteLength":200448,
			"byteOffset":846032,
			"target":34963
		},
		{
			"buffer":0,
			"byteLength":228384,
			"byteOffset":1046480,
			"target":34962
		},
		{
			"buffer":0,
			"byteLength":228384,
			"byteOffset":1274864,
			"target":34962
		},
		{
			"buffer":0,
			"byteLength":152256,
			"byteOffset":1503248,
			"target":34962
		},
		{
			"buffer":0,
			"byteLength":120648,
			"byteOffset":1655504,
			"target":34962
		},
		{
			"buffer":0,
			"byteLength":120648,
			"byteOffset":1776152,
			"target":34962
		},
		{
			"buffer":0,
			"byteLength":80432,
			"byteOffset":1896800,
			"target":34962
		},
		{
			"buffer":0,
			"byteLength":108480,
			"byteOffset":1977232,
			"target":34963
		},
		{
			"buffer":0,
			"byteLength":120648,
			"byteOffset":2085712,
			"target":34962
		},
		{
			"buffer":0,
			"byteLength":120648,
			"byteOffset":2206360,
			"target":34962
		},
		{
			"buffer":0,
			"byteLength":80432,
			"byteOffset":2327008,
			"target":34962
		},
		{
			"buffer":0,
			"byteLength":133920,
			"byteOffset":2407440,
			"target":34962
		},
		{
			"buffer":0,
			"byteLength":133920,
			"byteOffset":2541360,
			"target":34962
		},
		{
			"buffer":0,
			"byteLength":89280,
			"byteOffset":2675280,
			"target":34962
		},
		{
			"buffer":0,
			"byteLength":91320,
			"byteOffset":2764560,
			"target":34963
		},
		{
			"buffer":0,
			"byteLength":40128,
			"byteOffset":2855880,
			"target":34962
		},
		{
			"buffer":0,
			"byteLength":40128,
			"byteOffset":2896008,
			"target":34962
		},
		{
			"buffer":0,
			"byteLength":26752,
			"byteOffset":2936136,
			"target":34962
		},
		{
			"buffer":0,
			"byteLength":39168,
			"byteOffset":2962888,
			"target":34963
		},
		{
			"buffer":0,
			"byteLength":37452,
			"byteOffset":3002056,
			"target":34962
		},
		{
			"buffer":0,
			"byteLength":37452,
			"byteOffset":3039508,
			"target":34962
		},
		{
			"buffer":0,
			"byteLength":24968,
			"byteOffset":3076960,
			"target":34962
		},
		{
			"buffer":0,
			"byteLength":26448,
			"byteOffset":3101928,
			"target":34963
		},
		{
			"buffer":0,
			"byteLength":19968,
			"byteOffset":3128376,
			"target":34962
		},
		{
			"buffer":0,
			"byteLength":19968,
			"byteOffset":3148344,
			"target":34962
		},
		{
			"buffer":0,
			"byteLength":13312,
			"byteOffset":3168312,
			"target":34962
		},
		{
			"buffer":0,
			"byteLength":15072,
			"byteOffset":3181624,
			"target":34963
		},
		{
			"buffer":0,
			"byteLength":16668,
			"byteOffset":3196696,
			"target":34962
		},
		{
			"buffer":0,
			"byteLength":16668,
			"byteOffset":3213364,
			"target":34962
		},
		{
			"buffer":0,
			"byteLength":11112,
			"byteOffset":3230032,
			"target":34962
		},
		{
			"buffer":0,
			"byteLength":6576,
			"byteOffset":3241144,
			"target":34962
		},
		{
			"buffer":0,
			"byteLength":6576,
			"byteOffset":3247720,
			"target":34962
		},
		{
			"buffer":0,
			"byteLength":5856,
			"byteOffset":3254296,
			"target":34963
		},
		{
			"buffer":0,
			"byteLength":36288,
			"byteOffset":3260152,
			"target":34962
		},
		{
			"buffer":0,
			"byteLength":36288,
			"byteOffset":3296440,
			"target":34962
		},
		{
			"buffer":0,
			"byteLength":24192,
			"byteOffset":3332728,
			"target":34962
		},
		{
			"buffer":0,
			"byteLength":32256,
			"byteOffset":3356920,
			"target":34963
		},
		{
			"buffer":0,
			"byteLength":21096,
			"byteOffset":3389176,
			"target":34962
		},
		{
			"buffer":0,
			"byteLength":21096,
			"byteOffset":3410272,
			"target":34962
		},
		{
			"buffer":0,
			"byteLength":14064,
			"byteOffset":3431368,
			"target":34962
		},
		{
			"buffer":0,
			"byteLength":18192,
			"byteOffset":3445432,
			"target":34963
		},
		{
			"buffer":0,
			"byteLength":91944,
			"byteOffset":3463624,
			"target":34962
		},
		{
			"buffer":0,
			"byteLength":91944,
			"byteOffset":3555568,
			"target":34962
		},
		{
			"buffer":0,
			"byteLength":61296,
			"byteOffset":3647512,
			"target":34962
		},
		{
			"buffer":0,
			"byteLength":74016,
			"byteOffset":3708808,
			"target":34963
		},
		{
			"buffer":0,
			"byteLength":23352,
			"byteOffset":3782824,
			"target":34962
		},
		{
			"buffer":0,
			"byteLength":23352,
			"byteOffset":3806176,
			"target":34962
		},
		{
			"buffer":0,
			"byteLength":15568,
			"byteOffset":3829528,
			"target":34962
		},
		{
			"buffer":0,
			"byteLength":17616,
			"byteOffset":3845096,
			"target":34963
		},
		{
			"buffer":0,
			"byteLength":4572,
			"byteOffset":3862712,
			"target":34962
		},
		{
			"buffer":0,
			"byteLength":4572,
			"byteOffset":3867284,
			"target":34962
		},
		{
			"buffer":0,
			"byteLength":3048,
			"byteOffset":3871856,
			"target":34962
		},
		{
			"buffer":0,
			"byteLength":2880,
			"byteOffset":3874904,
			"target":34963
		},
		{
			"buffer":0,
			"byteLength":99480,
			"byteOffset":3877784,
			"target":34962
		},
		{
			"buffer":0,
			"byteLength":99480,
			"byteOffset":3977264,
			"target":34962
		},
		{
			"buffer":0,
			"byteLength":66320,
			"byteOffset":4076744,
			"target":34962
		},
		{
			"buffer":0,
			"byteLength":75600,
			"byteOffset":4143064,
			"target":34963
		},
		{
			"buffer":0,
			"byteLength":2880,
			"byteOffset":4218664,
			"target":34962
		},
		{
			"buffer":0,
			"byteLength":2880,
			"byteOffset":4221544,
			"target":34962
		},
		{
			"buffer":0,
			"byteLength":1920,
			"byteOffset":4224424,
			"target":34962
		},
		{
			"buffer":0,
			"byteLength":1920,
			"byteOffset":4226344,
			"target":34963
		},
		{
			"buffer":0,
			"byteLength":17796,
			"byteOffset":4228264,
			"target":34962
		},
		{
			"buffer":0,
			"byteLength":17796,
			"byteOffset":4246060,
			"target":34962
		},
		{
			"buffer":0,
			"byteLength":11864,
			"byteOffset":4263856,
			"target":34962
		},
		{
			"buffer":0,
			"byteLength":15840,
			"byteOffset":4275720,
			"target":34963
		},
		{
			"buffer":0,
			"byteLength":196992,
			"byteOffset":4291560,
			"target":34962
		},
		{
			"buffer":0,
			"byteLength":196992,
			"byteOffset":4488552,
			"target":34962
		},
		{
			"buffer":0,
			"byteLength":131328,
			"byteOffset":4685544,
			"target":34962
		},
		{
			"buffer":0,
			"byteLength":147456,
			"byteOffset":4816872,
			"target":34963
		},
		{
			"buffer":0,
			"byteLength":196992,
			"byteOffset":4964328,
			"target":34962
		},
		{
			"buffer":0,
			"byteLength":196992,
			"byteOffset":5161320,
			"target":34962
		},
		{
			"buffer":0,
			"byteLength":131328,
			"byteOffset":5358312,
			"target":34962
		},
		{
			"buffer":0,
			"byteLength":231936,
			"byteOffset":5489640,
			"target":34962
		},
		{
			"buffer":0,
			"byteLength":231936,
			"byteOffset":5721576,
			"target":34962
		},
		{
			"buffer":0,
			"byteLength":154624,
			"byteOffset":5953512,
			"target":34962
		},
		{
			"buffer":0,
			"byteLength":223488,
			"byteOffset":6108136,
			"target":34963
		},
		{
			"buffer":0,
			"byteLength":47616,
			"byteOffset":6331624,
			"target":34962
		},
		{
			"buffer":0,
			"byteLength":47616,
			"byteOffset":6379240,
			"target":34962
		},
		{
			"buffer":0,
			"byteLength":31744,
			"byteOffset":6426856,
			"target":34962
		},
		{
			"buffer":0,
			"byteLength":43104,
			"byteOffset":6458600,
			"target":34963
		},
		{
			"buffer":0,
			"byteLength":231936,
			"byteOffset":6501704,
			"target":34962
		},
		{
			"buffer":0,
			"byteLength":231936,
			"byteOffset":6733640,
			"target":34962
		},
		{
			"buffer":0,
			"byteLength":154624,
			"byteOffset":6965576,
			"target":34962
		},
		{
			"buffer":0,
			"byteLength":223488,
			"byteOffset":7120200,
			"target":34963
		},
		{
			"buffer":0,
			"byteLength":47616,
			"byteOffset":7343688,
			"target":34962
		},
		{
			"buffer":0,
			"byteLength":47616,
			"byteOffset":7391304,
			"target":34962
		},
		{
			"buffer":0,
			"byteLength":31744,
			"byteOffset":7438920,
			"target":34962
		},
		{
			"buffer":0,
			"byteLength":20640,
			"byteOffset":7470664,
			"target":34962
		},
		{
			"buffer":0,
			"byteLength":20640,
			"byteOffset":7491304,
			"target":34962
		},
		{
			"buffer":0,
			"byteLength":13760,
			"byteOffset":7511944,
			"target":34962
		},
		{
			"buffer":0,
			"byteLength":14976,
			"byteOffset":7525704,
			"target":34963
		},
		{
			"buffer":0,
			"byteLength":5640,
			"byteOffset":7540680,
			"target":34962
		},
		{
			"buffer":0,
			"byteLength":5640,
			"byteOffset":7546320,
			"target":34962
		},
		{
			"buffer":0,
			"byteLength":3760,
			"byteOffset":7551960,
			"target":34962
		},
		{
			"buffer":0,
			"byteLength":4416,
			"byteOffset":7555720,
			"target":34963
		},
		{
			"buffer":0,
			"byteLength":5184,
			"byteOffset":7560136,
			"target":34962
		},
		{
			"buffer":0,
			"byteLength":5184,
			"byteOffset":7565320,
			"target":34962
		},
		{
			"buffer":0,
			"byteLength":3456,
			"byteOffset":7570504,
			"target":34962
		},
		{
			"buffer":0,
			"byteLength":3264,
			"byteOffset":7573960,
			"target":34963
		},
		{
			"buffer":0,
			"byteLength":4608,
			"byteOffset":7577224,
			"target":34962
		},
		{
			"buffer":0,
			"byteLength":4608,
			"byteOffset":7581832,
			"target":34962
		},
		{
			"buffer":0,
			"byteLength":3072,
			"byteOffset":7586440,
			"target":34962
		},
		{
			"buffer":0,
			"byteLength":2880,
			"byteOffset":7589512,
			"target":34963
		},
		{
			"buffer":0,
			"byteLength":5772,
			"byteOffset":7592392,
			"target":34962
		},
		{
			"buffer":0,
			"byteLength":5772,
			"byteOffset":7598164,
			"target":34962
		},
		{
			"buffer":0,
			"byteLength":3848,
			"byteOffset":7603936,
			"target":34962
		},
		{
			"buffer":0,
			"byteLength":5376,
			"byteOffset":7607784,
			"target":34963
		},
		{
			"buffer":0,
			"byteLength":2664,
			"byteOffset":7613160,
			"target":34962
		},
		{
			"buffer":0,
			"byteLength":2664,
			"byteOffset":7615824,
			"target":34962
		},
		{
			"buffer":0,
			"byteLength":1776,
			"byteOffset":7618488,
			"target":34962
		},
		{
			"buffer":0,
			"byteLength":1920,
			"byteOffset":7620264,
			"target":34963
		},
		{
			"buffer":0,
			"byteLength":3696,
			"byteOffset":7622184,
			"target":34962
		},
		{
			"buffer":0,
			"byteLength":3696,
			"byteOffset":7625880,
			"target":34962
		},
		{
			"buffer":0,
			"byteLength":2464,
			"byteOffset":7629576,
			"target":34962
		},
		{
			"buffer":0,
			"byteLength":3168,
			"byteOffset":7632040,
			"target":34963
		},
		{
			"buffer":0,
			"byteLength":25356,
			"byteOffset":7635208,
			"target":34962
		},
		{
			"buffer":0,
			"byteLength":25356,
			"byteOffset":7660564,
			"target":34962
		},
		{
			"buffer":0,
			"byteLength":16904,
			"byteOffset":7685920,
			"target":34962
		},
		{
			"buffer":0,
			"byteLength":23328,
			"byteOffset":7702824,
			"target":34963
		},
		{
			"buffer":0,
			"byteLength":277728,
			"byteOffset":7726152,
			"target":34962
		},
		{
			"buffer":0,
			"byteLength":277728,
			"byteOffset":8003880,
			"target":34962
		},
		{
			"buffer":0,
			"byteLength":185152,
			"byteOffset":8281608,
			"target":34962
		},
		{
			"buffer":0,
			"byteLength":248448,
			"byteOffset":8466760,
			"target":34963
		},
		{
			"buffer":0,
			"byteLength":28560,
			"byteOffset":8715208,
			"target":34962
		},
		{
			"buffer":0,
			"byteLength":28560,
			"byteOffset":8743768,
			"target":34962
		},
		{
			"buffer":0,
			"byteLength":19040,
			"byteOffset":8772328,
			"target":34962
		},
		{
			"buffer":0,
			"byteLength":20928,
			"byteOffset":8791368,
			"target":34963
		},
		{
			"buffer":0,
			"byteLength":1584,
			"byteOffset":8812296,
			"target":34962
		},
		{
			"buffer":0,
			"byteLength":1584,
			"byteOffset":8813880,
			"target":34962
		},
		{
			"buffer":0,
			"byteLength":1056,
			"byteOffset":8815464,
			"target":34962
		},
		{
			"buffer":0,
			"byteLength":960,
			"byteOffset":8816520,
			"target":34963
		},
		{
			"buffer":0,
			"byteLength":5376,
			"byteOffset":8817480,
			"target":34962
		},
		{
			"buffer":0,
			"byteLength":5376,
			"byteOffset":8822856,
			"target":34962
		},
		{
			"buffer":0,
			"byteLength":3584,
			"byteOffset":8828232,
			"target":34962
		},
		{
			"buffer":0,
			"byteLength":4608,
			"byteOffset":8831816,
			"target":34963
		},
		{
			"buffer":0,
			"byteLength":250176,
			"byteOffset":8836424,
			"target":34962
		},
		{
			"buffer":0,
			"byteLength":250176,
			"byteOffset":9086600,
			"target":34962
		},
		{
			"buffer":0,
			"byteLength":166784,
			"byteOffset":9336776,
			"target":34962
		},
		{
			"buffer":0,
			"byteLength":321552,
			"byteOffset":9503560,
			"target":34963
		},
		{
			"buffer":0,
			"byteLength":84288,
			"byteOffset":9825112,
			"target":34962
		},
		{
			"buffer":0,
			"byteLength":84288,
			"byteOffset":9909400,
			"target":34962
		},
		{
			"buffer":0,
			"byteLength":56192,
			"byteOffset":9993688,
			"target":34962
		},
		{
			"buffer":0,
			"byteLength":107904,
			"byteOffset":10049880,
			"target":34963
		},
		{
			"buffer":0,
			"byteLength":34656,
			"byteOffset":10157784,
			"target":34962
		},
		{
			"buffer":0,
			"byteLength":34656,
			"byteOffset":10192440,
			"target":34962
		},
		{
			"buffer":0,
			"byteLength":23104,
			"byteOffset":10227096,
			"target":34962
		},
		{
			"buffer":0,
			"byteLength":24372,
			"byteOffset":10250200,
			"target":34963
		},
		{
			"buffer":0,
			"byteLength":478296,
			"byteOffset":10274572,
			"target":34962
		},
		{
			"buffer":0,
			"byteLength":478296,
			"byteOffset":10752868,
			"target":34962
		},
		{
			"buffer":0,
			"byteLength":318864,
			"byteOffset":11231164,
			"target":34962
		},
		{
			"buffer":0,
			"byteLength":325224,
			"byteOffset":11550028,
			"target":34963
		},
		{
			"buffer":0,
			"byteLength":109164,
			"byteOffset":11875252,
			"target":34962
		},
		{
			"buffer":0,
			"byteLength":109164,
			"byteOffset":11984416,
			"target":34962
		},
		{
			"buffer":0,
			"byteLength":72776,
			"byteOffset":12093580,
			"target":34962
		},
		{
			"buffer":0,
			"byteLength":74400,
			"byteOffset":12166356,
			"target":34963
		},
		{
			"buffer":0,
			"byteLength":350664,
			"byteOffset":12240756,
			"target":34962
		},
		{
			"buffer":0,
			"byteLength":350664,
			"byteOffset":12591420,
			"target":34962
		},
		{
			"buffer":0,
			"byteLength":233776,
			"byteOffset":12942084,
			"target":34962
		},
		{
			"buffer":0,
			"byteLength":240120,
			"byteOffset":13175860,
			"target":34963
		},
		{
			"buffer":0,
			"byteLength":123840,
			"byteOffset":13415980,
			"target":34962
		},
		{
			"buffer":0,
			"byteLength":123840,
			"byteOffset":13539820,
			"target":34962
		},
		{
			"buffer":0,
			"byteLength":82560,
			"byteOffset":13663660,
			"target":34962
		},
		{
			"buffer":0,
			"byteLength":87336,
			"byteOffset":13746220,
			"target":34963
		},
		{
			"buffer":0,
			"byteLength":8592,
			"byteOffset":13833556,
			"target":34962
		},
		{
			"buffer":0,
			"byteLength":8592,
			"byteOffset":13842148,
			"target":34962
		},
		{
			"buffer":0,
			"byteLength":5728,
			"byteOffset":13850740,
			"target":34962
		},
		{
			"buffer":0,
			"byteLength":6144,
			"byteOffset":13856468,
			"target":34963
		},
		{
			"buffer":0,
			"byteLength":9504,
			"byteOffset":13862612,
			"target":34962
		},
		{
			"buffer":0,
			"byteLength":9504,
			"byteOffset":13872116,
			"target":34962
		},
		{
			"buffer":0,
			"byteLength":6336,
			"byteOffset":13881620,
			"target":34962
		},
		{
			"buffer":0,
			"byteLength":7296,
			"byteOffset":13887956,
			"target":34963
		},
		{
			"buffer":0,
			"byteLength":11280,
			"byteOffset":13895252,
			"target":34962
		},
		{
			"buffer":0,
			"byteLength":11280,
			"byteOffset":13906532,
			"target":34962
		},
		{
			"buffer":0,
			"byteLength":7520,
			"byteOffset":13917812,
			"target":34962
		},
		{
			"buffer":0,
			"byteLength":9312,
			"byteOffset":13925332,
			"target":34963
		},
		{
			"buffer":0,
			"byteLength":2244,
			"byteOffset":13934644,
			"target":34962
		},
		{
			"buffer":0,
			"byteLength":2244,
			"byteOffset":13936888,
			"target":34962
		},
		{
			"buffer":0,
			"byteLength":1496,
			"byteOffset":13939132,
			"target":34962
		},
		{
			"buffer":0,
			"byteLength":1536,
			"byteOffset":13940628,
			"target":34963
		},
		{
			"buffer":0,
			"byteLength":10104,
			"byteOffset":13942164,
			"target":34962
		},
		{
			"buffer":0,
			"byteLength":10104,
			"byteOffset":13952268,
			"target":34962
		},
		{
			"buffer":0,
			"byteLength":9504,
			"byteOffset":13962372,
			"target":34963
		},
		{
			"buffer":0,
			"byteLength":1080,
			"byteOffset":13971876,
			"target":34962
		},
		{
			"buffer":0,
			"byteLength":1080,
			"byteOffset":13972956,
			"target":34962
		},
		{
			"buffer":0,
			"byteLength":720,
			"byteOffset":13974036,
			"target":34962
		},
		{
			"buffer":0,
			"byteLength":672,
			"byteOffset":13974756,
			"target":34963
		},
		{
			"buffer":0,
			"byteLength":32544,
			"byteOffset":13975428,
			"target":34962
		},
		{
			"buffer":0,
			"byteLength":32544,
			"byteOffset":14007972,
			"target":34962
		},
		{
			"buffer":0,
			"byteLength":21696,
			"byteOffset":14040516,
			"target":34962
		},
		{
			"buffer":0,
			"byteLength":27456,
			"byteOffset":14062212,
			"target":34963
		},
		{
			"buffer":0,
			"byteLength":5760,
			"byteOffset":14089668,
			"target":34962
		},
		{
			"buffer":0,
			"byteLength":5760,
			"byteOffset":14095428,
			"target":34962
		},
		{
			"buffer":0,
			"byteLength":3840,
			"byteOffset":14101188,
			"target":34962
		},
		{
			"buffer":0,
			"byteLength":3840,
			"byteOffset":14105028,
			"target":34963
		},
		{
			"buffer":0,
			"byteLength":10104,
			"byteOffset":14108868,
			"target":34962
		},
		{
			"buffer":0,
			"byteLength":10104,
			"byteOffset":14118972,
			"target":34962
		},
		{
			"buffer":0,
			"byteLength":6736,
			"byteOffset":14129076,
			"target":34962
		},
		{
			"buffer":0,
			"byteLength":1080,
			"byteOffset":14135812,
			"target":34962
		},
		{
			"buffer":0,
			"byteLength":1080,
			"byteOffset":14136892,
			"target":34962
		},
		{
			"buffer":0,
			"byteLength":720,
			"byteOffset":14137972,
			"target":34962
		},
		{
			"buffer":0,
			"byteLength":672,
			"byteOffset":14138692,
			"target":34963
		},
		{
			"buffer":0,
			"byteLength":70704,
			"byteOffset":14139364,
			"target":34962
		},
		{
			"buffer":0,
			"byteLength":70704,
			"byteOffset":14210068,
			"target":34962
		},
		{
			"buffer":0,
			"byteLength":47136,
			"byteOffset":14280772,
			"target":34962
		},
		{
			"buffer":0,
			"byteLength":47568,
			"byteOffset":14327908,
			"target":34963
		},
		{
			"buffer":0,
			"byteLength":4092,
			"byteOffset":14375476,
			"target":34962
		},
		{
			"buffer":0,
			"byteLength":4092,
			"byteOffset":14379568,
			"target":34962
		},
		{
			"buffer":0,
			"byteLength":2728,
			"byteOffset":14383660,
			"target":34962
		},
		{
			"buffer":0,
			"byteLength":3072,
			"byteOffset":14386388,
			"target":34963
		},
		{
			"buffer":0,
			"byteLength":2160,
			"byteOffset":14389460,
			"target":34962
		},
		{
			"buffer":0,
			"byteLength":2160,
			"byteOffset":14391620,
			"target":34962
		},
		{
			"buffer":0,
			"byteLength":1440,
			"byteOffset":14393780,
			"target":34962
		},
		{
			"buffer":0,
			"byteLength":1440,
			"byteOffset":14395220,
			"target":34963
		}
	],
	"samplers":[
		{
			"magFilter":9729,
			"minFilter":9987
		}
	],
	"buffers":[
		{
			"byteLength":14396660,
			"uri":"car2.bin"
		}
	]
}
