{
	"asset":{
		"generator":"Khronos glTF Blender I/O v5.2.39",
		"version":"2.0"
	},
	"extensionsUsed":[
		"KHR_materials_transmission",
		"KHR_materials_emissive_strength",
		"KHR_materials_ior",
		"KHR_materials_volume"
	],
	"scene":0,
	"scenes":[
		{
			"name":"Scene",
			"nodes":[
				0,
				1,
				2,
				3,
				4
			]
		}
	],
	"nodes":[
		{
			"camera":0,
			"name":"Camera",
			"rotation":[
				-0.2558654546737671,
				0,
				0,
				0.9667124152183533
			],
			"translation":[
				0,
				3.4261651039123535,
				6.018967628479004
			]
		},
		{
			"mesh":0,
			"name":"Checker",
			"scale":[
				1.611481785774231,
				1.611481785774231,
				1.611481785774231
			],
			"translation":[
				0,
				0,
				-1.4076545238494873
			]
		},
		{
			"mesh":1,
			"name":"GeoSphere001",
			"rotation":[
				-0.70710688829422,
				0,
				0,
				0.7071066498756409
			],
			"scale":[
				1.611481785774231,
				1.61148202419281,
				1.61148202419281
			],
			"translation":[
				-0.8863149881362915,
				0,
				0.20382729172706604
			]
		},
		{
			"mesh":2,
			"name":"GeoSphere002",
			"rotation":[
				-0.70710688829422,
				0,
				0,
				0.7071066498756409
			],
			"scale":[
				1.611481785774231,
				1.61148202419281,
				1.61148202419281
			],
			"translation":[
				0.8863149881362915,
				0,
				0.20382729172706604
			]
		},
		{
			"mesh":3,
			"name":"Plane",
			"rotation":[
				0.7071068286895752,
				0,
				0,
				0.7071068286895752
			],
			"translation":[
				0,
				0,
				8.021821022033691
			]
		}
	],
	"cameras":[
		{
			"name":"Camera",
			"perspective":{
				"aspectRatio":1.7777777777777777,
				"yfov":0.5954004346490906,
				"zfar":100,
				"znear":0.10000000149011612
			},
			"type":"perspective"
		}
	],
	"materials":[
		{
			"name":"checker",
			"pbrMetallicRoughness":{
				"baseColorTexture":{
					"index":0
				},
				"metallicFactor":0,
				"roughnessFactor":0
			}
		},
		{
			"alphaMode":"MASK",
			"extensions":{
				"KHR_materials_transmission":{
					"transmissionFactor":1,
					"transmissionTexture":{
						"index":1
					}
				}
			},
			"name":"glTF Logo Transmission",
			"pbrMetallicRoughness":{
				"baseColorTexture":{
					"index":2
				},
				"metallicFactor":0,
				"metallicRoughnessTexture":{
					"index":3
				},
				"roughnessFactor":0.6999899744987488
			}
		},
		{
			"alphaMode":"MASK",
			"doubleSided":false,
			"extensions":{
				"KHR_materials_transmission":{
					"transmissionFactor":1,
					"transmissionTexture":{
						"index":4
					}
				},
				"KHR_materials_volume":{
					"attenuationColor":[
						1,
						1,
						1
					],
					"attenuationDistance":1,
					"thicknessFactor":1
				},
				"KHR_materials_ior":{
					"ior":2.4200000762939453
				}
			},
			"name":"glTF Logo Transmission IOR",
			"pbrMetallicRoughness":{
				"baseColorTexture":{
					"index":5
				},
				"metallicFactor":0,
				"metallicRoughnessTexture":{
					"index":6
				},
				"roughnessFactor":0.6999899744987488
			}
		},
		{
			"doubleSided":true,
			"emissiveFactor":[
				1,
				1,
				1
			],
			"extensions":{
				"KHR_materials_emissive_strength":{
					"emissiveStrength":98.79999542236328
				}
			},
			"name":"Material.001",
			"pbrMetallicRoughness":{
				"baseColorFactor":[
					0.800000011920929,
					0.800000011920929,
					0.800000011920929,
					1
				],
				"metallicFactor":0,
				"roughnessFactor":0.5
			}
		}
	],
	"meshes":[
		{
			"name":"Checker",
			"primitives":[
				{
					"attributes":{
						"POSITION":0,
						"NORMAL":1,
						"TEXCOORD_0":2
					},
					"indices":3,
					"material":0
				}
			]
		},
		{
			"name":"GeoSphere001",
			"primitives":[
				{
					"attributes":{
						"POSITION":4,
						"NORMAL":5,
						"TEXCOORD_0":6
					},
					"indices":7,
					"material":1
				}
			]
		},
		{
			"name":"GeoSphere002",
			"primitives":[
				{
					"attributes":{
						"POSITION":8,
						"NORMAL":9,
						"TEXCOORD_0":10
					},
					"indices":7,
					"material":2
				}
			]
		},
		{
			"name":"Plane",
			"primitives":[
				{
					"attributes":{
						"POSITION":11,
						"NORMAL":12,
						"TEXCOORD_0":13
					},
					"indices":14,
					"material":3
				}
			]
		}
	],
	"textures":[
		{
			"sampler":0,
			"source":0
		},
		{
			"sampler":0,
			"source":1
		},
		{
			"sampler":0,
			"source":2
		},
		{
			"sampler":0,
			"source":3
		},
		{
			"sampler":0,
			"source":1
		},
		{
			"sampler":0,
			"source":2
		},
		{
			"sampler":0,
			"source":3
		}
	],
	"images":[
		{
			"mimeType":"image/jpeg",
			"name":"Image_0",
			"uri":"Image_0.jpg"
		},
		{
			"mimeType":"image/jpeg",
			"name":"Image_3",
			"uri":"Image_3.jpg"
		},
		{
			"mimeType":"image/png",
			"name":"Image_1",
			"uri":"Image_1.png"
		},
		{
			"mimeType":"image/jpeg",
			"name":"Image_2",
			"uri":"Image_2.jpg"
		}
	],
	"accessors":[
		{
			"bufferView":0,
			"componentType":5126,
			"count":4,
			"max":[
				1.5,
				0.75,
				0
			],
			"min":[
				-1.5,
				-0.75,
				0
			],
			"type":"VEC3"
		},
		{
			"bufferView":1,
			"componentType":5126,
			"count":4,
			"type":"VEC3"
		},
		{
			"bufferView":2,
			"componentType":5126,
			"count":4,
			"type":"VEC2"
		},
		{
			"bufferView":3,
			"componentType":5123,
			"count":6,
			"type":"SCALAR"
		},
		{
			"bufferView":4,
			"componentType":5126,
			"count":673,
			"max":[
				0.5,
				0.5,
				0.5
			],
			"min":[
				-0.5,
				-0.5,
				-0.5
			],
			"type":"VEC3"
		},
		{
			"bufferView":5,
			"componentType":5126,
			"count":673,
			"type":"VEC3"
		},
		{
			"bufferView":6,
			"componentType":5126,
			"count":673,
			"type":"VEC2"
		},
		{
			"bufferView":7,
			"componentType":5123,
			"count":3840,
			"type":"SCALAR"
		},
		{
			"bufferView":8,
			"componentType":5126,
			"count":673,
			"max":[
				0.5,
				0.5,
				0.5
			],
			"min":[
				-0.5,
				-0.5,
				-0.5
			],
			"type":"VEC3"
		},
		{
			"bufferView":9,
			"componentType":5126,
			"count":673,
			"type":"VEC3"
		},
		{
			"bufferView":10,
			"componentType":5126,
			"count":673,
			"type":"VEC2"
		},
		{
			"bufferView":11,
			"componentType":5126,
			"count":4,
			"max":[
				1,
				0,
				1
			],
			"min":[
				-1,
				0,
				-1
			],
			"type":"VEC3"
		},
		{
			"bufferView":12,
			"componentType":5126,
			"count":4,
			"type":"VEC3"
		},
		{
			"bufferView":13,
			"componentType":5126,
			"count":4,
			"type":"VEC2"
		},
		{
			"bufferView":14,
			"componentType":5123,
			"count":6,
			"type":"SCALAR"
		}
	],
	"bufferViews":[
		{
			"buffer":0,
			"byteLength":48,
			"byteOffset":0,
			"target":34962
		},
		{
			"buffer":0,
			"byteLength":48,
			"byteOffset":48,
			"target":34962
		},
		{
			"buffer":0,
			"byteLength":32,
			"byteOffset":96,
			"target":34962
		},
		{
			"buffer":0,
			"byteLength":12,
			"byteOffset":128,
			"target":34963
		},
		{
			"buffer":0,
			"byteLength":8076,
			"byteOffset":140,
			"target":34962
		},
		{
			"buffer":0,
			"byteLength":8076,
			"byteOffset":8216,
			"target":34962
		},
		{
			"buffer":0,
			"byteLength":5384,
			"byteOffset":16292,
			"target":34962
		},
		{
			"buffer":0,
			"byteLength":7680,
			"byteOffset":21676,
			"target":34963
		},
		{
			"buffer":0,
			"byteLength":8076,
			"byteOffset":29356,
			"target":34962
		},
		{
			"buffer":0,
			"byteLength":8076,
			"byteOffset":37432,
			"target":34962
		},
		{
			"buffer":0,
			"byteLength":5384,
			"byteOffset":45508,
			"target":34962
		},
		{
			"buffer":0,
			"byteLength":48,
			"byteOffset":50892,
			"target":34962
		},
		{
			"buffer":0,
			"byteLength":48,
			"byteOffset":50940,
			"target":34962
		},
		{
			"buffer":0,
			"byteLength":32,
			"byteOffset":50988,
			"target":34962
		},
		{
			"buffer":0,
			"byteLength":12,
			"byteOffset":51020,
			"target":34963
		}
	],
	"samplers":[
		{
			"magFilter":9729,
			"minFilter":9987
		}
	],
	"buffers":[
		{
			"byteLength":51032,
			"uri":"khronos%20ior%20balls.bin"
		}
	]
}
