{
	"asset":{
		"generator":"Khronos glTF Blender I/O v5.2.39",
		"version":"2.0"
	},
	"extensionsUsed":[
		"KHR_materials_emissive_strength"
	],
	"scene":0,
	"scenes":[
		{
			"name":"Scene",
			"nodes":[
				0,
				1,
				2,
				3,
				4
			]
		}
	],
	"nodes":[
		{
			"camera":0,
			"name":"Camera",
			"translation":[
				-27.799999237060547,
				27.299999237060547,
				80
			]
		},
		{
			"mesh":0,
			"name":"Cornell_Box_(flipped)_and_camera_parameters"
		},
		{
			"mesh":1,
			"name":"Cornell_Box_(flipped)_and_camera_parameters.001"
		},
		{
			"mesh":2,
			"name":"Cornell_Box_(flipped)_and_camera_parameters.002"
		},
		{
			"mesh":3,
			"name":"Cornell_Box_(flipped)_and_camera_parameters.003"
		}
	],
	"cameras":[
		{
			"name":"Camera",
			"perspective":{
				"aspectRatio":1,
				"yfov":0.7014558911323547,
				"zfar":152.60000610351562,
				"znear":0.10000000149011612
			},
			"type":"perspective"
		}
	],
	"materials":[
		{
			"doubleSided":true,
			"emissiveFactor":[
				1,
				0.7297571897506714,
				0.4620653986930847
			],
			"extensions":{
				"KHR_materials_emissive_strength":{
					"emissiveStrength":21.799999237060547
				}
			},
			"name":"light",
			"pbrMetallicRoughness":{
				"baseColorFactor":[
					0.800000011920929,
					0.800000011920929,
					0.800000011920929,
					1
				],
				"metallicFactor":0,
				"roughnessFactor":0.5
			}
		},
		{
			"doubleSided":true,
			"name":"white",
			"pbrMetallicRoughness":{
				"baseColorFactor":[
					0.800000011920929,
					0.800000011920929,
					0.800000011920929,
					1
				],
				"metallicFactor":0,
				"roughnessFactor":0.5
			}
		},
		{
			"doubleSided":true,
			"name":"Material.001",
			"pbrMetallicRoughness":{
				"baseColorFactor":[
					0,
					1,
					0,
					1
				],
				"metallicFactor":0,
				"roughnessFactor":0.5
			}
		},
		{
			"doubleSided":true,
			"name":"Material.002",
			"pbrMetallicRoughness":{
				"baseColorFactor":[
					1,
					0,
					0,
					1
				],
				"metallicFactor":0,
				"roughnessFactor":0.5
			}
		}
	],
	"meshes":[
		{
			"name":"Cornell_Box_(flipped)_and_camera_parameters",
			"primitives":[
				{
					"attributes":{
						"POSITION":0,
						"NORMAL":1
					},
					"indices":2,
					"material":0
				}
			]
		},
		{
			"name":"Cornell_Box_(flipped)_and_camera_parameters.001",
			"primitives":[
				{
					"attributes":{
						"POSITION":3,
						"NORMAL":4
					},
					"indices":5,
					"material":1
				}
			]
		},
		{
			"name":"Cornell_Box_(flipped)_and_camera_parameters.002",
			"primitives":[
				{
					"attributes":{
						"POSITION":6,
						"NORMAL":7
					},
					"indices":8,
					"material":2
				}
			]
		},
		{
			"name":"Cornell_Box_(flipped)_and_camera_parameters.003",
			"primitives":[
				{
					"attributes":{
						"POSITION":9,
						"NORMAL":10
					},
					"indices":11,
					"material":3
				}
			]
		}
	],
	"accessors":[
		{
			"bufferView":0,
			"componentType":5126,
			"count":4,
			"max":[
				-21.299999237060547,
				54.880001068115234,
				-22.700000762939453
			],
			"min":[
				-34.29999923706055,
				54.880001068115234,
				-33.20000076293945
			],
			"type":"VEC3"
		},
		{
			"bufferView":1,
			"componentType":5126,
			"count":4,
			"type":"VEC3"
		},
		{
			"bufferView":2,
			"componentType":5123,
			"count":6,
			"type":"SCALAR"
		},
		{
			"bufferView":3,
			"componentType":5126,
			"count":64,
			"max":[
				6.720861694053341e-15,
				54.880001068115234,
				0
			],
			"min":[
				-55.599998474121094,
				0,
				-55.91999816894531
			],
			"type":"VEC3"
		},
		{
			"bufferView":4,
			"componentType":5126,
			"count":64,
			"type":"VEC3"
		},
		{
			"bufferView":5,
			"componentType":5123,
			"count":108,
			"type":"SCALAR"
		},
		{
			"bufferView":6,
			"componentType":5126,
			"count":4,
			"max":[
				6.720861694053341e-15,
				54.880001068115234,
				0
			],
			"min":[
				0,
				0,
				-55.91999816894531
			],
			"type":"VEC3"
		},
		{
			"bufferView":7,
			"componentType":5126,
			"count":4,
			"type":"VEC3"
		},
		{
			"bufferView":8,
			"componentType":5123,
			"count":6,
			"type":"SCALAR"
		},
		{
			"bufferView":9,
			"componentType":5126,
			"count":6,
			"max":[
				-54.959999084472656,
				54.880001068115234,
				0
			],
			"min":[
				-55.599998474121094,
				6.7306589006377576e-15,
				-55.91999816894531
			],
			"type":"VEC3"
		},
		{
			"bufferView":10,
			"componentType":5126,
			"count":6,
			"type":"VEC3"
		},
		{
			"bufferView":11,
			"componentType":5123,
			"count":6,
			"type":"SCALAR"
		}
	],
	"bufferViews":[
		{
			"buffer":0,
			"byteLength":48,
			"byteOffset":0,
			"target":34962
		},
		{
			"buffer":0,
			"byteLength":48,
			"byteOffset":48,
			"target":34962
		},
		{
			"buffer":0,
			"byteLength":12,
			"byteOffset":96,
			"target":34963
		},
		{
			"buffer":0,
			"byteLength":768,
			"byteOffset":108,
			"target":34962
		},
		{
			"buffer":0,
			"byteLength":768,
			"byteOffset":876,
			"target":34962
		},
		{
			"buffer":0,
			"byteLength":216,
			"byteOffset":1644,
			"target":34963
		},
		{
			"buffer":0,
			"byteLength":48,
			"byteOffset":1860,
			"target":34962
		},
		{
			"buffer":0,
			"byteLength":48,
			"byteOffset":1908,
			"target":34962
		},
		{
			"buffer":0,
			"byteLength":12,
			"byteOffset":1956,
			"target":34963
		},
		{
			"buffer":0,
			"byteLength":72,
			"byteOffset":1968,
			"target":34962
		},
		{
			"buffer":0,
			"byteLength":72,
			"byteOffset":2040,
			"target":34962
		},
		{
			"buffer":0,
			"byteLength":12,
			"byteOffset":2112,
			"target":34963
		}
	],
	"buffers":[
		{
			"byteLength":2124,
			"uri":"og%20cornell%20box.bin"
		}
	]
}
