{
	"asset":{
		"generator":"Khronos glTF Blender I/O v5.2.39",
		"version":"2.0"
	},
	"extensionsUsed":[
		"KHR_materials_clearcoat",
		"KHR_materials_emissive_strength"
	],
	"scene":0,
	"scenes":[
		{
			"name":"Scene",
			"nodes":[
				0,
				1,
				2,
				3,
				4
			]
		}
	],
	"nodes":[
		{
			"camera":0,
			"name":"Camera",
			"rotation":[
				-0.17639721930027008,
				0.19604447484016418,
				0.03587605804204941,
				0.9639313220977783
			],
			"translation":[
				5.311254501342773,
				6.460715293884277,
				13.359160423278809
			]
		},
		{
			"mesh":0,
			"name":"CopperPot",
			"rotation":[
				-0.70710688829422,
				0,
				0,
				0.7071066498756409
			],
			"scale":[
				43.251773834228516,
				43.25177764892578,
				43.25177764892578
			]
		},
		{
			"mesh":1,
			"name":"HotCoals",
			"rotation":[
				-0.70710688829422,
				0,
				0,
				0.7071066498756409
			],
			"scale":[
				43.251773834228516,
				43.25177764892578,
				43.25177764892578
			]
		},
		{
			"mesh":2,
			"name":"Plane",
			"scale":[
				7.51580810546875,
				7.51580810546875,
				7.51580810546875
			]
		},
		{
			"mesh":3,
			"name":"Plane.001",
			"rotation":[
				-0.008496902883052826,
				-0.5833824872970581,
				0.33854207396507263,
				0.738228976726532
			],
			"scale":[
				2.6984775066375732,
				2.698477029800415,
				2.698477029800415
			],
			"translation":[
				-3.285099506378174,
				5.16729736328125,
				-2.732687473297119
			]
		}
	],
	"cameras":[
		{
			"name":"Camera",
			"perspective":{
				"aspectRatio":1.7777777777777777,
				"yfov":0.39959652046304894,
				"zfar":100,
				"znear":0.10000000149011612
			},
			"type":"perspective"
		}
	],
	"materials":[
		{
			"extensions":{
				"KHR_materials_clearcoat":{
					"clearcoatFactor":1,
					"clearcoatTexture":{
						"index":0
					}
				}
			},
			"name":"CopperPot",
			"normalTexture":{
				"index":1
			},
			"occlusionTexture":{
				"index":2
			},
			"pbrMetallicRoughness":{
				"baseColorTexture":{
					"index":3
				},
				"metallicRoughnessTexture":{
					"index":2
				}
			}
		},
		{
			"emissiveFactor":[
				1,
				1,
				1
			],
			"emissiveTexture":{
				"index":4
			},
			"name":"HotCoals",
			"normalTexture":{
				"index":5
			},
			"occlusionTexture":{
				"index":6
			},
			"pbrMetallicRoughness":{
				"baseColorTexture":{
					"index":7
				},
				"metallicFactor":0,
				"roughnessFactor":0.7120000123977661
			}
		},
		{
			"doubleSided":true,
			"name":"Material.001",
			"pbrMetallicRoughness":{
				"baseColorTexture":{
					"index":8
				},
				"metallicFactor":0,
				"roughnessFactor":0.5
			}
		},
		{
			"doubleSided":true,
			"emissiveFactor":[
				1,
				1,
				1
			],
			"extensions":{
				"KHR_materials_emissive_strength":{
					"emissiveStrength":14.79999828338623
				}
			},
			"name":"Material.002",
			"pbrMetallicRoughness":{
				"baseColorFactor":[
					0.800000011920929,
					0.800000011920929,
					0.800000011920929,
					1
				],
				"metallicFactor":0,
				"roughnessFactor":0.5
			}
		}
	],
	"meshes":[
		{
			"name":"CopperPot",
			"primitives":[
				{
					"attributes":{
						"POSITION":0,
						"NORMAL":1,
						"TEXCOORD_0":2
					},
					"indices":3,
					"material":0
				}
			]
		},
		{
			"name":"HotCoals",
			"primitives":[
				{
					"attributes":{
						"POSITION":4,
						"NORMAL":5,
						"TEXCOORD_0":6
					},
					"indices":7,
					"material":1
				}
			]
		},
		{
			"name":"Plane",
			"primitives":[
				{
					"attributes":{
						"POSITION":8,
						"NORMAL":9,
						"TEXCOORD_0":10
					},
					"indices":11,
					"material":2
				}
			]
		},
		{
			"name":"Plane.001",
			"primitives":[
				{
					"attributes":{
						"POSITION":12,
						"NORMAL":13,
						"TEXCOORD_0":14
					},
					"indices":11,
					"material":3
				}
			]
		}
	],
	"textures":[
		{
			"sampler":0,
			"source":0
		},
		{
			"sampler":0,
			"source":1
		},
		{
			"sampler":0,
			"source":2
		},
		{
			"sampler":0,
			"source":3
		},
		{
			"sampler":0,
			"source":4
		},
		{
			"sampler":0,
			"source":5
		},
		{
			"sampler":0,
			"source":6
		},
		{
			"sampler":0,
			"source":7
		},
		{
			"sampler":1,
			"source":8
		}
	],
	"images":[
		{
			"mimeType":"image/jpeg",
			"name":"Image_7",
			"uri":"Image_7.jpg"
		},
		{
			"mimeType":"image/png",
			"name":"Image_5",
			"uri":"Image_5.png"
		},
		{
			"mimeType":"image/jpeg",
			"name":"Image_6",
			"uri":"Image_6.jpg"
		},
		{
			"mimeType":"image/jpeg",
			"name":"Image_4",
			"uri":"Image_4.jpg"
		},
		{
			"mimeType":"image/jpeg",
			"name":"Image_2",
			"uri":"Image_2.jpg"
		},
		{
			"mimeType":"image/jpeg",
			"name":"Image_1",
			"uri":"Image_1.jpg"
		},
		{
			"mimeType":"image/jpeg",
			"name":"Image_3",
			"uri":"Image_3.jpg"
		},
		{
			"mimeType":"image/jpeg",
			"name":"Image_0",
			"uri":"Image_0.jpg"
		},
		{
			"mimeType":"image/png",
			"name":"Untitled",
			"uri":"Untitled.png"
		}
	],
	"accessors":[
		{
			"bufferView":0,
			"componentType":5126,
			"count":15936,
			"max":[
				0.03999999910593033,
				0.03999999910593033,
				0.04996875301003456
			],
			"min":[
				-0.03999999910593033,
				-0.03999999910593033,
				0.0007160003297030926
			],
			"type":"VEC3"
		},
		{
			"bufferView":1,
			"componentType":5126,
			"count":15936,
			"type":"VEC3"
		},
		{
			"bufferView":2,
			"componentType":5126,
			"count":15936,
			"type":"VEC2"
		},
		{
			"bufferView":3,
			"componentType":5123,
			"count":15936,
			"type":"SCALAR"
		},
		{
			"bufferView":4,
			"componentType":5126,
			"count":38733,
			"max":[
				0.033210985362529755,
				0.032759882509708405,
				0.04838255047798157
			],
			"min":[
				-0.032759882509708405,
				-0.032759882509708405,
				0.039156123995780945
			],
			"type":"VEC3"
		},
		{
			"bufferView":5,
			"componentType":5126,
			"count":38733,
			"type":"VEC3"
		},
		{
			"bufferView":6,
			"componentType":5126,
			"count":38733,
			"type":"VEC2"
		},
		{
			"bufferView":7,
			"componentType":5123,
			"count":38733,
			"type":"SCALAR"
		},
		{
			"bufferView":8,
			"componentType":5126,
			"count":4,
			"max":[
				1,
				0,
				1
			],
			"min":[
				-1,
				0,
				-1
			],
			"type":"VEC3"
		},
		{
			"bufferView":9,
			"componentType":5126,
			"count":4,
			"type":"VEC3"
		},
		{
			"bufferView":10,
			"componentType":5126,
			"count":4,
			"type":"VEC2"
		},
		{
			"bufferView":11,
			"componentType":5123,
			"count":6,
			"type":"SCALAR"
		},
		{
			"bufferView":12,
			"componentType":5126,
			"count":4,
			"max":[
				1,
				0,
				1
			],
			"min":[
				-1,
				0,
				-1
			],
			"type":"VEC3"
		},
		{
			"bufferView":13,
			"componentType":5126,
			"count":4,
			"type":"VEC3"
		},
		{
			"bufferView":14,
			"componentType":5126,
			"count":4,
			"type":"VEC2"
		}
	],
	"bufferViews":[
		{
			"buffer":0,
			"byteLength":191232,
			"byteOffset":0,
			"target":34962
		},
		{
			"buffer":0,
			"byteLength":191232,
			"byteOffset":191232,
			"target":34962
		},
		{
			"buffer":0,
			"byteLength":127488,
			"byteOffset":382464,
			"target":34962
		},
		{
			"buffer":0,
			"byteLength":31872,
			"byteOffset":509952,
			"target":34963
		},
		{
			"buffer":0,
			"byteLength":464796,
			"byteOffset":541824,
			"target":34962
		},
		{
			"buffer":0,
			"byteLength":464796,
			"byteOffset":1006620,
			"target":34962
		},
		{
			"buffer":0,
			"byteLength":309864,
			"byteOffset":1471416,
			"target":34962
		},
		{
			"buffer":0,
			"byteLength":77466,
			"byteOffset":1781280,
			"target":34963
		},
		{
			"buffer":0,
			"byteLength":48,
			"byteOffset":1858748,
			"target":34962
		},
		{
			"buffer":0,
			"byteLength":48,
			"byteOffset":1858796,
			"target":34962
		},
		{
			"buffer":0,
			"byteLength":32,
			"byteOffset":1858844,
			"target":34962
		},
		{
			"buffer":0,
			"byteLength":12,
			"byteOffset":1858876,
			"target":34963
		},
		{
			"buffer":0,
			"byteLength":48,
			"byteOffset":1858888,
			"target":34962
		},
		{
			"buffer":0,
			"byteLength":48,
			"byteOffset":1858936,
			"target":34962
		},
		{
			"buffer":0,
			"byteLength":32,
			"byteOffset":1858984,
			"target":34962
		}
	],
	"samplers":[
		{
			"magFilter":9729,
			"minFilter":9987
		},
		{
			"magFilter":9728,
			"minFilter":9984
		}
	],
	"buffers":[
		{
			"byteLength":1859016,
			"uri":"Untitled.bin"
		}
	]
}
