{
	"asset":{
		"generator":"Khronos glTF Blender I/O v5.2.39",
		"version":"2.0"
	},
	"extensionsUsed":[
		"KHR_materials_emissive_strength"
	],
	"scene":0,
	"scenes":[
		{
			"name":"Scene",
			"nodes":[
				0,
				1,
				2,
				3
			]
		}
	],
	"nodes":[
		{
			"camera":0,
			"name":"Camera",
			"rotation":[
				-0.2772449851036072,
				0.657526433467865,
				0.28481191396713257,
				0.6400597095489502
			],
			"translation":[
				12.13940715789795,
				12.433027267456055,
				1.6093308925628662
			]
		},
		{
			"mesh":0,
			"name":"GeoSphere001",
			"rotation":[
				-0.6532815098762512,
				0.27059805393218994,
				0.27059805393218994,
				0.6532815098762512
			],
			"scale":[
				2.4335358142852783,
				2.4335362911224365,
				2.4335360527038574
			],
			"translation":[
				-1.338444709777832,
				0,
				0
			]
		},
		{
			"mesh":1,
			"name":"GeoSphere002",
			"rotation":[
				-0.6532815098762512,
				0.27059805393218994,
				0.27059805393218994,
				0.6532815098762512
			],
			"scale":[
				2.4335358142852783,
				2.4335362911224365,
				2.4335360527038574
			],
			"translation":[
				1.338444709777832,
				0,
				0
			]
		},
		{
			"mesh":2,
			"name":"Plane",
			"rotation":[
				0.10405250638723373,
				-0.8648631572723389,
				0.48866474628448486,
				0.04890327900648117
			],
			"scale":[
				8.381697654724121,
				8.381697654724121,
				8.381697654724121
			],
			"translation":[
				3.5389010906219482,
				-2.069549322128296,
				1.3053196668624878
			]
		}
	],
	"cameras":[
		{
			"name":"Camera",
			"perspective":{
				"aspectRatio":1.7777777777777777,
				"yfov":0.39959652046304894,
				"zfar":100,
				"znear":0.10000000149011612
			},
			"type":"perspective"
		}
	],
	"materials":[
		{
			"emissiveFactor":[
				1,
				1,
				1
			],
			"emissiveTexture":{
				"index":0
			},
			"name":"glTF Logo Emissive",
			"pbrMetallicRoughness":{
				"baseColorFactor":[
					0,
					0,
					0,
					1
				],
				"metallicFactor":0,
				"roughnessFactor":0
			}
		},
		{
			"emissiveFactor":[
				1,
				1,
				1
			],
			"emissiveTexture":{
				"index":1
			},
			"extensions":{
				"KHR_materials_emissive_strength":{
					"emissiveStrength":3
				}
			},
			"name":"glTF Logo Emissive Strength",
			"pbrMetallicRoughness":{
				"baseColorFactor":[
					0,
					0,
					0,
					1
				],
				"metallicFactor":0,
				"roughnessFactor":0
			}
		}
	],
	"meshes":[
		{
			"name":"GeoSphere001.003",
			"primitives":[
				{
					"attributes":{
						"POSITION":0,
						"NORMAL":1,
						"TEXCOORD_0":2
					},
					"indices":3,
					"material":0
				}
			]
		},
		{
			"name":"GeoSphere002.003",
			"primitives":[
				{
					"attributes":{
						"POSITION":4,
						"NORMAL":5,
						"TEXCOORD_0":6
					},
					"indices":3,
					"material":1
				}
			]
		},
		{
			"name":"Plane",
			"primitives":[
				{
					"attributes":{
						"POSITION":7,
						"NORMAL":8,
						"TEXCOORD_0":9
					},
					"indices":10
				}
			]
		}
	],
	"textures":[
		{
			"sampler":0,
			"source":0
		},
		{
			"sampler":0,
			"source":0
		}
	],
	"images":[
		{
			"mimeType":"image/jpeg",
			"name":"Image_0",
			"uri":"Image_0.jpg"
		}
	],
	"accessors":[
		{
			"bufferView":0,
			"componentType":5126,
			"count":673,
			"max":[
				0.5,
				0.5,
				0.5
			],
			"min":[
				-0.5,
				-0.5,
				-0.5
			],
			"type":"VEC3"
		},
		{
			"bufferView":1,
			"componentType":5126,
			"count":673,
			"type":"VEC3"
		},
		{
			"bufferView":2,
			"componentType":5126,
			"count":673,
			"type":"VEC2"
		},
		{
			"bufferView":3,
			"componentType":5123,
			"count":3840,
			"type":"SCALAR"
		},
		{
			"bufferView":4,
			"componentType":5126,
			"count":673,
			"max":[
				0.5,
				0.5,
				0.5
			],
			"min":[
				-0.5,
				-0.5,
				-0.5
			],
			"type":"VEC3"
		},
		{
			"bufferView":5,
			"componentType":5126,
			"count":673,
			"type":"VEC3"
		},
		{
			"bufferView":6,
			"componentType":5126,
			"count":673,
			"type":"VEC2"
		},
		{
			"bufferView":7,
			"componentType":5126,
			"count":4,
			"max":[
				1,
				0,
				1
			],
			"min":[
				-1,
				0,
				-1
			],
			"type":"VEC3"
		},
		{
			"bufferView":8,
			"componentType":5126,
			"count":4,
			"type":"VEC3"
		},
		{
			"bufferView":9,
			"componentType":5126,
			"count":4,
			"type":"VEC2"
		},
		{
			"bufferView":10,
			"componentType":5123,
			"count":6,
			"type":"SCALAR"
		}
	],
	"bufferViews":[
		{
			"buffer":0,
			"byteLength":8076,
			"byteOffset":0,
			"target":34962
		},
		{
			"buffer":0,
			"byteLength":8076,
			"byteOffset":8076,
			"target":34962
		},
		{
			"buffer":0,
			"byteLength":5384,
			"byteOffset":16152,
			"target":34962
		},
		{
			"buffer":0,
			"byteLength":7680,
			"byteOffset":21536,
			"target":34963
		},
		{
			"buffer":0,
			"byteLength":8076,
			"byteOffset":29216,
			"target":34962
		},
		{
			"buffer":0,
			"byteLength":8076,
			"byteOffset":37292,
			"target":34962
		},
		{
			"buffer":0,
			"byteLength":5384,
			"byteOffset":45368,
			"target":34962
		},
		{
			"buffer":0,
			"byteLength":48,
			"byteOffset":50752,
			"target":34962
		},
		{
			"buffer":0,
			"byteLength":48,
			"byteOffset":50800,
			"target":34962
		},
		{
			"buffer":0,
			"byteLength":32,
			"byteOffset":50848,
			"target":34962
		},
		{
			"buffer":0,
			"byteLength":12,
			"byteOffset":50880,
			"target":34963
		}
	],
	"samplers":[
		{
			"magFilter":9729,
			"minFilter":9987
		}
	],
	"buffers":[
		{
			"byteLength":50892,
			"uri":"khronos%20emissive%20balls.bin"
		}
	]
}
