{
	"asset":{
		"generator":"Khronos glTF Blender I/O v5.1.18",
		"version":"2.0"
	},
	"extensionsUsed":[
		"KHR_materials_emissive_strength",
		"KHR_texture_transform"
	],
	"extensionsRequired":[
		"KHR_texture_transform"
	],
	"scene":0,
	"scenes":[
		{
			"name":"Scene",
			"nodes":[
				0,
				1,
				2,
				3,
				6,
				28
			]
		}
	],
	"nodes":[
		{
			"mesh":0,
			"name":"Plane",
			"rotation":[
				-0.8160219788551331,
				0.43784162402153015,
				-0.31813564896583557,
				0.2029595971107483
			],
			"translation":[
				29.747129440307617,
				24.669843673706055,
				17.79021453857422
			]
		},
		{
			"mesh":1,
			"name":"Plane.001",
			"scale":[
				1.0278717279434204,
				1.0278717279434204,
				1.0278717279434204
			]
		},
		{
			"mesh":2,
			"name":"Icosphere",
			"translation":[
				0.7086790800094604,
				8.345139503479004,
				-5.576941967010498
			]
		},
		{
			"camera":0,
			"name":"Camera",
			"rotation":[
				-0.23358812928199768,
				0.4428473711013794,
				0.12069214880466461,
				0.8571792244911194
			],
			"translation":[
				11.991494178771973,
				8.286924362182617,
				2.2554666996002197
			]
		},
		{
			"mesh":3,
			"name":"CHAIRS 2.002",
			"rotation":[
				0,
				0.2123105674982071,
				0,
				0.9772022366523743
			],
			"translation":[
				-9.616673469543457,
				0.4889398515224457,
				-10.816263198852539
			]
		},
		{
			"mesh":4,
			"name":"CHAIRS 2.005",
			"rotation":[
				0,
				0.2123105674982071,
				0,
				0.9772022366523743
			],
			"translation":[
				-9.616673469543457,
				0.4889398515224457,
				-10.816263198852539
			]
		},
		{
			"children":[
				4,
				5
			],
			"name":"Modern Office Chair"
		},
		{
			"mesh":5,
			"name":"Cube.001",
			"translation":[
				-0.007286874111741781,
				5.675532817840576,
				-3.038295030593872
			]
		},
		{
			"mesh":6,
			"name":"Cube.002",
			"translation":[
				-0.007286874111741781,
				5.675532817840576,
				-3.038295030593872
			]
		},
		{
			"mesh":7,
			"name":"Cube.003",
			"translation":[
				-0.007286874111741781,
				5.675532817840576,
				-3.038295030593872
			]
		},
		{
			"mesh":8,
			"name":"Cube.247",
			"translation":[
				-0.007286874111741781,
				5.675532817840576,
				-3.038295030593872
			]
		},
		{
			"mesh":9,
			"name":"Cube.248",
			"translation":[
				-0.007286874111741781,
				5.675532817840576,
				-3.038295030593872
			]
		},
		{
			"mesh":10,
			"name":"Cube.251",
			"translation":[
				-0.007286874111741781,
				5.675532817840576,
				-3.038295030593872
			]
		},
		{
			"mesh":11,
			"name":"Cube.252",
			"translation":[
				-0.007286874111741781,
				5.675532817840576,
				-3.038295030593872
			]
		},
		{
			"mesh":12,
			"name":"Cube.255",
			"translation":[
				-0.007286874111741781,
				5.675532817840576,
				-3.038295030593872
			]
		},
		{
			"mesh":13,
			"name":"Cube.256",
			"translation":[
				-0.007286874111741781,
				5.675532817840576,
				-8.333531379699707
			]
		},
		{
			"mesh":14,
			"name":"Door.015",
			"translation":[
				-0.007286874111741781,
				5.675532817840576,
				-3.038295030593872
			]
		},
		{
			"mesh":15,
			"name":"Floor.003",
			"translation":[
				-0.007286874111741781,
				5.675532817840576,
				-3.038295030593872
			]
		},
		{
			"mesh":16,
			"name":"Handle_Back.020",
			"translation":[
				3.649807929992676,
				3.833022356033325,
				3.593083620071411
			]
		},
		{
			"mesh":17,
			"name":"Handle_Back.021",
			"rotation":[
				0,
				-1,
				0,
				1.9470718370939721e-07
			],
			"translation":[
				3.649807929992676,
				3.833022356033325,
				3.1790997982025146
			]
		},
		{
			"mesh":18,
			"name":"Window.L.003",
			"translation":[
				-2.1015138626098633,
				3.0184082984924316,
				3.463196039199829
			]
		},
		{
			"mesh":19,
			"name":"Window.L.005",
			"translation":[
				-0.007286874111741781,
				5.675532817840576,
				-3.038295030593872
			]
		},
		{
			"mesh":20,
			"name":"Window.R.006",
			"rotation":[
				0,
				0.7071066498756409,
				0,
				0.70710688829422
			],
			"translation":[
				12.39771842956543,
				2.75695538520813,
				-3.022022008895874
			]
		},
		{
			"mesh":21,
			"name":"Window.R.009",
			"rotation":[
				0,
				0.7071066498756409,
				0,
				0.70710688829422
			],
			"translation":[
				12.362841606140137,
				2.838392496109009,
				-3.5930838584899902
			]
		},
		{
			"name":"Window_Group",
			"translation":[
				0.1754690408706665,
				2.794142246246338,
				3.0397231578826904
			]
		},
		{
			"mesh":22,
			"name":"WindowFrame.002",
			"translation":[
				0.1754690408706665,
				2.7512948513031006,
				3.0397231578826904
			]
		},
		{
			"mesh":23,
			"name":"WindowFrame.003",
			"translation":[
				-0.007286874111741781,
				5.675532817840576,
				-3.038295030593872
			]
		},
		{
			"mesh":24,
			"name":"WindowFrame.005",
			"translation":[
				-0.08272739499807358,
				5.675532817840576,
				-3.038295030593872
			]
		},
		{
			"children":[
				7,
				8,
				9,
				10,
				11,
				12,
				13,
				14,
				15,
				16,
				17,
				18,
				19,
				20,
				21,
				22,
				23,
				24,
				25,
				26,
				27
			],
			"name":"Studio House 6"
		}
	],
	"cameras":[
		{
			"name":"Camera",
			"perspective":{
				"aspectRatio":1.7777777777777777,
				"yfov":1.3234170531089613,
				"zfar":100,
				"znear":0.10000000149011612
			},
			"type":"perspective"
		}
	],
	"materials":[
		{
			"doubleSided":true,
			"emissiveFactor":[
				1,
				1,
				1
			],
			"extensions":{
				"KHR_materials_emissive_strength":{
					"emissiveStrength":2886.099853515625
				}
			},
			"name":"Material.001",
			"pbrMetallicRoughness":{
				"metallicFactor":0,
				"roughnessFactor":0.5
			}
		},
		{
			"doubleSided":true,
			"emissiveFactor":[
				1,
				1,
				1
			],
			"extensions":{
				"KHR_materials_emissive_strength":{
					"emissiveStrength":145
				}
			},
			"name":"Material.002",
			"pbrMetallicRoughness":{
				"metallicFactor":0,
				"roughnessFactor":0.5
			}
		},
		{
			"doubleSided":true,
			"name":"chair.001",
			"normalTexture":{
				"index":0
			},
			"pbrMetallicRoughness":{
				"baseColorTexture":{
					"index":1
				},
				"metallicFactor":0.19653178751468658,
				"roughnessFactor":0.23410403728485107
			}
		},
		{
			"doubleSided":true,
			"name":"chair",
			"normalTexture":{
				"index":2
			},
			"pbrMetallicRoughness":{
				"baseColorTexture":{
					"index":3
				},
				"metallicFactor":0,
				"roughnessFactor":0.5
			}
		},
		{
			"doubleSided":true,
			"name":"Studio Shed 6 Outer walls",
			"normalTexture":{
				"extensions":{
					"KHR_texture_transform":{
						"offset":[
							0,
							-5
						],
						"scale":[
							4,
							6
						]
					}
				},
				"index":4
			},
			"pbrMetallicRoughness":{
				"baseColorFactor":[
					0.44740813970565796,
					0.40868982672691345,
					0.3853282928466797,
					1
				],
				"metallicFactor":0,
				"metallicRoughnessTexture":{
					"extensions":{
						"KHR_texture_transform":{
							"offset":[
								0,
								-5
							],
							"scale":[
								4,
								6
							]
						}
					},
					"index":5
				}
			}
		},
		{
			"doubleSided":true,
			"name":"Stucco Wall V10",
			"normalTexture":{
				"extensions":{
					"KHR_texture_transform":{
						"offset":[
							0,
							-9
						],
						"scale":[
							10,
							10
						]
					}
				},
				"index":6
			},
			"pbrMetallicRoughness":{
				"baseColorFactor":[
					0.06125630438327789,
					0.07818399369716644,
					0.08864918351173401,
					1
				],
				"metallicFactor":0,
				"roughnessFactor":0.5
			}
		},
		{
			"doubleSided":true,
			"name":"Floor",
			"normalTexture":{
				"extensions":{
					"KHR_texture_transform":{
						"offset":[
							0,
							-2
						],
						"scale":[
							6,
							3
						]
					}
				},
				"index":7
			},
			"pbrMetallicRoughness":{
				"baseColorTexture":{
					"index":8
				},
				"metallicFactor":0.12716762721538544,
				"roughnessFactor":0.4982658624649048
			}
		},
		{
			"doubleSided":true,
			"name":"Outside Stripe Accent",
			"normalTexture":{
				"extensions":{
					"KHR_texture_transform":{
						"offset":[
							0,
							-5
						],
						"scale":[
							4,
							6
						]
					}
				},
				"index":9
			},
			"pbrMetallicRoughness":{
				"baseColorFactor":[
					0.060669105499982834,
					0.07751970738172531,
					0.08939274400472641,
					1
				],
				"metallicFactor":0,
				"metallicRoughnessTexture":{
					"extensions":{
						"KHR_texture_transform":{
							"offset":[
								0,
								-5
							],
							"scale":[
								4,
								6
							]
						}
					},
					"index":10
				}
			}
		},
		{
			"doubleSided":true,
			"name":"Studio Shed 6 Roof",
			"normalTexture":{
				"extensions":{
					"KHR_texture_transform":{
						"offset":[
							0,
							-5
						],
						"scale":[
							4,
							6
						]
					}
				},
				"index":11
			},
			"pbrMetallicRoughness":{
				"baseColorFactor":[
					0.787420392036438,
					0.7385122179985046,
					0.7599132061004639,
					1
				],
				"metallicFactor":0,
				"metallicRoughnessTexture":{
					"extensions":{
						"KHR_texture_transform":{
							"offset":[
								0,
								-5
							],
							"scale":[
								4,
								6
							]
						}
					},
					"index":12
				}
			}
		},
		{
			"doubleSided":true,
			"name":"StudioShed 5 Doors.001",
			"normalTexture":{
				"extensions":{
					"KHR_texture_transform":{
						"offset":[
							0,
							-2
						],
						"scale":[
							3,
							3
						]
					}
				},
				"index":13
			},
			"pbrMetallicRoughness":{
				"baseColorFactor":[
					0.06125630438327789,
					0.07818399369716644,
					0.08864918351173401,
					1
				],
				"metallicFactor":0,
				"metallicRoughnessTexture":{
					"extensions":{
						"KHR_texture_transform":{
							"offset":[
								0,
								-2
							],
							"scale":[
								3,
								3
							]
						}
					},
					"index":14
				}
			}
		},
		{
			"doubleSided":true,
			"name":"Studio Shed 6 Inner Wall accents",
			"normalTexture":{
				"extensions":{
					"KHR_texture_transform":{
						"offset":[
							0,
							-3.700000286102295
						],
						"scale":[
							3,
							4.700000286102295
						]
					}
				},
				"index":15
			},
			"pbrMetallicRoughness":{
				"metallicFactor":0,
				"metallicRoughnessTexture":{
					"extensions":{
						"KHR_texture_transform":{
							"offset":[
								0,
								-3.700000286102295
							],
							"scale":[
								3,
								4.700000286102295
							]
						}
					},
					"index":16
				}
			}
		},
		{
			"doubleSided":true,
			"name":"Studio Shed 6 Floor",
			"normalTexture":{
				"extensions":{
					"KHR_texture_transform":{
						"offset":[
							0,
							-2
						],
						"scale":[
							3,
							3
						]
					}
				},
				"index":17
			},
			"pbrMetallicRoughness":{
				"baseColorTexture":{
					"extensions":{
						"KHR_texture_transform":{
							"offset":[
								0,
								-2
							],
							"scale":[
								3,
								3
							]
						}
					},
					"index":18
				},
				"metallicFactor":0,
				"metallicRoughnessTexture":{
					"extensions":{
						"KHR_texture_transform":{
							"offset":[
								0,
								-2
							],
							"scale":[
								3,
								3
							]
						}
					},
					"index":19
				}
			}
		},
		{
			"doubleSided":true,
			"name":"Studio Shed 2 Door Handle",
			"normalTexture":{
				"extensions":{
					"KHR_texture_transform":{
						"offset":[
							0,
							-2
						],
						"scale":[
							3,
							3
						]
					}
				},
				"index":20
			},
			"pbrMetallicRoughness":{
				"baseColorTexture":{
					"extensions":{
						"KHR_texture_transform":{
							"offset":[
								0,
								-2
							],
							"scale":[
								3,
								3
							]
						}
					},
					"index":21
				},
				"metallicRoughnessTexture":{
					"extensions":{
						"KHR_texture_transform":{
							"offset":[
								0,
								-2
							],
							"scale":[
								3,
								3
							]
						}
					},
					"index":22
				}
			}
		}
	],
	"meshes":[
		{
			"name":"Plane",
			"primitives":[
				{
					"attributes":{
						"POSITION":0,
						"NORMAL":1,
						"TEXCOORD_0":2
					},
					"indices":3,
					"material":0
				}
			]
		},
		{
			"name":"Plane.001",
			"primitives":[
				{
					"attributes":{
						"POSITION":4,
						"NORMAL":5,
						"TEXCOORD_0":6
					},
					"indices":3
				}
			]
		},
		{
			"name":"Icosphere",
			"primitives":[
				{
					"attributes":{
						"POSITION":7,
						"NORMAL":8,
						"TEXCOORD_0":9
					},
					"indices":10,
					"material":1
				}
			]
		},
		{
			"name":"Mesh.002",
			"primitives":[
				{
					"attributes":{
						"POSITION":11,
						"NORMAL":12,
						"TEXCOORD_0":13,
						"COLOR_0":14,
						"COLOR_1":15
					},
					"indices":16,
					"material":2
				}
			]
		},
		{
			"name":"Mesh.019",
			"primitives":[
				{
					"attributes":{
						"POSITION":17,
						"NORMAL":18,
						"TEXCOORD_0":19,
						"COLOR_0":20,
						"COLOR_1":21
					},
					"indices":22,
					"material":3
				}
			]
		},
		{
			"name":"Mesh",
			"primitives":[
				{
					"attributes":{
						"POSITION":23,
						"NORMAL":24,
						"TEXCOORD_0":25
					},
					"indices":26,
					"material":4
				}
			]
		},
		{
			"name":"Mesh",
			"primitives":[
				{
					"attributes":{
						"POSITION":27,
						"NORMAL":28,
						"TEXCOORD_0":29
					},
					"indices":30,
					"material":5
				}
			]
		},
		{
			"name":"Mesh",
			"primitives":[
				{
					"attributes":{
						"POSITION":31,
						"NORMAL":32,
						"TEXCOORD_0":33
					},
					"indices":34,
					"material":6
				}
			]
		},
		{
			"name":"Mesh",
			"primitives":[
				{
					"attributes":{
						"POSITION":35,
						"NORMAL":36,
						"TEXCOORD_0":37
					},
					"indices":38,
					"material":7
				}
			]
		},
		{
			"name":"Mesh",
			"primitives":[
				{
					"attributes":{
						"POSITION":39,
						"NORMAL":40,
						"TEXCOORD_0":41
					},
					"indices":42,
					"material":8
				}
			]
		},
		{
			"name":"Mesh",
			"primitives":[
				{
					"attributes":{
						"POSITION":43,
						"NORMAL":44,
						"TEXCOORD_0":45
					},
					"indices":46,
					"material":9
				}
			]
		},
		{
			"name":"Mesh",
			"primitives":[
				{
					"attributes":{
						"POSITION":47,
						"NORMAL":48,
						"TEXCOORD_0":49
					},
					"indices":50,
					"material":9
				}
			]
		},
		{
			"name":"Mesh",
			"primitives":[
				{
					"attributes":{
						"POSITION":51,
						"NORMAL":52,
						"TEXCOORD_0":53
					},
					"indices":54,
					"material":10
				}
			]
		},
		{
			"name":"Mesh",
			"primitives":[
				{
					"attributes":{
						"POSITION":55,
						"NORMAL":56,
						"TEXCOORD_0":57
					},
					"indices":58,
					"material":10
				}
			]
		},
		{
			"name":"Mesh",
			"primitives":[
				{
					"attributes":{
						"POSITION":59,
						"NORMAL":60,
						"TEXCOORD_0":61
					},
					"indices":62,
					"material":9
				}
			]
		},
		{
			"name":"Mesh",
			"primitives":[
				{
					"attributes":{
						"POSITION":63,
						"NORMAL":64,
						"TEXCOORD_0":65
					},
					"indices":66,
					"material":11
				}
			]
		},
		{
			"name":"Mesh",
			"primitives":[
				{
					"attributes":{
						"POSITION":67,
						"NORMAL":68,
						"TEXCOORD_0":69
					},
					"indices":70,
					"material":12
				}
			]
		},
		{
			"name":"Mesh",
			"primitives":[
				{
					"attributes":{
						"POSITION":71,
						"NORMAL":72,
						"TEXCOORD_0":73
					},
					"indices":70,
					"material":12
				}
			]
		},
		{
			"name":"Mesh",
			"primitives":[
				{
					"attributes":{
						"POSITION":74,
						"NORMAL":75,
						"TEXCOORD_0":76
					},
					"indices":77,
					"material":9
				}
			]
		},
		{
			"name":"Mesh",
			"primitives":[
				{
					"attributes":{
						"POSITION":78,
						"NORMAL":79,
						"TEXCOORD_0":80
					},
					"indices":81,
					"material":9
				}
			]
		},
		{
			"name":"Mesh",
			"primitives":[
				{
					"attributes":{
						"POSITION":82,
						"NORMAL":83,
						"TEXCOORD_0":84
					},
					"indices":85,
					"material":9
				}
			]
		},
		{
			"name":"Mesh",
			"primitives":[
				{
					"attributes":{
						"POSITION":86,
						"NORMAL":87,
						"TEXCOORD_0":88
					},
					"indices":89,
					"material":9
				}
			]
		},
		{
			"name":"Mesh",
			"primitives":[
				{
					"attributes":{
						"POSITION":90,
						"NORMAL":91,
						"TEXCOORD_0":92
					},
					"indices":93,
					"material":9
				}
			]
		},
		{
			"name":"Mesh",
			"primitives":[
				{
					"attributes":{
						"POSITION":94,
						"NORMAL":95,
						"TEXCOORD_0":96
					},
					"indices":97,
					"material":9
				}
			]
		},
		{
			"name":"Mesh",
			"primitives":[
				{
					"attributes":{
						"POSITION":98,
						"NORMAL":99,
						"TEXCOORD_0":100
					},
					"indices":101,
					"material":9
				}
			]
		}
	],
	"textures":[
		{
			"sampler":0,
			"source":0
		},
		{
			"sampler":0,
			"source":1
		},
		{
			"sampler":0,
			"source":0
		},
		{
			"sampler":0,
			"source":1
		},
		{
			"sampler":0,
			"source":2
		},
		{
			"sampler":0,
			"source":3
		},
		{
			"sampler":0,
			"source":4
		},
		{
			"sampler":0,
			"source":5
		},
		{
			"sampler":0,
			"source":6
		},
		{
			"sampler":0,
			"source":2
		},
		{
			"sampler":0,
			"source":3
		},
		{
			"sampler":0,
			"source":2
		},
		{
			"sampler":0,
			"source":3
		},
		{
			"sampler":0,
			"source":7
		},
		{
			"sampler":0,
			"source":8
		},
		{
			"sampler":0,
			"source":9
		},
		{
			"sampler":0,
			"source":10
		},
		{
			"sampler":0,
			"source":11
		},
		{
			"sampler":0,
			"source":12
		},
		{
			"sampler":0,
			"source":13
		},
		{
			"sampler":0,
			"source":14
		},
		{
			"sampler":0,
			"source":15
		},
		{
			"sampler":0,
			"source":16
		}
	],
	"images":[
		{
			"mimeType":"image/jpeg",
			"name":"chair 2_Material_Normal",
			"uri":"chair%202_Material_Normal.jpg"
		},
		{
			"mimeType":"image/jpeg",
			"name":"chair 2_Material_BaseColor",
			"uri":"chair%202_Material_BaseColor.jpg"
		},
		{
			"mimeType":"image/jpeg",
			"name":"PaintedPlaster017_4K_NormalGL",
			"uri":"PaintedPlaster017_4K_NormalGL.jpg"
		},
		{
			"mimeType":"image/png",
			"name":"PaintedPlaster017_4K_Roughness",
			"uri":"PaintedPlaster017_4K_Roughness.png"
		},
		{
			"mimeType":"image/jpeg",
			"name":"Stucco Wall V10_normal",
			"uri":"Stucco%20Wall%20V10_normal.jpg"
		},
		{
			"mimeType":"image/jpeg",
			"name":"Antique_Terracotta_tiles_Normal",
			"uri":"Antique_Terracotta_tiles_Normal.jpg"
		},
		{
			"mimeType":"image/jpeg",
			"name":"Antique_Terracotta_tiles_Base_Color",
			"uri":"Antique_Terracotta_tiles_Base_Color.jpg"
		},
		{
			"mimeType":"image/jpeg",
			"name":"Wood006_2K_NormalGL",
			"uri":"Wood006_2K_NormalGL.jpg"
		},
		{
			"mimeType":"image/png",
			"name":"Wood006_2K_Roughness",
			"uri":"Wood006_2K_Roughness.png"
		},
		{
			"mimeType":"image/jpeg",
			"name":"Wood006_2K_NormalGL000",
			"uri":"Wood006_2K_NormalGL000.jpg"
		},
		{
			"mimeType":"image/png",
			"name":"Wood006_2K_Roughness000",
			"uri":"Wood006_2K_Roughness000.png"
		},
		{
			"mimeType":"image/jpeg",
			"name":"Concrete032_2K_NormalGL",
			"uri":"Concrete032_2K_NormalGL.jpg"
		},
		{
			"mimeType":"image/jpeg",
			"name":"Concrete032_2K_Color",
			"uri":"Concrete032_2K_Color.jpg"
		},
		{
			"mimeType":"image/png",
			"name":"Concrete032_2K_Roughness",
			"uri":"Concrete032_2K_Roughness.png"
		},
		{
			"mimeType":"image/jpeg",
			"name":"Metal047B_2K_NormalGL",
			"uri":"Metal047B_2K_NormalGL.jpg"
		},
		{
			"mimeType":"image/jpeg",
			"name":"Metal047B_2K_Color",
			"uri":"Metal047B_2K_Color.jpg"
		},
		{
			"mimeType":"image/png",
			"name":"Metal047B_2K_Metalness-Metal047B_2K_Roughness",
			"uri":"Metal047B_2K_Metalness-Metal047B_2K_Roughness.png"
		}
	],
	"accessors":[
		{
			"bufferView":0,
			"componentType":5126,
			"count":4,
			"max":[
				0.47519341111183167,
				0,
				0.47823309898376465
			],
			"min":[
				-0.47519341111183167,
				0,
				-0.47823309898376465
			],
			"type":"VEC3"
		},
		{
			"bufferView":1,
			"componentType":5126,
			"count":4,
			"type":"VEC3"
		},
		{
			"bufferView":2,
			"componentType":5126,
			"count":4,
			"type":"VEC2"
		},
		{
			"bufferView":3,
			"componentType":5123,
			"count":6,
			"type":"SCALAR"
		},
		{
			"bufferView":4,
			"componentType":5126,
			"count":4,
			"max":[
				219.96534729003906,
				0,
				219.96534729003906
			],
			"min":[
				-219.96534729003906,
				0,
				-219.96534729003906
			],
			"type":"VEC3"
		},
		{
			"bufferView":5,
			"componentType":5126,
			"count":4,
			"type":"VEC3"
		},
		{
			"bufferView":6,
			"componentType":5126,
			"count":4,
			"type":"VEC2"
		},
		{
			"bufferView":7,
			"componentType":5126,
			"count":60,
			"max":[
				0.34960848093032837,
				0.3908751308917999,
				0.33249402046203613
			],
			"min":[
				-0.34960848093032837,
				-0.3908751308917999,
				-0.33249402046203613
			],
			"type":"VEC3"
		},
		{
			"bufferView":8,
			"componentType":5126,
			"count":60,
			"type":"VEC3"
		},
		{
			"bufferView":9,
			"componentType":5126,
			"count":60,
			"type":"VEC2"
		},
		{
			"bufferView":10,
			"componentType":5123,
			"count":60,
			"type":"SCALAR"
		},
		{
			"bufferView":11,
			"componentType":5126,
			"count":661,
			"max":[
				0.908423900604248,
				2.0758063793182373,
				0.21665623784065247
			],
			"min":[
				-0.9087580442428589,
				1.2362140417099,
				-0.13735345005989075
			],
			"type":"VEC3"
		},
		{
			"bufferView":12,
			"componentType":5126,
			"count":661,
			"type":"VEC3"
		},
		{
			"bufferView":13,
			"componentType":5126,
			"count":661,
			"type":"VEC2"
		},
		{
			"bufferView":14,
			"componentType":5121,
			"count":661,
			"normalized":true,
			"type":"VEC4"
		},
		{
			"bufferView":15,
			"componentType":5123,
			"count":661,
			"normalized":true,
			"type":"VEC4"
		},
		{
			"bufferView":16,
			"componentType":5123,
			"count":2736,
			"type":"SCALAR"
		},
		{
			"bufferView":17,
			"componentType":5126,
			"count":19076,
			"max":[
				0.9442259669303894,
				2.998370885848999,
				0.828946590423584
			],
			"min":[
				-0.9495137333869934,
				0.010699305683374405,
				-0.9790446758270264
			],
			"type":"VEC3"
		},
		{
			"bufferView":18,
			"componentType":5126,
			"count":19076,
			"type":"VEC3"
		},
		{
			"bufferView":19,
			"componentType":5126,
			"count":19076,
			"type":"VEC2"
		},
		{
			"bufferView":20,
			"componentType":5121,
			"count":19076,
			"normalized":true,
			"type":"VEC4"
		},
		{
			"bufferView":21,
			"componentType":5123,
			"count":19076,
			"normalized":true,
			"type":"VEC4"
		},
		{
			"bufferView":22,
			"componentType":5123,
			"count":86976,
			"type":"SCALAR"
		},
		{
			"bufferView":23,
			"componentType":5126,
			"count":42031,
			"max":[
				13.029949188232422,
				3.5715994834899902,
				6.514974594116211
			],
			"min":[
				-13.029948234558105,
				-5.276167869567871,
				-11.810199737548828
			],
			"type":"VEC3"
		},
		{
			"bufferView":24,
			"componentType":5126,
			"count":42031,
			"type":"VEC3"
		},
		{
			"bufferView":25,
			"componentType":5126,
			"count":42031,
			"type":"VEC2"
		},
		{
			"bufferView":26,
			"componentType":5123,
			"count":227280,
			"type":"SCALAR"
		},
		{
			"bufferView":27,
			"componentType":5126,
			"count":21955,
			"max":[
				13.029947280883789,
				3.5715994834899902,
				6.5149736404418945
			],
			"min":[
				-13.029947280883789,
				-5.1505937576293945,
				-10.862991333007812
			],
			"type":"VEC3"
		},
		{
			"bufferView":28,
			"componentType":5126,
			"count":21955,
			"type":"VEC3"
		},
		{
			"bufferView":29,
			"componentType":5126,
			"count":21955,
			"type":"VEC2"
		},
		{
			"bufferView":30,
			"componentType":5123,
			"count":113856,
			"type":"SCALAR"
		},
		{
			"bufferView":31,
			"componentType":5126,
			"count":5125,
			"max":[
				12.18985652923584,
				-5.150593280792236,
				6.5149736404418945
			],
			"min":[
				-12.209839820861816,
				-5.150594711303711,
				-10.86298942565918
			],
			"type":"VEC3"
		},
		{
			"bufferView":32,
			"componentType":5126,
			"count":5125,
			"type":"VEC3"
		},
		{
			"bufferView":33,
			"componentType":5126,
			"count":5125,
			"type":"VEC2"
		},
		{
			"bufferView":34,
			"componentType":5123,
			"count":27888,
			"type":"SCALAR"
		},
		{
			"bufferView":35,
			"componentType":5126,
			"count":1011,
			"max":[
				-9.24040699005127,
				3.5715994834899902,
				6.5149736404418945
			],
			"min":[
				-10.614914894104004,
				-5.106317043304443,
				6.194342613220215
			],
			"type":"VEC3"
		},
		{
			"bufferView":36,
			"componentType":5126,
			"count":1011,
			"type":"VEC3"
		},
		{
			"bufferView":37,
			"componentType":5126,
			"count":1011,
			"type":"VEC2"
		},
		{
			"bufferView":38,
			"componentType":5123,
			"count":4560,
			"type":"SCALAR"
		},
		{
			"bufferView":39,
			"componentType":5126,
			"count":3610,
			"max":[
				12.18985652923584,
				3.231278657913208,
				5.600356578826904
			],
			"min":[
				-12.20984172821045,
				2.7338454723358154,
				-10.862991333007812
			],
			"type":"VEC3"
		},
		{
			"bufferView":40,
			"componentType":5126,
			"count":3610,
			"type":"VEC3"
		},
		{
			"bufferView":41,
			"componentType":5126,
			"count":3610,
			"type":"VEC2"
		},
		{
			"bufferView":42,
			"componentType":5123,
			"count":17232,
			"type":"SCALAR"
		},
		{
			"bufferView":43,
			"componentType":5126,
			"count":5960,
			"max":[
				6.446621894836426,
				1.4003324508666992,
				6.479254722595215
			],
			"min":[
				3.4424831867218018,
				-5.150537967681885,
				6.2101006507873535
			],
			"type":"VEC3"
		},
		{
			"bufferView":44,
			"componentType":5126,
			"count":5960,
			"type":"VEC3"
		},
		{
			"bufferView":45,
			"componentType":5126,
			"count":5960,
			"type":"VEC2"
		},
		{
			"bufferView":46,
			"componentType":5123,
			"count":28416,
			"type":"SCALAR"
		},
		{
			"bufferView":47,
			"componentType":5126,
			"count":6614,
			"max":[
				-12.483208656311035,
				1.3514643907546997,
				5.5634589195251465
			],
			"min":[
				-12.756579399108887,
				0.31873077154159546,
				-10.825566291809082
			],
			"type":"VEC3"
		},
		{
			"bufferView":48,
			"componentType":5126,
			"count":6614,
			"type":"VEC3"
		},
		{
			"bufferView":49,
			"componentType":5126,
			"count":6614,
			"type":"VEC2"
		},
		{
			"bufferView":50,
			"componentType":5123,
			"count":30768,
			"type":"SCALAR"
		},
		{
			"bufferView":51,
			"componentType":5126,
			"count":5280,
			"max":[
				12.209843635559082,
				-4.67463493347168,
				5.601701736450195
			],
			"min":[
				-12.209843635559082,
				-5.136656761169434,
				-10.86030101776123
			],
			"type":"VEC3"
		},
		{
			"bufferView":52,
			"componentType":5126,
			"count":5280,
			"type":"VEC3"
		},
		{
			"bufferView":53,
			"componentType":5126,
			"count":5280,
			"type":"VEC2"
		},
		{
			"bufferView":54,
			"componentType":5123,
			"count":27360,
			"type":"SCALAR"
		},
		{
			"bufferView":55,
			"componentType":5126,
			"count":2039,
			"max":[
				12.157144546508789,
				-4.674635410308838,
				-5.510859489440918
			],
			"min":[
				-12.15296745300293,
				-5.136657238006592,
				-5.567763805389404
			],
			"type":"VEC3"
		},
		{
			"bufferView":56,
			"componentType":5126,
			"count":2039,
			"type":"VEC3"
		},
		{
			"bufferView":57,
			"componentType":5126,
			"count":2039,
			"type":"VEC2"
		},
		{
			"bufferView":58,
			"componentType":5123,
			"count":10320,
			"type":"SCALAR"
		},
		{
			"bufferView":59,
			"componentType":5126,
			"count":5445,
			"max":[
				6.414690017700195,
				1.365992784500122,
				6.479362964630127
			],
			"min":[
				3.476149320602417,
				-5.119822978973389,
				6.368607521057129
			],
			"type":"VEC3"
		},
		{
			"bufferView":60,
			"componentType":5126,
			"count":5445,
			"type":"VEC3"
		},
		{
			"bufferView":61,
			"componentType":5126,
			"count":5445,
			"type":"VEC2"
		},
		{
			"bufferView":62,
			"componentType":5123,
			"count":25920,
			"type":"SCALAR"
		},
		{
			"bufferView":63,
			"componentType":5126,
			"count":8246,
			"max":[
				13.028868675231934,
				-5.276167869567871,
				15.743579864501953
			],
			"min":[
				-22.681427001953125,
				-5.682482719421387,
				-11.809280395507812
			],
			"type":"VEC3"
		},
		{
			"bufferView":64,
			"componentType":5126,
			"count":8246,
			"type":"VEC3"
		},
		{
			"bufferView":65,
			"componentType":5126,
			"count":8246,
			"type":"VEC2"
		},
		{
			"bufferView":66,
			"componentType":5123,
			"count":42480,
			"type":"SCALAR"
		},
		{
			"bufferView":67,
			"componentType":5126,
			"count":10466,
			"max":[
				0.13807889819145203,
				0.1392689347267151,
				0.15412065386772156
			],
			"min":[
				-0.13915377855300903,
				-0.13796183466911316,
				-0.156100332736969
			],
			"type":"VEC3"
		},
		{
			"bufferView":68,
			"componentType":5126,
			"count":10466,
			"type":"VEC3"
		},
		{
			"bufferView":69,
			"componentType":5126,
			"count":10466,
			"type":"VEC2"
		},
		{
			"bufferView":70,
			"componentType":5123,
			"count":56736,
			"type":"SCALAR"
		},
		{
			"bufferView":71,
			"componentType":5126,
			"count":10466,
			"max":[
				0.13807889819145203,
				0.1392689347267151,
				0.15412065386772156
			],
			"min":[
				-0.13915377855300903,
				-0.13796183466911316,
				-0.156100332736969
			],
			"type":"VEC3"
		},
		{
			"bufferView":72,
			"componentType":5126,
			"count":10466,
			"type":"VEC3"
		},
		{
			"bufferView":73,
			"componentType":5126,
			"count":10466,
			"type":"VEC2"
		},
		{
			"bufferView":74,
			"componentType":5126,
			"count":3487,
			"max":[
				4.553966522216797,
				3.798229455947876,
				0
			],
			"min":[
				0,
				0,
				-0.2084791511297226
			],
			"type":"VEC3"
		},
		{
			"bufferView":75,
			"componentType":5126,
			"count":3487,
			"type":"VEC3"
		},
		{
			"bufferView":76,
			"componentType":5126,
			"count":3487,
			"type":"VEC2"
		},
		{
			"bufferView":77,
			"componentType":5123,
			"count":16128,
			"type":"SCALAR"
		},
		{
			"bufferView":78,
			"componentType":5126,
			"count":3469,
			"max":[
				11.941451072692871,
				1.1411049365997314,
				6.501492023468018
			],
			"min":[
				7.343702793121338,
				-2.6571242809295654,
				6.2930121421813965
			],
			"type":"VEC3"
		},
		{
			"bufferView":79,
			"componentType":5126,
			"count":3469,
			"type":"VEC3"
		},
		{
			"bufferView":80,
			"componentType":5126,
			"count":3469,
			"type":"VEC2"
		},
		{
			"bufferView":81,
			"componentType":5123,
			"count":16128,
			"type":"SCALAR"
		},
		{
			"bufferView":82,
			"componentType":5126,
			"count":5578,
			"max":[
				10.308112144470215,
				4.057248592376709,
				0.5134464502334595
			],
			"min":[
				-0.6109760999679565,
				0.2562848627567291,
				0.23818837106227875
			],
			"type":"VEC3"
		},
		{
			"bufferView":83,
			"componentType":5126,
			"count":5578,
			"type":"VEC3"
		},
		{
			"bufferView":84,
			"componentType":5126,
			"count":5578,
			"type":"VEC2"
		},
		{
			"bufferView":85,
			"componentType":5123,
			"count":26496,
			"type":"SCALAR"
		},
		{
			"bufferView":86,
			"componentType":5126,
			"count":3967,
			"max":[
				0.02098185010254383,
				3.975811243057251,
				0.2752576768398285
			],
			"min":[
				-5.602878093719482,
				0.17484770715236664,
				0
			],
			"type":"VEC3"
		},
		{
			"bufferView":87,
			"componentType":5126,
			"count":3967,
			"type":"VEC3"
		},
		{
			"bufferView":88,
			"componentType":5126,
			"count":3967,
			"type":"VEC2"
		},
		{
			"bufferView":89,
			"componentType":5123,
			"count":18768,
			"type":"SCALAR"
		},
		{
			"bufferView":90,
			"componentType":5126,
			"count":5769,
			"max":[
				2.540839672088623,
				4.332457542419434,
				0.4234732985496521
			],
			"min":[
				-2.540839672088623,
				0,
				0
			],
			"type":"VEC3"
		},
		{
			"bufferView":91,
			"componentType":5126,
			"count":5769,
			"type":"VEC3"
		},
		{
			"bufferView":92,
			"componentType":5126,
			"count":5769,
			"type":"VEC2"
		},
		{
			"bufferView":93,
			"componentType":5123,
			"count":26928,
			"type":"SCALAR"
		},
		{
			"bufferView":94,
			"componentType":5126,
			"count":5826,
			"max":[
				12.207842826843262,
				1.4082188606262207,
				6.501492023468018
			],
			"min":[
				7.077310562133789,
				-2.924238443374634,
				6.0780181884765625
			],
			"type":"VEC3"
		},
		{
			"bufferView":95,
			"componentType":5126,
			"count":5826,
			"type":"VEC3"
		},
		{
			"bufferView":96,
			"componentType":5126,
			"count":5826,
			"type":"VEC2"
		},
		{
			"bufferView":97,
			"componentType":5123,
			"count":26928,
			"type":"SCALAR"
		},
		{
			"bufferView":98,
			"componentType":5126,
			"count":5984,
			"max":[
				12.99666976928711,
				1.4057152271270752,
				5.615381240844727
			],
			"min":[
				12.57319450378418,
				-2.9267418384552,
				-10.874391555786133
			],
			"type":"VEC3"
		},
		{
			"bufferView":99,
			"componentType":5126,
			"count":5984,
			"type":"VEC3"
		},
		{
			"bufferView":100,
			"componentType":5126,
			"count":5984,
			"type":"VEC2"
		},
		{
			"bufferView":101,
			"componentType":5123,
			"count":28704,
			"type":"SCALAR"
		}
	],
	"bufferViews":[
		{
			"buffer":0,
			"byteLength":48,
			"byteOffset":0,
			"target":34962
		},
		{
			"buffer":0,
			"byteLength":48,
			"byteOffset":48,
			"target":34962
		},
		{
			"buffer":0,
			"byteLength":32,
			"byteOffset":96,
			"target":34962
		},
		{
			"buffer":0,
			"byteLength":12,
			"byteOffset":128,
			"target":34963
		},
		{
			"buffer":0,
			"byteLength":48,
			"byteOffset":140,
			"target":34962
		},
		{
			"buffer":0,
			"byteLength":48,
			"byteOffset":188,
			"target":34962
		},
		{
			"buffer":0,
			"byteLength":32,
			"byteOffset":236,
			"target":34962
		},
		{
			"buffer":0,
			"byteLength":720,
			"byteOffset":268,
			"target":34962
		},
		{
			"buffer":0,
			"byteLength":720,
			"byteOffset":988,
			"target":34962
		},
		{
			"buffer":0,
			"byteLength":480,
			"byteOffset":1708,
			"target":34962
		},
		{
			"buffer":0,
			"byteLength":120,
			"byteOffset":2188,
			"target":34963
		},
		{
			"buffer":0,
			"byteLength":7932,
			"byteOffset":2308,
			"target":34962
		},
		{
			"buffer":0,
			"byteLength":7932,
			"byteOffset":10240,
			"target":34962
		},
		{
			"buffer":0,
			"byteLength":5288,
			"byteOffset":18172,
			"target":34962
		},
		{
			"buffer":0,
			"byteLength":2644,
			"byteOffset":23460,
			"target":34962
		},
		{
			"buffer":0,
			"byteLength":5288,
			"byteOffset":26104,
			"target":34962
		},
		{
			"buffer":0,
			"byteLength":5472,
			"byteOffset":31392,
			"target":34963
		},
		{
			"buffer":0,
			"byteLength":228912,
			"byteOffset":36864,
			"target":34962
		},
		{
			"buffer":0,
			"byteLength":228912,
			"byteOffset":265776,
			"target":34962
		},
		{
			"buffer":0,
			"byteLength":152608,
			"byteOffset":494688,
			"target":34962
		},
		{
			"buffer":0,
			"byteLength":76304,
			"byteOffset":647296,
			"target":34962
		},
		{
			"buffer":0,
			"byteLength":152608,
			"byteOffset":723600,
			"target":34962
		},
		{
			"buffer":0,
			"byteLength":173952,
			"byteOffset":876208,
			"target":34963
		},
		{
			"buffer":0,
			"byteLength":504372,
			"byteOffset":1050160,
			"target":34962
		},
		{
			"buffer":0,
			"byteLength":504372,
			"byteOffset":1554532,
			"target":34962
		},
		{
			"buffer":0,
			"byteLength":336248,
			"byteOffset":2058904,
			"target":34962
		},
		{
			"buffer":0,
			"byteLength":454560,
			"byteOffset":2395152,
			"target":34963
		},
		{
			"buffer":0,
			"byteLength":263460,
			"byteOffset":2849712,
			"target":34962
		},
		{
			"buffer":0,
			"byteLength":263460,
			"byteOffset":3113172,
			"target":34962
		},
		{
			"buffer":0,
			"byteLength":175640,
			"byteOffset":3376632,
			"target":34962
		},
		{
			"buffer":0,
			"byteLength":227712,
			"byteOffset":3552272,
			"target":34963
		},
		{
			"buffer":0,
			"byteLength":61500,
			"byteOffset":3779984,
			"target":34962
		},
		{
			"buffer":0,
			"byteLength":61500,
			"byteOffset":3841484,
			"target":34962
		},
		{
			"buffer":0,
			"byteLength":41000,
			"byteOffset":3902984,
			"target":34962
		},
		{
			"buffer":0,
			"byteLength":55776,
			"byteOffset":3943984,
			"target":34963
		},
		{
			"buffer":0,
			"byteLength":12132,
			"byteOffset":3999760,
			"target":34962
		},
		{
			"buffer":0,
			"byteLength":12132,
			"byteOffset":4011892,
			"target":34962
		},
		{
			"buffer":0,
			"byteLength":8088,
			"byteOffset":4024024,
			"target":34962
		},
		{
			"buffer":0,
			"byteLength":9120,
			"byteOffset":4032112,
			"target":34963
		},
		{
			"buffer":0,
			"byteLength":43320,
			"byteOffset":4041232,
			"target":34962
		},
		{
			"buffer":0,
			"byteLength":43320,
			"byteOffset":4084552,
			"target":34962
		},
		{
			"buffer":0,
			"byteLength":28880,
			"byteOffset":4127872,
			"target":34962
		},
		{
			"buffer":0,
			"byteLength":34464,
			"byteOffset":4156752,
			"target":34963
		},
		{
			"buffer":0,
			"byteLength":71520,
			"byteOffset":4191216,
			"target":34962
		},
		{
			"buffer":0,
			"byteLength":71520,
			"byteOffset":4262736,
			"target":34962
		},
		{
			"buffer":0,
			"byteLength":47680,
			"byteOffset":4334256,
			"target":34962
		},
		{
			"buffer":0,
			"byteLength":56832,
			"byteOffset":4381936,
			"target":34963
		},
		{
			"buffer":0,
			"byteLength":79368,
			"byteOffset":4438768,
			"target":34962
		},
		{
			"buffer":0,
			"byteLength":79368,
			"byteOffset":4518136,
			"target":34962
		},
		{
			"buffer":0,
			"byteLength":52912,
			"byteOffset":4597504,
			"target":34962
		},
		{
			"buffer":0,
			"byteLength":61536,
			"byteOffset":4650416,
			"target":34963
		},
		{
			"buffer":0,
			"byteLength":63360,
			"byteOffset":4711952,
			"target":34962
		},
		{
			"buffer":0,
			"byteLength":63360,
			"byteOffset":4775312,
			"target":34962
		},
		{
			"buffer":0,
			"byteLength":42240,
			"byteOffset":4838672,
			"target":34962
		},
		{
			"buffer":0,
			"byteLength":54720,
			"byteOffset":4880912,
			"target":34963
		},
		{
			"buffer":0,
			"byteLength":24468,
			"byteOffset":4935632,
			"target":34962
		},
		{
			"buffer":0,
			"byteLength":24468,
			"byteOffset":4960100,
			"target":34962
		},
		{
			"buffer":0,
			"byteLength":16312,
			"byteOffset":4984568,
			"target":34962
		},
		{
			"buffer":0,
			"byteLength":20640,
			"byteOffset":5000880,
			"target":34963
		},
		{
			"buffer":0,
			"byteLength":65340,
			"byteOffset":5021520,
			"target":34962
		},
		{
			"buffer":0,
			"byteLength":65340,
			"byteOffset":5086860,
			"target":34962
		},
		{
			"buffer":0,
			"byteLength":43560,
			"byteOffset":5152200,
			"target":34962
		},
		{
			"buffer":0,
			"byteLength":51840,
			"byteOffset":5195760,
			"target":34963
		},
		{
			"buffer":0,
			"byteLength":98952,
			"byteOffset":5247600,
			"target":34962
		},
		{
			"buffer":0,
			"byteLength":98952,
			"byteOffset":5346552,
			"target":34962
		},
		{
			"buffer":0,
			"byteLength":65968,
			"byteOffset":5445504,
			"target":34962
		},
		{
			"buffer":0,
			"byteLength":84960,
			"byteOffset":5511472,
			"target":34963
		},
		{
			"buffer":0,
			"byteLength":125592,
			"byteOffset":5596432,
			"target":34962
		},
		{
			"buffer":0,
			"byteLength":125592,
			"byteOffset":5722024,
			"target":34962
		},
		{
			"buffer":0,
			"byteLength":83728,
			"byteOffset":5847616,
			"target":34962
		},
		{
			"buffer":0,
			"byteLength":113472,
			"byteOffset":5931344,
			"target":34963
		},
		{
			"buffer":0,
			"byteLength":125592,
			"byteOffset":6044816,
			"target":34962
		},
		{
			"buffer":0,
			"byteLength":125592,
			"byteOffset":6170408,
			"target":34962
		},
		{
			"buffer":0,
			"byteLength":83728,
			"byteOffset":6296000,
			"target":34962
		},
		{
			"buffer":0,
			"byteLength":41844,
			"byteOffset":6379728,
			"target":34962
		},
		{
			"buffer":0,
			"byteLength":41844,
			"byteOffset":6421572,
			"target":34962
		},
		{
			"buffer":0,
			"byteLength":27896,
			"byteOffset":6463416,
			"target":34962
		},
		{
			"buffer":0,
			"byteLength":32256,
			"byteOffset":6491312,
			"target":34963
		},
		{
			"buffer":0,
			"byteLength":41628,
			"byteOffset":6523568,
			"target":34962
		},
		{
			"buffer":0,
			"byteLength":41628,
			"byteOffset":6565196,
			"target":34962
		},
		{
			"buffer":0,
			"byteLength":27752,
			"byteOffset":6606824,
			"target":34962
		},
		{
			"buffer":0,
			"byteLength":32256,
			"byteOffset":6634576,
			"target":34963
		},
		{
			"buffer":0,
			"byteLength":66936,
			"byteOffset":6666832,
			"target":34962
		},
		{
			"buffer":0,
			"byteLength":66936,
			"byteOffset":6733768,
			"target":34962
		},
		{
			"buffer":0,
			"byteLength":44624,
			"byteOffset":6800704,
			"target":34962
		},
		{
			"buffer":0,
			"byteLength":52992,
			"byteOffset":6845328,
			"target":34963
		},
		{
			"buffer":0,
			"byteLength":47604,
			"byteOffset":6898320,
			"target":34962
		},
		{
			"buffer":0,
			"byteLength":47604,
			"byteOffset":6945924,
			"target":34962
		},
		{
			"buffer":0,
			"byteLength":31736,
			"byteOffset":6993528,
			"target":34962
		},
		{
			"buffer":0,
			"byteLength":37536,
			"byteOffset":7025264,
			"target":34963
		},
		{
			"buffer":0,
			"byteLength":69228,
			"byteOffset":7062800,
			"target":34962
		},
		{
			"buffer":0,
			"byteLength":69228,
			"byteOffset":7132028,
			"target":34962
		},
		{
			"buffer":0,
			"byteLength":46152,
			"byteOffset":7201256,
			"target":34962
		},
		{
			"buffer":0,
			"byteLength":53856,
			"byteOffset":7247408,
			"target":34963
		},
		{
			"buffer":0,
			"byteLength":69912,
			"byteOffset":7301264,
			"target":34962
		},
		{
			"buffer":0,
			"byteLength":69912,
			"byteOffset":7371176,
			"target":34962
		},
		{
			"buffer":0,
			"byteLength":46608,
			"byteOffset":7441088,
			"target":34962
		},
		{
			"buffer":0,
			"byteLength":53856,
			"byteOffset":7487696,
			"target":34963
		},
		{
			"buffer":0,
			"byteLength":71808,
			"byteOffset":7541552,
			"target":34962
		},
		{
			"buffer":0,
			"byteLength":71808,
			"byteOffset":7613360,
			"target":34962
		},
		{
			"buffer":0,
			"byteLength":47872,
			"byteOffset":7685168,
			"target":34962
		},
		{
			"buffer":0,
			"byteLength":57408,
			"byteOffset":7733040,
			"target":34963
		}
	],
	"samplers":[
		{
			"magFilter":9729,
			"minFilter":9987
		}
	],
	"buffers":[
		{
			"byteLength":7790448,
			"uri":"office.bin"
		}
	]
}
