{
	"asset":{
		"generator":"Khronos glTF Blender I/O v5.2.39",
		"version":"2.0"
	},
	"extensionsUsed":[
		"KHR_materials_transmission",
		"KHR_materials_emissive_strength",
		"KHR_materials_volume"
	],
	"scene":0,
	"scenes":[
		{
			"name":"Scene",
			"nodes":[
				0,
				1,
				2,
				3,
				4,
				5,
				6,
				7,
				8,
				9,
				10,
				11,
				12,
				13,
				14,
				15,
				16,
				17,
				18,
				19,
				20,
				21,
				22,
				23,
				24,
				25,
				26,
				27,
				28,
				29,
				30,
				31,
				32,
				33,
				34,
				35,
				36,
				37,
				38,
				39,
				40,
				41,
				42,
				43,
				44,
				45,
				46,
				47,
				48,
				49,
				50
			]
		}
	],
	"nodes":[
		{
			"mesh":0,
			"name":"Bishop_B1",
			"scale":[
				15.490443229675293,
				15.490443229675293,
				15.490443229675293
			],
			"translation":[
				-1.4536877870559692,
				0.037328679114580154,
				3.339963674545288
			]
		},
		{
			"mesh":0,
			"name":"Bishop_B2",
			"scale":[
				15.490443229675293,
				15.490443229675293,
				15.490443229675293
			],
			"translation":[
				1.389470100402832,
				0.037328679114580154,
				3.347120761871338
			]
		},
		{
			"mesh":1,
			"name":"Bishop_W1",
			"scale":[
				15.490443229675293,
				15.490443229675293,
				15.490443229675293
			],
			"translation":[
				1.4016519784927368,
				0.037328679114580154,
				-3.4250435829162598
			]
		},
		{
			"mesh":1,
			"name":"Bishop_W2",
			"scale":[
				15.490443229675293,
				15.490443229675293,
				15.490443229675293
			],
			"translation":[
				-1.455749273300171,
				0.037328679114580154,
				-3.471421718597412
			]
		},
		{
			"camera":0,
			"name":"Camera",
			"rotation":[
				-0.056692447513341904,
				0.8808363080024719,
				0.10924603790044785,
				0.4571419358253479
			],
			"translation":[
				15.369223594665527,
				5.416311264038086,
				-10.833409309387207
			]
		},
		{
			"mesh":2,
			"name":"Castle_B1",
			"scale":[
				15.490443229675293,
				15.490443229675293,
				15.490443229675293
			],
			"translation":[
				-3.3865716457366943,
				0.0531785786151886,
				3.3478214740753174
			]
		},
		{
			"mesh":2,
			"name":"Castle_B2",
			"scale":[
				15.490443229675293,
				15.490443229675293,
				15.490443229675293
			],
			"translation":[
				3.4110004901885986,
				0.0531785786151886,
				3.3481574058532715
			]
		},
		{
			"mesh":3,
			"name":"Castle_W1",
			"scale":[
				15.490443229675293,
				15.490443229675293,
				15.490443229675293
			],
			"translation":[
				3.406039237976074,
				0.03486199304461479,
				-3.457131862640381
			]
		},
		{
			"mesh":3,
			"name":"Castle_W2",
			"scale":[
				15.490443229675293,
				15.490443229675293,
				15.490443229675293
			],
			"translation":[
				-3.38342547416687,
				0.03920638933777809,
				-3.461972236633301
			]
		},
		{
			"mesh":4,
			"name":"Chessboard",
			"scale":[
				15.490443229675293,
				15.490443229675293,
				15.490443229675293
			],
			"translation":[
				0.0029164389707148075,
				-0.2256961613893509,
				-0.053763940930366516
			]
		},
		{
			"mesh":5,
			"name":"King_B",
			"scale":[
				15.490443229675293,
				15.490443229675293,
				15.490443229675293
			],
			"translation":[
				-0.48383939266204834,
				0.04467210918664932,
				3.355539321899414
			]
		},
		{
			"mesh":6,
			"name":"King_W",
			"scale":[
				15.490443229675293,
				15.490443229675293,
				15.490443229675293
			],
			"translation":[
				-0.4890890121459961,
				0.04467320442199707,
				-3.4659337997436523
			]
		},
		{
			"mesh":7,
			"name":"Knight_B1",
			"scale":[
				15.490443229675293,
				15.490443229675293,
				15.490443229675293
			],
			"translation":[
				-2.425334930419922,
				0.037328679114580154,
				3.354301691055298
			]
		},
		{
			"mesh":7,
			"name":"Knight_B2",
			"scale":[
				15.490443229675293,
				15.490443229675293,
				15.490443229675293
			],
			"translation":[
				2.457946300506592,
				0.037328679114580154,
				3.350142240524292
			]
		},
		{
			"mesh":8,
			"name":"Knight_W1",
			"rotation":[
				0,
				-1,
				0,
				4.371139183945161e-08
			],
			"scale":[
				15.490443229675293,
				15.490443229675293,
				15.490443229675293
			],
			"translation":[
				2.451909065246582,
				0.03733156621456146,
				-3.476888418197632
			]
		},
		{
			"mesh":8,
			"name":"Knight_W2",
			"rotation":[
				0,
				-1,
				0,
				4.371139183945161e-08
			],
			"scale":[
				15.490443229675293,
				15.490443229675293,
				15.490443229675293
			],
			"translation":[
				-2.4236769676208496,
				0.03733156621456146,
				-3.462947130203247
			]
		},
		{
			"mesh":9,
			"name":"Pawn_Body_B1",
			"scale":[
				15.490443229675293,
				15.490443229675293,
				15.490443229675293
			],
			"translation":[
				-3.393084764480591,
				0.005529800429940224,
				2.3687007427215576
			]
		},
		{
			"mesh":9,
			"name":"Pawn_Body_B2",
			"scale":[
				15.490443229675293,
				15.490443229675293,
				15.490443229675293
			],
			"translation":[
				-2.425011396408081,
				0.005529800429940224,
				2.3654191493988037
			]
		},
		{
			"mesh":9,
			"name":"Pawn_Body_B3",
			"scale":[
				15.490443229675293,
				15.490443229675293,
				15.490443229675293
			],
			"translation":[
				-1.450374722480774,
				0.005529800429940224,
				2.3670601844787598
			]
		},
		{
			"mesh":9,
			"name":"Pawn_Body_B4",
			"scale":[
				15.490443229675293,
				15.490443229675293,
				15.490443229675293
			],
			"translation":[
				-0.4823015630245209,
				0.005529800429940224,
				1.3957048654556274
			]
		},
		{
			"mesh":9,
			"name":"Pawn_Body_B5",
			"scale":[
				15.490443229675293,
				15.490443229675293,
				15.490443229675293
			],
			"translation":[
				0.4869203269481659,
				0.005529800429940224,
				2.36804461479187
			]
		},
		{
			"mesh":9,
			"name":"Pawn_Body_B6",
			"scale":[
				15.490443229675293,
				15.490443229675293,
				15.490443229675293
			],
			"translation":[
				1.4561423063278198,
				0.005529800429940224,
				2.3642706871032715
			]
		},
		{
			"mesh":9,
			"name":"Pawn_Body_B7",
			"scale":[
				15.490443229675293,
				15.490443229675293,
				15.490443229675293
			],
			"translation":[
				2.4212629795074463,
				0.005529800429940224,
				2.366731882095337
			]
		},
		{
			"mesh":9,
			"name":"Pawn_Body_B8",
			"scale":[
				15.490443229675293,
				15.490443229675293,
				15.490443229675293
			],
			"translation":[
				3.3916327953338623,
				0.005529800429940224,
				2.3672239780426025
			]
		},
		{
			"mesh":10,
			"name":"Pawn_Body_W1",
			"scale":[
				15.490443229675293,
				15.490443229675293,
				15.490443229675293
			],
			"translation":[
				3.3869473934173584,
				0.005529684945940971,
				-2.470120668411255
			]
		},
		{
			"mesh":10,
			"name":"Pawn_Body_W2",
			"scale":[
				15.490443229675293,
				15.490443229675293,
				15.490443229675293
			],
			"translation":[
				2.4245829582214355,
				0.005529684945940971,
				-2.4716641902923584
			]
		},
		{
			"mesh":10,
			"name":"Pawn_Body_W3",
			"scale":[
				15.490443229675293,
				15.490443229675293,
				15.490443229675293
			],
			"translation":[
				1.4525632858276367,
				0.005529684945940971,
				-1.5121749639511108
			]
		},
		{
			"mesh":10,
			"name":"Pawn_Body_W4",
			"scale":[
				15.490443229675293,
				15.490443229675293,
				15.490443229675293
			],
			"translation":[
				0.48699280619621277,
				0.005529684945940971,
				-0.5378401875495911
			]
		},
		{
			"mesh":10,
			"name":"Pawn_Body_W5",
			"scale":[
				15.490443229675293,
				15.490443229675293,
				15.490443229675293
			],
			"translation":[
				-0.4799160063266754,
				0.005529684945940971,
				-2.4768736362457275
			]
		},
		{
			"mesh":10,
			"name":"Pawn_Body_W6",
			"scale":[
				15.490443229675293,
				15.490443229675293,
				15.490443229675293
			],
			"translation":[
				-1.4499398469924927,
				0.005529684945940971,
				-2.474043846130371
			]
		},
		{
			"mesh":10,
			"name":"Pawn_Body_W7",
			"scale":[
				15.490443229675293,
				15.490443229675293,
				15.490443229675293
			],
			"translation":[
				-2.4201436042785645,
				0.0055297426879405975,
				-2.4768052101135254
			]
		},
		{
			"mesh":10,
			"name":"Pawn_Body_W8",
			"scale":[
				15.490443229675293,
				15.490443229675293,
				15.490443229675293
			],
			"translation":[
				-3.393084764480591,
				0.005529800429940224,
				-2.474853038787842
			]
		},
		{
			"mesh":11,
			"name":"Pawn_Top_W8",
			"scale":[
				15.490443229675293,
				15.490443229675293,
				15.490443229675293
			],
			"translation":[
				-3.8771610260009766,
				-0.22569604218006134,
				-1.9907766580581665
			]
		},
		{
			"mesh":12,
			"name":"Plane",
			"scale":[
				1.5081138610839844,
				1.5081138610839844,
				1.5081138610839844
			],
			"translation":[
				0.61551833152771,
				5.601197719573975,
				-2.5158870220184326
			]
		},
		{
			"mesh":13,
			"name":"Queen_B",
			"scale":[
				15.490443229675293,
				15.490443229675293,
				15.490443229675293
			],
			"translation":[
				0.4789564907550812,
				0.04729803651571274,
				3.3516504764556885
			]
		},
		{
			"mesh":14,
			"name":"Queen_W",
			"scale":[
				15.490443229675293,
				15.490443229675293,
				15.490443229675293
			],
			"translation":[
				0.48165738582611084,
				0.03550867736339569,
				-3.4659337997436523
			]
		},
		{
			"mesh":15,
			"name":"Pawn_Top_B1",
			"scale":[
				15.490443229675293,
				15.490443229675293,
				15.490443229675293
			],
			"translation":[
				-3.8771610260009766,
				-0.22569604218006134,
				2.8527770042419434
			]
		},
		{
			"mesh":15,
			"name":"Pawn_Top_B2",
			"scale":[
				15.490443229675293,
				15.490443229675293,
				15.490443229675293
			],
			"translation":[
				-2.909087657928467,
				-0.22569604218006134,
				2.8494954109191895
			]
		},
		{
			"mesh":15,
			"name":"Pawn_Top_B3",
			"scale":[
				15.490443229675293,
				15.490443229675293,
				15.490443229675293
			],
			"translation":[
				-1.9344511032104492,
				-0.22569604218006134,
				2.8511364459991455
			]
		},
		{
			"mesh":15,
			"name":"Pawn_Top_B4",
			"scale":[
				15.490443229675293,
				15.490443229675293,
				15.490443229675293
			],
			"translation":[
				-0.9663779139518738,
				-0.22569604218006134,
				1.8797812461853027
			]
		},
		{
			"mesh":15,
			"name":"Pawn_Top_B5",
			"scale":[
				15.490443229675293,
				15.490443229675293,
				15.490443229675293
			],
			"translation":[
				0.002844005823135376,
				-0.22569604218006134,
				2.852120876312256
			]
		},
		{
			"mesh":15,
			"name":"Pawn_Top_B6",
			"scale":[
				15.490443229675293,
				15.490443229675293,
				15.490443229675293
			],
			"translation":[
				0.9720659255981445,
				-0.22569604218006134,
				2.8483469486236572
			]
		},
		{
			"mesh":15,
			"name":"Pawn_Top_B7",
			"scale":[
				15.490443229675293,
				15.490443229675293,
				15.490443229675293
			],
			"translation":[
				1.937186598777771,
				-0.22569604218006134,
				2.8508081436157227
			]
		},
		{
			"mesh":15,
			"name":"Pawn_Top_B8",
			"scale":[
				15.490443229675293,
				15.490443229675293,
				15.490443229675293
			],
			"translation":[
				2.9075565338134766,
				-0.22569604218006134,
				2.8513002395629883
			]
		},
		{
			"mesh":11,
			"name":"Pawn_Top_W1",
			"scale":[
				15.490443229675293,
				15.490443229675293,
				15.490443229675293
			],
			"translation":[
				2.9028711318969727,
				-0.2256961613893509,
				-1.9860442876815796
			]
		},
		{
			"mesh":11,
			"name":"Pawn_Top_W2",
			"scale":[
				15.490443229675293,
				15.490443229675293,
				15.490443229675293
			],
			"translation":[
				1.9405065774917603,
				-0.2256961613893509,
				-1.987587809562683
			]
		},
		{
			"mesh":11,
			"name":"Pawn_Top_W3",
			"scale":[
				15.490443229675293,
				15.490443229675293,
				15.490443229675293
			],
			"translation":[
				0.9684869050979614,
				-0.2256961613893509,
				-1.0280985832214355
			]
		},
		{
			"mesh":11,
			"name":"Pawn_Top_W4",
			"scale":[
				15.490443229675293,
				15.490443229675293,
				15.490443229675293
			],
			"translation":[
				0.002916485071182251,
				-0.2256961613893509,
				-0.05376386642456055
			]
		},
		{
			"mesh":11,
			"name":"Pawn_Top_W5",
			"scale":[
				15.490443229675293,
				15.490443229675293,
				15.490443229675293
			],
			"translation":[
				-0.9639923572540283,
				-0.2256961613893509,
				-1.9927972555160522
			]
		},
		{
			"mesh":11,
			"name":"Pawn_Top_W6",
			"scale":[
				15.490443229675293,
				15.490443229675293,
				15.490443229675293
			],
			"translation":[
				-1.934016227722168,
				-0.2256961613893509,
				-1.9899674654006958
			]
		},
		{
			"mesh":11,
			"name":"Pawn_Top_W7",
			"scale":[
				15.490443229675293,
				15.490443229675293,
				15.490443229675293
			],
			"translation":[
				-2.90421986579895,
				-0.22569610178470612,
				-1.99272882938385
			]
		}
	],
	"cameras":[
		{
			"name":"Camera",
			"perspective":{
				"aspectRatio":1.7777777777777777,
				"yfov":0.39959652046304894,
				"zfar":100,
				"znear":0.10000000149011612
			},
			"type":"perspective"
		}
	],
	"materials":[
		{
			"name":"Bishop_Black",
			"normalTexture":{
				"index":0
			},
			"occlusionTexture":{
				"index":1
			},
			"pbrMetallicRoughness":{
				"baseColorTexture":{
					"index":2
				},
				"metallicRoughnessTexture":{
					"index":1
				}
			}
		},
		{
			"name":"Bishop_White",
			"normalTexture":{
				"index":3
			},
			"occlusionTexture":{
				"index":4
			},
			"pbrMetallicRoughness":{
				"baseColorTexture":{
					"index":5
				},
				"metallicRoughnessTexture":{
					"index":4
				}
			}
		},
		{
			"name":"Castle_Black",
			"normalTexture":{
				"index":6
			},
			"occlusionTexture":{
				"index":7
			},
			"pbrMetallicRoughness":{
				"baseColorTexture":{
					"index":8
				},
				"metallicRoughnessTexture":{
					"index":7
				}
			}
		},
		{
			"name":"Castle_White",
			"normalTexture":{
				"index":9
			},
			"occlusionTexture":{
				"index":10
			},
			"pbrMetallicRoughness":{
				"baseColorTexture":{
					"index":11
				},
				"metallicRoughnessTexture":{
					"index":10
				}
			}
		},
		{
			"name":"Chessboard",
			"normalTexture":{
				"index":12
			},
			"occlusionTexture":{
				"index":13
			},
			"pbrMetallicRoughness":{
				"baseColorTexture":{
					"index":14
				},
				"metallicRoughnessTexture":{
					"index":13
				}
			}
		},
		{
			"name":"King_Black",
			"normalTexture":{
				"index":15
			},
			"occlusionTexture":{
				"index":16
			},
			"pbrMetallicRoughness":{
				"baseColorTexture":{
					"index":17
				},
				"metallicRoughnessTexture":{
					"index":16
				}
			}
		},
		{
			"name":"King_White",
			"normalTexture":{
				"index":18
			},
			"occlusionTexture":{
				"index":19
			},
			"pbrMetallicRoughness":{
				"baseColorTexture":{
					"index":20
				},
				"metallicRoughnessTexture":{
					"index":19
				}
			}
		},
		{
			"name":"Knight_Black",
			"normalTexture":{
				"index":21
			},
			"occlusionTexture":{
				"index":22
			},
			"pbrMetallicRoughness":{
				"baseColorTexture":{
					"index":23
				},
				"metallicRoughnessTexture":{
					"index":22
				}
			}
		},
		{
			"name":"Knight_White",
			"normalTexture":{
				"index":24
			},
			"occlusionTexture":{
				"index":25
			},
			"pbrMetallicRoughness":{
				"baseColorTexture":{
					"index":26
				},
				"metallicRoughnessTexture":{
					"index":25
				}
			}
		},
		{
			"name":"Pawn_Body_Black",
			"normalTexture":{
				"index":27
			},
			"occlusionTexture":{
				"index":28
			},
			"pbrMetallicRoughness":{
				"baseColorTexture":{
					"index":29
				},
				"metallicRoughnessTexture":{
					"index":28
				}
			}
		},
		{
			"name":"Pawn_Body_White",
			"normalTexture":{
				"index":30
			},
			"occlusionTexture":{
				"index":31
			},
			"pbrMetallicRoughness":{
				"baseColorTexture":{
					"index":32
				},
				"metallicRoughnessTexture":{
					"index":31
				}
			}
		},
		{
			"doubleSided":false,
			"extensions":{
				"KHR_materials_transmission":{
					"transmissionFactor":1
				},
				"KHR_materials_volume":{
					"attenuationColor":[
						0.800000011920929,
						0.800000011920929,
						0.800000011920929
					],
					"thicknessFactor":0.2199999988079071
				}
			},
			"name":"Pawn_Top_White",
			"normalTexture":{
				"index":33
			},
			"pbrMetallicRoughness":{
				"baseColorFactor":[
					1,
					1,
					0.828000009059906,
					1
				],
				"metallicRoughnessTexture":{
					"index":34
				}
			}
		},
		{
			"doubleSided":true,
			"emissiveFactor":[
				1,
				1,
				1
			],
			"extensions":{
				"KHR_materials_emissive_strength":{
					"emissiveStrength":34.39999771118164
				}
			},
			"name":"Material.001",
			"pbrMetallicRoughness":{
				"baseColorFactor":[
					0.800000011920929,
					0.800000011920929,
					0.800000011920929,
					1
				],
				"metallicFactor":0,
				"roughnessFactor":0.5
			}
		},
		{
			"name":"Queen_Black",
			"normalTexture":{
				"index":35
			},
			"occlusionTexture":{
				"index":36
			},
			"pbrMetallicRoughness":{
				"baseColorTexture":{
					"index":37
				},
				"metallicRoughnessTexture":{
					"index":36
				}
			}
		},
		{
			"name":"Queen_White",
			"normalTexture":{
				"index":38
			},
			"occlusionTexture":{
				"index":39
			},
			"pbrMetallicRoughness":{
				"baseColorTexture":{
					"index":40
				},
				"metallicRoughnessTexture":{
					"index":39
				}
			}
		},
		{
			"doubleSided":false,
			"extensions":{
				"KHR_materials_transmission":{
					"transmissionFactor":1
				},
				"KHR_materials_volume":{
					"attenuationColor":[
						0.800000011920929,
						0.800000011920929,
						0.800000011920929
					],
					"thicknessFactor":0.2199999988079071
				}
			},
			"name":"Pawn_Top_Black",
			"normalTexture":{
				"index":41
			},
			"pbrMetallicRoughness":{
				"baseColorFactor":[
					0.2994999885559082,
					0.5,
					0.44999998807907104,
					1
				],
				"metallicRoughnessTexture":{
					"index":42
				}
			}
		}
	],
	"meshes":[
		{
			"name":"Bishop_Shared",
			"primitives":[
				{
					"attributes":{
						"POSITION":0,
						"NORMAL":1,
						"TEXCOORD_0":2
					},
					"indices":3,
					"material":0
				}
			]
		},
		{
			"name":"Bishop_Shared.001",
			"primitives":[
				{
					"attributes":{
						"POSITION":4,
						"NORMAL":5,
						"TEXCOORD_0":6
					},
					"indices":3,
					"material":1
				}
			]
		},
		{
			"name":"Castle_Shared",
			"primitives":[
				{
					"attributes":{
						"POSITION":7,
						"NORMAL":8,
						"TEXCOORD_0":9
					},
					"indices":10,
					"material":2
				}
			]
		},
		{
			"name":"Castle_Shared.001",
			"primitives":[
				{
					"attributes":{
						"POSITION":11,
						"NORMAL":12,
						"TEXCOORD_0":13
					},
					"indices":10,
					"material":3
				}
			]
		},
		{
			"name":"Chessboard",
			"primitives":[
				{
					"attributes":{
						"POSITION":14,
						"NORMAL":15,
						"TEXCOORD_0":16
					},
					"indices":17,
					"material":4
				}
			]
		},
		{
			"name":"King_Shared",
			"primitives":[
				{
					"attributes":{
						"POSITION":18,
						"NORMAL":19,
						"TEXCOORD_0":20
					},
					"indices":21,
					"material":5
				}
			]
		},
		{
			"name":"King_Shared.001",
			"primitives":[
				{
					"attributes":{
						"POSITION":22,
						"NORMAL":23,
						"TEXCOORD_0":24
					},
					"indices":21,
					"material":6
				}
			]
		},
		{
			"name":"Knight_Shared",
			"primitives":[
				{
					"attributes":{
						"POSITION":25,
						"NORMAL":26,
						"TEXCOORD_0":27
					},
					"indices":28,
					"material":7
				}
			]
		},
		{
			"name":"Knight_Shared.001",
			"primitives":[
				{
					"attributes":{
						"POSITION":29,
						"NORMAL":30,
						"TEXCOORD_0":31
					},
					"indices":28,
					"material":8
				}
			]
		},
		{
			"name":"Pawn_Body_Shared.001",
			"primitives":[
				{
					"attributes":{
						"POSITION":32,
						"NORMAL":33,
						"TEXCOORD_0":34
					},
					"indices":35,
					"material":9
				}
			]
		},
		{
			"name":"Pawn_Body_Shared",
			"primitives":[
				{
					"attributes":{
						"POSITION":36,
						"NORMAL":37,
						"TEXCOORD_0":38
					},
					"indices":35,
					"material":10
				}
			]
		},
		{
			"name":"Pawn_Top_Shared",
			"primitives":[
				{
					"attributes":{
						"POSITION":39,
						"NORMAL":40,
						"TEXCOORD_0":41
					},
					"indices":42,
					"material":11
				}
			]
		},
		{
			"name":"Plane",
			"primitives":[
				{
					"attributes":{
						"POSITION":43,
						"NORMAL":44,
						"TEXCOORD_0":45
					},
					"indices":46,
					"material":12
				}
			]
		},
		{
			"name":"Queen_Shared",
			"primitives":[
				{
					"attributes":{
						"POSITION":47,
						"NORMAL":48,
						"TEXCOORD_0":49
					},
					"indices":50,
					"material":13
				}
			]
		},
		{
			"name":"Queen_Shared.001",
			"primitives":[
				{
					"attributes":{
						"POSITION":51,
						"NORMAL":52,
						"TEXCOORD_0":53
					},
					"indices":50,
					"material":14
				}
			]
		},
		{
			"name":"Pawn_Top_Shared.001",
			"primitives":[
				{
					"attributes":{
						"POSITION":54,
						"NORMAL":55,
						"TEXCOORD_0":56
					},
					"indices":42,
					"material":15
				}
			]
		}
	],
	"textures":[
		{
			"sampler":0,
			"source":0
		},
		{
			"sampler":0,
			"source":1
		},
		{
			"sampler":0,
			"source":2
		},
		{
			"sampler":0,
			"source":3
		},
		{
			"sampler":0,
			"source":4
		},
		{
			"sampler":0,
			"source":5
		},
		{
			"sampler":0,
			"source":6
		},
		{
			"sampler":0,
			"source":7
		},
		{
			"sampler":0,
			"source":8
		},
		{
			"sampler":0,
			"source":6
		},
		{
			"sampler":0,
			"source":7
		},
		{
			"sampler":0,
			"source":9
		},
		{
			"sampler":0,
			"source":10
		},
		{
			"sampler":0,
			"source":11
		},
		{
			"sampler":0,
			"source":12
		},
		{
			"sampler":0,
			"source":13
		},
		{
			"sampler":0,
			"source":14
		},
		{
			"sampler":0,
			"source":15
		},
		{
			"sampler":0,
			"source":16
		},
		{
			"sampler":0,
			"source":17
		},
		{
			"sampler":0,
			"source":18
		},
		{
			"sampler":0,
			"source":19
		},
		{
			"sampler":0,
			"source":20
		},
		{
			"sampler":0,
			"source":21
		},
		{
			"sampler":0,
			"source":19
		},
		{
			"sampler":0,
			"source":20
		},
		{
			"sampler":0,
			"source":22
		},
		{
			"sampler":0,
			"source":23
		},
		{
			"sampler":0,
			"source":24
		},
		{
			"sampler":0,
			"source":25
		},
		{
			"sampler":0,
			"source":23
		},
		{
			"sampler":0,
			"source":24
		},
		{
			"sampler":0,
			"source":26
		},
		{
			"sampler":0,
			"source":23
		},
		{
			"sampler":0,
			"source":24
		},
		{
			"sampler":0,
			"source":27
		},
		{
			"sampler":0,
			"source":28
		},
		{
			"sampler":0,
			"source":29
		},
		{
			"sampler":0,
			"source":30
		},
		{
			"sampler":0,
			"source":31
		},
		{
			"sampler":0,
			"source":32
		},
		{
			"sampler":0,
			"source":23
		},
		{
			"sampler":0,
			"source":24
		}
	],
	"images":[
		{
			"mimeType":"image/jpeg",
			"name":"Image_4",
			"uri":"Image_4.jpg"
		},
		{
			"mimeType":"image/jpeg",
			"name":"Image_5",
			"uri":"Image_5.jpg"
		},
		{
			"mimeType":"image/jpeg",
			"name":"Image_3",
			"uri":"Image_3.jpg"
		},
		{
			"mimeType":"image/jpeg",
			"name":"Image_1",
			"uri":"Image_1.jpg"
		},
		{
			"mimeType":"image/jpeg",
			"name":"Image_2",
			"uri":"Image_2.jpg"
		},
		{
			"mimeType":"image/jpeg",
			"name":"Image_0",
			"uri":"Image_0.jpg"
		},
		{
			"mimeType":"image/jpeg",
			"name":"Image_26",
			"uri":"Image_26.jpg"
		},
		{
			"mimeType":"image/jpeg",
			"name":"Image_27",
			"uri":"Image_27.jpg"
		},
		{
			"mimeType":"image/jpeg",
			"name":"Image_25",
			"uri":"Image_25.jpg"
		},
		{
			"mimeType":"image/jpeg",
			"name":"Image_28",
			"uri":"Image_28.jpg"
		},
		{
			"mimeType":"image/jpeg",
			"name":"Image_19",
			"uri":"Image_19.jpg"
		},
		{
			"mimeType":"image/jpeg",
			"name":"Image_20",
			"uri":"Image_20.jpg"
		},
		{
			"mimeType":"image/jpeg",
			"name":"Image_18",
			"uri":"Image_18.jpg"
		},
		{
			"mimeType":"image/jpeg",
			"name":"Image_7",
			"uri":"Image_7.jpg"
		},
		{
			"mimeType":"image/jpeg",
			"name":"Image_8",
			"uri":"Image_8.jpg"
		},
		{
			"mimeType":"image/jpeg",
			"name":"Image_6",
			"uri":"Image_6.jpg"
		},
		{
			"mimeType":"image/jpeg",
			"name":"Image_10",
			"uri":"Image_10.jpg"
		},
		{
			"mimeType":"image/jpeg",
			"name":"Image_11",
			"uri":"Image_11.jpg"
		},
		{
			"mimeType":"image/jpeg",
			"name":"Image_9",
			"uri":"Image_9.jpg"
		},
		{
			"mimeType":"image/jpeg",
			"name":"Image_30",
			"uri":"Image_30.jpg"
		},
		{
			"mimeType":"image/jpeg",
			"name":"Image_31",
			"uri":"Image_31.jpg"
		},
		{
			"mimeType":"image/jpeg",
			"name":"Image_29",
			"uri":"Image_29.jpg"
		},
		{
			"mimeType":"image/jpeg",
			"name":"Image_32",
			"uri":"Image_32.jpg"
		},
		{
			"mimeType":"image/jpeg",
			"name":"Image_21",
			"uri":"Image_21.jpg"
		},
		{
			"mimeType":"image/jpeg",
			"name":"Image_22",
			"uri":"Image_22.jpg"
		},
		{
			"mimeType":"image/jpeg",
			"name":"Image_24",
			"uri":"Image_24.jpg"
		},
		{
			"mimeType":"image/jpeg",
			"name":"Image_23",
			"uri":"Image_23.jpg"
		},
		{
			"mimeType":"image/jpeg",
			"name":"Image_13",
			"uri":"Image_13.jpg"
		},
		{
			"mimeType":"image/jpeg",
			"name":"Image_14",
			"uri":"Image_14.jpg"
		},
		{
			"mimeType":"image/jpeg",
			"name":"Image_12",
			"uri":"Image_12.jpg"
		},
		{
			"mimeType":"image/jpeg",
			"name":"Image_16",
			"uri":"Image_16.jpg"
		},
		{
			"mimeType":"image/jpeg",
			"name":"Image_17",
			"uri":"Image_17.jpg"
		},
		{
			"mimeType":"image/jpeg",
			"name":"Image_15",
			"uri":"Image_15.jpg"
		}
	],
	"accessors":[
		{
			"bufferView":0,
			"componentType":5126,
			"count":42578,
			"max":[
				0.024297118186950684,
				0.12363776564598083,
				0.024310514330863953
			],
			"min":[
				-0.024297118186950684,
				-0.00039617158472537994,
				-0.024283722043037415
			],
			"type":"VEC3"
		},
		{
			"bufferView":1,
			"componentType":5126,
			"count":42578,
			"type":"VEC3"
		},
		{
			"bufferView":2,
			"componentType":5126,
			"count":42578,
			"type":"VEC2"
		},
		{
			"bufferView":3,
			"componentType":5123,
			"count":224121,
			"type":"SCALAR"
		},
		{
			"bufferView":4,
			"componentType":5126,
			"count":42578,
			"max":[
				0.024297118186950684,
				0.12363776564598083,
				0.024310514330863953
			],
			"min":[
				-0.024297118186950684,
				-0.00039617158472537994,
				-0.024283722043037415
			],
			"type":"VEC3"
		},
		{
			"bufferView":5,
			"componentType":5126,
			"count":42578,
			"type":"VEC3"
		},
		{
			"bufferView":6,
			"componentType":5126,
			"count":42578,
			"type":"VEC2"
		},
		{
			"bufferView":7,
			"componentType":5126,
			"count":25268,
			"max":[
				0.0268431156873703,
				0.09708680957555771,
				0.0268431156873703
			],
			"min":[
				-0.0268431156873703,
				-3.725290298461914e-09,
				-0.0268431156873703
			],
			"type":"VEC3"
		},
		{
			"bufferView":8,
			"componentType":5126,
			"count":25268,
			"type":"VEC3"
		},
		{
			"bufferView":9,
			"componentType":5126,
			"count":25268,
			"type":"VEC2"
		},
		{
			"bufferView":10,
			"componentType":5123,
			"count":91584,
			"type":"SCALAR"
		},
		{
			"bufferView":11,
			"componentType":5126,
			"count":25268,
			"max":[
				0.0268431156873703,
				0.09708680957555771,
				0.0268431156873703
			],
			"min":[
				-0.0268431156873703,
				-3.725290298461914e-09,
				-0.0268431156873703
			],
			"type":"VEC3"
		},
		{
			"bufferView":12,
			"componentType":5126,
			"count":25268,
			"type":"VEC3"
		},
		{
			"bufferView":13,
			"componentType":5126,
			"count":25268,
			"type":"VEC2"
		},
		{
			"bufferView":14,
			"componentType":5126,
			"count":115648,
			"max":[
				0.3527080714702606,
				0.01851509138941765,
				0.3527080714702606
			],
			"min":[
				-0.3527080714702606,
				-5.566945304735782e-08,
				-0.3527080714702606
			],
			"type":"VEC3"
		},
		{
			"bufferView":15,
			"componentType":5126,
			"count":115648,
			"type":"VEC3"
		},
		{
			"bufferView":16,
			"componentType":5126,
			"count":115648,
			"type":"VEC2"
		},
		{
			"bufferView":17,
			"componentType":5125,
			"count":277248,
			"type":"SCALAR"
		},
		{
			"bufferView":18,
			"componentType":5126,
			"count":29406,
			"max":[
				0.028035586699843407,
				0.15154190361499786,
				0.02803558111190796
			],
			"min":[
				-0.028035584837198257,
				-3.725290298461914e-09,
				-0.02803558111190796
			],
			"type":"VEC3"
		},
		{
			"bufferView":19,
			"componentType":5126,
			"count":29406,
			"type":"VEC3"
		},
		{
			"bufferView":20,
			"componentType":5126,
			"count":29406,
			"type":"VEC2"
		},
		{
			"bufferView":21,
			"componentType":5123,
			"count":121440,
			"type":"SCALAR"
		},
		{
			"bufferView":22,
			"componentType":5126,
			"count":29406,
			"max":[
				0.028035586699843407,
				0.15154190361499786,
				0.02803558111190796
			],
			"min":[
				-0.028035584837198257,
				-3.725290298461914e-09,
				-0.02803558111190796
			],
			"type":"VEC3"
		},
		{
			"bufferView":23,
			"componentType":5126,
			"count":29406,
			"type":"VEC3"
		},
		{
			"bufferView":24,
			"componentType":5126,
			"count":29406,
			"type":"VEC2"
		},
		{
			"bufferView":25,
			"componentType":5126,
			"count":6437,
			"max":[
				0.024992674589157104,
				0.09972551465034485,
				0.028097912669181824
			],
			"min":[
				-0.024992674589157104,
				-0.00039299391210079193,
				-0.032059311866760254
			],
			"type":"VEC3"
		},
		{
			"bufferView":26,
			"componentType":5126,
			"count":6437,
			"type":"VEC3"
		},
		{
			"bufferView":27,
			"componentType":5126,
			"count":6437,
			"type":"VEC2"
		},
		{
			"bufferView":28,
			"componentType":5123,
			"count":33552,
			"type":"SCALAR"
		},
		{
			"bufferView":29,
			"componentType":5126,
			"count":6437,
			"max":[
				0.024992674589157104,
				0.09972551465034485,
				0.028097912669181824
			],
			"min":[
				-0.024992674589157104,
				-0.00039299391210079193,
				-0.032059311866760254
			],
			"type":"VEC3"
		},
		{
			"bufferView":30,
			"componentType":5126,
			"count":6437,
			"type":"VEC3"
		},
		{
			"bufferView":31,
			"componentType":5126,
			"count":6437,
			"type":"VEC2"
		},
		{
			"bufferView":32,
			"componentType":5126,
			"count":26303,
			"max":[
				0.021040337160229683,
				0.04976364225149155,
				0.021040335297584534
			],
			"min":[
				-0.021040331572294235,
				0,
				-0.021040333434939384
			],
			"type":"VEC3"
		},
		{
			"bufferView":33,
			"componentType":5126,
			"count":26303,
			"type":"VEC3"
		},
		{
			"bufferView":34,
			"componentType":5126,
			"count":26303,
			"type":"VEC2"
		},
		{
			"bufferView":35,
			"componentType":5123,
			"count":141696,
			"type":"SCALAR"
		},
		{
			"bufferView":36,
			"componentType":5126,
			"count":26303,
			"max":[
				0.021040337160229683,
				0.04976364225149155,
				0.021040335297584534
			],
			"min":[
				-0.021040331572294235,
				0,
				-0.021040333434939384
			],
			"type":"VEC3"
		},
		{
			"bufferView":37,
			"componentType":5126,
			"count":26303,
			"type":"VEC3"
		},
		{
			"bufferView":38,
			"componentType":5126,
			"count":26303,
			"type":"VEC2"
		},
		{
			"bufferView":39,
			"componentType":5126,
			"count":1173,
			"max":[
				0.04213219881057739,
				0.08137139678001404,
				-0.020367786288261414
			],
			"min":[
				0.02036779560148716,
				0.0592837817966938,
				-0.042132191359996796
			],
			"type":"VEC3"
		},
		{
			"bufferView":40,
			"componentType":5126,
			"count":1173,
			"type":"VEC3"
		},
		{
			"bufferView":41,
			"componentType":5126,
			"count":1173,
			"type":"VEC2"
		},
		{
			"bufferView":42,
			"componentType":5123,
			"count":6624,
			"type":"SCALAR"
		},
		{
			"bufferView":43,
			"componentType":5126,
			"count":4,
			"max":[
				1,
				0,
				1
			],
			"min":[
				-1,
				0,
				-1
			],
			"type":"VEC3"
		},
		{
			"bufferView":44,
			"componentType":5126,
			"count":4,
			"type":"VEC3"
		},
		{
			"bufferView":45,
			"componentType":5126,
			"count":4,
			"type":"VEC2"
		},
		{
			"bufferView":46,
			"componentType":5123,
			"count":6,
			"type":"SCALAR"
		},
		{
			"bufferView":47,
			"componentType":5126,
			"count":20990,
			"max":[
				0.026661992073059082,
				0.1361335813999176,
				0.026661992073059082
			],
			"min":[
				-0.026661990210413933,
				0,
				-0.026661992073059082
			],
			"type":"VEC3"
		},
		{
			"bufferView":48,
			"componentType":5126,
			"count":20990,
			"type":"VEC3"
		},
		{
			"bufferView":49,
			"componentType":5126,
			"count":20990,
			"type":"VEC2"
		},
		{
			"bufferView":50,
			"componentType":5123,
			"count":103104,
			"type":"SCALAR"
		},
		{
			"bufferView":51,
			"componentType":5126,
			"count":20990,
			"max":[
				0.026661992073059082,
				0.1361335813999176,
				0.026661992073059082
			],
			"min":[
				-0.026661990210413933,
				0,
				-0.026661992073059082
			],
			"type":"VEC3"
		},
		{
			"bufferView":52,
			"componentType":5126,
			"count":20990,
			"type":"VEC3"
		},
		{
			"bufferView":53,
			"componentType":5126,
			"count":20990,
			"type":"VEC2"
		},
		{
			"bufferView":54,
			"componentType":5126,
			"count":1173,
			"max":[
				0.04213219881057739,
				0.08137139678001404,
				-0.020367786288261414
			],
			"min":[
				0.02036779560148716,
				0.0592837817966938,
				-0.042132191359996796
			],
			"type":"VEC3"
		},
		{
			"bufferView":55,
			"componentType":5126,
			"count":1173,
			"type":"VEC3"
		},
		{
			"bufferView":56,
			"componentType":5126,
			"count":1173,
			"type":"VEC2"
		}
	],
	"bufferViews":[
		{
			"buffer":0,
			"byteLength":510936,
			"byteOffset":0,
			"target":34962
		},
		{
			"buffer":0,
			"byteLength":510936,
			"byteOffset":510936,
			"target":34962
		},
		{
			"buffer":0,
			"byteLength":340624,
			"byteOffset":1021872,
			"target":34962
		},
		{
			"buffer":0,
			"byteLength":448242,
			"byteOffset":1362496,
			"target":34963
		},
		{
			"buffer":0,
			"byteLength":510936,
			"byteOffset":1810740,
			"target":34962
		},
		{
			"buffer":0,
			"byteLength":510936,
			"byteOffset":2321676,
			"target":34962
		},
		{
			"buffer":0,
			"byteLength":340624,
			"byteOffset":2832612,
			"target":34962
		},
		{
			"buffer":0,
			"byteLength":303216,
			"byteOffset":3173236,
			"target":34962
		},
		{
			"buffer":0,
			"byteLength":303216,
			"byteOffset":3476452,
			"target":34962
		},
		{
			"buffer":0,
			"byteLength":202144,
			"byteOffset":3779668,
			"target":34962
		},
		{
			"buffer":0,
			"byteLength":183168,
			"byteOffset":3981812,
			"target":34963
		},
		{
			"buffer":0,
			"byteLength":303216,
			"byteOffset":4164980,
			"target":34962
		},
		{
			"buffer":0,
			"byteLength":303216,
			"byteOffset":4468196,
			"target":34962
		},
		{
			"buffer":0,
			"byteLength":202144,
			"byteOffset":4771412,
			"target":34962
		},
		{
			"buffer":0,
			"byteLength":1387776,
			"byteOffset":4973556,
			"target":34962
		},
		{
			"buffer":0,
			"byteLength":1387776,
			"byteOffset":6361332,
			"target":34962
		},
		{
			"buffer":0,
			"byteLength":925184,
			"byteOffset":7749108,
			"target":34962
		},
		{
			"buffer":0,
			"byteLength":1108992,
			"byteOffset":8674292,
			"target":34963
		},
		{
			"buffer":0,
			"byteLength":352872,
			"byteOffset":9783284,
			"target":34962
		},
		{
			"buffer":0,
			"byteLength":352872,
			"byteOffset":10136156,
			"target":34962
		},
		{
			"buffer":0,
			"byteLength":235248,
			"byteOffset":10489028,
			"target":34962
		},
		{
			"buffer":0,
			"byteLength":242880,
			"byteOffset":10724276,
			"target":34963
		},
		{
			"buffer":0,
			"byteLength":352872,
			"byteOffset":10967156,
			"target":34962
		},
		{
			"buffer":0,
			"byteLength":352872,
			"byteOffset":11320028,
			"target":34962
		},
		{
			"buffer":0,
			"byteLength":235248,
			"byteOffset":11672900,
			"target":34962
		},
		{
			"buffer":0,
			"byteLength":77244,
			"byteOffset":11908148,
			"target":34962
		},
		{
			"buffer":0,
			"byteLength":77244,
			"byteOffset":11985392,
			"target":34962
		},
		{
			"buffer":0,
			"byteLength":51496,
			"byteOffset":12062636,
			"target":34962
		},
		{
			"buffer":0,
			"byteLength":67104,
			"byteOffset":12114132,
			"target":34963
		},
		{
			"buffer":0,
			"byteLength":77244,
			"byteOffset":12181236,
			"target":34962
		},
		{
			"buffer":0,
			"byteLength":77244,
			"byteOffset":12258480,
			"target":34962
		},
		{
			"buffer":0,
			"byteLength":51496,
			"byteOffset":12335724,
			"target":34962
		},
		{
			"buffer":0,
			"byteLength":315636,
			"byteOffset":12387220,
			"target":34962
		},
		{
			"buffer":0,
			"byteLength":315636,
			"byteOffset":12702856,
			"target":34962
		},
		{
			"buffer":0,
			"byteLength":210424,
			"byteOffset":13018492,
			"target":34962
		},
		{
			"buffer":0,
			"byteLength":283392,
			"byteOffset":13228916,
			"target":34963
		},
		{
			"buffer":0,
			"byteLength":315636,
			"byteOffset":13512308,
			"target":34962
		},
		{
			"buffer":0,
			"byteLength":315636,
			"byteOffset":13827944,
			"target":34962
		},
		{
			"buffer":0,
			"byteLength":210424,
			"byteOffset":14143580,
			"target":34962
		},
		{
			"buffer":0,
			"byteLength":14076,
			"byteOffset":14354004,
			"target":34962
		},
		{
			"buffer":0,
			"byteLength":14076,
			"byteOffset":14368080,
			"target":34962
		},
		{
			"buffer":0,
			"byteLength":9384,
			"byteOffset":14382156,
			"target":34962
		},
		{
			"buffer":0,
			"byteLength":13248,
			"byteOffset":14391540,
			"target":34963
		},
		{
			"buffer":0,
			"byteLength":48,
			"byteOffset":14404788,
			"target":34962
		},
		{
			"buffer":0,
			"byteLength":48,
			"byteOffset":14404836,
			"target":34962
		},
		{
			"buffer":0,
			"byteLength":32,
			"byteOffset":14404884,
			"target":34962
		},
		{
			"buffer":0,
			"byteLength":12,
			"byteOffset":14404916,
			"target":34963
		},
		{
			"buffer":0,
			"byteLength":251880,
			"byteOffset":14404928,
			"target":34962
		},
		{
			"buffer":0,
			"byteLength":251880,
			"byteOffset":14656808,
			"target":34962
		},
		{
			"buffer":0,
			"byteLength":167920,
			"byteOffset":14908688,
			"target":34962
		},
		{
			"buffer":0,
			"byteLength":206208,
			"byteOffset":15076608,
			"target":34963
		},
		{
			"buffer":0,
			"byteLength":251880,
			"byteOffset":15282816,
			"target":34962
		},
		{
			"buffer":0,
			"byteLength":251880,
			"byteOffset":15534696,
			"target":34962
		},
		{
			"buffer":0,
			"byteLength":167920,
			"byteOffset":15786576,
			"target":34962
		},
		{
			"buffer":0,
			"byteLength":14076,
			"byteOffset":15954496,
			"target":34962
		},
		{
			"buffer":0,
			"byteLength":14076,
			"byteOffset":15968572,
			"target":34962
		},
		{
			"buffer":0,
			"byteLength":9384,
			"byteOffset":15982648,
			"target":34962
		}
	],
	"samplers":[
		{
			"magFilter":9729,
			"minFilter":9987
		}
	],
	"buffers":[
		{
			"byteLength":15992032,
			"uri":"khronos%20chess.bin"
		}
	]
}
