{
	"asset":{
		"generator":"Khronos glTF Blender I/O v5.1.18",
		"version":"2.0"
	},
	"extensionsUsed":[
		"KHR_materials_clearcoat",
		"KHR_materials_transmission",
		"KHR_materials_emissive_strength",
		"KHR_materials_specular",
		"KHR_materials_ior",
		"KHR_texture_transform"
	],
	"extensionsRequired":[
		"KHR_texture_transform"
	],
	"scene":0,
	"scenes":[
		{
			"name":"Scene",
			"nodes":[
				0,
				47
			]
		}
	],
	"nodes":[
		{
			"camera":0,
			"name":"Camera",
			"rotation":[
				-0.20997299253940582,
				0.3857799470424652,
				0.09062844514846802,
				0.8937962055206299
			],
			"translation":[
				9.278985977172852,
				7.259818077087402,
				16.932388305664062
			]
		},
		{
			"mesh":0,
			"name":"BACK LIGHT",
			"translation":[
				0,
				2.2658355236053467,
				4.927734851837158
			]
		},
		{
			"mesh":1,
			"name":"bACK LIGHT 2",
			"translation":[
				0,
				2.2658355236053467,
				4.927734851837158
			]
		},
		{
			"mesh":2,
			"name":"bODY",
			"translation":[
				0,
				2.2658355236053467,
				4.927734851837158
			]
		},
		{
			"mesh":3,
			"name":"Brake",
			"translation":[
				0.24376238882541656,
				3.752925157546997,
				-0.08464578539133072
			]
		},
		{
			"mesh":4,
			"name":"Brake disc",
			"translation":[
				0.24376213550567627,
				3.7529256343841553,
				-0.08464578539133072
			]
		},
		{
			"mesh":5,
			"name":"COL",
			"translation":[
				0,
				2.2658355236053467,
				4.927734851837158
			]
		},
		{
			"mesh":6,
			"name":"Covers",
			"translation":[
				0,
				2.2658355236053467,
				4.927734851837158
			]
		},
		{
			"mesh":7,
			"name":"d1",
			"translation":[
				0,
				2.2658355236053467,
				4.927734851837158
			]
		},
		{
			"mesh":8,
			"name":"d2",
			"translation":[
				0,
				2.2658355236053467,
				4.927734851837158
			]
		},
		{
			"mesh":9,
			"name":"d3",
			"translation":[
				-1.0274739265441895,
				2.524783134460449,
				-1.2141776084899902
			]
		},
		{
			"mesh":10,
			"name":"d5",
			"translation":[
				0,
				2.2658355236053467,
				4.927734851837158
			]
		},
		{
			"mesh":11,
			"name":"D6",
			"translation":[
				0,
				2.2658355236053467,
				4.927734851837158
			]
		},
		{
			"mesh":12,
			"name":"D7",
			"translation":[
				0,
				2.2658355236053467,
				4.927734851837158
			]
		},
		{
			"mesh":13,
			"name":"D8",
			"translation":[
				0,
				2.2658355236053467,
				4.927734851837158
			]
		},
		{
			"mesh":14,
			"name":"DIFF",
			"translation":[
				0,
				2.2658355236053467,
				4.927734851837158
			]
		},
		{
			"mesh":15,
			"name":"DIFF2",
			"translation":[
				0,
				2.2658355236053467,
				4.927734851837158
			]
		},
		{
			"mesh":16,
			"name":"EMM",
			"translation":[
				0,
				2.2658355236053467,
				4.927734851837158
			]
		},
		{
			"mesh":17,
			"name":"eXHUST",
			"translation":[
				0,
				2.2658355236053467,
				4.927734851837158
			]
		},
		{
			"mesh":18,
			"name":"Front light",
			"translation":[
				0,
				2.2658355236053467,
				4.927734851837158
			]
		},
		{
			"mesh":19,
			"name":"gear",
			"translation":[
				0.005551337730139494,
				1.3872182369232178,
				-0.5511032938957214
			]
		},
		{
			"mesh":20,
			"name":"Gril",
			"translation":[
				-0.0009805047884583473,
				1.0110130310058594,
				-6.185422897338867
			]
		},
		{
			"mesh":21,
			"name":"H2",
			"translation":[
				0,
				2.2658355236053467,
				4.927734851837158
			]
		},
		{
			"mesh":22,
			"name":"H3",
			"translation":[
				0,
				2.2658355236053467,
				4.927734851837158
			]
		},
		{
			"mesh":23,
			"name":"Handle",
			"translation":[
				-2.396077871322632,
				2.3130738735198975,
				1.3070192337036133
			]
		},
		{
			"mesh":24,
			"name":"Headlight",
			"translation":[
				0,
				2.2658355236053467,
				4.927734851837158
			]
		},
		{
			"mesh":25,
			"name":"Hnadle inside",
			"translation":[
				-1.907250165939331,
				2.134652853012085,
				-0.808598518371582
			]
		},
		{
			"mesh":26,
			"name":"iNTER",
			"translation":[
				0,
				2.2658355236053467,
				4.927734851837158
			]
		},
		{
			"mesh":27,
			"name":"INTERIOR",
			"translation":[
				0,
				2.2658355236053467,
				4.927734851837158
			]
		},
		{
			"mesh":28,
			"name":"lower",
			"translation":[
				0,
				2.2658355236053467,
				4.927734851837158
			]
		},
		{
			"mesh":29,
			"name":"Mirror",
			"translation":[
				0,
				2.2658355236053467,
				4.927734851837158
			]
		},
		{
			"mesh":30,
			"name":"P logo",
			"translation":[
				2.0088650671823416e-06,
				2.230783700942993,
				6.165163040161133
			]
		},
		{
			"mesh":31,
			"name":"P1",
			"translation":[
				0,
				1.9214500188827515,
				-5.728198051452637
			]
		},
		{
			"mesh":32,
			"name":"pLATE",
			"translation":[
				0,
				2.2238214015960693,
				-4.740040302276611
			]
		},
		{
			"mesh":33,
			"name":"Plate front",
			"translation":[
				0,
				2.2238214015960693,
				4.927734851837158
			]
		},
		{
			"mesh":34,
			"name":"Rubber",
			"translation":[
				0,
				2.2658355236053467,
				4.927734851837158
			]
		},
		{
			"mesh":35,
			"name":"Rubber.001",
			"translation":[
				0,
				2.2658355236053467,
				4.927734851837158
			]
		},
		{
			"mesh":36,
			"name":"Seating",
			"translation":[
				-0.9745433330535889,
				2.811216115951538,
				1.0815373659133911
			]
		},
		{
			"mesh":37,
			"name":"Seating.001",
			"translation":[
				-0.9745433330535889,
				2.811216115951538,
				1.0815373659133911
			]
		},
		{
			"mesh":38,
			"name":"Spoiler",
			"translation":[
				0,
				2.2658355236053467,
				4.927734851837158
			]
		},
		{
			"mesh":39,
			"name":"Steer",
			"translation":[
				-1.0586885213851929,
				2.2593348026275635,
				-0.7957185506820679
			]
		},
		{
			"mesh":40,
			"name":"Tire",
			"translation":[
				2.613408088684082,
				1.0135263204574585,
				3.4278862476348877
			]
		},
		{
			"mesh":41,
			"name":"Tire2",
			"translation":[
				2.4834697246551514,
				1.0135263204574585,
				-3.420210361480713
			]
		},
		{
			"mesh":42,
			"name":"Wheels",
			"translation":[
				2.4834697246551514,
				1.0135263204574585,
				-3.420210361480713
			]
		},
		{
			"mesh":43,
			"name":"Wheels.001",
			"translation":[
				2.5863540172576904,
				1.0135263204574585,
				3.4322431087493896
			]
		},
		{
			"mesh":44,
			"name":"Window",
			"translation":[
				0,
				2.2658355236053467,
				4.927734851837158
			]
		},
		{
			"mesh":45,
			"name":"wiper",
			"translation":[
				1.7356882095336914,
				2.366960287094116,
				-2.1027584075927734
			]
		},
		{
			"children":[
				1,
				2,
				3,
				4,
				5,
				6,
				7,
				8,
				9,
				10,
				11,
				12,
				13,
				14,
				15,
				16,
				17,
				18,
				19,
				20,
				21,
				22,
				23,
				24,
				25,
				26,
				27,
				28,
				29,
				30,
				31,
				32,
				33,
				34,
				35,
				36,
				37,
				38,
				39,
				40,
				41,
				42,
				43,
				44,
				45,
				46
			],
			"name":"Car 004 - Pourche 911 3d model"
		}
	],
	"cameras":[
		{
			"name":"Camera",
			"perspective":{
				"aspectRatio":1.7777777777777777,
				"yfov":0.39959652046304894,
				"zfar":100,
				"znear":0.10000000149011612
			},
			"type":"perspective"
		}
	],
	"materials":[
		{
			"doubleSided":true,
			"extensions":{
				"KHR_materials_transmission":{
					"transmissionFactor":0.9950000047683716
				},
				"KHR_materials_specular":{
					"specularColorFactor":[
						2.0,
						2.0,
						2.0
					]
				},
				"KHR_materials_ior":{
					"ior":1.4500000476837158
				}
			},
			"name":"backlight glass white.002",
			"pbrMetallicRoughness":{
				"baseColorFactor":[
					0.8000000715255737,
					0.6446106433868408,
					0.5818811058998108,
					1
				],
				"metallicFactor":0,
				"roughnessFactor":0.04090908169746399
			}
		},
		{
			"doubleSided":true,
			"extensions":{
				"KHR_materials_transmission":{
					"transmissionFactor":0.9950000047683716
				},
				"KHR_materials_specular":{
					"specularColorFactor":[
						2.0,
						2.0,
						2.0
					]
				},
				"KHR_materials_ior":{
					"ior":1.4500000476837158
				}
			},
			"name":"backlight glass.002",
			"pbrMetallicRoughness":{
				"baseColorFactor":[
					0.8000000715255737,
					0,
					0.0066597904078662395,
					1
				],
				"metallicFactor":0,
				"roughnessFactor":0.04090908169746399
			}
		},
		{
			"doubleSided":true,
			"name":"chrome.002",
			"pbrMetallicRoughness":{
				"baseColorFactor":[
					0.800000011920929,
					0.800000011920929,
					0.800000011920929,
					1
				],
				"roughnessFactor":0.18382352590560913
			}
		},
		{
			"doubleSided":true,
			"extensions":{
				"KHR_materials_clearcoat":{
					"clearcoatFactor":0.25,
					"clearcoatRoughnessFactor":0.0010000000474974513
				},
				"KHR_materials_specular":{
					"specularColorFactor":[
						2.0,
						2.0,
						2.0
					]
				},
				"KHR_materials_ior":{
					"ior":1.4500000476837158
				}
			},
			"name":"Body.002",
			"pbrMetallicRoughness":{
				"metallicFactor":0.29545456171035767,
				"roughnessFactor":0.09545499086380005
			}
		},
		{
			"doubleSided":true,
			"name":"brake.002",
			"pbrMetallicRoughness":{
				"baseColorFactor":[
					0.8000000715255737,
					0.11042940616607666,
					0.06300181895494461,
					1
				],
				"metallicFactor":0,
				"roughnessFactor":0.5
			}
		},
		{
			"doubleSided":true,
			"name":"Brake.002",
			"pbrMetallicRoughness":{
				"baseColorFactor":[
					0.800000011920929,
					0.800000011920929,
					0.800000011920929,
					1
				],
				"roughnessFactor":0.3136363923549652
			}
		},
		{
			"doubleSided":true,
			"extensions":{
				"KHR_materials_specular":{
					"specularFactor":0.5
				},
				"KHR_materials_ior":{
					"ior":1.4500000476837158
				}
			},
			"name":"Rubber.002",
			"pbrMetallicRoughness":{
				"baseColorFactor":[
					0.009018231183290482,
					0.009018231183290482,
					0.009018231183290482,
					1
				],
				"metallicFactor":0,
				"roughnessFactor":0.4318181872367859
			}
		},
		{
			"doubleSided":true,
			"extensions":{
				"KHR_materials_specular":{
					"specularFactor":0.44545453786849976
				},
				"KHR_materials_ior":{
					"ior":1.4500000476837158
				}
			},
			"name":"leather.002",
			"normalTexture":{
				"extensions":{
					"KHR_texture_transform":{
						"offset":[
							0,
							-2
						],
						"scale":[
							3,
							3
						]
					}
				},
				"index":0
			},
			"pbrMetallicRoughness":{
				"baseColorFactor":[
					0.010673982091248035,
					0.010673982091248035,
					0.010673982091248035,
					1
				],
				"metallicFactor":0,
				"metallicRoughnessTexture":{
					"extensions":{
						"KHR_texture_transform":{
							"offset":[
								0,
								-2
							],
							"scale":[
								3,
								3
							]
						}
					},
					"index":1
				}
			}
		},
		{
			"doubleSided":true,
			"name":"trim.002",
			"pbrMetallicRoughness":{
				"baseColorFactor":[
					0.11813784390687943,
					0,
					0.00492476113140583,
					1
				],
				"metallicFactor":0,
				"roughnessFactor":0.5
			}
		},
		{
			"doubleSided":true,
			"emissiveFactor":[
				1,
				1,
				1
			],
			"extensions":{
				"KHR_materials_emissive_strength":{
					"emissiveStrength":10
				}
			},
			"name":"emii.002",
			"pbrMetallicRoughness":{
				"baseColorFactor":[
					0.800000011920929,
					0.800000011920929,
					0.800000011920929,
					1
				],
				"metallicFactor":0,
				"roughnessFactor":0.5
			}
		},
		{
			"doubleSided":true,
			"name":"Wheels.002",
			"pbrMetallicRoughness":{
				"baseColorFactor":[
					0.5485275387763977,
					0.5485275387763977,
					0.5485275387763977,
					1
				],
				"metallicRoughnessTexture":{
					"index":2
				}
			}
		},
		{
			"alphaMode":"BLEND",
			"doubleSided":true,
			"name":"P logo.002",
			"normalTexture":{
				"index":3
			},
			"pbrMetallicRoughness":{
				"baseColorTexture":{
					"index":4
				},
				"metallicFactor":0,
				"roughnessFactor":0
			}
		},
		{
			"doubleSided":true,
			"name":"Plate.002",
			"normalTexture":{
				"index":5
			},
			"pbrMetallicRoughness":{
				"baseColorTexture":{
					"index":6
				},
				"metallicFactor":0,
				"roughnessFactor":0.09090909361839294
			}
		},
		{
			"doubleSided":true,
			"extensions":{
				"KHR_materials_specular":{
					"specularFactor":0.3529411554336548
				},
				"KHR_materials_ior":{
					"ior":1.4500000476837158
				}
			},
			"name":"Material.002",
			"normalTexture":{
				"index":7
			},
			"pbrMetallicRoughness":{
				"baseColorTexture":{
					"index":8
				},
				"metallicFactor":0,
				"metallicRoughnessTexture":{
					"index":9
				}
			}
		},
		{
			"extensions":{
				"KHR_materials_transmission":{
					"transmissionFactor":0.9900000095367432
				},
				"KHR_materials_ior":{
					"ior":1.0099999904632568
				}
			},
			"name":"windows.005",
			"pbrMetallicRoughness":{
				"metallicFactor":0,
				"roughnessFactor":0
			}
		},
		{
			"extensions":{
				"KHR_materials_transmission":{
					"transmissionFactor":0.9900000095367432
				},
				"KHR_materials_ior":{
					"ior":1.0099999904632568
				}
			},
			"name":"windows.004",
			"pbrMetallicRoughness":{
				"baseColorFactor":[
					0.33077484369277954,
					0.33077484369277954,
					0.33077484369277954,
					1
				],
				"metallicFactor":0,
				"roughnessFactor":0
			}
		},
		{
			"doubleSided":true,
			"extensions":{
				"KHR_materials_specular":{
					"specularColorFactor":[
						1.1617646217346191,
						1.1617646217346191,
						1.1617646217346191
					]
				},
				"KHR_materials_ior":{
					"ior":1.4500000476837158
				}
			},
			"name":"rubber",
			"pbrMetallicRoughness":{
				"baseColorFactor":[
					0.017387712374329567,
					0.017387712374329567,
					0.017387712374329567,
					1
				],
				"metallicFactor":0,
				"roughnessFactor":0.3689628839492798
			}
		}
	],
	"meshes":[
		{
			"name":"Vert.067",
			"primitives":[
				{
					"attributes":{
						"POSITION":0,
						"NORMAL":1,
						"TEXCOORD_0":2
					},
					"indices":3,
					"material":0
				},
				{
					"attributes":{
						"POSITION":4,
						"NORMAL":5,
						"TEXCOORD_0":6
					},
					"indices":7,
					"material":1
				}
			]
		},
		{
			"name":"Vert.068",
			"primitives":[
				{
					"attributes":{
						"POSITION":8,
						"NORMAL":9
					},
					"indices":10,
					"material":2
				}
			]
		},
		{
			"name":"Vert.089",
			"primitives":[
				{
					"attributes":{
						"POSITION":11,
						"NORMAL":12
					},
					"indices":13,
					"material":3
				}
			]
		},
		{
			"name":"Circle.026",
			"primitives":[
				{
					"attributes":{
						"POSITION":14,
						"NORMAL":15,
						"TEXCOORD_0":16
					},
					"indices":17,
					"material":4
				}
			]
		},
		{
			"name":"Circle.025",
			"primitives":[
				{
					"attributes":{
						"POSITION":18,
						"NORMAL":19,
						"TEXCOORD_0":20
					},
					"indices":21,
					"material":5
				}
			]
		},
		{
			"name":"Vert.084",
			"primitives":[
				{
					"attributes":{
						"POSITION":22,
						"NORMAL":23
					},
					"indices":24,
					"material":6
				}
			]
		},
		{
			"name":"Vert.083",
			"primitives":[
				{
					"attributes":{
						"POSITION":25,
						"NORMAL":26
					},
					"indices":27,
					"material":6
				}
			]
		},
		{
			"name":"Vert.077",
			"primitives":[
				{
					"attributes":{
						"POSITION":28,
						"NORMAL":29,
						"TEXCOORD_0":30
					},
					"indices":31,
					"material":7
				}
			]
		},
		{
			"name":"Vert.066",
			"primitives":[
				{
					"attributes":{
						"POSITION":32,
						"NORMAL":33
					},
					"indices":34,
					"material":6
				}
			]
		},
		{
			"name":"Plane.010",
			"primitives":[
				{
					"attributes":{
						"POSITION":35,
						"NORMAL":36,
						"TEXCOORD_0":37
					},
					"indices":38,
					"material":7
				}
			]
		},
		{
			"name":"Vert.070",
			"primitives":[
				{
					"attributes":{
						"POSITION":39,
						"NORMAL":40
					},
					"indices":41,
					"material":8
				}
			]
		},
		{
			"name":"Vert.076",
			"primitives":[
				{
					"attributes":{
						"POSITION":42,
						"NORMAL":43,
						"TEXCOORD_0":44
					},
					"indices":45,
					"material":7
				}
			]
		},
		{
			"name":"Vert.064",
			"primitives":[
				{
					"attributes":{
						"POSITION":46,
						"NORMAL":47,
						"TEXCOORD_0":48
					},
					"indices":49,
					"material":7
				}
			]
		},
		{
			"name":"Vert.075",
			"primitives":[
				{
					"attributes":{
						"POSITION":50,
						"NORMAL":51,
						"TEXCOORD_0":52
					},
					"indices":53,
					"material":7
				}
			]
		},
		{
			"name":"Vert.081",
			"primitives":[
				{
					"attributes":{
						"POSITION":54,
						"NORMAL":55
					},
					"indices":56,
					"material":6
				}
			]
		},
		{
			"name":"Vert.082",
			"primitives":[
				{
					"attributes":{
						"POSITION":57,
						"NORMAL":58,
						"TEXCOORD_0":59
					},
					"indices":60,
					"material":3
				},
				{
					"attributes":{
						"POSITION":61,
						"NORMAL":62,
						"TEXCOORD_0":63
					},
					"indices":64,
					"material":6
				}
			]
		},
		{
			"name":"Vert.062",
			"primitives":[
				{
					"attributes":{
						"POSITION":65,
						"NORMAL":66,
						"TEXCOORD_0":67
					},
					"indices":68,
					"material":9
				}
			]
		},
		{
			"name":"Cylinder.003",
			"primitives":[
				{
					"attributes":{
						"POSITION":69,
						"NORMAL":70,
						"TEXCOORD_0":71
					},
					"indices":72,
					"material":10
				}
			]
		},
		{
			"name":"Vert.086",
			"primitives":[
				{
					"attributes":{
						"POSITION":73,
						"NORMAL":74
					},
					"indices":75,
					"material":2
				}
			]
		},
		{
			"name":"Cylinder.005",
			"primitives":[
				{
					"attributes":{
						"POSITION":76,
						"NORMAL":77,
						"TEXCOORD_0":78
					},
					"indices":79,
					"material":2
				},
				{
					"attributes":{
						"POSITION":80,
						"NORMAL":81,
						"TEXCOORD_0":82
					},
					"indices":83,
					"material":7
				}
			]
		},
		{
			"name":"Circle.020",
			"primitives":[
				{
					"attributes":{
						"POSITION":84,
						"NORMAL":85,
						"TEXCOORD_0":86
					},
					"indices":87,
					"material":6
				}
			]
		},
		{
			"name":"Vert.072",
			"primitives":[
				{
					"attributes":{
						"POSITION":88,
						"NORMAL":89
					},
					"indices":90,
					"material":2
				}
			]
		},
		{
			"name":"Vert.073",
			"primitives":[
				{
					"attributes":{
						"POSITION":91,
						"NORMAL":92
					},
					"indices":93,
					"material":2
				},
				{
					"attributes":{
						"POSITION":94,
						"NORMAL":95
					},
					"indices":96,
					"material":9
				}
			]
		},
		{
			"name":"Cube.001",
			"primitives":[
				{
					"attributes":{
						"POSITION":97,
						"NORMAL":98,
						"TEXCOORD_0":99
					},
					"indices":100,
					"material":3
				}
			]
		},
		{
			"name":"Vert.071",
			"primitives":[
				{
					"attributes":{
						"POSITION":101,
						"NORMAL":102
					},
					"indices":103,
					"material":2
				}
			]
		},
		{
			"name":"Plane.011",
			"primitives":[
				{
					"attributes":{
						"POSITION":104,
						"NORMAL":105,
						"TEXCOORD_0":106
					},
					"indices":107,
					"material":8
				},
				{
					"attributes":{
						"POSITION":108,
						"NORMAL":109,
						"TEXCOORD_0":110
					},
					"indices":111,
					"material":7
				}
			]
		},
		{
			"name":"Vert.065",
			"primitives":[
				{
					"attributes":{
						"POSITION":112,
						"NORMAL":113,
						"TEXCOORD_0":114
					},
					"indices":115,
					"material":7
				}
			]
		},
		{
			"name":"Vert.087",
			"primitives":[
				{
					"attributes":{
						"POSITION":116,
						"NORMAL":117,
						"TEXCOORD_0":118
					},
					"indices":119,
					"material":7
				},
				{
					"attributes":{
						"POSITION":120,
						"NORMAL":121,
						"TEXCOORD_0":122
					},
					"indices":123,
					"material":8
				}
			]
		},
		{
			"name":"Vert.063",
			"primitives":[
				{
					"attributes":{
						"POSITION":124,
						"NORMAL":125
					},
					"indices":126,
					"material":6
				}
			]
		},
		{
			"name":"Vert.079",
			"primitives":[
				{
					"attributes":{
						"POSITION":127,
						"NORMAL":128
					},
					"indices":129,
					"material":6
				},
				{
					"attributes":{
						"POSITION":130,
						"NORMAL":131
					},
					"indices":132,
					"material":3
				}
			]
		},
		{
			"name":"Plane.013",
			"primitives":[
				{
					"attributes":{
						"POSITION":133,
						"NORMAL":134,
						"TEXCOORD_0":135
					},
					"indices":136,
					"material":11
				}
			]
		},
		{
			"name":"Plane.012",
			"primitives":[
				{
					"attributes":{
						"POSITION":137,
						"NORMAL":138,
						"TEXCOORD_0":139
					},
					"indices":136,
					"material":11
				}
			]
		},
		{
			"name":"Vert.061",
			"primitives":[
				{
					"attributes":{
						"POSITION":140,
						"NORMAL":141,
						"TEXCOORD_0":142
					},
					"indices":143,
					"material":12
				},
				{
					"attributes":{
						"POSITION":144,
						"NORMAL":145,
						"TEXCOORD_0":146
					},
					"indices":147,
					"material":6
				}
			]
		},
		{
			"name":"Vert.080",
			"primitives":[
				{
					"attributes":{
						"POSITION":148,
						"NORMAL":149,
						"TEXCOORD_0":150
					},
					"indices":143,
					"material":12
				},
				{
					"attributes":{
						"POSITION":151,
						"NORMAL":152,
						"TEXCOORD_0":153
					},
					"indices":147,
					"material":6
				}
			]
		},
		{
			"name":"Vert.074",
			"primitives":[
				{
					"attributes":{
						"POSITION":154,
						"NORMAL":155
					},
					"indices":156,
					"material":6
				}
			]
		},
		{
			"name":"Vert.085",
			"primitives":[
				{
					"attributes":{
						"POSITION":157,
						"NORMAL":158
					},
					"indices":159,
					"material":6
				}
			]
		},
		{
			"name":"Circle.018",
			"primitives":[
				{
					"attributes":{
						"POSITION":160,
						"NORMAL":161,
						"TEXCOORD_0":162
					},
					"indices":163,
					"material":7
				}
			]
		},
		{
			"name":"Seating.003",
			"primitives":[
				{
					"attributes":{
						"POSITION":164,
						"NORMAL":165,
						"TEXCOORD_0":166
					},
					"indices":167,
					"material":8
				}
			]
		},
		{
			"name":"Vert.088",
			"primitives":[
				{
					"attributes":{
						"POSITION":168,
						"NORMAL":169
					},
					"indices":170,
					"material":3
				}
			]
		},
		{
			"name":"Circle.021",
			"primitives":[
				{
					"attributes":{
						"POSITION":171,
						"NORMAL":172,
						"TEXCOORD_0":173
					},
					"indices":174,
					"material":7
				},
				{
					"attributes":{
						"POSITION":175,
						"NORMAL":176,
						"TEXCOORD_0":177
					},
					"indices":178,
					"material":8
				}
			]
		},
		{
			"name":"Circle.022",
			"primitives":[
				{
					"attributes":{
						"POSITION":179,
						"NORMAL":180,
						"TEXCOORD_0":181
					},
					"indices":182,
					"material":13
				}
			]
		},
		{
			"name":"Circle.024",
			"primitives":[
				{
					"attributes":{
						"POSITION":183,
						"NORMAL":184,
						"TEXCOORD_0":185
					},
					"indices":182,
					"material":13
				}
			]
		},
		{
			"name":"Circle.019",
			"primitives":[
				{
					"attributes":{
						"POSITION":186,
						"NORMAL":187,
						"TEXCOORD_0":188
					},
					"indices":189,
					"material":10
				}
			]
		},
		{
			"name":"Circle.023",
			"primitives":[
				{
					"attributes":{
						"POSITION":190,
						"NORMAL":191,
						"TEXCOORD_0":192
					},
					"indices":193,
					"material":10
				}
			]
		},
		{
			"name":"Vert.060",
			"primitives":[
				{
					"attributes":{
						"POSITION":194,
						"NORMAL":195
					},
					"indices":196,
					"material":14
				},
				{
					"attributes":{
						"POSITION":197,
						"NORMAL":198
					},
					"indices":199,
					"material":15
				}
			]
		},
		{
			"name":"Circle.027",
			"primitives":[
				{
					"attributes":{
						"POSITION":200,
						"NORMAL":201,
						"TEXCOORD_0":202
					},
					"indices":203,
					"material":16
				}
			]
		}
	],
	"textures":[
		{
			"sampler":0,
			"source":0
		},
		{
			"sampler":0,
			"source":1
		},
		{
			"sampler":0,
			"source":2
		},
		{
			"sampler":0,
			"source":3
		},
		{
			"sampler":0,
			"source":3
		},
		{
			"sampler":0,
			"source":4
		},
		{
			"sampler":0,
			"source":5
		},
		{
			"sampler":0,
			"source":6
		},
		{
			"sampler":0,
			"source":7
		},
		{
			"sampler":0,
			"source":8
		}
	],
	"images":[
		{
			"mimeType":"image/jpeg",
			"name":"Leather0021_Big",
			"uri":"Leather0021_Big.jpg"
		},
		{
			"mimeType":"image/png",
			"name":"Leather0021_Big",
			"uri":"Leather0021_Big.png"
		},
		{
			"mimeType":"image/png",
			"name":"Metal01_SPEC [softsaaz.ir]",
			"uri":"Metal01_SPEC%20%5Bsoftsaaz.ir%5D.png"
		},
		{
			"mimeType":"image/png",
			"name":"Porsche-Symbol",
			"uri":"Porsche-Symbol.png"
		},
		{
			"mimeType":"image/jpeg",
			"name":"untitled2",
			"uri":"untitled2.jpg"
		},
		{
			"mimeType":"image/jpeg",
			"name":"untitled",
			"uri":"untitled.jpg"
		},
		{
			"mimeType":"image/png",
			"name":"TexturesCom_Various_TireCar_1K_normal.tif",
			"uri":"TexturesCom_Various_TireCar_1K_normal.tif.png"
		},
		{
			"mimeType":"image/png",
			"name":"TexturesCom_Various_TireCar_1K_albedo.tif",
			"uri":"TexturesCom_Various_TireCar_1K_albedo.tif.png"
		},
		{
			"mimeType":"image/png",
			"name":"TexturesCom_Various_TireCar_1K_roughness.tif",
			"uri":"TexturesCom_Various_TireCar_1K_roughness.tif.png"
		}
	],
	"accessors":[
		{
			"bufferView":0,
			"componentType":5126,
			"count":210,
			"max":[
				-1.2020519971847534,
				0.14565394818782806,
				1.0118862390518188
			],
			"min":[
				-2.184622049331665,
				-0.09384594112634659,
				0.0009753645863384008
			],
			"type":"VEC3"
		},
		{
			"bufferView":1,
			"componentType":5126,
			"count":210,
			"type":"VEC3"
		},
		{
			"bufferView":2,
			"componentType":5126,
			"count":210,
			"type":"VEC2"
		},
		{
			"bufferView":3,
			"componentType":5123,
			"count":1248,
			"type":"SCALAR"
		},
		{
			"bufferView":4,
			"componentType":5126,
			"count":210,
			"max":[
				-1.16365385055542,
				-0.03868578374385834,
				1.1403026580810547
			],
			"min":[
				-2.2345707416534424,
				-0.2972283661365509,
				0.013091884553432465
			],
			"type":"VEC3"
		},
		{
			"bufferView":5,
			"componentType":5126,
			"count":210,
			"type":"VEC3"
		},
		{
			"bufferView":6,
			"componentType":5126,
			"count":210,
			"type":"VEC2"
		},
		{
			"bufferView":7,
			"componentType":5123,
			"count":1248,
			"type":"SCALAR"
		},
		{
			"bufferView":8,
			"componentType":5126,
			"count":102,
			"max":[
				-1.1367138624191284,
				0.15749013423919678,
				1.2491772174835205
			],
			"min":[
				-2.2566049098968506,
				-0.3139860928058624,
				-0.02651836909353733
			],
			"type":"VEC3"
		},
		{
			"bufferView":9,
			"componentType":5126,
			"count":102,
			"type":"VEC3"
		},
		{
			"bufferView":10,
			"componentType":5123,
			"count":552,
			"type":"SCALAR"
		},
		{
			"bufferView":11,
			"componentType":5126,
			"count":6350,
			"max":[
				2.6373698711395264,
				1.643512487411499,
				1.528450608253479
			],
			"min":[
				-2.6373724937438965,
				-1.8134136199951172,
				-11.342109680175781
			],
			"type":"VEC3"
		},
		{
			"bufferView":12,
			"componentType":5126,
			"count":6350,
			"type":"VEC3"
		},
		{
			"bufferView":13,
			"componentType":5123,
			"count":34068,
			"type":"SCALAR"
		},
		{
			"bufferView":14,
			"componentType":5126,
			"count":184,
			"max":[
				2.1492867469787598,
				-2.2278125286102295,
				3.368415355682373
			],
			"min":[
				2.013183832168579,
				-2.5906283855438232,
				2.991811752319336
			],
			"type":"VEC3"
		},
		{
			"bufferView":15,
			"componentType":5126,
			"count":184,
			"type":"VEC3"
		},
		{
			"bufferView":16,
			"componentType":5126,
			"count":184,
			"type":"VEC2"
		},
		{
			"bufferView":17,
			"componentType":5123,
			"count":1092,
			"type":"SCALAR"
		},
		{
			"bufferView":18,
			"componentType":5126,
			"count":1296,
			"max":[
				2.082176685333252,
				-2.2632925510406494,
				3.9901087284088135
			],
			"min":[
				2.0057733058929443,
				-3.233954429626465,
				3.019446849822998
			],
			"type":"VEC3"
		},
		{
			"bufferView":19,
			"componentType":5126,
			"count":1296,
			"type":"VEC3"
		},
		{
			"bufferView":20,
			"componentType":5126,
			"count":1296,
			"type":"VEC2"
		},
		{
			"bufferView":21,
			"componentType":5123,
			"count":7776,
			"type":"SCALAR"
		},
		{
			"bufferView":22,
			"componentType":5126,
			"count":56,
			"max":[
				-1.566582202911377,
				1.226664662361145,
				-2.940295457839966
			],
			"min":[
				-2.0290279388427734,
				0.35716432332992554,
				-3.429309129714966
			],
			"type":"VEC3"
		},
		{
			"bufferView":23,
			"componentType":5126,
			"count":56,
			"type":"VEC3"
		},
		{
			"bufferView":24,
			"componentType":5123,
			"count":324,
			"type":"SCALAR"
		},
		{
			"bufferView":25,
			"componentType":5126,
			"count":264,
			"max":[
				-4.251515747455414e-06,
				-1.0445071458816528,
				-9.930526733398438
			],
			"min":[
				-2.2486140727996826,
				-1.4647523164749146,
				-11.330820083618164
			],
			"type":"VEC3"
		},
		{
			"bufferView":26,
			"componentType":5126,
			"count":264,
			"type":"VEC3"
		},
		{
			"bufferView":27,
			"componentType":5123,
			"count":1518,
			"type":"SCALAR"
		},
		{
			"bufferView":28,
			"componentType":5126,
			"count":1270,
			"max":[
				1.5526409149169922,
				0.2213527262210846,
				-6.119675636291504
			],
			"min":[
				0.5625534653663635,
				-0.19697999954223633,
				-6.302583694458008
			],
			"type":"VEC3"
		},
		{
			"bufferView":29,
			"componentType":5126,
			"count":1270,
			"type":"VEC3"
		},
		{
			"bufferView":30,
			"componentType":5126,
			"count":1270,
			"type":"VEC2"
		},
		{
			"bufferView":31,
			"componentType":5123,
			"count":6192,
			"type":"SCALAR"
		},
		{
			"bufferView":32,
			"componentType":5126,
			"count":386,
			"max":[
				-0.5752118825912476,
				0.19318647682666779,
				-6.117648601531982
			],
			"min":[
				-1.4671638011932373,
				-0.23805060982704163,
				-6.26715087890625
			],
			"type":"VEC3"
		},
		{
			"bufferView":33,
			"componentType":5126,
			"count":386,
			"type":"VEC3"
		},
		{
			"bufferView":34,
			"componentType":5123,
			"count":2304,
			"type":"SCALAR"
		},
		{
			"bufferView":35,
			"componentType":5126,
			"count":5223,
			"max":[
				0.6104899644851685,
				0.21501706540584564,
				0.04369547963142395
			],
			"min":[
				-0.6664287447929382,
				-0.18355189263820648,
				-0.516860842704773
			],
			"type":"VEC3"
		},
		{
			"bufferView":36,
			"componentType":5126,
			"count":5223,
			"type":"VEC3"
		},
		{
			"bufferView":37,
			"componentType":5126,
			"count":5223,
			"type":"VEC2"
		},
		{
			"bufferView":38,
			"componentType":5123,
			"count":28800,
			"type":"SCALAR"
		},
		{
			"bufferView":39,
			"componentType":5126,
			"count":42,
			"max":[
				-0.36355775594711304,
				-0.23793496191501617,
				-6.045836925506592
			],
			"min":[
				-1.8330254554748535,
				-0.25666338205337524,
				-6.141706466674805
			],
			"type":"VEC3"
		},
		{
			"bufferView":40,
			"componentType":5126,
			"count":42,
			"type":"VEC3"
		},
		{
			"bufferView":41,
			"componentType":5123,
			"count":240,
			"type":"SCALAR"
		},
		{
			"bufferView":42,
			"componentType":5126,
			"count":184,
			"max":[
				-0.08929473161697388,
				-0.39168691635131836,
				-3.956742525100708
			],
			"min":[
				-0.36516714096069336,
				-1.3147519826889038,
				-6.425897598266602
			],
			"type":"VEC3"
		},
		{
			"bufferView":43,
			"componentType":5126,
			"count":184,
			"type":"VEC3"
		},
		{
			"bufferView":44,
			"componentType":5126,
			"count":184,
			"type":"VEC2"
		},
		{
			"bufferView":45,
			"componentType":5123,
			"count":600,
			"type":"SCALAR"
		},
		{
			"bufferView":46,
			"componentType":5126,
			"count":164,
			"max":[
				-1.5002786994955386e-06,
				-0.8870591521263123,
				-3.852653741836548
			],
			"min":[
				-0.32660531997680664,
				-1.3079036474227905,
				-5.715231418609619
			],
			"type":"VEC3"
		},
		{
			"bufferView":47,
			"componentType":5126,
			"count":164,
			"type":"VEC3"
		},
		{
			"bufferView":48,
			"componentType":5126,
			"count":164,
			"type":"VEC2"
		},
		{
			"bufferView":49,
			"componentType":5123,
			"count":450,
			"type":"SCALAR"
		},
		{
			"bufferView":50,
			"componentType":5126,
			"count":4902,
			"max":[
				-2.1775495042675175e-06,
				-0.41025543212890625,
				-5.591856479644775
			],
			"min":[
				-0.33639228343963623,
				-1.3076300621032715,
				-6.577176570892334
			],
			"type":"VEC3"
		},
		{
			"bufferView":51,
			"componentType":5126,
			"count":4902,
			"type":"VEC3"
		},
		{
			"bufferView":52,
			"componentType":5126,
			"count":4902,
			"type":"VEC2"
		},
		{
			"bufferView":53,
			"componentType":5123,
			"count":25572,
			"type":"SCALAR"
		},
		{
			"bufferView":54,
			"componentType":5126,
			"count":10,
			"max":[
				-4.266864380042534e-06,
				-1.059784173965454,
				-10.80784797668457
			],
			"min":[
				-1.3175300359725952,
				-1.4326807260513306,
				-11.16084098815918
			],
			"type":"VEC3"
		},
		{
			"bufferView":55,
			"componentType":5126,
			"count":10,
			"type":"VEC3"
		},
		{
			"bufferView":56,
			"componentType":5123,
			"count":24,
			"type":"SCALAR"
		},
		{
			"bufferView":57,
			"componentType":5126,
			"count":54,
			"max":[
				-1.3330276012420654,
				-1.081605315208435,
				-9.97502326965332
			],
			"min":[
				-2.169659376144409,
				-1.4387761354446411,
				-10.798148155212402
			],
			"type":"VEC3"
		},
		{
			"bufferView":58,
			"componentType":5126,
			"count":54,
			"type":"VEC3"
		},
		{
			"bufferView":59,
			"componentType":5126,
			"count":54,
			"type":"VEC2"
		},
		{
			"bufferView":60,
			"componentType":5123,
			"count":246,
			"type":"SCALAR"
		},
		{
			"bufferView":61,
			"componentType":5126,
			"count":24,
			"max":[
				-1.4273489713668823,
				-1.1270992755889893,
				-10.161364555358887
			],
			"min":[
				-2.1059648990631104,
				-1.380241870880127,
				-10.729700088500977
			],
			"type":"VEC3"
		},
		{
			"bufferView":62,
			"componentType":5126,
			"count":24,
			"type":"VEC3"
		},
		{
			"bufferView":63,
			"componentType":5126,
			"count":24,
			"type":"VEC2"
		},
		{
			"bufferView":64,
			"componentType":5123,
			"count":102,
			"type":"SCALAR"
		},
		{
			"bufferView":65,
			"componentType":5126,
			"count":240,
			"max":[
				-1.4915564060211182,
				-1.1591206789016724,
				-10.190346717834473
			],
			"min":[
				-2.081176280975342,
				-1.3599324226379395,
				-10.71159553527832
			],
			"type":"VEC3"
		},
		{
			"bufferView":66,
			"componentType":5126,
			"count":240,
			"type":"VEC3"
		},
		{
			"bufferView":67,
			"componentType":5126,
			"count":240,
			"type":"VEC2"
		},
		{
			"bufferView":68,
			"componentType":5123,
			"count":360,
			"type":"SCALAR"
		},
		{
			"bufferView":69,
			"componentType":5126,
			"count":1274,
			"max":[
				-1.2783585786819458,
				-1.2412872314453125,
				1.2199573516845703
			],
			"min":[
				-1.7881563901901245,
				-1.4644274711608887,
				0.4138319790363312
			],
			"type":"VEC3"
		},
		{
			"bufferView":70,
			"componentType":5126,
			"count":1274,
			"type":"VEC3"
		},
		{
			"bufferView":71,
			"componentType":5126,
			"count":1274,
			"type":"VEC2"
		},
		{
			"bufferView":72,
			"componentType":5123,
			"count":4584,
			"type":"SCALAR"
		},
		{
			"bufferView":73,
			"componentType":5126,
			"count":135,
			"max":[
				-1.0759477615356445,
				0.04782281443476677,
				-9.05260944366455
			],
			"min":[
				-2.1204280853271484,
				-0.6305352449417114,
				-10.940299987792969
			],
			"type":"VEC3"
		},
		{
			"bufferView":74,
			"componentType":5126,
			"count":135,
			"type":"VEC3"
		},
		{
			"bufferView":75,
			"componentType":5123,
			"count":744,
			"type":"SCALAR"
		},
		{
			"bufferView":76,
			"componentType":5126,
			"count":295,
			"max":[
				0.036067768931388855,
				0.14446431398391724,
				0.036067768931388855
			],
			"min":[
				-0.036067768931388855,
				-0.05187088996171951,
				-0.036067768931388855
			],
			"type":"VEC3"
		},
		{
			"bufferView":77,
			"componentType":5126,
			"count":295,
			"type":"VEC3"
		},
		{
			"bufferView":78,
			"componentType":5126,
			"count":295,
			"type":"VEC2"
		},
		{
			"bufferView":79,
			"componentType":5123,
			"count":1332,
			"type":"SCALAR"
		},
		{
			"bufferView":80,
			"componentType":5126,
			"count":559,
			"max":[
				0.05324563756585121,
				0.2212846726179123,
				0.053245749324560165
			],
			"min":[
				-0.053246065974235535,
				0.11479289829730988,
				-0.05324595794081688
			],
			"type":"VEC3"
		},
		{
			"bufferView":81,
			"componentType":5126,
			"count":559,
			"type":"VEC3"
		},
		{
			"bufferView":82,
			"componentType":5126,
			"count":559,
			"type":"VEC2"
		},
		{
			"bufferView":83,
			"componentType":5123,
			"count":2880,
			"type":"SCALAR"
		},
		{
			"bufferView":84,
			"componentType":5126,
			"count":44220,
			"max":[
				1.349988579750061,
				0.17433278262615204,
				0.17737101018428802
			],
			"min":[
				-1.3451213836669922,
				-0.18522004783153534,
				-0.17199687659740448
			],
			"type":"VEC3"
		},
		{
			"bufferView":85,
			"componentType":5126,
			"count":44220,
			"type":"VEC3"
		},
		{
			"bufferView":86,
			"componentType":5126,
			"count":44220,
			"type":"VEC2"
		},
		{
			"bufferView":87,
			"componentType":5123,
			"count":66372,
			"type":"SCALAR"
		},
		{
			"bufferView":88,
			"componentType":5126,
			"count":78,
			"max":[
				-1.4350191354751587,
				-0.09617093205451965,
				-9.598753929138184
			],
			"min":[
				-1.9934841394424438,
				-0.5444955229759216,
				-10.130517959594727
			],
			"type":"VEC3"
		},
		{
			"bufferView":89,
			"componentType":5126,
			"count":78,
			"type":"VEC3"
		},
		{
			"bufferView":90,
			"componentType":5123,
			"count":423,
			"type":"SCALAR"
		},
		{
			"bufferView":91,
			"componentType":5126,
			"count":50,
			"max":[
				-1.5687954425811768,
				-0.3542163074016571,
				-9.702228546142578
			],
			"min":[
				-1.9450958967208862,
				-0.49409058690071106,
				-9.944404602050781
			],
			"type":"VEC3"
		},
		{
			"bufferView":92,
			"componentType":5126,
			"count":50,
			"type":"VEC3"
		},
		{
			"bufferView":93,
			"componentType":5123,
			"count":240,
			"type":"SCALAR"
		},
		{
			"bufferView":94,
			"componentType":5126,
			"count":12,
			"max":[
				-1.6260919570922852,
				-0.37125998735427856,
				-9.814935684204102
			],
			"min":[
				-1.8946762084960938,
				-0.4703376889228821,
				-9.923162460327148
			],
			"type":"VEC3"
		},
		{
			"bufferView":95,
			"componentType":5126,
			"count":12,
			"type":"VEC3"
		},
		{
			"bufferView":96,
			"componentType":5123,
			"count":36,
			"type":"SCALAR"
		},
		{
			"bufferView":97,
			"componentType":5126,
			"count":36,
			"max":[
				0.06685072183609009,
				0.10350368916988373,
				0.07979100942611694
			],
			"min":[
				-0.08382678776979446,
				-0.1026090681552887,
				-0.5310254693031311
			],
			"type":"VEC3"
		},
		{
			"bufferView":98,
			"componentType":5126,
			"count":36,
			"type":"VEC3"
		},
		{
			"bufferView":99,
			"componentType":5126,
			"count":36,
			"type":"VEC2"
		},
		{
			"bufferView":100,
			"componentType":5123,
			"count":156,
			"type":"SCALAR"
		},
		{
			"bufferView":101,
			"componentType":5126,
			"count":274,
			"max":[
				-1.095576524734497,
				-0.009037898853421211,
				-9.59240436553955
			],
			"min":[
				-2.075803518295288,
				-0.6199764609336853,
				-10.916080474853516
			],
			"type":"VEC3"
		},
		{
			"bufferView":102,
			"componentType":5126,
			"count":274,
			"type":"VEC3"
		},
		{
			"bufferView":103,
			"componentType":5123,
			"count":1593,
			"type":"SCALAR"
		},
		{
			"bufferView":104,
			"componentType":5126,
			"count":58,
			"max":[
				0.261187881231308,
				0.31122875213623047,
				2.0118021965026855
			],
			"min":[
				-0.12869152426719666,
				-0.3078586757183075,
				-0.16535478830337524
			],
			"type":"VEC3"
		},
		{
			"bufferView":105,
			"componentType":5126,
			"count":58,
			"type":"VEC3"
		},
		{
			"bufferView":106,
			"componentType":5126,
			"count":58,
			"type":"VEC2"
		},
		{
			"bufferView":107,
			"componentType":5123,
			"count":108,
			"type":"SCALAR"
		},
		{
			"bufferView":108,
			"componentType":5126,
			"count":50,
			"max":[
				0.261187881231308,
				0.066463902592659,
				2.0118021965026855
			],
			"min":[
				-0.1982232630252838,
				-0.5480776429176331,
				-0.16535478830337524
			],
			"type":"VEC3"
		},
		{
			"bufferView":109,
			"componentType":5126,
			"count":50,
			"type":"VEC3"
		},
		{
			"bufferView":110,
			"componentType":5126,
			"count":50,
			"type":"VEC2"
		},
		{
			"bufferView":111,
			"componentType":5123,
			"count":144,
			"type":"SCALAR"
		},
		{
			"bufferView":112,
			"componentType":5126,
			"count":230,
			"max":[
				-1.7905901670455933,
				0.33953842520713806,
				-3.1041345596313477
			],
			"min":[
				-2.0943408012390137,
				-1.3892598152160645,
				-6.4277825355529785
			],
			"type":"VEC3"
		},
		{
			"bufferView":113,
			"componentType":5126,
			"count":230,
			"type":"VEC3"
		},
		{
			"bufferView":114,
			"componentType":5126,
			"count":230,
			"type":"VEC2"
		},
		{
			"bufferView":115,
			"componentType":5123,
			"count":762,
			"type":"SCALAR"
		},
		{
			"bufferView":116,
			"componentType":5126,
			"count":13689,
			"max":[
				2.1395764350891113,
				1.5519061088562012,
				-0.29233989119529724
			],
			"min":[
				-2.1395809650421143,
				-1.384220838546753,
				-7.612982273101807
			],
			"type":"VEC3"
		},
		{
			"bufferView":117,
			"componentType":5126,
			"count":13689,
			"type":"VEC3"
		},
		{
			"bufferView":118,
			"componentType":5126,
			"count":13689,
			"type":"VEC2"
		},
		{
			"bufferView":119,
			"componentType":5123,
			"count":71424,
			"type":"SCALAR"
		},
		{
			"bufferView":120,
			"componentType":5126,
			"count":2295,
			"max":[
				0.4629146456718445,
				0.1988796591758728,
				-6.09753942489624
			],
			"min":[
				-0.4629194140434265,
				-0.4357297122478485,
				-6.403872489929199
			],
			"type":"VEC3"
		},
		{
			"bufferView":121,
			"componentType":5126,
			"count":2295,
			"type":"VEC3"
		},
		{
			"bufferView":122,
			"componentType":5126,
			"count":2295,
			"type":"VEC2"
		},
		{
			"bufferView":123,
			"componentType":5123,
			"count":11088,
			"type":"SCALAR"
		},
		{
			"bufferView":124,
			"componentType":5126,
			"count":78,
			"max":[
				4.647403670787753e-07,
				-0.2060224860906601,
				1.1934341192245483
			],
			"min":[
				-2.4187285900115967,
				-1.8134135007858276,
				-11.086346626281738
			],
			"type":"VEC3"
		},
		{
			"bufferView":125,
			"componentType":5126,
			"count":78,
			"type":"VEC3"
		},
		{
			"bufferView":126,
			"componentType":5123,
			"count":327,
			"type":"SCALAR"
		},
		{
			"bufferView":127,
			"componentType":5126,
			"count":1463,
			"max":[
				-1.875259280204773,
				0.7696424126625061,
				-5.606201171875
			],
			"min":[
				-2.6822996139526367,
				0.31011292338371277,
				-6.34114933013916
			],
			"type":"VEC3"
		},
		{
			"bufferView":128,
			"componentType":5126,
			"count":1463,
			"type":"VEC3"
		},
		{
			"bufferView":129,
			"componentType":5123,
			"count":8640,
			"type":"SCALAR"
		},
		{
			"bufferView":130,
			"componentType":5126,
			"count":215,
			"max":[
				-2.152735710144043,
				0.6184368133544922,
				-5.605112075805664
			],
			"min":[
				-2.681790351867676,
				0.4628153145313263,
				-5.977169990539551
			],
			"type":"VEC3"
		},
		{
			"bufferView":131,
			"componentType":5126,
			"count":215,
			"type":"VEC3"
		},
		{
			"bufferView":132,
			"componentType":5123,
			"count":1152,
			"type":"SCALAR"
		},
		{
			"bufferView":133,
			"componentType":5126,
			"count":24,
			"max":[
				0.060443438589572906,
				0.04500708729028702,
				0.04034564644098282
			],
			"min":[
				-0.060443438589572906,
				-0.04500708729028702,
				-0.04034564644098282
			],
			"type":"VEC3"
		},
		{
			"bufferView":134,
			"componentType":5126,
			"count":24,
			"type":"VEC3"
		},
		{
			"bufferView":135,
			"componentType":5126,
			"count":24,
			"type":"VEC2"
		},
		{
			"bufferView":136,
			"componentType":5123,
			"count":96,
			"type":"SCALAR"
		},
		{
			"bufferView":137,
			"componentType":5126,
			"count":24,
			"max":[
				0.06044340878725052,
				0.02598767727613449,
				0.054571475833654404
			],
			"min":[
				-0.06044340878725052,
				-0.02598767727613449,
				-0.054571475833654404
			],
			"type":"VEC3"
		},
		{
			"bufferView":138,
			"componentType":5126,
			"count":24,
			"type":"VEC3"
		},
		{
			"bufferView":139,
			"componentType":5126,
			"count":24,
			"type":"VEC2"
		},
		{
			"bufferView":140,
			"componentType":5126,
			"count":333,
			"max":[
				0.7273767590522766,
				-0.7122928500175476,
				11.04002571105957
			],
			"min":[
				-0.7273622751235962,
				-1.0510096549987793,
				10.956165313720703
			],
			"type":"VEC3"
		},
		{
			"bufferView":141,
			"componentType":5126,
			"count":333,
			"type":"VEC3"
		},
		{
			"bufferView":142,
			"componentType":5126,
			"count":333,
			"type":"VEC2"
		},
		{
			"bufferView":143,
			"componentType":5123,
			"count":1824,
			"type":"SCALAR"
		},
		{
			"bufferView":144,
			"componentType":5126,
			"count":336,
			"max":[
				0.7425689101219177,
				-0.7031306028366089,
				11.048297882080078
			],
			"min":[
				-0.7425544261932373,
				-1.0595402717590332,
				10.933682441711426
			],
			"type":"VEC3"
		},
		{
			"bufferView":145,
			"componentType":5126,
			"count":336,
			"type":"VEC3"
		},
		{
			"bufferView":146,
			"componentType":5126,
			"count":336,
			"type":"VEC2"
		},
		{
			"bufferView":147,
			"componentType":5123,
			"count":1680,
			"type":"SCALAR"
		},
		{
			"bufferView":148,
			"componentType":5126,
			"count":333,
			"max":[
				0.7273650765419006,
				-0.8634571433067322,
				-11.276049613952637
			],
			"min":[
				-0.7273738980293274,
				-1.2021740674972534,
				-11.359909057617188
			],
			"type":"VEC3"
		},
		{
			"bufferView":149,
			"componentType":5126,
			"count":333,
			"type":"VEC3"
		},
		{
			"bufferView":150,
			"componentType":5126,
			"count":333,
			"type":"VEC2"
		},
		{
			"bufferView":151,
			"componentType":5126,
			"count":336,
			"max":[
				0.7425572872161865,
				-0.8542949557304382,
				-11.253565788269043
			],
			"min":[
				-0.7425661087036133,
				-1.2107046842575073,
				-11.368181228637695
			],
			"type":"VEC3"
		},
		{
			"bufferView":152,
			"componentType":5126,
			"count":336,
			"type":"VEC3"
		},
		{
			"bufferView":153,
			"componentType":5126,
			"count":336,
			"type":"VEC2"
		},
		{
			"bufferView":154,
			"componentType":5126,
			"count":100,
			"max":[
				-1.5722046953214885e-07,
				1.4004697799682617,
				-0.4037356674671173
			],
			"min":[
				-1.4713804721832275,
				0.6129201650619507,
				-2.3493432998657227
			],
			"type":"VEC3"
		},
		{
			"bufferView":155,
			"componentType":5126,
			"count":100,
			"type":"VEC3"
		},
		{
			"bufferView":156,
			"componentType":5123,
			"count":492,
			"type":"SCALAR"
		},
		{
			"bufferView":157,
			"componentType":5126,
			"count":214,
			"max":[
				-2.1325352008716436e-06,
				1.3960082530975342,
				-1.3017916679382324
			],
			"min":[
				-2.1540608406066895,
				0.26508837938308716,
				-7.482318878173828
			],
			"type":"VEC3"
		},
		{
			"bufferView":158,
			"componentType":5126,
			"count":214,
			"type":"VEC3"
		},
		{
			"bufferView":159,
			"componentType":5123,
			"count":1032,
			"type":"SCALAR"
		},
		{
			"bufferView":160,
			"componentType":5126,
			"count":35142,
			"max":[
				0.8180208206176758,
				0.26645737886428833,
				0.3830356001853943
			],
			"min":[
				-0.8506078720092773,
				-1.6877719163894653,
				-1.4260047674179077
			],
			"type":"VEC3"
		},
		{
			"bufferView":161,
			"componentType":5126,
			"count":35142,
			"type":"VEC3"
		},
		{
			"bufferView":162,
			"componentType":5126,
			"count":35142,
			"type":"VEC2"
		},
		{
			"bufferView":163,
			"componentType":5123,
			"count":194688,
			"type":"SCALAR"
		},
		{
			"bufferView":164,
			"componentType":5126,
			"count":94170,
			"max":[
				2.6510517597198486,
				0.2676514983177185,
				0.3147813677787781
			],
			"min":[
				-0.7019645571708679,
				-1.6187543869018555,
				-1.4050467014312744
			],
			"type":"VEC3"
		},
		{
			"bufferView":165,
			"componentType":5126,
			"count":94170,
			"type":"VEC3"
		},
		{
			"bufferView":166,
			"componentType":5126,
			"count":94170,
			"type":"VEC2"
		},
		{
			"bufferView":167,
			"componentType":5125,
			"count":142848,
			"type":"SCALAR"
		},
		{
			"bufferView":168,
			"componentType":5126,
			"count":80,
			"max":[
				5.261490514385514e-07,
				0.6873982548713684,
				1.3511290550231934
			],
			"min":[
				-1.3908120393753052,
				0.15952497720718384,
				0.3084757626056671
			],
			"type":"VEC3"
		},
		{
			"bufferView":169,
			"componentType":5126,
			"count":80,
			"type":"VEC3"
		},
		{
			"bufferView":170,
			"componentType":5123,
			"count":432,
			"type":"SCALAR"
		},
		{
			"bufferView":171,
			"componentType":5126,
			"count":7604,
			"max":[
				0.5419385433197021,
				0.5377351641654968,
				0.08865967392921448
			],
			"min":[
				-0.5419385433197021,
				-0.5424917340278625,
				-0.5393154621124268
			],
			"type":"VEC3"
		},
		{
			"bufferView":172,
			"componentType":5126,
			"count":7604,
			"type":"VEC3"
		},
		{
			"bufferView":173,
			"componentType":5126,
			"count":7604,
			"type":"VEC2"
		},
		{
			"bufferView":174,
			"componentType":5123,
			"count":37032,
			"type":"SCALAR"
		},
		{
			"bufferView":175,
			"componentType":5126,
			"count":397,
			"max":[
				0.5152211785316467,
				0.5148144364356995,
				0.08845803886651993
			],
			"min":[
				-0.5152212381362915,
				-0.511166512966156,
				-0.049070779234170914
			],
			"type":"VEC3"
		},
		{
			"bufferView":176,
			"componentType":5126,
			"count":397,
			"type":"VEC3"
		},
		{
			"bufferView":177,
			"componentType":5126,
			"count":397,
			"type":"VEC2"
		},
		{
			"bufferView":178,
			"componentType":5123,
			"count":1560,
			"type":"SCALAR"
		},
		{
			"bufferView":179,
			"componentType":5126,
			"count":293,
			"max":[
				0.02674982137978077,
				1.0237693786621094,
				1.0137945413589478
			],
			"min":[
				-0.8609042763710022,
				-1.0079617500305176,
				-1.0152201652526855
			],
			"type":"VEC3"
		},
		{
			"bufferView":180,
			"componentType":5126,
			"count":293,
			"type":"VEC3"
		},
		{
			"bufferView":181,
			"componentType":5126,
			"count":293,
			"type":"VEC2"
		},
		{
			"bufferView":182,
			"componentType":5123,
			"count":1200,
			"type":"SCALAR"
		},
		{
			"bufferView":183,
			"componentType":5126,
			"count":293,
			"max":[
				0.02674982137978077,
				1.0237693786621094,
				1.0137945413589478
			],
			"min":[
				-0.8609042763710022,
				-1.0079617500305176,
				-1.0152201652526855
			],
			"type":"VEC3"
		},
		{
			"bufferView":184,
			"componentType":5126,
			"count":293,
			"type":"VEC3"
		},
		{
			"bufferView":185,
			"componentType":5126,
			"count":293,
			"type":"VEC2"
		},
		{
			"bufferView":186,
			"componentType":5126,
			"count":1277,
			"max":[
				0.009061219170689583,
				0.747995913028717,
				0.7394787073135376
			],
			"min":[
				-0.7259552478790283,
				-0.732539713382721,
				-0.7390775084495544
			],
			"type":"VEC3"
		},
		{
			"bufferView":187,
			"componentType":5126,
			"count":1277,
			"type":"VEC3"
		},
		{
			"bufferView":188,
			"componentType":5126,
			"count":1277,
			"type":"VEC2"
		},
		{
			"bufferView":189,
			"componentType":5123,
			"count":4419,
			"type":"SCALAR"
		},
		{
			"bufferView":190,
			"componentType":5126,
			"count":770,
			"max":[
				0.009061219170689583,
				0.747995913028717,
				0.7394787073135376
			],
			"min":[
				-0.7259552478790283,
				-0.732539713382721,
				-0.7390775084495544
			],
			"type":"VEC3"
		},
		{
			"bufferView":191,
			"componentType":5126,
			"count":770,
			"type":"VEC3"
		},
		{
			"bufferView":192,
			"componentType":5126,
			"count":770,
			"type":"VEC2"
		},
		{
			"bufferView":193,
			"componentType":5123,
			"count":4419,
			"type":"SCALAR"
		},
		{
			"bufferView":194,
			"componentType":5126,
			"count":65,
			"max":[
				-2.143253368558362e-06,
				1.3696433305740356,
				-3.156419515609741
			],
			"min":[
				-2.1328158378601074,
				0.2689133286476135,
				-7.490990161895752
			],
			"type":"VEC3"
		},
		{
			"bufferView":195,
			"componentType":5126,
			"count":65,
			"type":"VEC3"
		},
		{
			"bufferView":196,
			"componentType":5123,
			"count":258,
			"type":"SCALAR"
		},
		{
			"bufferView":197,
			"componentType":5126,
			"count":38,
			"max":[
				-1.5722046953214885e-07,
				1.394471287727356,
				-0.4037356674671173
			],
			"min":[
				-2.008786916732788,
				0.3659884035587311,
				-3.159520387649536
			],
			"type":"VEC3"
		},
		{
			"bufferView":198,
			"componentType":5126,
			"count":38,
			"type":"VEC3"
		},
		{
			"bufferView":199,
			"componentType":5123,
			"count":126,
			"type":"SCALAR"
		},
		{
			"bufferView":200,
			"componentType":5126,
			"count":1100,
			"max":[
				-0.009649277664721012,
				0.37261950969696045,
				0.0319984033703804
			],
			"min":[
				-3.4538168907165527,
				0.09803980588912964,
				-0.6072537302970886
			],
			"type":"VEC3"
		},
		{
			"bufferView":201,
			"componentType":5126,
			"count":1100,
			"type":"VEC3"
		},
		{
			"bufferView":202,
			"componentType":5126,
			"count":1100,
			"type":"VEC2"
		},
		{
			"bufferView":203,
			"componentType":5123,
			"count":6444,
			"type":"SCALAR"
		}
	],
	"bufferViews":[
		{
			"buffer":0,
			"byteLength":2520,
			"byteOffset":0,
			"target":34962
		},
		{
			"buffer":0,
			"byteLength":2520,
			"byteOffset":2520,
			"target":34962
		},
		{
			"buffer":0,
			"byteLength":1680,
			"byteOffset":5040,
			"target":34962
		},
		{
			"buffer":0,
			"byteLength":2496,
			"byteOffset":6720,
			"target":34963
		},
		{
			"buffer":0,
			"byteLength":2520,
			"byteOffset":9216,
			"target":34962
		},
		{
			"buffer":0,
			"byteLength":2520,
			"byteOffset":11736,
			"target":34962
		},
		{
			"buffer":0,
			"byteLength":1680,
			"byteOffset":14256,
			"target":34962
		},
		{
			"buffer":0,
			"byteLength":2496,
			"byteOffset":15936,
			"target":34963
		},
		{
			"buffer":0,
			"byteLength":1224,
			"byteOffset":18432,
			"target":34962
		},
		{
			"buffer":0,
			"byteLength":1224,
			"byteOffset":19656,
			"target":34962
		},
		{
			"buffer":0,
			"byteLength":1104,
			"byteOffset":20880,
			"target":34963
		},
		{
			"buffer":0,
			"byteLength":76200,
			"byteOffset":21984,
			"target":34962
		},
		{
			"buffer":0,
			"byteLength":76200,
			"byteOffset":98184,
			"target":34962
		},
		{
			"buffer":0,
			"byteLength":68136,
			"byteOffset":174384,
			"target":34963
		},
		{
			"buffer":0,
			"byteLength":2208,
			"byteOffset":242520,
			"target":34962
		},
		{
			"buffer":0,
			"byteLength":2208,
			"byteOffset":244728,
			"target":34962
		},
		{
			"buffer":0,
			"byteLength":1472,
			"byteOffset":246936,
			"target":34962
		},
		{
			"buffer":0,
			"byteLength":2184,
			"byteOffset":248408,
			"target":34963
		},
		{
			"buffer":0,
			"byteLength":15552,
			"byteOffset":250592,
			"target":34962
		},
		{
			"buffer":0,
			"byteLength":15552,
			"byteOffset":266144,
			"target":34962
		},
		{
			"buffer":0,
			"byteLength":10368,
			"byteOffset":281696,
			"target":34962
		},
		{
			"buffer":0,
			"byteLength":15552,
			"byteOffset":292064,
			"target":34963
		},
		{
			"buffer":0,
			"byteLength":672,
			"byteOffset":307616,
			"target":34962
		},
		{
			"buffer":0,
			"byteLength":672,
			"byteOffset":308288,
			"target":34962
		},
		{
			"buffer":0,
			"byteLength":648,
			"byteOffset":308960,
			"target":34963
		},
		{
			"buffer":0,
			"byteLength":3168,
			"byteOffset":309608,
			"target":34962
		},
		{
			"buffer":0,
			"byteLength":3168,
			"byteOffset":312776,
			"target":34962
		},
		{
			"buffer":0,
			"byteLength":3036,
			"byteOffset":315944,
			"target":34963
		},
		{
			"buffer":0,
			"byteLength":15240,
			"byteOffset":318980,
			"target":34962
		},
		{
			"buffer":0,
			"byteLength":15240,
			"byteOffset":334220,
			"target":34962
		},
		{
			"buffer":0,
			"byteLength":10160,
			"byteOffset":349460,
			"target":34962
		},
		{
			"buffer":0,
			"byteLength":12384,
			"byteOffset":359620,
			"target":34963
		},
		{
			"buffer":0,
			"byteLength":4632,
			"byteOffset":372004,
			"target":34962
		},
		{
			"buffer":0,
			"byteLength":4632,
			"byteOffset":376636,
			"target":34962
		},
		{
			"buffer":0,
			"byteLength":4608,
			"byteOffset":381268,
			"target":34963
		},
		{
			"buffer":0,
			"byteLength":62676,
			"byteOffset":385876,
			"target":34962
		},
		{
			"buffer":0,
			"byteLength":62676,
			"byteOffset":448552,
			"target":34962
		},
		{
			"buffer":0,
			"byteLength":41784,
			"byteOffset":511228,
			"target":34962
		},
		{
			"buffer":0,
			"byteLength":57600,
			"byteOffset":553012,
			"target":34963
		},
		{
			"buffer":0,
			"byteLength":504,
			"byteOffset":610612,
			"target":34962
		},
		{
			"buffer":0,
			"byteLength":504,
			"byteOffset":611116,
			"target":34962
		},
		{
			"buffer":0,
			"byteLength":480,
			"byteOffset":611620,
			"target":34963
		},
		{
			"buffer":0,
			"byteLength":2208,
			"byteOffset":612100,
			"target":34962
		},
		{
			"buffer":0,
			"byteLength":2208,
			"byteOffset":614308,
			"target":34962
		},
		{
			"buffer":0,
			"byteLength":1472,
			"byteOffset":616516,
			"target":34962
		},
		{
			"buffer":0,
			"byteLength":1200,
			"byteOffset":617988,
			"target":34963
		},
		{
			"buffer":0,
			"byteLength":1968,
			"byteOffset":619188,
			"target":34962
		},
		{
			"buffer":0,
			"byteLength":1968,
			"byteOffset":621156,
			"target":34962
		},
		{
			"buffer":0,
			"byteLength":1312,
			"byteOffset":623124,
			"target":34962
		},
		{
			"buffer":0,
			"byteLength":900,
			"byteOffset":624436,
			"target":34963
		},
		{
			"buffer":0,
			"byteLength":58824,
			"byteOffset":625336,
			"target":34962
		},
		{
			"buffer":0,
			"byteLength":58824,
			"byteOffset":684160,
			"target":34962
		},
		{
			"buffer":0,
			"byteLength":39216,
			"byteOffset":742984,
			"target":34962
		},
		{
			"buffer":0,
			"byteLength":51144,
			"byteOffset":782200,
			"target":34963
		},
		{
			"buffer":0,
			"byteLength":120,
			"byteOffset":833344,
			"target":34962
		},
		{
			"buffer":0,
			"byteLength":120,
			"byteOffset":833464,
			"target":34962
		},
		{
			"buffer":0,
			"byteLength":48,
			"byteOffset":833584,
			"target":34963
		},
		{
			"buffer":0,
			"byteLength":648,
			"byteOffset":833632,
			"target":34962
		},
		{
			"buffer":0,
			"byteLength":648,
			"byteOffset":834280,
			"target":34962
		},
		{
			"buffer":0,
			"byteLength":432,
			"byteOffset":834928,
			"target":34962
		},
		{
			"buffer":0,
			"byteLength":492,
			"byteOffset":835360,
			"target":34963
		},
		{
			"buffer":0,
			"byteLength":288,
			"byteOffset":835852,
			"target":34962
		},
		{
			"buffer":0,
			"byteLength":288,
			"byteOffset":836140,
			"target":34962
		},
		{
			"buffer":0,
			"byteLength":192,
			"byteOffset":836428,
			"target":34962
		},
		{
			"buffer":0,
			"byteLength":204,
			"byteOffset":836620,
			"target":34963
		},
		{
			"buffer":0,
			"byteLength":2880,
			"byteOffset":836824,
			"target":34962
		},
		{
			"buffer":0,
			"byteLength":2880,
			"byteOffset":839704,
			"target":34962
		},
		{
			"buffer":0,
			"byteLength":1920,
			"byteOffset":842584,
			"target":34962
		},
		{
			"buffer":0,
			"byteLength":720,
			"byteOffset":844504,
			"target":34963
		},
		{
			"buffer":0,
			"byteLength":15288,
			"byteOffset":845224,
			"target":34962
		},
		{
			"buffer":0,
			"byteLength":15288,
			"byteOffset":860512,
			"target":34962
		},
		{
			"buffer":0,
			"byteLength":10192,
			"byteOffset":875800,
			"target":34962
		},
		{
			"buffer":0,
			"byteLength":9168,
			"byteOffset":885992,
			"target":34963
		},
		{
			"buffer":0,
			"byteLength":1620,
			"byteOffset":895160,
			"target":34962
		},
		{
			"buffer":0,
			"byteLength":1620,
			"byteOffset":896780,
			"target":34962
		},
		{
			"buffer":0,
			"byteLength":1488,
			"byteOffset":898400,
			"target":34963
		},
		{
			"buffer":0,
			"byteLength":3540,
			"byteOffset":899888,
			"target":34962
		},
		{
			"buffer":0,
			"byteLength":3540,
			"byteOffset":903428,
			"target":34962
		},
		{
			"buffer":0,
			"byteLength":2360,
			"byteOffset":906968,
			"target":34962
		},
		{
			"buffer":0,
			"byteLength":2664,
			"byteOffset":909328,
			"target":34963
		},
		{
			"buffer":0,
			"byteLength":6708,
			"byteOffset":911992,
			"target":34962
		},
		{
			"buffer":0,
			"byteLength":6708,
			"byteOffset":918700,
			"target":34962
		},
		{
			"buffer":0,
			"byteLength":4472,
			"byteOffset":925408,
			"target":34962
		},
		{
			"buffer":0,
			"byteLength":5760,
			"byteOffset":929880,
			"target":34963
		},
		{
			"buffer":0,
			"byteLength":530640,
			"byteOffset":935640,
			"target":34962
		},
		{
			"buffer":0,
			"byteLength":530640,
			"byteOffset":1466280,
			"target":34962
		},
		{
			"buffer":0,
			"byteLength":353760,
			"byteOffset":1996920,
			"target":34962
		},
		{
			"buffer":0,
			"byteLength":132744,
			"byteOffset":2350680,
			"target":34963
		},
		{
			"buffer":0,
			"byteLength":936,
			"byteOffset":2483424,
			"target":34962
		},
		{
			"buffer":0,
			"byteLength":936,
			"byteOffset":2484360,
			"target":34962
		},
		{
			"buffer":0,
			"byteLength":846,
			"byteOffset":2485296,
			"target":34963
		},
		{
			"buffer":0,
			"byteLength":600,
			"byteOffset":2486144,
			"target":34962
		},
		{
			"buffer":0,
			"byteLength":600,
			"byteOffset":2486744,
			"target":34962
		},
		{
			"buffer":0,
			"byteLength":480,
			"byteOffset":2487344,
			"target":34963
		},
		{
			"buffer":0,
			"byteLength":144,
			"byteOffset":2487824,
			"target":34962
		},
		{
			"buffer":0,
			"byteLength":144,
			"byteOffset":2487968,
			"target":34962
		},
		{
			"buffer":0,
			"byteLength":72,
			"byteOffset":2488112,
			"target":34963
		},
		{
			"buffer":0,
			"byteLength":432,
			"byteOffset":2488184,
			"target":34962
		},
		{
			"buffer":0,
			"byteLength":432,
			"byteOffset":2488616,
			"target":34962
		},
		{
			"buffer":0,
			"byteLength":288,
			"byteOffset":2489048,
			"target":34962
		},
		{
			"buffer":0,
			"byteLength":312,
			"byteOffset":2489336,
			"target":34963
		},
		{
			"buffer":0,
			"byteLength":3288,
			"byteOffset":2489648,
			"target":34962
		},
		{
			"buffer":0,
			"byteLength":3288,
			"byteOffset":2492936,
			"target":34962
		},
		{
			"buffer":0,
			"byteLength":3186,
			"byteOffset":2496224,
			"target":34963
		},
		{
			"buffer":0,
			"byteLength":696,
			"byteOffset":2499412,
			"target":34962
		},
		{
			"buffer":0,
			"byteLength":696,
			"byteOffset":2500108,
			"target":34962
		},
		{
			"buffer":0,
			"byteLength":464,
			"byteOffset":2500804,
			"target":34962
		},
		{
			"buffer":0,
			"byteLength":216,
			"byteOffset":2501268,
			"target":34963
		},
		{
			"buffer":0,
			"byteLength":600,
			"byteOffset":2501484,
			"target":34962
		},
		{
			"buffer":0,
			"byteLength":600,
			"byteOffset":2502084,
			"target":34962
		},
		{
			"buffer":0,
			"byteLength":400,
			"byteOffset":2502684,
			"target":34962
		},
		{
			"buffer":0,
			"byteLength":288,
			"byteOffset":2503084,
			"target":34963
		},
		{
			"buffer":0,
			"byteLength":2760,
			"byteOffset":2503372,
			"target":34962
		},
		{
			"buffer":0,
			"byteLength":2760,
			"byteOffset":2506132,
			"target":34962
		},
		{
			"buffer":0,
			"byteLength":1840,
			"byteOffset":2508892,
			"target":34962
		},
		{
			"buffer":0,
			"byteLength":1524,
			"byteOffset":2510732,
			"target":34963
		},
		{
			"buffer":0,
			"byteLength":164268,
			"byteOffset":2512256,
			"target":34962
		},
		{
			"buffer":0,
			"byteLength":164268,
			"byteOffset":2676524,
			"target":34962
		},
		{
			"buffer":0,
			"byteLength":109512,
			"byteOffset":2840792,
			"target":34962
		},
		{
			"buffer":0,
			"byteLength":142848,
			"byteOffset":2950304,
			"target":34963
		},
		{
			"buffer":0,
			"byteLength":27540,
			"byteOffset":3093152,
			"target":34962
		},
		{
			"buffer":0,
			"byteLength":27540,
			"byteOffset":3120692,
			"target":34962
		},
		{
			"buffer":0,
			"byteLength":18360,
			"byteOffset":3148232,
			"target":34962
		},
		{
			"buffer":0,
			"byteLength":22176,
			"byteOffset":3166592,
			"target":34963
		},
		{
			"buffer":0,
			"byteLength":936,
			"byteOffset":3188768,
			"target":34962
		},
		{
			"buffer":0,
			"byteLength":936,
			"byteOffset":3189704,
			"target":34962
		},
		{
			"buffer":0,
			"byteLength":654,
			"byteOffset":3190640,
			"target":34963
		},
		{
			"buffer":0,
			"byteLength":17556,
			"byteOffset":3191296,
			"target":34962
		},
		{
			"buffer":0,
			"byteLength":17556,
			"byteOffset":3208852,
			"target":34962
		},
		{
			"buffer":0,
			"byteLength":17280,
			"byteOffset":3226408,
			"target":34963
		},
		{
			"buffer":0,
			"byteLength":2580,
			"byteOffset":3243688,
			"target":34962
		},
		{
			"buffer":0,
			"byteLength":2580,
			"byteOffset":3246268,
			"target":34962
		},
		{
			"buffer":0,
			"byteLength":2304,
			"byteOffset":3248848,
			"target":34963
		},
		{
			"buffer":0,
			"byteLength":288,
			"byteOffset":3251152,
			"target":34962
		},
		{
			"buffer":0,
			"byteLength":288,
			"byteOffset":3251440,
			"target":34962
		},
		{
			"buffer":0,
			"byteLength":192,
			"byteOffset":3251728,
			"target":34962
		},
		{
			"buffer":0,
			"byteLength":192,
			"byteOffset":3251920,
			"target":34963
		},
		{
			"buffer":0,
			"byteLength":288,
			"byteOffset":3252112,
			"target":34962
		},
		{
			"buffer":0,
			"byteLength":288,
			"byteOffset":3252400,
			"target":34962
		},
		{
			"buffer":0,
			"byteLength":192,
			"byteOffset":3252688,
			"target":34962
		},
		{
			"buffer":0,
			"byteLength":3996,
			"byteOffset":3252880,
			"target":34962
		},
		{
			"buffer":0,
			"byteLength":3996,
			"byteOffset":3256876,
			"target":34962
		},
		{
			"buffer":0,
			"byteLength":2664,
			"byteOffset":3260872,
			"target":34962
		},
		{
			"buffer":0,
			"byteLength":3648,
			"byteOffset":3263536,
			"target":34963
		},
		{
			"buffer":0,
			"byteLength":4032,
			"byteOffset":3267184,
			"target":34962
		},
		{
			"buffer":0,
			"byteLength":4032,
			"byteOffset":3271216,
			"target":34962
		},
		{
			"buffer":0,
			"byteLength":2688,
			"byteOffset":3275248,
			"target":34962
		},
		{
			"buffer":0,
			"byteLength":3360,
			"byteOffset":3277936,
			"target":34963
		},
		{
			"buffer":0,
			"byteLength":3996,
			"byteOffset":3281296,
			"target":34962
		},
		{
			"buffer":0,
			"byteLength":3996,
			"byteOffset":3285292,
			"target":34962
		},
		{
			"buffer":0,
			"byteLength":2664,
			"byteOffset":3289288,
			"target":34962
		},
		{
			"buffer":0,
			"byteLength":4032,
			"byteOffset":3291952,
			"target":34962
		},
		{
			"buffer":0,
			"byteLength":4032,
			"byteOffset":3295984,
			"target":34962
		},
		{
			"buffer":0,
			"byteLength":2688,
			"byteOffset":3300016,
			"target":34962
		},
		{
			"buffer":0,
			"byteLength":1200,
			"byteOffset":3302704,
			"target":34962
		},
		{
			"buffer":0,
			"byteLength":1200,
			"byteOffset":3303904,
			"target":34962
		},
		{
			"buffer":0,
			"byteLength":984,
			"byteOffset":3305104,
			"target":34963
		},
		{
			"buffer":0,
			"byteLength":2568,
			"byteOffset":3306088,
			"target":34962
		},
		{
			"buffer":0,
			"byteLength":2568,
			"byteOffset":3308656,
			"target":34962
		},
		{
			"buffer":0,
			"byteLength":2064,
			"byteOffset":3311224,
			"target":34963
		},
		{
			"buffer":0,
			"byteLength":421704,
			"byteOffset":3313288,
			"target":34962
		},
		{
			"buffer":0,
			"byteLength":421704,
			"byteOffset":3734992,
			"target":34962
		},
		{
			"buffer":0,
			"byteLength":281136,
			"byteOffset":4156696,
			"target":34962
		},
		{
			"buffer":0,
			"byteLength":389376,
			"byteOffset":4437832,
			"target":34963
		},
		{
			"buffer":0,
			"byteLength":1130040,
			"byteOffset":4827208,
			"target":34962
		},
		{
			"buffer":0,
			"byteLength":1130040,
			"byteOffset":5957248,
			"target":34962
		},
		{
			"buffer":0,
			"byteLength":753360,
			"byteOffset":7087288,
			"target":34962
		},
		{
			"buffer":0,
			"byteLength":571392,
			"byteOffset":7840648,
			"target":34963
		},
		{
			"buffer":0,
			"byteLength":960,
			"byteOffset":8412040,
			"target":34962
		},
		{
			"buffer":0,
			"byteLength":960,
			"byteOffset":8413000,
			"target":34962
		},
		{
			"buffer":0,
			"byteLength":864,
			"byteOffset":8413960,
			"target":34963
		},
		{
			"buffer":0,
			"byteLength":91248,
			"byteOffset":8414824,
			"target":34962
		},
		{
			"buffer":0,
			"byteLength":91248,
			"byteOffset":8506072,
			"target":34962
		},
		{
			"buffer":0,
			"byteLength":60832,
			"byteOffset":8597320,
			"target":34962
		},
		{
			"buffer":0,
			"byteLength":74064,
			"byteOffset":8658152,
			"target":34963
		},
		{
			"buffer":0,
			"byteLength":4764,
			"byteOffset":8732216,
			"target":34962
		},
		{
			"buffer":0,
			"byteLength":4764,
			"byteOffset":8736980,
			"target":34962
		},
		{
			"buffer":0,
			"byteLength":3176,
			"byteOffset":8741744,
			"target":34962
		},
		{
			"buffer":0,
			"byteLength":3120,
			"byteOffset":8744920,
			"target":34963
		},
		{
			"buffer":0,
			"byteLength":3516,
			"byteOffset":8748040,
			"target":34962
		},
		{
			"buffer":0,
			"byteLength":3516,
			"byteOffset":8751556,
			"target":34962
		},
		{
			"buffer":0,
			"byteLength":2344,
			"byteOffset":8755072,
			"target":34962
		},
		{
			"buffer":0,
			"byteLength":2400,
			"byteOffset":8757416,
			"target":34963
		},
		{
			"buffer":0,
			"byteLength":3516,
			"byteOffset":8759816,
			"target":34962
		},
		{
			"buffer":0,
			"byteLength":3516,
			"byteOffset":8763332,
			"target":34962
		},
		{
			"buffer":0,
			"byteLength":2344,
			"byteOffset":8766848,
			"target":34962
		},
		{
			"buffer":0,
			"byteLength":15324,
			"byteOffset":8769192,
			"target":34962
		},
		{
			"buffer":0,
			"byteLength":15324,
			"byteOffset":8784516,
			"target":34962
		},
		{
			"buffer":0,
			"byteLength":10216,
			"byteOffset":8799840,
			"target":34962
		},
		{
			"buffer":0,
			"byteLength":8838,
			"byteOffset":8810056,
			"target":34963
		},
		{
			"buffer":0,
			"byteLength":9240,
			"byteOffset":8818896,
			"target":34962
		},
		{
			"buffer":0,
			"byteLength":9240,
			"byteOffset":8828136,
			"target":34962
		},
		{
			"buffer":0,
			"byteLength":6160,
			"byteOffset":8837376,
			"target":34962
		},
		{
			"buffer":0,
			"byteLength":8838,
			"byteOffset":8843536,
			"target":34963
		},
		{
			"buffer":0,
			"byteLength":780,
			"byteOffset":8852376,
			"target":34962
		},
		{
			"buffer":0,
			"byteLength":780,
			"byteOffset":8853156,
			"target":34962
		},
		{
			"buffer":0,
			"byteLength":516,
			"byteOffset":8853936,
			"target":34963
		},
		{
			"buffer":0,
			"byteLength":456,
			"byteOffset":8854452,
			"target":34962
		},
		{
			"buffer":0,
			"byteLength":456,
			"byteOffset":8854908,
			"target":34962
		},
		{
			"buffer":0,
			"byteLength":252,
			"byteOffset":8855364,
			"target":34963
		},
		{
			"buffer":0,
			"byteLength":13200,
			"byteOffset":8855616,
			"target":34962
		},
		{
			"buffer":0,
			"byteLength":13200,
			"byteOffset":8868816,
			"target":34962
		},
		{
			"buffer":0,
			"byteLength":8800,
			"byteOffset":8882016,
			"target":34962
		},
		{
			"buffer":0,
			"byteLength":12888,
			"byteOffset":8890816,
			"target":34963
		}
	],
	"samplers":[
		{
			"magFilter":9729,
			"minFilter":9987
		}
	],
	"buffers":[
		{
			"byteLength":8903704,
			"uri":"car.bin"
		}
	]
}
