{
	"asset":{
		"generator":"Khronos glTF Blender I/O v5.1.18",
		"version":"2.0"
	},
	"extensionsUsed":[
		"KHR_materials_emissive_strength"
	],
	"scene":0,
	"scenes":[
		{
			"name":"Scene",
			"nodes":[
				0,
				1,
				2,
				3
			]
		}
	],
	"nodes":[
		{
			"camera":0,
			"name":"Camera",
			"rotation":[
				-0.20997299253940582,
				0.3857799470424652,
				0.09062844514846802,
				0.8937962055206299
			],
			"translation":[
				7.358891487121582,
				4.958309173583984,
				6.925790786743164
			]
		},
		{
			"mesh":0,
			"name":"Icosphere",
			"scale":[
				2.338602066040039,
				2.338602066040039,
				2.338602066040039
			],
			"translation":[
				0,
				0,
				-8.750609397888184
			]
		},
		{
			"mesh":1,
			"name":"Icosphere.001",
			"scale":[
				5.118505001068115,
				5.118505001068115,
				5.118505001068115
			],
			"translation":[
				0,
				0,
				9.75932502746582
			]
		},
		{
			"mesh":2,
			"name":"Icosphere.002",
			"scale":[
				1.0418907403945923,
				1.0418907403945923,
				1.0418907403945923
			],
			"translation":[
				0,
				0,
				-3.8331198692321777
			]
		}
	],
	"cameras":[
		{
			"name":"Camera",
			"perspective":{
				"aspectRatio":1.7777777777777777,
				"yfov":0.39959652046304894,
				"zfar":100,
				"znear":0.10000000149011612
			},
			"type":"perspective"
		}
	],
	"materials":[
		{
			"doubleSided":true,
			"name":"Material.001",
			"pbrMetallicRoughness":{
				"baseColorFactor":[
					0.0235037449747324,
					0.06819064170122147,
					0.8000074625015259,
					1
				],
				"metallicFactor":0,
				"roughnessFactor":0.8583815097808838
			}
		},
		{
			"doubleSided":true,
			"emissiveFactor":[
				1,
				1,
				1
			],
			"extensions":{
				"KHR_materials_emissive_strength":{
					"emissiveStrength":58.59999465942383
				}
			},
			"name":"Material.003",
			"pbrMetallicRoughness":{
				"baseColorFactor":[
					0.800000011920929,
					0.800000011920929,
					0.800000011920929,
					1
				],
				"metallicFactor":0,
				"roughnessFactor":0.5
			}
		},
		{
			"doubleSided":true,
			"name":"Material.002",
			"pbrMetallicRoughness":{
				"baseColorFactor":[
					0.1836957037448883,
					0.1836957037448883,
					0.1836957037448883,
					1
				],
				"metallicFactor":0
			}
		}
	],
	"meshes":[
		{
			"name":"Icosphere",
			"primitives":[
				{
					"attributes":{
						"POSITION":0,
						"NORMAL":1,
						"TEXCOORD_0":2
					},
					"indices":3,
					"material":0
				}
			]
		},
		{
			"name":"Icosphere.001",
			"primitives":[
				{
					"attributes":{
						"POSITION":4,
						"NORMAL":5,
						"TEXCOORD_0":6
					},
					"indices":3,
					"material":1
				}
			]
		},
		{
			"name":"Icosphere.002",
			"primitives":[
				{
					"attributes":{
						"POSITION":7,
						"NORMAL":8,
						"TEXCOORD_0":9
					},
					"indices":3,
					"material":2
				}
			]
		}
	],
	"accessors":[
		{
			"bufferView":0,
			"componentType":5126,
			"count":729,
			"max":[
				1,
				1,
				0.9999999403953552
			],
			"min":[
				-0.9999999403953552,
				-1,
				-0.9999999403953552
			],
			"type":"VEC3"
		},
		{
			"bufferView":1,
			"componentType":5126,
			"count":729,
			"type":"VEC3"
		},
		{
			"bufferView":2,
			"componentType":5126,
			"count":729,
			"type":"VEC2"
		},
		{
			"bufferView":3,
			"componentType":5123,
			"count":3840,
			"type":"SCALAR"
		},
		{
			"bufferView":4,
			"componentType":5126,
			"count":729,
			"max":[
				1,
				1,
				0.9999999403953552
			],
			"min":[
				-0.9999999403953552,
				-1,
				-0.9999999403953552
			],
			"type":"VEC3"
		},
		{
			"bufferView":5,
			"componentType":5126,
			"count":729,
			"type":"VEC3"
		},
		{
			"bufferView":6,
			"componentType":5126,
			"count":729,
			"type":"VEC2"
		},
		{
			"bufferView":7,
			"componentType":5126,
			"count":729,
			"max":[
				1,
				1,
				0.9999999403953552
			],
			"min":[
				-0.9999999403953552,
				-1,
				-0.9999999403953552
			],
			"type":"VEC3"
		},
		{
			"bufferView":8,
			"componentType":5126,
			"count":729,
			"type":"VEC3"
		},
		{
			"bufferView":9,
			"componentType":5126,
			"count":729,
			"type":"VEC2"
		}
	],
	"bufferViews":[
		{
			"buffer":0,
			"byteLength":8748,
			"byteOffset":0,
			"target":34962
		},
		{
			"buffer":0,
			"byteLength":8748,
			"byteOffset":8748,
			"target":34962
		},
		{
			"buffer":0,
			"byteLength":5832,
			"byteOffset":17496,
			"target":34962
		},
		{
			"buffer":0,
			"byteLength":7680,
			"byteOffset":23328,
			"target":34963
		},
		{
			"buffer":0,
			"byteLength":8748,
			"byteOffset":31008,
			"target":34962
		},
		{
			"buffer":0,
			"byteLength":8748,
			"byteOffset":39756,
			"target":34962
		},
		{
			"buffer":0,
			"byteLength":5832,
			"byteOffset":48504,
			"target":34962
		},
		{
			"buffer":0,
			"byteLength":8748,
			"byteOffset":54336,
			"target":34962
		},
		{
			"buffer":0,
			"byteLength":8748,
			"byteOffset":63084,
			"target":34962
		},
		{
			"buffer":0,
			"byteLength":5832,
			"byteOffset":71832,
			"target":34962
		}
	],
	"buffers":[
		{
			"byteLength":77664,
			"uri":"earht.bin"
		}
	]
}
