{
	"asset":{
		"generator":"Khronos glTF Blender I/O v5.2.39",
		"version":"2.0"
	},
	"extensionsUsed":[
		"KHR_materials_clearcoat"
	],
	"scene":0,
	"scenes":[
		{
			"name":"Scene",
			"nodes":[
				0,
				9,
				10,
				11,
				12
			]
		}
	],
	"nodes":[
		{
			"camera":0,
			"name":"Camera",
			"rotation":[
				-0.11351600289344788,
				-0.40561869740486145,
				-0.05084739252924919,
				0.9055396914482117
			],
			"translation":[
				-13.22885513305664,
				5.39150333404541,
				11.69461727142334
			]
		},
		{
			"mesh":0,
			"name":"Circle",
			"scale":[
				0.09842747449874878,
				0.09842747449874878,
				0.09842747449874878
			],
			"translation":[
				0,
				-0.25635018944740295,
				0.1431996077299118
			]
		},
		{
			"mesh":1,
			"name":"Display",
			"rotation":[
				-0.7071068286895752,
				0,
				0,
				0.7071068286895752
			],
			"translation":[
				0,
				-0.033882301300764084,
				-0.9688026309013367
			]
		},
		{
			"mesh":2,
			"name":"Display.001",
			"rotation":[
				-0.7071068286895752,
				0,
				0,
				0.7071068286895752
			],
			"translation":[
				0,
				-0.033882301300764084,
				-0.9688026309013367
			]
		},
		{
			"mesh":3,
			"name":"Display.002",
			"rotation":[
				-0.7071068286895752,
				0,
				0,
				0.7071068286895752
			],
			"translation":[
				0,
				-0.033882301300764084,
				-0.9688026309013367
			]
		},
		{
			"mesh":4,
			"name":"Display.003",
			"rotation":[
				-0.7071068286895752,
				0,
				0,
				0.7071068286895752
			],
			"translation":[
				0,
				-0.033882301300764084,
				-0.9688026309013367
			]
		},
		{
			"mesh":5,
			"name":"Display.004",
			"rotation":[
				-0.7071068286895752,
				0,
				0,
				0.7071068286895752
			],
			"translation":[
				0,
				-0.033882301300764084,
				-0.9688026309013367
			]
		},
		{
			"mesh":6,
			"name":"Plane.001",
			"translation":[
				0.02257359027862549,
				0,
				-0.3657970130443573
			]
		},
		{
			"mesh":7,
			"name":"Plane.002",
			"translation":[
				0,
				-0.005561508238315582,
				0.6119872331619263
			]
		},
		{
			"children":[
				1,
				2,
				3,
				4,
				5,
				6,
				7,
				8
			],
			"mesh":8,
			"name":"Plane"
		},
		{
			"mesh":9,
			"name":"Plane.003",
			"scale":[
				2.9208788871765137,
				2.9208788871765137,
				2.9208788871765137
			],
			"translation":[
				0.02643446810543537,
				-0.652845561504364,
				-0.6158981323242188
			]
		},
		{
			"mesh":10,
			"name":"Plane.005",
			"scale":[
				12.445326805114746,
				2.65244197845459,
				2.65244197845459
			],
			"translation":[
				0.06981142610311508,
				-0.733020007610321,
				0
			]
		},
		{
			"mesh":11,
			"name":"Plane.006"
		}
	],
	"cameras":[
		{
			"name":"Camera",
			"perspective":{
				"aspectRatio":1,
				"yfov":0.22975321114063263,
				"zfar":100,
				"znear":0.10000000149011612
			},
			"type":"perspective"
		}
	],
	"materials":[
		{
			"doubleSided":true,
			"name":"Material",
			"pbrMetallicRoughness":{
				"baseColorFactor":[
					0.07621019333600998,
					0.07621019333600998,
					0.07621019333600998,
					1
				],
				"metallicFactor":0,
				"roughnessFactor":0.736994206905365
			}
		},
		{
			"doubleSided":true,
			"name":"ScreenBorder",
			"pbrMetallicRoughness":{
				"baseColorFactor":[
					0,
					0,
					0,
					1
				],
				"metallicFactor":0,
				"roughnessFactor":0
			}
		},
		{
			"doubleSided":true,
			"name":"aluminium",
			"pbrMetallicRoughness":{
				"baseColorFactor":[
					0.7991030812263489,
					0.7991030812263489,
					0.7991030812263489,
					1
				],
				"roughnessFactor":0.4595380127429962
			}
		},
		{
			"doubleSided":true,
			"name":"lid",
			"pbrMetallicRoughness":{
				"baseColorTexture":{
					"index":0
				},
				"metallicRoughnessTexture":{
					"index":1
				}
			}
		},
		{
			"doubleSided":true,
			"emissiveFactor":[
				1,
				1,
				1
			],
			"emissiveTexture":{
				"index":2
			},
			"name":"screen",
			"pbrMetallicRoughness":{
				"baseColorFactor":[
					0,
					0,
					0,
					1
				],
				"metallicFactor":0,
				"roughnessFactor":0
			}
		},
		{
			"doubleSided":true,
			"name":"plastic thingymabob",
			"pbrMetallicRoughness":{
				"baseColorFactor":[
					0,
					0,
					0,
					1
				],
				"metallicFactor":0,
				"roughnessFactor":0.6707317233085632
			}
		},
		{
			"doubleSided":true,
			"emissiveTexture":{
				"index":3
			},
			"name":"kbd",
			"pbrMetallicRoughness":{
				"baseColorTexture":{
					"index":4
				},
				"metallicFactor":0,
				"roughnessFactor":0.5
			}
		},
		{
			"doubleSided":true,
			"extensions":{
				"KHR_materials_clearcoat":{
					"clearcoatFactor":1,
					"clearcoatRoughnessFactor":0
				}
			},
			"name":"glass alu text",
			"pbrMetallicRoughness":{
				"baseColorFactor":[
					0.800000011920929,
					0.800000011920929,
					0.800000011920929,
					1
				],
				"roughnessFactor":0.4017341136932373
			}
		},
		{
			"doubleSided":true,
			"name":"usb c inside",
			"pbrMetallicRoughness":{
				"baseColorFactor":[
					0.008088466711342335,
					0.008088466711342335,
					0.008088466711342335,
					1
				],
				"roughnessFactor":0.5
			}
		},
		{
			"doubleSided":true,
			"name":"Material.002",
			"pbrMetallicRoughness":{
				"metallicFactor":0,
				"roughnessFactor":0.5
			}
		},
		{
			"doubleSided":true,
			"name":"speaker",
			"pbrMetallicRoughness":{
				"baseColorFactor":[
					0,
					0,
					0,
					1
				],
				"metallicFactor":0
			}
		}
	],
	"meshes":[
		{
			"name":"Circle",
			"primitives":[
				{
					"attributes":{
						"POSITION":0,
						"NORMAL":1,
						"TEXCOORD_0":2
					},
					"indices":3,
					"material":0
				}
			]
		},
		{
			"name":"Plane.004",
			"primitives":[
				{
					"attributes":{
						"POSITION":4,
						"NORMAL":5,
						"TEXCOORD_0":6
					},
					"indices":7,
					"material":1
				}
			]
		},
		{
			"name":"Plane.007",
			"primitives":[
				{
					"attributes":{
						"POSITION":8,
						"NORMAL":9,
						"TEXCOORD_0":10
					},
					"indices":11,
					"material":2
				}
			]
		},
		{
			"name":"Plane.008",
			"primitives":[
				{
					"attributes":{
						"POSITION":12,
						"NORMAL":13,
						"TEXCOORD_0":14
					},
					"indices":15,
					"material":3
				}
			]
		},
		{
			"name":"Plane.009",
			"primitives":[
				{
					"attributes":{
						"POSITION":16,
						"NORMAL":17,
						"TEXCOORD_0":18
					},
					"indices":19,
					"material":4
				}
			]
		},
		{
			"name":"Plane.010",
			"primitives":[
				{
					"attributes":{
						"POSITION":20,
						"NORMAL":21,
						"TEXCOORD_0":22
					},
					"indices":23,
					"material":5
				}
			]
		},
		{
			"name":"Plane.001",
			"primitives":[
				{
					"attributes":{
						"POSITION":24,
						"NORMAL":25,
						"TEXCOORD_0":26
					},
					"indices":27,
					"material":6
				}
			]
		},
		{
			"name":"Plane.003",
			"primitives":[
				{
					"attributes":{
						"POSITION":28,
						"NORMAL":29,
						"TEXCOORD_0":30
					},
					"indices":31,
					"material":7
				}
			]
		},
		{
			"name":"Plane",
			"primitives":[
				{
					"attributes":{
						"POSITION":32,
						"NORMAL":33,
						"TEXCOORD_0":34
					},
					"indices":35,
					"material":8
				}
			]
		},
		{
			"name":"Plane.002",
			"primitives":[
				{
					"attributes":{
						"POSITION":36,
						"NORMAL":37,
						"TEXCOORD_0":38
					},
					"indices":39,
					"material":9
				}
			]
		},
		{
			"name":"Plane.006",
			"primitives":[
				{
					"attributes":{
						"POSITION":40,
						"NORMAL":41,
						"TEXCOORD_0":42
					},
					"indices":43
				}
			]
		},
		{
			"name":"Plane.011",
			"primitives":[
				{
					"attributes":{
						"POSITION":44,
						"NORMAL":45,
						"TEXCOORD_0":46
					},
					"indices":47,
					"material":2
				},
				{
					"attributes":{
						"POSITION":48,
						"NORMAL":49,
						"TEXCOORD_0":50
					},
					"indices":51,
					"material":10
				}
			]
		}
	],
	"textures":[
		{
			"sampler":0,
			"source":0
		},
		{
			"sampler":0,
			"source":1
		},
		{
			"sampler":0,
			"source":2
		},
		{
			"sampler":0,
			"source":3
		},
		{
			"sampler":0,
			"source":3
		}
	],
	"images":[
		{
			"mimeType":"image/png",
			"name":"lid",
			"uri":"lid.png"
		},
		{
			"mimeType":"image/png",
			"name":"lid",
			"uri":"lid-1.png"
		},
		{
			"mimeType":"image/png",
			"name":"holy shit real",
			"uri":"holy%20shit%20real.png"
		},
		{
			"mimeType":"image/png",
			"name":"help me",
			"uri":"help%20me.png"
		}
	],
	"accessors":[
		{
			"bufferView":0,
			"componentType":5126,
			"count":4096,
			"max":[
				14.919917106628418,
				1.886336088180542,
				10.394169807434082
			],
			"min":[
				-14.919917106628418,
				1.6513360738754272,
				-10.394169807434082
			],
			"type":"VEC3"
		},
		{
			"bufferView":1,
			"componentType":5126,
			"count":4096,
			"type":"VEC3"
		},
		{
			"bufferView":2,
			"componentType":5126,
			"count":4096,
			"type":"VEC2"
		},
		{
			"bufferView":3,
			"componentType":5123,
			"count":24528,
			"type":"SCALAR"
		},
		{
			"bufferView":4,
			"componentType":5126,
			"count":852,
			"max":[
				1.589605450630188,
				0.03940819203853607,
				2.240962028503418
			],
			"min":[
				-1.589605450630188,
				0.03918725624680519,
				-0.020782137289643288
			],
			"type":"VEC3"
		},
		{
			"bufferView":5,
			"componentType":5126,
			"count":852,
			"type":"VEC3"
		},
		{
			"bufferView":6,
			"componentType":5126,
			"count":852,
			"type":"VEC2"
		},
		{
			"bufferView":7,
			"componentType":5123,
			"count":4260,
			"type":"SCALAR"
		},
		{
			"bufferView":8,
			"componentType":5126,
			"count":3636,
			"max":[
				1.600000023841858,
				0.0662747472524643,
				2.251356840133667
			],
			"min":[
				-1.600000023841858,
				-0.039587005972862244,
				-0.03119736909866333
			],
			"type":"VEC3"
		},
		{
			"bufferView":9,
			"componentType":5126,
			"count":3636,
			"type":"VEC3"
		},
		{
			"bufferView":10,
			"componentType":5126,
			"count":3636,
			"type":"VEC2"
		},
		{
			"bufferView":11,
			"componentType":5123,
			"count":20190,
			"type":"SCALAR"
		},
		{
			"bufferView":12,
			"componentType":5126,
			"count":144,
			"max":[
				1.5879372358322144,
				0.0662747472524643,
				2.2392940521240234
			],
			"min":[
				-1.5879372358322144,
				0.0662747472524643,
				-0.01913464069366455
			],
			"type":"VEC3"
		},
		{
			"bufferView":13,
			"componentType":5126,
			"count":144,
			"type":"VEC3"
		},
		{
			"bufferView":14,
			"componentType":5126,
			"count":144,
			"type":"VEC2"
		},
		{
			"bufferView":15,
			"componentType":5123,
			"count":426,
			"type":"SCALAR"
		},
		{
			"bufferView":16,
			"componentType":5126,
			"count":142,
			"max":[
				1.5261789560317993,
				0.03940819203853607,
				2.1775357723236084
			],
			"min":[
				-1.5261789560317993,
				0.039408184587955475,
				0.15536141395568848
			],
			"type":"VEC3"
		},
		{
			"bufferView":17,
			"componentType":5126,
			"count":142,
			"type":"VEC3"
		},
		{
			"bufferView":18,
			"componentType":5126,
			"count":142,
			"type":"VEC2"
		},
		{
			"bufferView":19,
			"componentType":5123,
			"count":420,
			"type":"SCALAR"
		},
		{
			"bufferView":20,
			"componentType":5126,
			"count":2414,
			"max":[
				1.593634009361267,
				0.03918725624680519,
				2.244990825653076
			],
			"min":[
				-1.593634009361267,
				0.03742799162864685,
				-0.024810850620269775
			],
			"type":"VEC3"
		},
		{
			"bufferView":21,
			"componentType":5126,
			"count":2414,
			"type":"VEC3"
		},
		{
			"bufferView":22,
			"componentType":5126,
			"count":2414,
			"type":"VEC2"
		},
		{
			"bufferView":23,
			"componentType":5123,
			"count":11928,
			"type":"SCALAR"
		},
		{
			"bufferView":24,
			"componentType":5126,
			"count":91056,
			"max":[
				1.401915192604065,
				7.1504837606539695e-09,
				0.577888011932373
			],
			"min":[
				-1.4513295888900757,
				-0.0390000082552433,
				-0.4862511456012726
			],
			"type":"VEC3"
		},
		{
			"bufferView":25,
			"componentType":5126,
			"count":91056,
			"type":"VEC3"
		},
		{
			"bufferView":26,
			"componentType":5126,
			"count":91056,
			"type":"VEC2"
		},
		{
			"bufferView":27,
			"componentType":5125,
			"count":545340,
			"type":"SCALAR"
		},
		{
			"bufferView":28,
			"componentType":5126,
			"count":368,
			"max":[
				0.6623711585998535,
				0.0053465175442397594,
				0.6211368441581726
			],
			"min":[
				-0.6623711585998535,
				-0.0006534815765917301,
				-0.33858269453048706
			],
			"type":"VEC3"
		},
		{
			"bufferView":29,
			"componentType":5126,
			"count":368,
			"type":"VEC3"
		},
		{
			"bufferView":30,
			"componentType":5126,
			"count":368,
			"type":"VEC2"
		},
		{
			"bufferView":31,
			"componentType":5123,
			"count":1092,
			"type":"SCALAR"
		},
		{
			"bufferView":32,
			"componentType":5126,
			"count":1276,
			"max":[
				1.600000023841858,
				-0.020697053521871567,
				-0.5815579891204834
			],
			"min":[
				-1.600000023841858,
				-0.048149481415748596,
				-0.8213328719139099
			],
			"type":"VEC3"
		},
		{
			"bufferView":33,
			"componentType":5126,
			"count":1276,
			"type":"VEC3"
		},
		{
			"bufferView":34,
			"componentType":5126,
			"count":1276,
			"type":"VEC2"
		},
		{
			"bufferView":35,
			"componentType":5123,
			"count":2334,
			"type":"SCALAR"
		},
		{
			"bufferView":36,
			"componentType":5126,
			"count":24,
			"max":[
				2.2579054832458496,
				2.784679412841797,
				1.5938822031021118
			],
			"min":[
				-2.2579054832458496,
				0,
				-1.5938822031021118
			],
			"type":"VEC3"
		},
		{
			"bufferView":37,
			"componentType":5126,
			"count":24,
			"type":"VEC3"
		},
		{
			"bufferView":38,
			"componentType":5126,
			"count":24,
			"type":"VEC2"
		},
		{
			"bufferView":39,
			"componentType":5123,
			"count":66,
			"type":"SCALAR"
		},
		{
			"bufferView":40,
			"componentType":5126,
			"count":4,
			"max":[
				1,
				0,
				1
			],
			"min":[
				-1,
				0,
				-1
			],
			"type":"VEC3"
		},
		{
			"bufferView":41,
			"componentType":5126,
			"count":4,
			"type":"VEC3"
		},
		{
			"bufferView":42,
			"componentType":5126,
			"count":4,
			"type":"VEC2"
		},
		{
			"bufferView":43,
			"componentType":5123,
			"count":6,
			"type":"SCALAR"
		},
		{
			"bufferView":44,
			"componentType":5126,
			"count":14611,
			"max":[
				1.600000023841858,
				0.00023125926963984966,
				1.2825541496276855
			],
			"min":[
				-1.600000023841858,
				-0.07900000363588333,
				-1
			],
			"type":"VEC3"
		},
		{
			"bufferView":45,
			"componentType":5126,
			"count":14611,
			"type":"VEC3"
		},
		{
			"bufferView":46,
			"componentType":5126,
			"count":14611,
			"type":"VEC2"
		},
		{
			"bufferView":47,
			"componentType":5123,
			"count":82014,
			"type":"SCALAR"
		},
		{
			"bufferView":48,
			"componentType":5126,
			"count":11124,
			"max":[
				1.5201534032821655,
				-0.036152925342321396,
				0.9666100740432739
			],
			"min":[
				-1.5201534032821655,
				-0.07900000363588333,
				0.3537757694721222
			],
			"type":"VEC3"
		},
		{
			"bufferView":49,
			"componentType":5126,
			"count":11124,
			"type":"VEC3"
		},
		{
			"bufferView":50,
			"componentType":5126,
			"count":11124,
			"type":"VEC2"
		},
		{
			"bufferView":51,
			"componentType":5123,
			"count":16488,
			"type":"SCALAR"
		}
	],
	"bufferViews":[
		{
			"buffer":0,
			"byteLength":49152,
			"byteOffset":0,
			"target":34962
		},
		{
			"buffer":0,
			"byteLength":49152,
			"byteOffset":49152,
			"target":34962
		},
		{
			"buffer":0,
			"byteLength":32768,
			"byteOffset":98304,
			"target":34962
		},
		{
			"buffer":0,
			"byteLength":49056,
			"byteOffset":131072,
			"target":34963
		},
		{
			"buffer":0,
			"byteLength":10224,
			"byteOffset":180128,
			"target":34962
		},
		{
			"buffer":0,
			"byteLength":10224,
			"byteOffset":190352,
			"target":34962
		},
		{
			"buffer":0,
			"byteLength":6816,
			"byteOffset":200576,
			"target":34962
		},
		{
			"buffer":0,
			"byteLength":8520,
			"byteOffset":207392,
			"target":34963
		},
		{
			"buffer":0,
			"byteLength":43632,
			"byteOffset":215912,
			"target":34962
		},
		{
			"buffer":0,
			"byteLength":43632,
			"byteOffset":259544,
			"target":34962
		},
		{
			"buffer":0,
			"byteLength":29088,
			"byteOffset":303176,
			"target":34962
		},
		{
			"buffer":0,
			"byteLength":40380,
			"byteOffset":332264,
			"target":34963
		},
		{
			"buffer":0,
			"byteLength":1728,
			"byteOffset":372644,
			"target":34962
		},
		{
			"buffer":0,
			"byteLength":1728,
			"byteOffset":374372,
			"target":34962
		},
		{
			"buffer":0,
			"byteLength":1152,
			"byteOffset":376100,
			"target":34962
		},
		{
			"buffer":0,
			"byteLength":852,
			"byteOffset":377252,
			"target":34963
		},
		{
			"buffer":0,
			"byteLength":1704,
			"byteOffset":378104,
			"target":34962
		},
		{
			"buffer":0,
			"byteLength":1704,
			"byteOffset":379808,
			"target":34962
		},
		{
			"buffer":0,
			"byteLength":1136,
			"byteOffset":381512,
			"target":34962
		},
		{
			"buffer":0,
			"byteLength":840,
			"byteOffset":382648,
			"target":34963
		},
		{
			"buffer":0,
			"byteLength":28968,
			"byteOffset":383488,
			"target":34962
		},
		{
			"buffer":0,
			"byteLength":28968,
			"byteOffset":412456,
			"target":34962
		},
		{
			"buffer":0,
			"byteLength":19312,
			"byteOffset":441424,
			"target":34962
		},
		{
			"buffer":0,
			"byteLength":23856,
			"byteOffset":460736,
			"target":34963
		},
		{
			"buffer":0,
			"byteLength":1092672,
			"byteOffset":484592,
			"target":34962
		},
		{
			"buffer":0,
			"byteLength":1092672,
			"byteOffset":1577264,
			"target":34962
		},
		{
			"buffer":0,
			"byteLength":728448,
			"byteOffset":2669936,
			"target":34962
		},
		{
			"buffer":0,
			"byteLength":2181360,
			"byteOffset":3398384,
			"target":34963
		},
		{
			"buffer":0,
			"byteLength":4416,
			"byteOffset":5579744,
			"target":34962
		},
		{
			"buffer":0,
			"byteLength":4416,
			"byteOffset":5584160,
			"target":34962
		},
		{
			"buffer":0,
			"byteLength":2944,
			"byteOffset":5588576,
			"target":34962
		},
		{
			"buffer":0,
			"byteLength":2184,
			"byteOffset":5591520,
			"target":34963
		},
		{
			"buffer":0,
			"byteLength":15312,
			"byteOffset":5593704,
			"target":34962
		},
		{
			"buffer":0,
			"byteLength":15312,
			"byteOffset":5609016,
			"target":34962
		},
		{
			"buffer":0,
			"byteLength":10208,
			"byteOffset":5624328,
			"target":34962
		},
		{
			"buffer":0,
			"byteLength":4668,
			"byteOffset":5634536,
			"target":34963
		},
		{
			"buffer":0,
			"byteLength":288,
			"byteOffset":5639204,
			"target":34962
		},
		{
			"buffer":0,
			"byteLength":288,
			"byteOffset":5639492,
			"target":34962
		},
		{
			"buffer":0,
			"byteLength":192,
			"byteOffset":5639780,
			"target":34962
		},
		{
			"buffer":0,
			"byteLength":132,
			"byteOffset":5639972,
			"target":34963
		},
		{
			"buffer":0,
			"byteLength":48,
			"byteOffset":5640104,
			"target":34962
		},
		{
			"buffer":0,
			"byteLength":48,
			"byteOffset":5640152,
			"target":34962
		},
		{
			"buffer":0,
			"byteLength":32,
			"byteOffset":5640200,
			"target":34962
		},
		{
			"buffer":0,
			"byteLength":12,
			"byteOffset":5640232,
			"target":34963
		},
		{
			"buffer":0,
			"byteLength":175332,
			"byteOffset":5640244,
			"target":34962
		},
		{
			"buffer":0,
			"byteLength":175332,
			"byteOffset":5815576,
			"target":34962
		},
		{
			"buffer":0,
			"byteLength":116888,
			"byteOffset":5990908,
			"target":34962
		},
		{
			"buffer":0,
			"byteLength":164028,
			"byteOffset":6107796,
			"target":34963
		},
		{
			"buffer":0,
			"byteLength":133488,
			"byteOffset":6271824,
			"target":34962
		},
		{
			"buffer":0,
			"byteLength":133488,
			"byteOffset":6405312,
			"target":34962
		},
		{
			"buffer":0,
			"byteLength":88992,
			"byteOffset":6538800,
			"target":34962
		},
		{
			"buffer":0,
			"byteLength":32976,
			"byteOffset":6627792,
			"target":34963
		}
	],
	"samplers":[
		{
			"magFilter":9729,
			"minFilter":9987
		}
	],
	"buffers":[
		{
			"byteLength":6660768,
			"uri":"laptop.bin"
		}
	]
}
