{
	"asset":{
		"generator":"Khronos glTF Blender I/O v5.2.39",
		"version":"2.0"
	},
	"extensionsUsed":[
		"KHR_materials_transmission",
		"KHR_materials_volume"
	],
	"scene":0,
	"scenes":[
		{
			"name":"Scene",
			"nodes":[
				0,
				1,
				2,
				3
			]
		}
	],
	"nodes":[
		{
			"camera":0,
			"name":"Camera",
			"rotation":[
				-0.16070842742919922,
				0.3901642858982086,
				0.06936489045619965,
				0.9039541482925415
			],
			"translation":[
				7.358891487121582,
				4.958309173583984,
				6.925790786743164
			]
		},
		{
			"mesh":0,
			"name":"GlassHurricaneCandleHolder-glass",
			"rotation":[
				0.70710688829422,
				0,
				0,
				0.7071066498756409
			],
			"scale":[
				7.503110885620117,
				7.503110408782959,
				7.503110408782959
			]
		},
		{
			"mesh":1,
			"name":"GlassHurricaneCandleHolder-opaque",
			"scale":[
				7.503110885620117,
				7.503110885620117,
				7.503110885620117
			]
		},
		{
			"mesh":2,
			"name":"Plane",
			"scale":[
				6.058253288269043,
				6.058253288269043,
				6.058253288269043
			]
		}
	],
	"cameras":[
		{
			"name":"Camera",
			"perspective":{
				"aspectRatio":1.7777777777777777,
				"yfov":0.39959652046304894,
				"zfar":100,
				"znear":0.10000000149011612
			},
			"type":"perspective"
		}
	],
	"materials":[
		{
			"doubleSided":false,
			"extensions":{
				"KHR_materials_transmission":{
					"transmissionFactor":1
				},
				"KHR_materials_volume":{
					"attenuationColor":[
						0.800000011920929,
						0.949999988079071,
						1
					],
					"attenuationDistance":0.001,
					"thicknessFactor":0.10000000149011612,
					"thicknessTexture":{
						"index":0
					}
				}
			},
			"name":"GlassHurricaneCandleHolder-glass",
			"occlusionTexture":{
				"index":1
			},
			"pbrMetallicRoughness":{
				"baseColorTexture":{
					"index":2
				},
				"metallicRoughnessTexture":{
					"index":1
				}
			}
		},
		{
			"name":"GlassHurricaneCandleHolder-opaque",
			"occlusionTexture":{
				"index":3
			},
			"pbrMetallicRoughness":{
				"baseColorTexture":{
					"index":4
				},
				"metallicRoughnessTexture":{
					"index":3
				}
			}
		},
		{
			"doubleSided":true,
			"name":"Material.001",
			"pbrMetallicRoughness":{
				"baseColorTexture":{
					"index":5
				},
				"metallicFactor":0,
				"roughnessFactor":0.5
			}
		}
	],
	"meshes":[
		{
			"name":"GlassHurricaneCandleHolder-glass",
			"primitives":[
				{
					"attributes":{
						"POSITION":0,
						"NORMAL":1,
						"TEXCOORD_0":2
					},
					"indices":3,
					"material":0
				}
			]
		},
		{
			"name":"GlassHurricaneCandleHolder-opaque",
			"primitives":[
				{
					"attributes":{
						"POSITION":4,
						"NORMAL":5,
						"TEXCOORD_0":6
					},
					"indices":7,
					"material":1
				}
			]
		},
		{
			"name":"Plane",
			"primitives":[
				{
					"attributes":{
						"POSITION":8,
						"NORMAL":9,
						"TEXCOORD_0":10
					},
					"indices":11,
					"material":2
				}
			]
		}
	],
	"textures":[
		{
			"sampler":0,
			"source":0
		},
		{
			"sampler":0,
			"source":1
		},
		{
			"sampler":0,
			"source":2
		},
		{
			"sampler":0,
			"source":1
		},
		{
			"sampler":0,
			"source":2
		},
		{
			"sampler":0,
			"source":3
		}
	],
	"images":[
		{
			"mimeType":"image/png",
			"name":"Image_2",
			"uri":"Image_2.png"
		},
		{
			"mimeType":"image/png",
			"name":"Image_0",
			"uri":"Image_0.png"
		},
		{
			"mimeType":"image/png",
			"name":"Image_1",
			"uri":"Image_1.png"
		},
		{
			"mimeType":"image/png",
			"name":"Untitled",
			"uri":"Untitled.png"
		}
	],
	"accessors":[
		{
			"bufferView":0,
			"componentType":5126,
			"count":1380,
			"max":[
				0.09516754001379013,
				0.09516747295856476,
				-0.09550225734710693
			],
			"min":[
				-0.09516754001379013,
				-0.09516752511262894,
				-0.30657580494880676
			],
			"type":"VEC3"
		},
		{
			"bufferView":1,
			"componentType":5126,
			"count":1380,
			"type":"VEC3"
		},
		{
			"bufferView":2,
			"componentType":5126,
			"count":1380,
			"type":"VEC2"
		},
		{
			"bufferView":3,
			"componentType":5123,
			"count":7296,
			"type":"SCALAR"
		},
		{
			"bufferView":4,
			"componentType":5126,
			"count":1006,
			"max":[
				0.07078870385885239,
				0.2721259295940399,
				0.07078867405653
			],
			"min":[
				-0.07078870385885239,
				0,
				-0.07078872621059418
			],
			"type":"VEC3"
		},
		{
			"bufferView":5,
			"componentType":5126,
			"count":1006,
			"type":"VEC3"
		},
		{
			"bufferView":6,
			"componentType":5126,
			"count":1006,
			"type":"VEC2"
		},
		{
			"bufferView":7,
			"componentType":5123,
			"count":5082,
			"type":"SCALAR"
		},
		{
			"bufferView":8,
			"componentType":5126,
			"count":4,
			"max":[
				1,
				0,
				1
			],
			"min":[
				-1,
				0,
				-1
			],
			"type":"VEC3"
		},
		{
			"bufferView":9,
			"componentType":5126,
			"count":4,
			"type":"VEC3"
		},
		{
			"bufferView":10,
			"componentType":5126,
			"count":4,
			"type":"VEC2"
		},
		{
			"bufferView":11,
			"componentType":5123,
			"count":6,
			"type":"SCALAR"
		}
	],
	"bufferViews":[
		{
			"buffer":0,
			"byteLength":16560,
			"byteOffset":0,
			"target":34962
		},
		{
			"buffer":0,
			"byteLength":16560,
			"byteOffset":16560,
			"target":34962
		},
		{
			"buffer":0,
			"byteLength":11040,
			"byteOffset":33120,
			"target":34962
		},
		{
			"buffer":0,
			"byteLength":14592,
			"byteOffset":44160,
			"target":34963
		},
		{
			"buffer":0,
			"byteLength":12072,
			"byteOffset":58752,
			"target":34962
		},
		{
			"buffer":0,
			"byteLength":12072,
			"byteOffset":70824,
			"target":34962
		},
		{
			"buffer":0,
			"byteLength":8048,
			"byteOffset":82896,
			"target":34962
		},
		{
			"buffer":0,
			"byteLength":10164,
			"byteOffset":90944,
			"target":34963
		},
		{
			"buffer":0,
			"byteLength":48,
			"byteOffset":101108,
			"target":34962
		},
		{
			"buffer":0,
			"byteLength":48,
			"byteOffset":101156,
			"target":34962
		},
		{
			"buffer":0,
			"byteLength":32,
			"byteOffset":101204,
			"target":34962
		},
		{
			"buffer":0,
			"byteLength":12,
			"byteOffset":101236,
			"target":34963
		}
	],
	"samplers":[
		{
			"magFilter":9729,
			"minFilter":9987
		}
	],
	"buffers":[
		{
			"byteLength":101248,
			"uri":"khronos%20glass%20holder.bin"
		}
	]
}
