{
	"asset":{
		"generator":"Khronos glTF Blender I/O v5.2.39",
		"version":"2.0"
	},
	"extensionsUsed":[
		"KHR_materials_emissive_strength"
	],
	"scene":0,
	"scenes":[
		{
			"name":"Scene",
			"nodes":[
				0,
				2,
				3
			]
		}
	],
	"nodes":[
		{
			"camera":0,
			"name":"Camera",
			"rotation":[
				-0.07310279458761215,
				-0.8522669672966003,
				-0.12387782335281372,
				0.502942681312561
			],
			"translation":[
				-9.0837984085083,
				2.4103031158447266,
				-3.07316255569458
			]
		},
		{
			"mesh":0,
			"name":"Circle",
			"translation":[
				0.2161717265844345,
				0.04322119802236557,
				-0.025173582136631012
			]
		},
		{
			"children":[
				1
			],
			"mesh":1,
			"name":"Icosphere"
		},
		{
			"mesh":2,
			"name":"Plane"
		}
	],
	"cameras":[
		{
			"name":"Camera",
			"perspective":{
				"aspectRatio":1.7777777777777777,
				"yfov":0.8293779899043591,
				"zfar":100,
				"znear":0.10000000149011612
			},
			"type":"perspective"
		}
	],
	"materials":[
		{
			"doubleSided":true,
			"name":"Material.003",
			"pbrMetallicRoughness":{
				"baseColorFactor":[
					0.800000011920929,
					0.800000011920929,
					0.800000011920929,
					1
				],
				"roughnessFactor":0
			}
		},
		{
			"doubleSided":true,
			"emissiveFactor":[
				1,
				1,
				1
			],
			"extensions":{
				"KHR_materials_emissive_strength":{
					"emissiveStrength":164.19998168945312
				}
			},
			"name":"Material.002",
			"pbrMetallicRoughness":{
				"baseColorFactor":[
					0.800000011920929,
					0.800000011920929,
					0.800000011920929,
					1
				],
				"metallicFactor":0,
				"roughnessFactor":0.5
			}
		},
		{
			"doubleSided":true,
			"name":"Material.001",
			"pbrMetallicRoughness":{
				"baseColorTexture":{
					"index":0
				},
				"metallicRoughnessTexture":{
					"index":1
				},
				"roughnessFactor":0.5
			}
		}
	],
	"meshes":[
		{
			"name":"Circle",
			"primitives":[
				{
					"attributes":{
						"POSITION":0,
						"NORMAL":1,
						"TEXCOORD_0":2
					},
					"indices":3,
					"material":0
				}
			]
		},
		{
			"name":"Icosphere",
			"primitives":[
				{
					"attributes":{
						"POSITION":4,
						"NORMAL":5,
						"TEXCOORD_0":6
					},
					"indices":7,
					"material":1
				}
			]
		},
		{
			"name":"Plane",
			"primitives":[
				{
					"attributes":{
						"POSITION":8,
						"NORMAL":9,
						"TEXCOORD_0":10
					},
					"indices":11,
					"material":2
				}
			]
		}
	],
	"textures":[
		{
			"sampler":0,
			"source":0
		},
		{
			"sampler":0,
			"source":1
		}
	],
	"images":[
		{
			"mimeType":"image/png",
			"name":"checkerboard",
			"uri":"checkerboard.png"
		},
		{
			"mimeType":"image/png",
			"name":"checkerboard",
			"uri":"checkerboard-1.png"
		}
	],
	"accessors":[
		{
			"bufferView":0,
			"componentType":5126,
			"count":960,
			"max":[
				0.37907806038856506,
				1.268692970275879,
				0.8046383857727051
			],
			"min":[
				-0.7934402823448181,
				-0.09713524580001831,
				-0.6031427979469299
			],
			"type":"VEC3"
		},
		{
			"bufferView":1,
			"componentType":5126,
			"count":960,
			"type":"VEC3"
		},
		{
			"bufferView":2,
			"componentType":5126,
			"count":960,
			"type":"VEC2"
		},
		{
			"bufferView":3,
			"componentType":5123,
			"count":1524,
			"type":"SCALAR"
		},
		{
			"bufferView":4,
			"componentType":5126,
			"count":240,
			"max":[
				0.09927978366613388,
				0.8304638862609863,
				0.13334234058856964
			],
			"min":[
				-0.09927978366613388,
				0.5686076879501343,
				-0.13334234058856964
			],
			"type":"VEC3"
		},
		{
			"bufferView":5,
			"componentType":5126,
			"count":240,
			"type":"VEC3"
		},
		{
			"bufferView":6,
			"componentType":5126,
			"count":240,
			"type":"VEC2"
		},
		{
			"bufferView":7,
			"componentType":5123,
			"count":240,
			"type":"SCALAR"
		},
		{
			"bufferView":8,
			"componentType":5126,
			"count":4,
			"max":[
				11.032718658447266,
				0,
				11.032718658447266
			],
			"min":[
				-11.032718658447266,
				0,
				-11.032718658447266
			],
			"type":"VEC3"
		},
		{
			"bufferView":9,
			"componentType":5126,
			"count":4,
			"type":"VEC3"
		},
		{
			"bufferView":10,
			"componentType":5126,
			"count":4,
			"type":"VEC2"
		},
		{
			"bufferView":11,
			"componentType":5123,
			"count":6,
			"type":"SCALAR"
		}
	],
	"bufferViews":[
		{
			"buffer":0,
			"byteLength":11520,
			"byteOffset":0,
			"target":34962
		},
		{
			"buffer":0,
			"byteLength":11520,
			"byteOffset":11520,
			"target":34962
		},
		{
			"buffer":0,
			"byteLength":7680,
			"byteOffset":23040,
			"target":34962
		},
		{
			"buffer":0,
			"byteLength":3048,
			"byteOffset":30720,
			"target":34963
		},
		{
			"buffer":0,
			"byteLength":2880,
			"byteOffset":33768,
			"target":34962
		},
		{
			"buffer":0,
			"byteLength":2880,
			"byteOffset":36648,
			"target":34962
		},
		{
			"buffer":0,
			"byteLength":1920,
			"byteOffset":39528,
			"target":34962
		},
		{
			"buffer":0,
			"byteLength":480,
			"byteOffset":41448,
			"target":34963
		},
		{
			"buffer":0,
			"byteLength":48,
			"byteOffset":41928,
			"target":34962
		},
		{
			"buffer":0,
			"byteLength":48,
			"byteOffset":41976,
			"target":34962
		},
		{
			"buffer":0,
			"byteLength":32,
			"byteOffset":42024,
			"target":34962
		},
		{
			"buffer":0,
			"byteLength":12,
			"byteOffset":42056,
			"target":34963
		}
	],
	"samplers":[
		{
			"magFilter":9729,
			"minFilter":9987
		}
	],
	"buffers":[
		{
			"byteLength":42068,
			"uri":"flashlight.bin"
		}
	]
}
