{
	"asset":{
		"generator":"Khronos glTF Blender I/O v5.2.39",
		"version":"2.0"
	},
	"extensionsUsed":[
		"KHR_materials_transmission",
		"KHR_materials_emissive_strength",
		"KHR_materials_volume"
	],
	"scene":0,
	"scenes":[
		{
			"name":"Scene",
			"nodes":[
				0,
				1,
				2,
				3,
				4,
				5,
				6
			]
		}
	],
	"nodes":[
		{
			"camera":0,
			"name":"Camera",
			"rotation":[
				-0.0588211864233017,
				0.3628678321838379,
				0.022958889603614807,
				0.9296989440917969
			],
			"translation":[
				7.447537899017334,
				1.9770418405532837,
				7.962490081787109
			]
		},
		{
			"mesh":0,
			"name":"Flowers1",
			"scale":[
				10.470032691955566,
				10.470032691955566,
				10.470032691955566
			],
			"translation":[
				-0.5591878890991211,
				0.39880475401878357,
				-0.012684094719588757
			]
		},
		{
			"mesh":0,
			"name":"Flowers2",
			"scale":[
				10.470032691955566,
				10.470032691955566,
				10.470032691955566
			],
			"translation":[
				0.6972159147262573,
				0.39880475401878357,
				-0.012684094719588757
			]
		},
		{
			"mesh":1,
			"name":"GlassAlpha",
			"rotation":[
				0.70710688829422,
				0,
				0,
				0.7071066498756409
			],
			"scale":[
				10.470032691955566,
				10.47003173828125,
				10.47003173828125
			],
			"translation":[
				-0.5756441354751587,
				0.0005023479461669922,
				0.010472399182617664
			]
		},
		{
			"mesh":2,
			"name":"GlassTransmission",
			"rotation":[
				0.70710688829422,
				0,
				0,
				0.7071066498756409
			],
			"scale":[
				10.470032691955566,
				10.47003173828125,
				10.47003173828125
			],
			"translation":[
				0.6807597875595093,
				0.0005023479461669922,
				0.010472399182617664
			]
		},
		{
			"mesh":3,
			"name":"Plane",
			"scale":[
				1.4074625968933105,
				1.4074625968933105,
				1.4074625968933105
			],
			"translation":[
				0,
				4.465694427490234,
				0
			]
		},
		{
			"mesh":4,
			"name":"Plane.001",
			"scale":[
				6.122590065002441,
				6.122590065002441,
				6.122590065002441
			]
		}
	],
	"cameras":[
		{
			"name":"Camera",
			"perspective":{
				"aspectRatio":1.7777777777777777,
				"yfov":0.39959652046304894,
				"zfar":100,
				"znear":0.10000000149011612
			},
			"type":"perspective"
		}
	],
	"materials":[
		{
			"alphaMode":"MASK",
			"doubleSided":true,
			"name":"Flowers",
			"normalTexture":{
				"index":0
			},
			"pbrMetallicRoughness":{
				"baseColorTexture":{
					"index":1
				},
				"metallicFactor":0,
				"metallicRoughnessTexture":{
					"index":2
				}
			}
		},
		{
			"alphaMode":"BLEND",
			"name":"GlassAlpha",
			"pbrMetallicRoughness":{
				"baseColorFactor":[
					0.15000000596046448,
					0.15000000596046448,
					0.15000000596046448,
					0.30000001192092896
				],
				"metallicFactor":0,
				"roughnessFactor":0
			}
		},
		{
			"doubleSided":false,
			"extensions":{
				"KHR_materials_transmission":{
					"transmissionFactor":1
				},
				"KHR_materials_volume":{
					"attenuationColor":[
						1,
						1,
						1
					],
					"thicknessFactor":0.07500000298023224,
					"thicknessTexture":{
						"index":3
					}
				}
			},
			"name":"GlassTransmission",
			"pbrMetallicRoughness":{
				"metallicFactor":0,
				"roughnessFactor":0
			}
		},
		{
			"doubleSided":true,
			"emissiveFactor":[
				1,
				1,
				1
			],
			"extensions":{
				"KHR_materials_emissive_strength":{
					"emissiveStrength":21.399999618530273
				}
			},
			"name":"Material.001",
			"pbrMetallicRoughness":{
				"baseColorFactor":[
					0.800000011920929,
					0.800000011920929,
					0.800000011920929,
					1
				],
				"metallicFactor":0,
				"roughnessFactor":0.5
			}
		},
		{
			"doubleSided":true,
			"name":"Material.002",
			"pbrMetallicRoughness":{
				"baseColorTexture":{
					"index":4
				},
				"metallicRoughnessTexture":{
					"index":5
				},
				"roughnessFactor":0.5
			}
		}
	],
	"meshes":[
		{
			"name":"Flowers",
			"primitives":[
				{
					"attributes":{
						"POSITION":0,
						"NORMAL":1,
						"TEXCOORD_0":2
					},
					"indices":3,
					"material":0
				}
			]
		},
		{
			"name":"GlassAlpha",
			"primitives":[
				{
					"attributes":{
						"POSITION":4,
						"NORMAL":5,
						"TEXCOORD_0":6
					},
					"indices":7,
					"material":1
				}
			]
		},
		{
			"name":"GlassTransmission",
			"primitives":[
				{
					"attributes":{
						"POSITION":8,
						"NORMAL":9,
						"TEXCOORD_0":10
					},
					"indices":7,
					"material":2
				}
			]
		},
		{
			"name":"Plane",
			"primitives":[
				{
					"attributes":{
						"POSITION":11,
						"NORMAL":12,
						"TEXCOORD_0":13
					},
					"indices":14,
					"material":3
				}
			]
		},
		{
			"name":"Plane.001",
			"primitives":[
				{
					"attributes":{
						"POSITION":15,
						"NORMAL":16,
						"TEXCOORD_0":17
					},
					"indices":14,
					"material":4
				}
			]
		}
	],
	"textures":[
		{
			"sampler":0,
			"source":0
		},
		{
			"sampler":0,
			"source":1
		},
		{
			"sampler":0,
			"source":2
		},
		{
			"sampler":0,
			"source":3
		},
		{
			"sampler":0,
			"source":4
		},
		{
			"sampler":0,
			"source":5
		}
	],
	"images":[
		{
			"mimeType":"image/jpeg",
			"name":"Image_0",
			"uri":"Image_0.jpg"
		},
		{
			"mimeType":"image/png",
			"name":"Image_1",
			"uri":"Image_1.png"
		},
		{
			"mimeType":"image/jpeg",
			"name":"Image_2",
			"uri":"Image_2.jpg"
		},
		{
			"mimeType":"image/png",
			"name":"Image_3",
			"uri":"Image_3.png"
		},
		{
			"mimeType":"image/png",
			"name":"Image_0",
			"uri":"Image_0.png"
		},
		{
			"mimeType":"image/png",
			"name":"Image_0",
			"uri":"Image_0-1.png"
		}
	],
	"accessors":[
		{
			"bufferView":0,
			"componentType":5126,
			"count":2561,
			"max":[
				0.04218536615371704,
				0.16517722606658936,
				0.07641257345676422
			],
			"min":[
				-0.055089086294174194,
				0.0001005843369057402,
				-0.06608054041862488
			],
			"type":"VEC3"
		},
		{
			"bufferView":1,
			"componentType":5126,
			"count":2561,
			"type":"VEC3"
		},
		{
			"bufferView":2,
			"componentType":5126,
			"count":2561,
			"type":"VEC2"
		},
		{
			"bufferView":3,
			"componentType":5123,
			"count":11454,
			"type":"SCALAR"
		},
		{
			"bufferView":4,
			"componentType":5126,
			"count":1714,
			"max":[
				0.03841704502701759,
				0.03737087920308113,
				0
			],
			"min":[
				-0.03632475063204765,
				-0.03737091273069382,
				-0.1410609483718872
			],
			"type":"VEC3"
		},
		{
			"bufferView":5,
			"componentType":5126,
			"count":1714,
			"type":"VEC3"
		},
		{
			"bufferView":6,
			"componentType":5126,
			"count":1714,
			"type":"VEC2"
		},
		{
			"bufferView":7,
			"componentType":5123,
			"count":9600,
			"type":"SCALAR"
		},
		{
			"bufferView":8,
			"componentType":5126,
			"count":1714,
			"max":[
				0.03841704502701759,
				0.03737087920308113,
				0
			],
			"min":[
				-0.03632475063204765,
				-0.03737091273069382,
				-0.1410609483718872
			],
			"type":"VEC3"
		},
		{
			"bufferView":9,
			"componentType":5126,
			"count":1714,
			"type":"VEC3"
		},
		{
			"bufferView":10,
			"componentType":5126,
			"count":1714,
			"type":"VEC2"
		},
		{
			"bufferView":11,
			"componentType":5126,
			"count":4,
			"max":[
				1,
				0,
				1
			],
			"min":[
				-1,
				0,
				-1
			],
			"type":"VEC3"
		},
		{
			"bufferView":12,
			"componentType":5126,
			"count":4,
			"type":"VEC3"
		},
		{
			"bufferView":13,
			"componentType":5126,
			"count":4,
			"type":"VEC2"
		},
		{
			"bufferView":14,
			"componentType":5123,
			"count":6,
			"type":"SCALAR"
		},
		{
			"bufferView":15,
			"componentType":5126,
			"count":4,
			"max":[
				1,
				0,
				1
			],
			"min":[
				-1,
				0,
				-1
			],
			"type":"VEC3"
		},
		{
			"bufferView":16,
			"componentType":5126,
			"count":4,
			"type":"VEC3"
		},
		{
			"bufferView":17,
			"componentType":5126,
			"count":4,
			"type":"VEC2"
		}
	],
	"bufferViews":[
		{
			"buffer":0,
			"byteLength":30732,
			"byteOffset":0,
			"target":34962
		},
		{
			"buffer":0,
			"byteLength":30732,
			"byteOffset":30732,
			"target":34962
		},
		{
			"buffer":0,
			"byteLength":20488,
			"byteOffset":61464,
			"target":34962
		},
		{
			"buffer":0,
			"byteLength":22908,
			"byteOffset":81952,
			"target":34963
		},
		{
			"buffer":0,
			"byteLength":20568,
			"byteOffset":104860,
			"target":34962
		},
		{
			"buffer":0,
			"byteLength":20568,
			"byteOffset":125428,
			"target":34962
		},
		{
			"buffer":0,
			"byteLength":13712,
			"byteOffset":145996,
			"target":34962
		},
		{
			"buffer":0,
			"byteLength":19200,
			"byteOffset":159708,
			"target":34963
		},
		{
			"buffer":0,
			"byteLength":20568,
			"byteOffset":178908,
			"target":34962
		},
		{
			"buffer":0,
			"byteLength":20568,
			"byteOffset":199476,
			"target":34962
		},
		{
			"buffer":0,
			"byteLength":13712,
			"byteOffset":220044,
			"target":34962
		},
		{
			"buffer":0,
			"byteLength":48,
			"byteOffset":233756,
			"target":34962
		},
		{
			"buffer":0,
			"byteLength":48,
			"byteOffset":233804,
			"target":34962
		},
		{
			"buffer":0,
			"byteLength":32,
			"byteOffset":233852,
			"target":34962
		},
		{
			"buffer":0,
			"byteLength":12,
			"byteOffset":233884,
			"target":34963
		},
		{
			"buffer":0,
			"byteLength":48,
			"byteOffset":233896,
			"target":34962
		},
		{
			"buffer":0,
			"byteLength":48,
			"byteOffset":233944,
			"target":34962
		},
		{
			"buffer":0,
			"byteLength":32,
			"byteOffset":233992,
			"target":34962
		}
	],
	"samplers":[
		{
			"magFilter":9729,
			"minFilter":9987
		}
	],
	"buffers":[
		{
			"byteLength":234024,
			"uri":"khronos%20glass%20vase.bin"
		}
	]
}
