{
	"asset":{
		"generator":"Khronos glTF Blender I/O v5.2.39",
		"version":"2.0"
	},
	"scene":0,
	"scenes":[
		{
			"name":"Scene",
			"nodes":[
				0,
				1,
				2
			]
		}
	],
	"nodes":[
		{
			"camera":0,
			"name":"Camera",
			"rotation":[
				-0.20997299253940582,
				0.3857799470424652,
				0.09062844514846802,
				0.8937962055206299
			],
			"translation":[
				7.358891487121582,
				4.958309173583984,
				6.925790786743164
			]
		},
		{
			"mesh":0,
			"name":"GeoSphere001",
			"rotation":[
				-0.70710688829422,
				0,
				0,
				0.7071066498756409
			],
			"scale":[
				2.433396577835083,
				2.433396816253662,
				2.433396816253662
			],
			"translation":[
				-1.3383681774139404,
				0,
				0
			]
		},
		{
			"mesh":1,
			"name":"GeoSphere002",
			"rotation":[
				-0.70710688829422,
				0,
				0,
				0.7071066498756409
			],
			"scale":[
				2.433396577835083,
				2.433396816253662,
				2.433396816253662
			],
			"translation":[
				1.3383681774139404,
				0,
				0
			]
		}
	],
	"cameras":[
		{
			"name":"Camera",
			"perspective":{
				"aspectRatio":1.7777777777777777,
				"yfov":0.39959652046304894,
				"zfar":100,
				"znear":0.10000000149011612
			},
			"type":"perspective"
		}
	],
	"materials":[
		{
			"name":"glTF Logo.002",
			"pbrMetallicRoughness":{
				"baseColorTexture":{
					"index":0
				},
				"metallicFactor":0,
				"roughnessFactor":0
			}
		},
		{
			"name":"glTF Logo Roughness",
			"pbrMetallicRoughness":{
				"baseColorTexture":{
					"index":1
				},
				"metallicFactor":0,
				"metallicRoughnessTexture":{
					"index":2
				},
				"roughnessFactor":0.5
			}
		}
	],
	"meshes":[
		{
			"name":"GeoSphere001.002",
			"primitives":[
				{
					"attributes":{
						"POSITION":0,
						"NORMAL":1,
						"TEXCOORD_0":2
					},
					"indices":3,
					"material":0
				}
			]
		},
		{
			"name":"GeoSphere002.002",
			"primitives":[
				{
					"attributes":{
						"POSITION":4,
						"NORMAL":5,
						"TEXCOORD_0":6
					},
					"indices":3,
					"material":1
				}
			]
		}
	],
	"textures":[
		{
			"sampler":0,
			"source":0
		},
		{
			"sampler":0,
			"source":0
		},
		{
			"sampler":0,
			"source":1
		}
	],
	"images":[
		{
			"mimeType":"image/jpeg",
			"name":"Image_0",
			"uri":"Image_0.jpg"
		},
		{
			"mimeType":"image/jpeg",
			"name":"Image_1",
			"uri":"Image_1.jpg"
		}
	],
	"accessors":[
		{
			"bufferView":0,
			"componentType":5126,
			"count":673,
			"max":[
				0.5,
				0.5,
				0.5
			],
			"min":[
				-0.5,
				-0.5,
				-0.5
			],
			"type":"VEC3"
		},
		{
			"bufferView":1,
			"componentType":5126,
			"count":673,
			"type":"VEC3"
		},
		{
			"bufferView":2,
			"componentType":5126,
			"count":673,
			"type":"VEC2"
		},
		{
			"bufferView":3,
			"componentType":5123,
			"count":3840,
			"type":"SCALAR"
		},
		{
			"bufferView":4,
			"componentType":5126,
			"count":673,
			"max":[
				0.5,
				0.5,
				0.5
			],
			"min":[
				-0.5,
				-0.5,
				-0.5
			],
			"type":"VEC3"
		},
		{
			"bufferView":5,
			"componentType":5126,
			"count":673,
			"type":"VEC3"
		},
		{
			"bufferView":6,
			"componentType":5126,
			"count":673,
			"type":"VEC2"
		}
	],
	"bufferViews":[
		{
			"buffer":0,
			"byteLength":8076,
			"byteOffset":0,
			"target":34962
		},
		{
			"buffer":0,
			"byteLength":8076,
			"byteOffset":8076,
			"target":34962
		},
		{
			"buffer":0,
			"byteLength":5384,
			"byteOffset":16152,
			"target":34962
		},
		{
			"buffer":0,
			"byteLength":7680,
			"byteOffset":21536,
			"target":34963
		},
		{
			"buffer":0,
			"byteLength":8076,
			"byteOffset":29216,
			"target":34962
		},
		{
			"buffer":0,
			"byteLength":8076,
			"byteOffset":37292,
			"target":34962
		},
		{
			"buffer":0,
			"byteLength":5384,
			"byteOffset":45368,
			"target":34962
		}
	],
	"samplers":[
		{
			"magFilter":9729,
			"minFilter":9987
		}
	],
	"buffers":[
		{
			"byteLength":50752,
			"uri":"khronos%20specular%20balls.bin"
		}
	]
}
